<svg width="1126" height="214" xmlns="http://www.w3.org/2000/svg" xmlns:xlink="http://www.w3.org/1999/xlink" xml:space="preserve" overflow="hidden"><defs><clipPath id="clip0"><rect x="77" y="226" width="1126" height="214"/></clipPath></defs><g clip-path="url(#clip0)" transform="translate(-77 -226)"><path d="M36.7812 166.352 0 166.352 59.3516 0.208984 99.3094 0.208984 158.243 166.352 120.25 166.352 109.591 131.911 48.2754 131.911ZM57.3453 103.447 99.6855 103.447 79.4977 37.7844 79.1215 37.7844Z" fill="#005CB9" transform="matrix(1.00223 0 0 1 77 226)"/><path d="M356.026 166.352 323.215 166.352 323.215 91.577C323.215 73.3535 314.898 67.4602 305.41 67.4602 289.193 67.4602 283.257 78.1184 283.257 92.7473L283.257 166.352 250.405 166.352 250.405 91.9531C250.405 81.6711 250.405 67.0422 230.635 67.0422 215.212 67.0422 210.447 77.7422 210.447 91.159L210.447 166.352 178.013 166.352 178.013 42.9254 209.277 42.9254 209.277 61.107 209.653 61.107C214 53.2074 223.112 39.7488 244.888 39.7488 262.693 39.7488 270.969 46.0602 279.287 59.5187 283.634 53.5836 292.745 39.7488 312.515 39.7488 337.05 39.7488 356.026 54.0016 356.026 80.877Z" fill="#005CB9" transform="matrix(1.00223 0 0 1 77 226)"/><path d="M418.554 60.7309 418.93 60.7309C424.865 50.825 433.977 39.7488 455.335 39.7488 482.252 39.7488 505.951 60.7309 505.951 103.029 505.951 136.676 490.946 169.11 454.541 169.11 432.012 169.11 424.071 156.864 420.142 150.134L419.724 150.134 419.724 213.791 387.666 213.791 387.666 42.9254 418.554 42.9254ZM446.641 142.611C467.205 142.611 473.141 120.041 473.141 105.412 473.141 86.018 466.411 67.8363 445.847 67.8363 423.695 67.8363 418.554 87.6062 418.554 107.376 418.554 125.6 426.454 142.611 446.641 142.611Z" fill="#005CB9" transform="matrix(1.00223 0 0 1 77 226)"/><path d="M640.871 166.352 608.437 166.352 608.437 91.577C608.437 82.4652 608.019 67.4602 587.455 67.4602 573.202 67.4602 562.126 77.3242 562.126 95.9238L562.126 166.352 530.11 166.352 530.11 0.208984 562.126 0.208984 562.126 59.1426 562.544 59.1426C566.515 48.8605 580.35 39.7488 598.155 39.7488 622.272 39.7488 640.871 54.0016 640.871 80.877Z" fill="#005CB9" transform="matrix(1.00223 0 0 1 77 226)"/><path d="M777.756 127.982C769.062 156.864 744.11 166.352 722.752 166.352 687.559 166.352 660.641 150.134 660.641 100.689 660.641 86.018 665.782 39.7488 720.369 39.7488 744.904 39.7488 779.345 51.2012 779.345 105.83L779.345 111.347 693.494 111.347C694.288 120.459 696.252 140.646 722.752 140.646 731.863 140.646 741.351 136.258 743.734 127.564L777.756 127.564ZM745.322 91.159C743.316 71.807 730.651 65.8719 719.993 65.8719 704.57 65.8719 696.252 75.3598 694.288 91.159Z" fill="#005CB9" transform="matrix(1.00223 0 0 1 77 226)"/><path d="M917.776 166.352 885.759 166.352 885.759 91.577C885.759 82.4652 885.341 67.4602 864.777 67.4602 850.525 67.4602 839.448 77.3242 839.448 95.9238L839.448 166.352 807.014 166.352 807.014 42.9254 837.86 42.9254 837.86 61.107 838.278 61.107C842.625 53.5836 851.737 39.7488 875.059 39.7488 899.176 39.7488 917.776 54.0016 917.776 80.877Z" fill="#005CB9" transform="matrix(1.00223 0 0 1 77 226)"/><path d="M1004.84 166.352C971.61 166.352 941.516 146.54 941.516 103.029 941.516 59.5187 971.61 39.7488 1004.84 39.7488 1038.07 39.7488 1068.12 59.5187 1068.12 103.029 1068.12 146.54 1038.07 166.352 1004.84 166.352ZM1004.84 66.248C979.886 66.248 975.163 87.6062 975.163 103.029 975.163 118.452 979.886 139.852 1004.84 139.852 1030.13 139.852 1034.47 118.452 1034.47 103.029 1034.47 87.6062 1030.13 66.248 1004.84 66.248Z" fill="#005CB9" transform="matrix(1.00223 0 0 1 77 226)"/><path d="M1123.5 166.352 1091.86 166.352 1091.86 0.208984 1123.5 0.208984Z" fill="#005CB9" transform="matrix(1.00223 0 0 1 77 226)"/></g></svg>