<svg width="618" height="250" xmlns="http://www.w3.org/2000/svg" xmlns:xlink="http://www.w3.org/1999/xlink" xml:space="preserve" overflow="hidden"><defs><clipPath id="clip0"><rect x="255" y="197" width="618" height="250"/></clipPath></defs><g clip-path="url(#clip0)" transform="translate(-255 -197)"><path d="M14.0478 222.761 9.47648 236.938 18.2339 236.938ZM21.8807 249.265 19.4666 241.278 8.01263 241.278 5.47016 249.265 0 249.265 11.2485 215.956 16.8214 215.956 27.4022 249.265 21.8807 249.265" fill="#231F20" transform="matrix(1 0 0 1.00068 255 197)"/><path d="M49.514 249.265 49.514 234.806 36.0055 234.806 36.0055 249.265 30.8949 249.265 30.8949 215.956 36.0055 215.956 36.0055 230.466 49.514 230.466 49.514 215.956 54.6503 215.956 54.6503 249.265 49.514 249.265" fill="#231F20" transform="matrix(1 0 0 1.00068 255 197)"/><path d="M61.122 249.265 61.122 215.956 81.2563 215.956 81.2563 220.296 66.2326 220.296 66.2326 230.466 77.3014 230.466 77.3014 234.806 66.2326 234.806 66.2326 244.925 81.2563 244.925 81.2563 249.265 61.122 249.265" fill="#231F20" transform="matrix(1 0 0 1.00068 255 197)"/><path d="M97.1532 222.761 92.5819 236.938 101.339 236.938ZM104.986 249.265 102.598 241.278 91.118 241.278 88.5755 249.265 83.1054 249.265 94.3539 215.956 99.9268 215.956 110.508 249.265 104.986 249.265" fill="#231F20" transform="matrix(1 0 0 1.00068 255 197)"/><path d="M127.278 244.925C128.305 244.925 129.152 244.796 129.769 244.514 130.411 244.231 130.924 243.795 131.335 243.23 131.566 242.947 131.746 242.562 131.9 242.151 132.054 241.714 132.183 241.124 132.285 240.328 132.388 239.557 132.465 238.556 132.517 237.323 132.542 236.09 132.568 234.524 132.568 232.623 132.568 230.723 132.542 229.13 132.517 227.898 132.465 226.665 132.388 225.663 132.285 224.893 132.183 224.123 132.054 223.506 131.9 223.095 131.746 222.659 131.566 222.299 131.335 221.991 130.924 221.426 130.411 221.015 129.769 220.733 129.152 220.45 128.305 220.296 127.278 220.296L119.111 220.296 119.111 244.925ZM113.975 249.265 113.975 215.956 127.175 215.956C128.099 215.956 128.947 216.033 129.717 216.161 130.488 216.29 131.181 216.469 131.823 216.701 132.44 216.957 133.03 217.24 133.544 217.574 134.058 217.908 134.52 218.293 134.956 218.729 135.521 219.243 135.984 219.911 136.343 220.707 136.703 221.477 137.011 222.428 137.242 223.558 137.447 224.662 137.602 225.972 137.704 227.461 137.807 228.976 137.858 230.671 137.858 232.623 137.858 234.549 137.807 236.27 137.704 237.759 137.602 239.249 137.447 240.559 137.242 241.689 137.011 242.793 136.703 243.743 136.343 244.539 135.984 245.336 135.521 246.003 134.956 246.517 134.52 246.928 134.058 247.313 133.544 247.673 133.03 248.006 132.44 248.289 131.823 248.546 131.181 248.777 130.488 248.957 129.717 249.085 128.947 249.213 128.099 249.265 127.175 249.265L113.975 249.265" fill="#231F20" transform="matrix(1 0 0 1.00068 255 197)"/><path d="M173.864 243.05C174.095 242.742 174.275 242.382 174.455 241.946 174.634 241.509 174.763 240.918 174.891 240.148 174.994 239.377 175.071 238.402 175.122 237.194 175.174 235.987 175.199 234.472 175.199 232.623 175.199 230.774 175.174 229.233 175.122 228.026 175.071 226.819 174.994 225.843 174.891 225.073 174.763 224.302 174.634 223.712 174.455 223.275 174.275 222.839 174.095 222.479 173.864 222.171 173.325 221.477 172.58 220.938 171.655 220.579 170.705 220.219 169.421 220.014 167.803 220.014 166.159 220.014 164.875 220.219 163.951 220.579 163.026 220.938 162.281 221.477 161.742 222.171 161.511 222.479 161.331 222.839 161.152 223.275 160.972 223.712 160.818 224.302 160.715 225.073 160.612 225.843 160.509 226.819 160.458 228.026 160.407 229.233 160.381 230.774 160.381 232.623 160.381 234.472 160.407 235.987 160.458 237.194 160.509 238.402 160.612 239.377 160.715 240.148 160.818 240.918 160.972 241.509 161.152 241.946 161.331 242.382 161.511 242.742 161.742 243.05 162.281 243.769 163.026 244.283 163.951 244.668 164.875 245.027 166.159 245.207 167.803 245.207 169.421 245.207 170.705 245.027 171.655 244.668 172.58 244.283 173.325 243.769 173.864 243.05ZM177.639 246.517C177.177 246.979 176.663 247.416 176.072 247.775 175.482 248.16 174.814 248.469 174.018 248.751 173.248 249.008 172.349 249.213 171.321 249.342 170.294 249.47 169.113 249.547 167.803 249.547 166.468 249.547 165.286 249.47 164.285 249.342 163.257 249.213 162.359 249.008 161.588 248.751 160.792 248.469 160.124 248.16 159.534 247.775 158.943 247.416 158.429 246.979 157.967 246.517 157.453 245.978 156.991 245.31 156.632 244.514 156.298 243.718 155.99 242.767 155.758 241.663 155.527 240.533 155.373 239.223 155.27 237.734 155.168 236.27 155.116 234.549 155.116 232.623 155.116 230.671 155.168 228.976 155.27 227.487 155.373 225.997 155.527 224.688 155.758 223.583 155.99 222.453 156.298 221.503 156.632 220.707 156.991 219.911 157.453 219.243 157.967 218.729 158.429 218.242 158.943 217.831 159.534 217.445 160.124 217.086 160.792 216.752 161.588 216.495 162.359 216.238 163.257 216.033 164.285 215.905 165.286 215.75 166.468 215.673 167.803 215.673 169.113 215.673 170.294 215.75 171.321 215.905 172.349 216.033 173.248 216.238 174.018 216.495 174.814 216.752 175.482 217.086 176.072 217.445 176.663 217.831 177.177 218.242 177.639 218.729 178.153 219.243 178.589 219.911 178.949 220.707 179.308 221.503 179.617 222.453 179.848 223.583 180.079 224.688 180.233 225.997 180.336 227.487 180.438 228.976 180.49 230.671 180.49 232.623 180.49 234.549 180.438 236.27 180.336 237.734 180.233 239.223 180.079 240.533 179.848 241.663 179.617 242.767 179.308 243.718 178.949 244.514 178.589 245.31 178.153 245.978 177.639 246.517" fill="#231F20" transform="matrix(1 0 0 1.00068 255 197)"/><path d="M186.525 249.265 186.525 215.956 206.685 215.956 206.685 220.296 191.661 220.296 191.661 230.466 202.704 230.466 202.704 234.806 191.661 234.806 191.661 249.265 186.525 249.265" fill="#231F20" transform="matrix(1 0 0 1.00068 255 197)"/><path d="M245.721 249.265 240.071 229.618 234.164 249.265 228.617 249.265 220.039 215.956 225.432 215.956 231.442 242.202 237.708 222.119 242.69 222.119 248.469 241.92 254.812 215.956 260.205 215.956 251.165 249.265 245.721 249.265" fill="#231F20" transform="matrix(1 0 0 1.00068 255 197)"/><path d="M282.599 249.265 282.599 234.806 269.091 234.806 269.091 249.265 263.98 249.265 263.98 215.956 269.091 215.956 269.091 230.466 282.599 230.466 282.599 215.956 287.736 215.956 287.736 249.265 282.599 249.265" fill="#231F20" transform="matrix(1 0 0 1.00068 255 197)"/><path d="M305.276 222.761 300.705 236.938 309.462 236.938ZM313.109 249.265 310.721 241.278 299.241 241.278 296.699 249.265 291.228 249.265 302.477 215.956 308.05 215.956 318.631 249.265 313.109 249.265" fill="#231F20" transform="matrix(1 0 0 1.00068 255 197)"/><path d="M325.128 249.265 325.128 220.296 316.704 220.296 316.704 215.956 338.714 215.956 338.714 220.296 330.264 220.296 330.264 249.265 325.128 249.265" fill="#231F20" transform="matrix(1 0 0 1.00068 255 197)"/><path d="M341.667 224.713C342.155 224.688 342.566 224.611 342.874 224.508 343.182 224.405 343.439 224.225 343.619 224.02 343.773 223.789 343.901 223.506 343.953 223.121 344.03 222.761 344.055 222.299 344.055 221.76L344.055 220.784 341.924 220.784 341.924 215.956 346.469 215.956 346.469 221.246C346.469 222.171 346.392 222.967 346.238 223.609 346.11 224.225 345.879 224.765 345.545 225.176 345.211 225.586 344.8 225.895 344.261 226.151 343.747 226.383 343.105 226.588 342.309 226.716L341.667 224.713" fill="#231F20" transform="matrix(1 0 0 1.00068 255 197)"/><path d="M367.913 224.148C367.888 223.686 367.811 223.224 367.682 222.736 367.554 222.248 367.271 221.811 366.886 221.4 366.475 221.015 365.859 220.681 365.088 220.424 364.292 220.142 363.214 220.014 361.827 220.014 359.67 220.014 358.026 220.399 356.87 221.144 355.715 221.888 355.15 223.07 355.15 224.713 355.15 225.535 355.355 226.203 355.766 226.716 356.151 227.204 356.716 227.59 357.384 227.872 358.077 228.155 358.848 228.36 359.747 228.514 360.646 228.643 361.596 228.771 362.572 228.874 363.342 228.951 364.164 229.079 365.011 229.208 365.859 229.336 366.681 229.541 367.503 229.798 368.299 230.055 369.095 230.415 369.814 230.825 370.559 231.262 371.201 231.827 371.766 232.495 372.305 233.188 372.742 234.036 373.075 235.012 373.409 236.013 373.563 237.194 373.563 238.556 373.563 240.353 373.281 241.946 372.742 243.307 372.177 244.693 371.38 245.823 370.353 246.748 369.326 247.673 368.067 248.366 366.604 248.854 365.114 249.316 363.445 249.547 361.596 249.547 359.721 249.547 358.129 249.316 356.819 248.854 355.509 248.392 354.431 247.801 353.583 247.082 352.71 246.388 352.042 245.618 351.554 244.771 351.066 243.923 350.707 243.101 350.501 242.305 350.27 241.535 350.116 240.841 350.065 240.225 350.013 239.634 349.988 239.223 349.988 239.018L355.073 239.018C355.073 239.737 355.175 240.482 355.381 241.201 355.586 241.946 355.946 242.613 356.459 243.204 356.947 243.795 357.615 244.283 358.463 244.642 359.284 245.027 360.337 245.207 361.596 245.207 362.623 245.207 363.548 245.079 364.395 244.822 365.217 244.565 365.91 244.18 366.501 243.641 367.092 243.127 367.528 242.485 367.836 241.714 368.145 240.944 368.299 240.045 368.299 239.018 368.299 237.939 368.119 237.092 367.759 236.475 367.4 235.859 366.86 235.371 366.141 235.012 365.422 234.678 364.549 234.395 363.47 234.215 362.392 234.036 361.159 233.83 359.721 233.65 358.488 233.471 357.307 233.214 356.151 232.931 354.996 232.649 353.943 232.212 353.044 231.622 352.145 231.005 351.426 230.209 350.861 229.233 350.322 228.232 350.039 226.922 350.039 225.355 350.039 225.021 350.065 224.559 350.142 223.943 350.219 223.352 350.373 222.684 350.604 221.965 350.861 221.246 351.246 220.527 351.708 219.782 352.196 219.038 352.864 218.344 353.712 217.754 354.559 217.137 355.638 216.649 356.896 216.264 358.154 215.879 359.695 215.673 361.493 215.673 363.06 215.673 364.369 215.776 365.422 215.93 366.475 216.11 367.348 216.315 368.042 216.598 368.735 216.88 369.3 217.214 369.711 217.548 370.148 217.908 370.533 218.267 370.867 218.627 371.586 219.397 372.099 220.27 372.408 221.221 372.716 222.171 372.87 223.147 372.87 224.148L367.913 224.148" fill="#231F20" transform="matrix(1 0 0 1.00068 255 197)"/><path d="M401.633 233.06C402.301 233.06 402.994 232.931 403.713 232.726 404.433 232.52 405.1 232.161 405.717 231.673 406.333 231.185 406.821 230.543 407.232 229.721 407.617 228.899 407.822 227.898 407.822 226.691 407.822 225.818 407.694 224.996 407.463 224.225 407.232 223.455 406.872 222.787 406.436 222.196 405.999 221.606 405.434 221.144 404.792 220.81 404.124 220.476 403.38 220.296 402.558 220.296L395.649 220.296 395.649 233.06ZM390.513 249.265 390.513 215.956 403.2 215.956C404.741 215.956 406.128 216.213 407.335 216.701 408.567 217.214 409.595 217.933 410.442 218.858 411.289 219.808 411.957 220.938 412.394 222.248 412.856 223.558 413.061 225.047 413.061 226.665 413.061 228.309 412.83 229.773 412.317 231.108 411.829 232.418 411.135 233.548 410.262 234.472 409.363 235.397 408.336 236.116 407.129 236.629 405.922 237.143 404.612 237.4 403.2 237.4L395.649 237.4 395.649 249.265 390.513 249.265" fill="#231F20" transform="matrix(1 0 0 1.00068 255 197)"/><path d="M436.098 243.05C436.329 242.742 436.534 242.382 436.714 241.946 436.868 241.509 437.022 240.918 437.125 240.148 437.228 239.377 437.305 238.402 437.356 237.194 437.408 235.987 437.433 234.472 437.433 232.623 437.433 230.774 437.408 229.233 437.356 228.026 437.305 226.819 437.228 225.843 437.125 225.073 437.022 224.302 436.868 223.712 436.714 223.275 436.534 222.839 436.329 222.479 436.098 222.171 435.559 221.477 434.839 220.938 433.889 220.579 432.939 220.219 431.681 220.014 430.037 220.014 428.419 220.014 427.109 220.219 426.185 220.579 425.26 220.938 424.515 221.477 424.002 222.171 423.771 222.479 423.565 222.839 423.385 223.275 423.206 223.712 423.077 224.302 422.949 225.073 422.846 225.843 422.769 226.819 422.718 228.026 422.666 229.233 422.641 230.774 422.641 232.623 422.641 234.472 422.666 235.987 422.718 237.194 422.769 238.402 422.846 239.377 422.949 240.148 423.077 240.918 423.206 241.509 423.385 241.946 423.565 242.382 423.771 242.742 424.002 243.05 424.515 243.769 425.26 244.283 426.185 244.668 427.109 245.027 428.419 245.207 430.037 245.207 431.681 245.207 432.939 245.027 433.889 244.668 434.839 244.283 435.559 243.769 436.098 243.05ZM439.873 246.517C439.411 246.979 438.897 247.416 438.306 247.775 437.741 248.16 437.048 248.469 436.278 248.751 435.481 249.008 434.583 249.213 433.555 249.342 432.528 249.47 431.372 249.547 430.037 249.547 428.702 249.547 427.546 249.47 426.519 249.342 425.491 249.213 424.592 249.008 423.822 248.751 423.052 248.469 422.358 248.16 421.768 247.775 421.177 247.416 420.663 246.979 420.227 246.517 419.687 245.978 419.251 245.31 418.891 244.514 418.532 243.718 418.223 242.767 418.018 241.663 417.787 240.533 417.607 239.223 417.53 237.734 417.427 236.27 417.376 234.549 417.376 232.623 417.376 230.671 417.427 228.976 417.53 227.487 417.607 225.997 417.787 224.688 418.018 223.583 418.223 222.453 418.532 221.503 418.891 220.707 419.251 219.911 419.687 219.243 420.227 218.729 420.663 218.242 421.177 217.831 421.768 217.445 422.358 217.086 423.052 216.752 423.822 216.495 424.592 216.238 425.491 216.033 426.519 215.905 427.546 215.75 428.702 215.673 430.037 215.673 431.372 215.673 432.528 215.75 433.555 215.905 434.583 216.033 435.481 216.238 436.278 216.495 437.048 216.752 437.741 217.086 438.306 217.445 438.897 217.831 439.411 218.242 439.873 218.729 440.387 219.243 440.823 219.911 441.208 220.707 441.568 221.503 441.85 222.453 442.082 223.583 442.313 224.688 442.467 225.997 442.57 227.487 442.672 228.976 442.724 230.671 442.724 232.623 442.724 234.549 442.672 236.27 442.57 237.734 442.467 239.223 442.313 240.533 442.082 241.663 441.85 242.767 441.568 243.718 441.208 244.514 440.823 245.31 440.387 245.978 439.873 246.517" fill="#231F20" transform="matrix(1 0 0 1.00068 255 197)"/><path d="M465.555 224.148C465.503 223.686 465.426 223.224 465.298 222.736 465.169 222.248 464.912 221.811 464.502 221.4 464.091 221.015 463.5 220.681 462.704 220.424 461.908 220.142 460.829 220.014 459.442 220.014 457.285 220.014 455.641 220.399 454.486 221.144 453.356 221.888 452.765 223.07 452.765 224.713 452.765 225.535 452.971 226.203 453.382 226.716 453.792 227.204 454.332 227.59 454.999 227.872 455.693 228.155 456.489 228.36 457.388 228.514 458.261 228.643 459.211 228.771 460.187 228.874 460.958 228.951 461.779 229.079 462.627 229.208 463.474 229.336 464.322 229.541 465.118 229.798 465.94 230.055 466.71 230.415 467.455 230.825 468.174 231.262 468.816 231.827 469.381 232.495 469.92 233.188 470.383 234.036 470.691 235.012 471.025 236.013 471.179 237.194 471.179 238.556 471.179 240.353 470.922 241.946 470.357 243.307 469.818 244.693 469.022 245.823 467.969 246.748 466.941 247.673 465.683 248.366 464.219 248.854 462.73 249.316 461.06 249.547 459.211 249.547 457.336 249.547 455.744 249.316 454.434 248.854 453.125 248.392 452.046 247.801 451.199 247.082 450.351 246.388 449.658 245.618 449.17 244.771 448.707 243.923 448.348 243.101 448.117 242.305 447.886 241.535 447.757 240.841 447.706 240.225 447.629 239.634 447.603 239.223 447.603 239.018L452.688 239.018C452.688 239.737 452.791 240.482 452.996 241.201 453.227 241.946 453.561 242.613 454.075 243.204 454.563 243.795 455.231 244.283 456.078 244.642 456.9 245.027 457.953 245.207 459.211 245.207 460.238 245.207 461.189 245.079 462.01 244.822 462.832 244.565 463.526 244.18 464.116 243.641 464.707 243.127 465.144 242.485 465.477 241.714 465.786 240.944 465.94 240.045 465.94 239.018 465.94 237.939 465.76 237.092 465.375 236.475 465.015 235.859 464.476 235.371 463.757 235.012 463.063 234.678 462.165 234.395 461.086 234.215 460.033 234.036 458.775 233.83 457.362 233.65 456.129 233.471 454.922 233.214 453.767 232.931 452.611 232.649 451.584 232.212 450.685 231.622 449.76 231.005 449.041 230.209 448.502 229.233 447.937 228.232 447.655 226.922 447.655 225.355 447.655 225.021 447.706 224.559 447.757 223.943 447.834 223.352 447.988 222.684 448.245 221.965 448.502 221.246 448.862 220.527 449.349 219.782 449.837 219.038 450.505 218.344 451.353 217.754 452.2 217.137 453.253 216.649 454.511 216.264 455.796 215.879 457.311 215.673 459.134 215.673 460.701 215.673 461.985 215.776 463.038 215.93 464.091 216.11 464.964 216.315 465.657 216.598 466.351 216.88 466.916 217.214 467.352 217.548 467.763 217.908 468.148 218.267 468.482 218.627 469.201 219.397 469.741 220.27 470.049 221.221 470.357 222.171 470.511 223.147 470.511 224.148L465.555 224.148" fill="#231F20" transform="matrix(1 0 0 1.00068 255 197)"/><path d="M493.265 224.148C493.239 223.686 493.162 223.224 493.034 222.736 492.905 222.248 492.623 221.811 492.212 221.4 491.801 221.015 491.21 220.681 490.414 220.424 489.618 220.142 488.539 220.014 487.153 220.014 484.995 220.014 483.352 220.399 482.222 221.144 481.066 221.888 480.501 223.07 480.501 224.713 480.501 225.535 480.707 226.203 481.092 226.716 481.503 227.204 482.042 227.59 482.735 227.872 483.403 228.155 484.199 228.36 485.098 228.514 485.997 228.643 486.922 228.771 487.923 228.874 488.694 228.951 489.49 229.079 490.337 229.208 491.21 229.336 492.032 229.541 492.828 229.798 493.65 230.055 494.421 230.415 495.165 230.825 495.91 231.262 496.552 231.827 497.091 232.495 497.656 233.188 498.093 234.036 498.427 235.012 498.735 236.013 498.915 237.194 498.915 238.556 498.915 240.353 498.632 241.946 498.067 243.307 497.528 244.693 496.732 245.823 495.705 246.748 494.677 247.673 493.419 248.366 491.929 248.854 490.44 249.316 488.796 249.547 486.947 249.547 485.047 249.547 483.455 249.316 482.17 248.854 480.861 248.392 479.782 247.801 478.909 247.082 478.061 246.388 477.394 245.618 476.906 244.771 476.418 243.923 476.058 243.101 475.827 242.305 475.596 241.535 475.468 240.841 475.416 240.225 475.365 239.634 475.339 239.223 475.339 239.018L480.398 239.018C480.398 239.737 480.501 240.482 480.732 241.201 480.938 241.946 481.297 242.613 481.785 243.204 482.299 243.795 482.967 244.283 483.788 244.642 484.636 245.027 485.689 245.207 486.947 245.207 487.974 245.207 488.899 245.079 489.721 244.822 490.543 244.565 491.262 244.18 491.852 243.641 492.417 243.127 492.88 242.485 493.188 241.714 493.496 240.944 493.65 240.045 493.65 239.018 493.65 237.939 493.47 237.092 493.111 236.475 492.726 235.859 492.212 235.371 491.493 235.012 490.774 234.678 489.875 234.395 488.822 234.215 487.743 234.036 486.485 233.83 485.072 233.65 483.84 233.471 482.658 233.214 481.477 232.931 480.321 232.649 479.294 232.212 478.395 231.622 477.496 231.005 476.752 230.209 476.212 229.233 475.647 228.232 475.365 226.922 475.365 225.355 475.365 225.021 475.416 224.559 475.468 223.943 475.545 223.352 475.699 222.684 475.956 221.965 476.212 221.246 476.572 220.527 477.06 219.782 477.548 219.038 478.216 218.344 479.063 217.754 479.91 217.137 480.963 216.649 482.247 216.264 483.506 215.879 485.047 215.673 486.845 215.673 488.411 215.673 489.721 215.776 490.748 215.93 491.801 216.11 492.674 216.315 493.368 216.598 494.061 216.88 494.626 217.214 495.063 217.548 495.473 217.908 495.859 218.267 496.193 218.627 496.912 219.397 497.451 220.27 497.759 221.221 498.067 222.171 498.221 223.147 498.221 224.148L493.265 224.148" fill="#231F20" transform="matrix(1 0 0 1.00068 255 197)"/><path d="M504.308 249.265 509.419 249.265 509.419 215.956 504.308 215.956Z" fill="#231F20" transform="matrix(1 0 0 1.00068 255 197)"/><path d="M529.373 244.925C530.169 244.925 530.863 244.771 531.479 244.462 532.07 244.128 532.583 243.718 532.994 243.23 533.405 242.716 533.713 242.151 533.919 241.56 534.124 240.944 534.227 240.353 534.227 239.763 534.227 238.992 534.124 238.299 533.893 237.682 533.662 237.092 533.354 236.552 532.969 236.142 532.558 235.705 532.07 235.371 531.505 235.14 530.965 234.935 530.323 234.806 529.656 234.806L521.104 234.806 521.104 244.925ZM528.269 230.466C529.27 230.466 530.118 230.312 530.811 229.952 531.505 229.618 532.07 229.208 532.506 228.72 532.943 228.206 533.251 227.667 533.456 227.076 533.636 226.485 533.739 225.946 533.739 225.458 533.739 223.66 533.225 222.325 532.198 221.529 531.196 220.707 529.707 220.296 527.781 220.296L521.104 220.296 521.104 230.466ZM515.993 249.265 515.993 215.956 529.476 215.956C530.914 215.956 532.172 216.136 533.2 216.495 534.227 216.88 535.1 217.343 535.819 217.908 536.538 218.473 537.103 219.089 537.514 219.782 537.925 220.476 538.259 221.144 538.49 221.811 538.695 222.453 538.85 223.044 538.927 223.583 538.978 224.123 539.029 224.508 539.029 224.765 539.029 225.33 538.978 225.946 538.85 226.639 538.747 227.307 538.516 227.975 538.208 228.643 537.899 229.31 537.488 229.952 536.949 230.569 536.435 231.185 535.742 231.724 534.92 232.187 536.435 232.906 537.565 233.882 538.336 235.166 539.106 236.424 539.492 237.888 539.492 239.531 539.492 239.917 539.44 240.405 539.389 241.021 539.338 241.663 539.183 242.331 538.952 243.024 538.721 243.743 538.413 244.488 537.976 245.233 537.54 245.978 536.949 246.645 536.204 247.236 535.46 247.827 534.535 248.315 533.431 248.7 532.326 249.085 531.017 249.265 529.476 249.265L515.993 249.265" fill="#231F20" transform="matrix(1 0 0 1.00068 255 197)"/><path d="M544.782 249.265 544.782 215.956 549.893 215.956 549.893 244.925 562.836 244.925 562.836 249.265 544.782 249.265" fill="#231F20" transform="matrix(1 0 0 1.00068 255 197)"/><path d="M566.868 249.265 566.868 215.956 587.002 215.956 587.002 220.296 571.979 220.296 571.979 230.466 583.047 230.466 583.047 234.806 571.979 234.806 571.979 244.925 587.002 244.925 587.002 249.265 566.868 249.265" fill="#231F20" transform="matrix(1 0 0 1.00068 255 197)"/><path d="M595.811 231.93 595.811 218.01 591.753 218.01 591.753 215.93 602.334 215.93 602.334 218.01 598.277 218.01 598.277 231.93 595.811 231.93" fill="#231F20" transform="matrix(1 0 0 1.00068 255 197)"/><path d="M616.228 231.93 616.228 220.219 612.299 228.334 610.321 228.334 606.52 220.322 606.52 231.93 604.183 231.93 604.183 215.93 606.931 215.93 611.4 225.33 615.868 215.93 618.539 215.93 618.539 231.93 616.228 231.93" fill="#231F20" transform="matrix(1 0 0 1.00068 255 197)"/><path d="M1.79771 1.74634 164.978 1.74634 164.978 166.493 1.79771 166.493ZM35.3891 27.4022 35.3891 145.589 137.704 85.1856ZM219.911 164.747 191.738 164.747 191.738 91.3235 220.065 91.3235C241.072 91.3235 253.656 108.016 253.656 129.255 253.656 150.519 242.459 164.747 219.911 164.747M244.899 74.6562 239.326 58.297 212.386 58.297 207.481 74.6562 192.791 74.6562 217.445 1.05294 232.315 1.05294 259.948 74.6562ZM218.678 103.805 207.121 103.805 207.121 153.319 219.551 153.319C235.987 153.319 238.453 139.271 238.273 128.562 238.273 120.138 234.241 103.805 218.678 103.805M234.241 43.5559 224.97 16.5132 216.752 43.3761 216.213 47.9474 234.421 47.9474C234.421 45.482 234.601 44.9683 234.241 43.5559M258.921 164.747 258.921 91.3235 312.775 91.3235 312.775 103.625 273.585 103.625 273.585 119.265 308.23 119.265 308.23 132.594 273.765 132.594 273.765 152.266 314.008 152.266 314.008 164.747ZM309.616 74.6562 277.437 24.9368 277.437 74.6562 262.748 74.6562 262.748 1.05294 277.797 1.05294 308.743 50.0533 308.743 1.05294 323.433 1.05294 323.433 74.6562ZM355.612 164.567 341.641 164.567 317.501 95.2014 317.501 91.3235 332.19 91.3235 348.627 145.075 364.729 91.5032 379.059 91.5032 379.059 95.3555ZM378.879 74.6562 373.281 58.297 346.341 58.297 341.461 74.6562 326.772 74.6562 351.426 1.05294 366.295 1.05294 393.929 74.6562ZM368.376 43.8897 359.13 16.1537 349.834 43.8897 349.834 47.9474 368.735 47.9474C368.735 45.482 368.735 45.1224 368.376 43.8897M383.605 91.5032 399.168 91.5032 399.168 164.567 383.605 164.567ZM397.062 74.6562 397.062 1.05294 411.598 1.05294 411.598 62.1749 444.29 62.1749 444.29 74.6562ZM437.818 166.493C397.781 167.392 390.77 89.7569 437.998 90.2705 464.245 90.2705 468.79 112.228 469.818 115.567L455.308 115.567C453.048 110.996 447.09 102.212 439.745 101.673 413.858 99.9268 413.858 154.911 439.745 154.911 452.174 154.911 455.154 142.43 455.847 141.043L469.997 141.043C469.997 141.197 468.251 166.159 437.818 166.493M478.061 75.8632C431.013 75.8632 432.759-0.359541 478.575 0 522.824 0.333859 524.057 75.8632 478.061 75.8632M477.522 63.5874C504.642 63.7415 504.642 12.8151 478.061 12.4555 451.635 12.2758 450.762 63.4077 477.522 63.5874M472.643 164.747 472.643 91.3235 524.571 91.3235 524.571 104.678 486.613 104.678 486.613 119.779 520.205 119.779 520.205 132.953 486.793 132.953 486.793 152.266 526.317 152.266 526.317 164.747ZM571.285 72.8841 571.285 65.8731C569.693 67.2599 562.708 76.2227 549.584 75.8632 504.822 74.8103 504.642 1.05294 551.69 0.154089 563.042 0.154089 572.492 7.3706 576.165 12.4555 580.556 18.2596 580.89 23.1904 581.07 24.4231L568.64 24.4231C565.841 19.8261 561.475 12.1217 551.177 12.1217 523.877 11.7621 522.131 63.5874 550.997 64.1011 563.761 64.4349 570.232 51.1062 570.232 50.9264L570.232 47.0742 552.743 47.0742 552.743 35.6459 582.816 35.6459 582.816 72.8841ZM557.623 166.673C526.677 166.673 527.01 142.789 527.01 142.789L541.007 142.789C541.007 142.789 539.954 154.372 555.543 155.425 559.395 155.604 571.979 154.038 571.979 145.255 571.979 135.059 559.215 135.573 551.177 133.313 543.113 131.181 527.909 127.688 527.909 113.461 527.909 100.98 538.028 90.2705 557.623 90.2705 583.869 90.4503 583.69 110.816 583.869 112.048L570.412 112.048C569.513 109.069 568.64 101.853 556.929 101.519 551.177 101.519 542.419 103.445 542.419 110.302 542.419 118.905 552.204 120.138 562.528 121.705 578.091 124.709 587.028 129.435 586.489 143.842 586.155 156.477 574.958 166.673 557.623 166.673" fill="#231F20" transform="matrix(1 0 0 1.00068 255 197)"/></g></svg>