<?xml version="1.0" encoding="UTF-8" standalone="no"?>
<!-- Created with Inkscape (http://www.inkscape.org/) -->

<svg
   version="1.1"
   id="svg59"
   width="590.86151"
   height="74.126846"
   viewBox="0 0 590.86151 74.126846"
   sodipodi:docname="bourns-logo.svg"
   inkscape:version="1.2 (dc2aedaf03, 2022-05-15)"
   xmlns:inkscape="http://www.inkscape.org/namespaces/inkscape"
   xmlns:sodipodi="http://sodipodi.sourceforge.net/DTD/sodipodi-0.dtd"
   xmlns="http://www.w3.org/2000/svg"
   xmlns:svg="http://www.w3.org/2000/svg">
  <defs
     id="defs63" />
  <sodipodi:namedview
     id="namedview61"
     pagecolor="#ffffff"
     bordercolor="#000000"
     borderopacity="0.25"
     inkscape:showpageshadow="2"
     inkscape:pageopacity="0.0"
     inkscape:pagecheckerboard="0"
     inkscape:deskcolor="#d1d1d1"
     showgrid="false"
     inkscape:zoom="1.6091667"
     inkscape:cx="168.72087"
     inkscape:cy="-36.354221"
     inkscape:window-width="2400"
     inkscape:window-height="1321"
     inkscape:window-x="4791"
     inkscape:window-y="-9"
     inkscape:window-maximized="1"
     inkscape:current-layer="g65" />
  <g
     inkscape:groupmode="layer"
     inkscape:label="Image"
     id="g65"
     transform="translate(-13.641669,-414.40034)">
    <g
       id="g177"
       transform="translate(9.321595,322.52719)">
      <path
         style="fill:#8c8c8c;fill-opacity:1"
         d="m 329.32007,144 v -6.5 l 0.40333,3.25 0.40332,3.25 -0.40332,3.25 -0.40333,3.25 z m 155.0581,-5 v -11.5 l 0.36082,5.75 0.36082,5.75 -0.36082,5.75 -0.36082,5.75 z m -35.50573,5.25 -1.37244,-1.75 1.75,1.37244 1.75,1.37245 V 145.62244 146 h -0.37756 -0.37755 z m -247,-2 -1.37244,-1.75 1.75,1.37244 1.75,1.37245 V 143.62244 144 h -0.37756 -0.37755 z M 398.99665,123.297 398.5,108.09399 l 0.7785,0.78151 0.77851,0.78151 -0.28186,14.42149 -0.28186,14.4215 z M 165,133.62244 v -0.37755 l 1.75,-1.37245 1.75,-1.37244 -1.37244,1.75 -1.37245,1.75 H 165.37756 165 Z M 497.87244,132.25 496.5,130.5 l 1.75,1.37244 1.75,1.37245 V 133.62244 134 h -0.37756 -0.37755 z M 197.38536,121 v -12.5 l 0.35504,6.25 0.35503,6.25 -0.35503,6.25 -0.35504,6.25 z m 72,0 v -12.5 l 0.35504,6.25 0.35503,6.25 -0.35503,6.25 -0.35504,6.25 z m 165.01963,9.75 -1.90499,-2.25 2.25,1.90499 2.25,1.90499 V 132.65499 133 h -0.34501 -0.34501 z m 21.46745,0.5 -1.37244,-1.75 1.75,1.37244 1.75,1.37245 V 132.62244 133 h -0.37756 -0.37755 z m -200.49837,-11.75 0.004,-11 0.36191,5.78651 0.36191,5.78652 -0.36601,5.21348 -0.36602,5.21349 0.004,-11 z m 305.49837,5.75 -1.37244,-1.75 1.75,1.37244 1.75,1.37245 V 126.62244 127 h -0.37756 -0.37755 z M 114.15789,124 v -2.5 l 0.50439,1.25 0.50439,1.25 -0.50439,1.25 -0.50439,1.25 z m 72.07411,-1 v -3.5 l 0.45733,1.75 0.45732,1.75 -0.45732,1.75 -0.45733,1.75 z M 88,121.62244 v -0.37755 L 89.75,119.87244 91.5,118.5 90.127555,120.25 88.755111,122 H 88.377555 88 Z M 419.87244,117.25 418.5,115.5 l 1.75,1.37244 1.75,1.37245 V 118.62244 119 h -0.37756 -0.37755 z M 564.37817,107 V 95.5 l 0.36082,5.75 0.36082,5.75 -0.36082,5.75 -0.36082,5.75 z m -126.94108,6.75 -2.93709,-3.25 3.25,2.93709 3.25,2.93709 V 116.68709 117 h -0.31291 -0.31291 z M 375.15789,112 v -2.5 l 0.50439,1.25 0.50439,1.25 -0.50439,1.25 -0.50439,1.25 z m 110,-1 v -2.5 l 0.50439,1.25 0.50439,1.25 -0.50439,1.25 -0.50439,1.25 z M 178.87244,106.25 177.5,104.5 l 1.75,1.37244 1.75,1.37245 V 107.62244 108 h -0.37756 -0.37755 z M 584,104.55902 v -1.44099 l 0.90674,-0.56039 0.90674,-0.5604 -0.52337,2.00138 L 584.76674,106 H 584.38337 584 Z M 88.872445,102.25 87.5,100.5 l 1.75,1.37244 1.75,1.37245 V 103.62244 104 h -0.377555 -0.377556 z m 332.051865,-4 -2.42431,-2.75 2.75,2.424314 2.75,2.424316 V 100.67431 101 h -0.32569 -0.32568 z m 163.53457,1.683469 -0.65915,-1.066531 0.4766,-0.476597 0.47659,-0.476597 0.59216,1.543128 L 585.93723,101 h -0.4096 -0.4096 z"
         id="path183" />
      <path
         style="fill:#606060;fill-opacity:1"
         d="m 135.8125,152.31689 1.3125,-0.52522 0.60417,0.60416 0.60416,0.60417 -1.91666,-0.0789 -1.91667,-0.0789 1.3125,-0.52522 z m 386.9375,0.0208 1.25,-0.50439 1.25,0.50439 1.25,0.50439 h -2.5 -2.5 z m 10,0 1.25,-0.50439 1.25,0.50439 1.25,0.50439 H 534 531.5 Z M 349.87244,149.25 348.5,147.5 l 1.75,1.37244 1.75,1.37245 V 150.62244 151 h -0.37756 -0.37755 z M 425.32007,144 v -6.5 l 0.40333,3.25 0.40332,3.25 -0.40332,3.25 -0.40333,3.25 z M 561,144.62244 v -0.37755 l 1.75,-1.37245 1.75,-1.37244 -1.37244,1.75 -1.37245,1.75 H 561.37756 561 Z M 444.92431,140.25 442.5,137.5 l 2.75,2.42431 2.75,2.42432 V 142.67431 143 h -0.32569 -0.32568 z m 76.88819,1.06689 1.3125,-0.52522 0.60417,0.60416 0.60416,0.60417 -1.91666,-0.0789 -1.91667,-0.0789 1.3125,-0.52522 z m -383.0625,-0.97917 1.25,-0.50439 1.25,0.50439 1.25,0.50439 h -2.5 -2.5 z m 7.0625,-0.0208 1.3125,-0.52522 0.60417,0.60416 0.60416,0.60417 -1.91666,-0.0789 -1.91667,-0.0789 1.3125,-0.52522 z m 225.26645,-0.90022 0.0789,-1.91667 0.52522,1.3125 0.52522,1.3125 -0.60416,0.60417 -0.60417,0.60416 0.079,-1.91666 z M 93.252183,135.5 l 0.02018,-4 0.434897,2.26166 0.434897,2.26166 -0.455078,1.73834 -0.455077,1.73834 z m 208.147757,-12 0.003,-15 0.34164,7.79571 0.34164,7.7957 -0.34419,7.2043 -0.34419,7.20429 0.003,-15 z M 412.18025,124.80902 412,111.11803 l 0.75,-0.46669 0.75,-0.4667 -0.26499,9.65768 -0.26498,9.65768 -0.30477,4.5 -0.30476,4.5 z M 337.87244,132.25 336.5,130.5 l 1.75,1.37244 1.75,1.37245 V 133.62244 134 h -0.37756 -0.37755 z m 210,0 -1.37244,-1.75 1.75,1.37244 1.75,1.37245 V 133.62244 134 h -0.37756 -0.37755 z M 211.37817,120 v -11.5 l 0.36082,5.75 0.36082,5.75 -0.36082,5.75 -0.36082,5.75 z M 27.8676,128.73076 28.638474,127.96153 51.569237,128.2323 74.5,128.50307 50.798362,129.00153 27.096725,129.5 Z M 429.92431,126.25 427.5,123.5 l 2.75,2.42431 2.75,2.42432 V 128.67431 129 h -0.32569 -0.32568 z m 86.34472,2.05701 1.76903,-0.46099 1.23097,0.49804 1.23097,0.49805 -3,-0.0371 -3,-0.037 1.76903,-0.46099 z m 8.98097,-0.0233 2.75,-0.41659 2.75,0.41659 2.75,0.41659 h -5.5 -5.5 z m -38,-1 2.75,-0.41659 2.75,0.41659 2.75,0.41659 H 490 484.5 Z M 88.404988,124.75 86.5,122.5 l 2.25,1.90499 2.25,1.90499 V 126.65499 127 H 90.654988 90.309975 Z M 98.157895,124 v -2.5 l 0.504386,1.25 0.504386,1.25 -0.504386,1.25 -0.504386,1.25 z M 442.40499,118.75 440.5,116.5 l 2.25,1.90499 2.25,1.90499 V 120.65499 121 h -0.34501 -0.34501 z m -26,-5 -1.90499,-2.25 2.25,1.90499 2.25,1.90499 V 115.65499 116 h -0.34501 -0.34501 z m -324.152807,-2.25 0.02018,-4 0.434897,2.26166 0.434897,2.26166 -0.455078,1.73834 L 92.232002,115.5 Z M 4.3200741,102 v -6.5 l 0.4033215,3.25 0.4033214,3.25 -0.4033214,3.25 -0.4033215,3.25 z m 178.9999959,0 v -6.5 l 0.40333,3.25 0.40332,3.25 -0.40332,3.25 -0.40333,3.25 z m 100,0 v -6.5 l 0.40333,3.25 0.40332,3.25 -0.40332,3.25 -0.40333,3.25 z m 163,0 v -6.5 l 0.40333,3.25 0.40332,3.25 -0.40332,3.25 -0.40333,3.25 z m 37,0 v -6.5 l 0.40333,3.25 0.40332,3.25 -0.40332,3.25 -0.40333,3.25 z M 582,102 v -6.333333 l 0.41395,0.416666 0.41396,0.416667 0.27604,5.22666 0.27605,5.22667 -0.69,0.69 -0.69,0.69 z m 5.97994,4.47583 -1.26494,-1.52416 0.6425,-0.6425 0.6425,-0.6425 v 1.28329 1.2833 l 2.05715,-0.53795 2.05715,-0.53796 -1.17959,1.42132 L 589.75511,108 H 589.5 589.24489 Z M 424.87244,102.25 423.5,100.5 l 1.75,1.37244 1.75,1.37245 V 103.62244 104 h -0.37756 -0.37755 z"
         id="path181" />
      <path
         style="fill:#333333;fill-opacity:1"
         d="M 5,164.6815 V 163.363 L 6.4283355,158.4315 7.856671,153.5 13.428336,131.78197 19,110.06394 V 109.03197 108 H 12 5 v -6.05641 -6.056419 L 41.75,96.193585 78.5,96.5 l 4.592145,2.123943 4.592145,2.123947 2.157855,3.03042 L 92,106.80874 v 5.01891 5.0189 l -2.596087,3.08527 -2.596086,3.08528 3.096086,3.52624 3.096087,3.52625 -0.0037,4.71521 -0.0037,4.7152 -1.878202,3.08004 -1.878202,3.08003 -3.86806,1.91997 L 81.5,149.5 51.53236,150 l -29.967639,0.5 -1.345797,4.76881 -1.345797,4.76881 -6.574879,2.98119 L 5.7233692,166 H 5.3616846 5 Z m 72.40384,-27.98753 1.7861,-1.30603 L 78.84497,132.969 78.5,130.55006 76,129.28977 73.5,128.02948 50.725249,128.01474 27.950498,128 l -0.828823,2.25 -0.828823,2.25 -0.665478,2.75 -0.665478,2.75 H 50.289818 75.617741 Z M 76.065741,116.96482 78,115.92963 V 113 110.07037 L 76.065741,109.03518 74.131483,108 H 53.659744 33.188004 L 31.594002,112.67814 30,117.35628 V 117.67814 118 h 22.065741 22.065742 z m 281.571519,36.63005 -3.86274,-1.43671 -2.96441,-2.82908 -2.9644,-2.82908 -4.55604,-7.29762 -4.55604,-7.29763 -3.82698,-1.95237 L 331.07968,128 H 323.03984 315 v 5 5 h 7 7 v 6 6 h -21 -21 v -6 -6 h 7.52673 7.52674 L 301.77673,123.25 301.5,108.5 294.25,108.20619 287,107.91238 v -6.01198 -6.011982 l 37.25,0.305791 37.25,0.305791 4.4613,2.5 4.4613,2.5 2.2887,3.39788 2.2887,3.39789 v 3.45098 3.45099 l -1.65629,3.49037 -1.65628,3.49037 -3.79082,2.50864 -3.79081,2.50864 -7.3029,0.65212 -7.3029,0.65212 3.64271,2.78686 3.64271,2.78685 2.15334,5.00556 2.15333,5.00557 2.45396,1.11809 2.45395,1.1181 2.40648,-1.09646 2.40647,-1.09647 0.67298,-3.06405 L 372.15891,138 H 377.57946 383 v 2.7656 2.7656 l -1.84163,3.43391 -1.84162,3.43391 -3.59635,1.86634 -3.59635,1.86634 -5.31203,0.44995 -5.31202,0.44994 z m 1.19713,-37.19143 2.27941,-1.59655 -0.3069,-2.12841 -0.3069,-2.12842 -2.5,-1.26029 -2.5,-1.26029 -20.25,-0.0147 L 315,108 v 5 5 h 20.77749 20.7775 z m -225.45312,35.59702 -5.11873,-0.75003 -6.68484,-2.22457 -6.68484,-2.22457 -4.69643,-3.57298 L 105.5,139.65534 104.22748,138.07767 102.95495,136.5 100.97748,132.78984 99,129.07968 v -5.3435 -5.34349 l 2.59479,-5.20707 2.59479,-5.20707 4.23487,-3.47016 4.23487,-3.47015 4.69365,-2.076227 4.69365,-2.076225 6.72669,-1.42553 6.72669,-1.425531 h 7.5 7.5 l 6.63107,1.405525 6.63107,1.405524 5.15483,2.612152 5.15484,2.612152 3.90566,3.52853 3.90567,3.52854 2.05843,4.25215 2.05843,4.25215 v 5.48793 5.48793 l -2.61752,5.25268 -2.61752,5.25268 -5.13248,3.86622 -5.13248,3.86622 -5,1.96289 -5,1.9629 -7.19155,1.11455 L 146.11689,153 142.30845,152.87524 138.5,152.75049 Z m 23.58718,-13.48933 4.39421,-1.55037 3.31972,-2.53207 3.31972,-2.53208 1.49895,-2.89864 1.49895,-2.89865 -0.007,-3.29966 -0.007,-3.29966 -1.82678,-2.7704 -1.82678,-2.7704 -3.40391,-2.51132 -3.40391,-2.51133 -4.94422,-1.46827 L 150.637,106 H 143 135.363 l -5.01988,1.49075 -5.01989,1.49074 -3.38782,2.28305 -3.38782,2.28305 -2.27379,3.37409 -2.2738,3.37409 0.007,3.10211 0.007,3.10212 1.82678,2.7704 1.82678,2.7704 3.32187,2.45079 3.32186,2.4508 4.59477,1.47413 4.59476,1.47414 2.5,0.48111 2.5,0.48111 7.03712,-0.39569 7.03713,-0.39569 4.3942,-1.55037 z M 520,151.97665 l -6.5,-0.79513 -5,-1.6821 -5,-1.6821 -2.21482,-1.40866 L 499.07037,145 H 498.53518 498 v 2.5 2.5 h -6.5 -6.5 v -11 -11 h 5.5 5.5 v 1.4272 1.42719 l 3.75,3.10243 3.75,3.10243 6.5,2.03408 6.5,2.03407 8.5,0.5637 8.5,0.56369 5.78514,-1.20559 5.78514,-1.20559 2.71486,-2.36121 2.71486,-2.36122 -1.05823,-1.73012 -1.05822,-1.73012 -3.94178,-1.3891 -3.94177,-1.38911 -15.5,-0.47698 -15.5,-0.47699 -5.74855,-1.44332 -5.74855,-1.44332 -4.04068,-2.06139 -4.04068,-2.0614 -1.95703,-3.20967 -1.95703,-3.20966 v -3.5 -3.5 l 2.02251,-3.31734 2.02252,-3.31735 5.32956,-2.439952 5.32956,-2.439953 5.89419,-1.099439 5.89418,-1.09944 11,0.452904 11,0.452904 7,2.489983 7,2.489983 1.75,0.77084 1.75,0.77084 V 98.606989 96 h 6 6 v 11 11 h -5.37868 -5.37868 l -1.25847,-3.03822 -1.25848,-3.03823 -4.34885,-2.54859 -4.34885,-2.5486 -5.264,-1.40131 -5.26399,-1.40131 -8.30718,-0.0119 -8.30718,-0.0119 -4.36058,1.09801 -4.36058,1.098 -2.22901,2.37268 -2.22902,2.37268 1.31453,1.58391 1.31453,1.58391 2.08225,1.17229 2.08224,1.17229 18,0.66194 18,0.66194 5.08838,1.60192 5.08839,1.60192 3.41161,2.2607 3.41162,2.2607 2.35762,4.75171 2.35761,4.75171 -0.58589,2.33437 -0.58588,2.33436 -2.11626,2.69038 -2.11625,2.69038 -3.88415,1.98155 -3.88416,1.98154 -6.27132,1.39431 -6.27132,1.3943 -7,0.48214 -7,0.48215 -6.5,-0.79514 z m -301.9458,-2.53328 -6.4458,-1.39764 -4.53534,-2.80398 -4.53533,-2.80398 L 200.26886,139.071 198,135.70423 V 121.85212 108 h -7 -7 v -6 -6 h 21 21 v 5.95619 5.95619 l -7.25,0.29381 -7.25,0.29381 -0.28112,11.07558 -0.28112,11.07558 2.08606,2.65199 2.08606,2.652 5.12656,1.52243 L 225.363,139 h 7.637 7.637 l 5.30126,-1.57431 5.30126,-1.5743 2.38024,-2.38024 L 256,131.09091 V 119.54545 108 h -7 -7 v -6 -6 h 20.5 20.5 v 6 6 h -7 -7 v 13.76787 13.76786 l -2.38583,3.51107 -2.38583,3.51107 -4.9508,2.69456 -4.9508,2.69456 -6.41337,1.51173 -6.41337,1.51172 -8.5,-0.0647 -8.5,-0.0647 -6.4458,-1.39763 z M 387,144 v -6 h 6.5 6.5 v -15 -15 h -6.5 -6.5 v -6 -6 l 15.75,0.007 15.75,0.007 19.5,18.45065 19.5,18.45064 0.75,0.0424 0.75,0.0424 v -12.5 -12.5 h -6 -6 v -6 -6.000004 h 18 18 v 6.000004 6 h -5.5 -5.5 v 21 21 h -8.10015 -8.10014 L 435.14985,130.75 414.5,111.5 l -0.33541,-0.75623 -0.33541,-0.75623 -0.91459,0.56525 L 412,111.11803 V 124.55902 138 h 6.5 6.5 v 6 6 h -19 -19 z m 193.46308,-36.2781 -2.64845,-2.2781 -0.10206,-3.60022 -0.10205,-3.600216 1.66086,-2.534785 1.66085,-2.534784 2.9609,-0.650322 2.96089,-0.650321 2.93214,1.516266 2.93213,1.516265 1.23164,2.97344 1.23164,2.973437 -0.70572,2.32372 -0.70572,2.32372 -2.05938,2.25 -2.05938,2.25 h -3.26992 -3.26992 z M 591.25,105.80232 593,103.77843 v -2.70065 -2.700657 L 590.96104,96.188561 588.92209,94 h -2.64659 -2.6466 L 581.31445,96.174314 579,98.348628 v 2.391432 2.39142 l 1.06537,1.99067 1.06537,1.99066 2.18463,0.87089 2.18463,0.87089 2,-0.51419 2,-0.51419 z M 583.13618,101.25 583,96 h 2.37756 2.37755 l 1.28006,1.542382 1.28007,1.542381 -1.0846,1.084597 -1.08459,1.08459 0.90223,2.37302 L 589.9505,106 h -0.90786 -0.90786 l -0.63478,-2 -0.63478,-2 h -1.36306 -1.36306 l -0.43337,2.25 -0.43337,2.25 z m 4.61429,-2 0.4162,-1.25 H 586.08333 584 v 1.573324 1.573326 l 1.66713,-0.32333 1.66714,-0.32332 z"
         id="path179" />
    </g>
  </g>
</svg>
