<?xml version="1.0" encoding="UTF-8" standalone="no"?>
<!-- Created with Inkscape (http://www.inkscape.org/) -->

<svg
   width="274.48285mm"
   height="64.005676mm"
   viewBox="0 0 274.48285 64.005676"
   version="1.1"
   id="svg5"
   inkscape:version="1.1.1 (3bf5ae0d25, 2021-09-20)"
   sodipodi:docname="littelfuse-logo.svg"
   xmlns:inkscape="http://www.inkscape.org/namespaces/inkscape"
   xmlns:sodipodi="http://sodipodi.sourceforge.net/DTD/sodipodi-0.dtd"
   xmlns="http://www.w3.org/2000/svg"
   xmlns:svg="http://www.w3.org/2000/svg">
  <sodipodi:namedview
     id="namedview7"
     pagecolor="#505050"
     bordercolor="#ffffff"
     borderopacity="1"
     inkscape:pageshadow="0"
     inkscape:pageopacity="0"
     inkscape:pagecheckerboard="1"
     inkscape:document-units="mm"
     showgrid="false"
     inkscape:zoom="0.74118967"
     inkscape:cx="496.49909"
     inkscape:cy="397.33419"
     inkscape:window-width="1920"
     inkscape:window-height="1017"
     inkscape:window-x="1072"
     inkscape:window-y="-8"
     inkscape:window-maximized="1"
     inkscape:current-layer="g21" />
  <defs
     id="defs2" />
  <g
     inkscape:label="Layer 1"
     inkscape:groupmode="layer"
     id="layer1"
     transform="translate(26.578229,-43.417624)">
    <g
       id="g21"
       transform="translate(0,-73.179087)">
      <path
         style="fill:#bddecd;stroke-width:0.176389"
         d="m -19.8528,170.44572 c 0.0085,-0.20549 0.05026,-0.24728 0.106569,-0.10657 0.05095,0.12733 0.04469,0.27946 -0.01393,0.33808 -0.05861,0.0586 -0.100302,-0.0456 -0.09264,-0.23151 z m 228.90579,-0.72316 c 0.12733,-0.051 0.27947,-0.0447 0.33808,0.0139 0.0586,0.0586 -0.0456,0.1003 -0.23151,0.0926 -0.20549,-0.008 -0.24728,-0.0503 -0.10657,-0.10657 z M 81.28864,153.70347 c 1e-5,-8.82826 0.02149,-12.41399 0.04773,-7.96828 0.02624,4.44571 0.02623,11.66884 -2e-5,16.05139 -0.02625,4.38255 -0.04772,0.74515 -0.04771,-8.08311 z m 81.66726,2.99861 c 2e-5,-7.17903 0.0219,-10.0902 0.0485,-6.46927 0.0266,3.62093 0.0266,9.49468 -4e-5,13.05278 -0.0267,3.5581 -0.0485,0.59552 -0.0485,-6.58351 z m 25.28666,11.7125 c -0.0322,-0.68864 0.002,-1.28864 0.0737,-1.33332 0.0728,-0.0447 0.13229,0.51875 0.13229,1.25208 0,0.73333 -0.0332,1.33332 -0.0737,1.33332 -0.0405,0 -0.10008,-0.56343 -0.13229,-1.25208 z m -10.22345,0.23785 c -0.21939,-0.27977 -0.21317,-0.286 0.0666,-0.0666 0.16978,0.13315 0.30868,0.27205 0.30868,0.30868 0,0.14518 -0.14485,0.0517 -0.37528,-0.24208 z m -63.67639,-0.52917 c -0.2194,-0.27976 -0.21316,-0.286 0.0666,-0.0666 0.29382,0.23043 0.38726,0.37528 0.24209,0.37528 -0.0366,0 -0.17554,-0.1389 -0.30869,-0.30868 z m 103.03362,-0.48507 c 0.22784,-0.24253 0.45395,-0.44097 0.50246,-0.44097 0.0485,0 -0.0982,0.19844 -0.32607,0.44097 -0.22784,0.24254 -0.45396,0.44097 -0.50246,0.44097 -0.0485,0 0.0982,-0.19843 0.32607,-0.44097 z m -67.48514,-5.02708 c 0,-1.60073 0.0267,-2.25557 0.0594,-1.45521 0.0327,0.80036 0.0327,2.11005 0,2.91042 -0.0327,0.80036 -0.0594,0.14552 -0.0594,-1.45521 z m -37.03114,-9.26042 c -3e-5,-5.33576 0.0224,-7.54404 0.0498,-4.90728 0.0274,2.63676 0.0275,7.00239 5e-5,9.70139 -0.0274,2.699 -0.0498,0.54166 -0.0499,-4.79411 z m 8.29013,-0.26458 c 0,-5.19024 0.0225,-7.31353 0.05,-4.7184 0.0275,2.59512 0.0275,6.84168 0,9.4368 -0.0275,2.59512 -0.05,0.47184 -0.05,-4.7184 z m 113.06402,6.2618 0.007,-2.46944 h 4.14514 4.14514 l 0.007,2.46944 0.007,2.46945 -0.0562,-2.42535 -0.0562,-2.42535 h -4.04726 -4.04726 l -0.0562,2.42535 -0.0562,2.42535 0.007,-2.46945 z M 68.76531,144.35486 c 9e-6,-9.60438 0.02136,-13.50755 0.04745,-8.67373 0.02609,4.83382 0.02608,12.69195 -1.5e-5,17.4625 -0.0261,4.77055 -0.04745,0.8156 -0.04744,-8.78877 z m 119.59317,5.29166 0.002,-11.64166 4.32153,-0.005 4.32153,-0.005 -4.27618,0.0521 -4.27616,0.0521 -0.0473,11.59443 -0.0472,11.59444 0.002,-11.64167 z m 42.98696,11.28889 c 0.004,-0.29104 0.0431,-0.38875 0.0879,-0.21713 0.0447,0.17163 0.0418,0.40975 -0.007,0.52917 -0.0483,0.11942 -0.0849,-0.021 -0.0813,-0.31204 z m -31.59407,-0.0147 c 0.008,-0.20548 0.0503,-0.24728 0.10657,-0.10657 0.051,0.12733 0.0447,0.27947 -0.0139,0.33808 -0.0586,0.0586 -0.10032,-0.0456 -0.0927,-0.23151 z m -63.82578,-2.01378 c 0,-0.33955 0.0363,-0.47845 0.0807,-0.30868 0.0444,0.16978 0.0444,0.44759 0,0.61736 -0.0444,0.16978 -0.0807,0.0309 -0.0807,-0.30868 z m 73.31435,-1.36701 c -0.21939,-0.27977 -0.21316,-0.286 0.0666,-0.0666 0.29381,0.23043 0.38726,0.37528 0.24207,0.37528 -0.0366,0 -0.17552,-0.13891 -0.30868,-0.30868 z m 21.93566,-0.39688 c 0,-0.33955 0.0363,-0.47845 0.0807,-0.30868 0.0444,0.16978 0.0444,0.44759 0,0.61736 -0.0444,0.16978 -0.0807,0.0309 -0.0807,-0.30868 z m -90.20963,-0.30823 c 1.19398,-0.0306 3.09898,-0.0305 4.23333,1.8e-4 1.13435,0.0307 0.15745,0.0557 -2.17088,0.0556 -2.32833,-1.1e-4 -3.25644,-0.0252 -2.06245,-0.0558 z m -5.18683,-1.72024 c 0.0169,-0.3451 0.14203,-0.35286 5.74997,-0.35656 l 5.73264,-0.004 -5.67659,0.0503 c -5.21906,0.0462 -5.68251,0.075 -5.74997,0.35656 -0.0548,0.22884 -0.069,0.21708 -0.056,-0.0465 z m 100.95309,-0.39553 5.68576,-0.0503 0.0512,-4.89235 0.0512,-4.89236 -0.004,4.93889 -0.004,4.93889 -5.73264,0.004 -5.73264,0.004 5.68575,-0.0503 z m -21.84784,-2.82357 c -0.21939,-0.27976 -0.21317,-0.286 0.0666,-0.0666 0.29381,0.23042 0.38726,0.37527 0.24208,0.37527 -0.0366,0 -0.17553,-0.1389 -0.30868,-0.30868 z M -8.8865163,151.20063 c 0.1697743,-0.0444 0.4475868,-0.0444 0.6173612,0 0.1697743,0.0444 0.030868,0.0807 -0.3086806,0.0807 -0.3395486,0 -0.4784549,-0.0363 -0.3086806,-0.0807 z m -13.4815567,-0.53975 c 2.359294,-0.0278 6.169295,-0.0278 8.466667,7e-5 2.297374,0.0278 0.367042,0.0506 -4.289625,0.0505 -4.656666,-3e-5 -6.536335,-0.0228 -4.177042,-0.0506 z m 46.63022,3e-5 c 2.588274,-0.0275 6.874524,-0.0275 9.525,-5e-5 2.650476,0.0274 0.532797,0.0499 -4.705953,0.05 -5.238751,3e-5 -7.407322,-0.0224 -4.819047,-0.0499 z m 111.517133,-4.27758 c 0,-1.50371 0.0271,-2.11887 0.0601,-1.36701 0.0331,0.75185 0.0331,1.98217 0,2.73402 -0.0331,0.75186 -0.0601,0.13671 -0.0601,-1.36701 z m 98.42361,0.26458 c 0,-1.35819 0.028,-1.8905 0.0615,-1.1829 0.0336,0.70759 0.0333,1.81884 0,2.46944 -0.0339,0.6506 -0.0613,0.0717 -0.061,-1.28654 z m -256.306245,1.89629 c 2.504889,-0.0276 6.553014,-0.0276 8.995834,6e-5 2.44282,0.0276 0.393366,0.0502 -4.554343,0.0502 -4.947708,-3e-5 -6.946379,-0.0226 -4.441491,-0.0503 z m 231.260855,-1.49941 -0.33602,-0.39688 0.39687,0.33602 c 0.37296,0.31578 0.47717,0.45773 0.33602,0.45773 -0.0335,0 -0.21207,-0.17859 -0.39687,-0.39687 z m 10.21198,-0.66146 c 0,-0.53358 0.0331,-0.75186 0.0735,-0.48507 0.0404,0.26679 0.0404,0.70335 0,0.97014 -0.0404,0.26679 -0.0735,0.0485 -0.0735,-0.48507 z m -7.60973,-0.70556 c 0,-0.24253 0.04,-0.34175 0.089,-0.22048 0.0489,0.12127 0.0489,0.3197 0,0.44097 -0.0489,0.12127 -0.089,0.0221 -0.089,-0.22049 z m -3.89449,-1.16122 c 0.008,-0.20549 0.0503,-0.24728 0.10657,-0.10657 0.051,0.12733 0.0447,0.27946 -0.0139,0.33808 -0.0586,0.0586 -0.10032,-0.0456 -0.0927,-0.23151 z m -46.85212,-3.73338 0.007,-2.77831 0.92068,-0.0531 0.92069,-0.0531 0.0583,-2.15173 0.0583,-2.15173 -0.009,2.20486 -0.009,2.20486 -0.92162,0.0532 -0.92159,0.0532 -0.0555,2.72515 -0.0555,2.72516 0.007,-2.77832 z m -11.29833,-0.92623 c 0,-1.60073 0.0267,-2.25557 0.0594,-1.45521 0.0327,0.80037 0.0327,2.11006 0,2.91042 -0.0327,0.80036 -0.0594,0.14552 -0.0594,-1.45521 z m -20.8857,0.29759 c 0,-0.0304 0.25797,-0.28833 0.57327,-0.57327 l 0.57326,-0.51807 -0.51807,0.57327 c -0.48291,0.53436 -0.62846,0.65434 -0.62846,0.51807 z m -35.140821,-2.19086 c 0.414873,-0.0373 1.049873,-0.0367 1.411111,0.001 0.361237,0.0379 0.0218,0.0684 -0.754315,0.0677 -0.776111,-7e-4 -1.07167,-0.0316 -0.656796,-0.0689 z m 11.019641,-3.5e-4 c 0.46082,-0.0363 1.21488,-0.0363 1.6757,0 0.46081,0.0363 0.0838,0.0661 -0.83785,0.0661 -0.92163,0 -1.29866,-0.0297 -0.83785,-0.0661 z m 6.78791,0.003 1.27576,-0.0651 0.0518,-4.26977 0.0518,-4.26969 -0.005,4.32153 -0.005,4.32153 -1.32292,0.0134 -1.32291,0.0134 1.27575,-0.0651 z m 9.65153,-0.0974 c -0.0473,-0.12318 -0.0631,-2.1274 -0.0352,-4.45382 l 0.0507,-4.22977 0.0407,4.35876 0.0408,4.35876 1.5434,0.0588 1.54341,0.0588 -1.54894,0.0363 c -1.11686,0.0262 -1.57291,-0.0262 -1.63489,-0.1877 z m 51.12284,0.0941 c 0.46374,-0.0365 1.17812,-0.036 1.5875,0.001 0.40938,0.037 0.03,0.0668 -0.84318,0.0663 -0.87312,-5.3e-4 -1.20807,-0.0308 -0.74432,-0.0673 z m 6.25648,-0.002 c 1.18842,-0.0305 3.1331,-0.0305 4.32152,0 1.18842,0.0305 0.21608,0.0555 -2.16076,0.0555 -2.37684,0 -3.34918,-0.025 -2.16076,-0.0555 z m -42.67509,-1.22345 c 0.12733,-0.051 0.27946,-0.0447 0.33808,0.0139 0.0586,0.0586 -0.0456,0.10031 -0.23151,0.0927 -0.20549,-0.008 -0.24728,-0.0503 -0.10657,-0.10657 z m 2.11666,0 c 0.12733,-0.051 0.27947,-0.0447 0.33808,0.0139 0.0586,0.0586 -0.0456,0.10031 -0.23151,0.0927 -0.20548,-0.008 -0.24728,-0.0503 -0.10657,-0.10657 z m 93.48612,0 c 0.12733,-0.051 0.27947,-0.0447 0.33808,0.0139 0.0586,0.0586 -0.0456,0.10031 -0.23151,0.0927 -0.20549,-0.008 -0.24728,-0.0503 -0.10657,-0.10657 z M 171.52914,136.226 c 0.008,-0.20548 0.0503,-0.24728 0.10658,-0.10657 0.051,0.12733 0.0447,0.27947 -0.0139,0.33808 -0.0586,0.0586 -0.10031,-0.0456 -0.0926,-0.23151 z m -90.248358,-4.48315 c 0,-2.47385 0.02481,-3.48588 0.05513,-2.24896 0.03032,1.23693 0.03032,3.26099 0,4.49792 -0.03032,1.23693 -0.05513,0.2249 -0.05513,-2.24896 z m 161.895788,4.28749 c 0.17162,-0.0447 0.40975,-0.0418 0.52916,0.007 0.11944,0.0483 -0.021,0.0849 -0.31203,0.0813 -0.29104,-0.004 -0.38874,-0.0431 -0.21713,-0.0879 z m -69.58877,-2.47169 c 0.21828,-0.0421 0.57547,-0.0421 0.79375,0 0.21828,0.042 0.0397,0.0764 -0.39688,0.0764 -0.43656,0 -0.61515,-0.0344 -0.39687,-0.0764 z m 65.17608,-1.02205 c 0.002,-0.38805 0.0381,-0.52603 0.0803,-0.30662 0.0422,0.21941 0.0406,0.53691 -0.004,0.70555 -0.0442,0.16865 -0.0787,-0.0109 -0.0767,-0.39893 z m 1.39448,0.0882 c 0,-0.24254 0.04,-0.34176 0.089,-0.22049 0.0489,0.12127 0.0489,0.31971 0,0.44097 -0.0489,0.12127 -0.089,0.022 -0.089,-0.22048 z m 2.84182,-0.47502 c 0.17163,-0.0447 0.40975,-0.0418 0.52917,0.007 0.11943,0.0483 -0.021,0.0849 -0.31204,0.0813 -0.29104,-0.004 -0.38874,-0.0431 -0.21713,-0.0879 z m -91.28461,-4.24286 c 1.18842,-0.0305 3.13311,-0.0305 4.32153,0 1.18842,0.0305 0.21608,0.0555 -2.16076,0.0555 -2.37684,0 -3.34919,-0.025 -2.16077,-0.0555 z m 18.69723,5.3e-4 c 0.80036,-0.0327 2.11005,-0.0327 2.91041,0 0.80037,0.0327 0.14552,0.0594 -1.45521,0.0594 -1.60072,0 -2.25557,-0.0267 -1.4552,-0.0594 z m 72.67429,0.006 c 0.21941,-0.0422 0.53691,-0.0406 0.70555,0.004 0.16863,0.0442 -0.0109,0.0787 -0.39894,0.0767 -0.38805,-0.002 -0.52604,-0.0381 -0.30661,-0.0803 z"
         id="path33" />
      <path
         style="fill:#98c9ae;stroke-width:0.176389"
         d="m 202.27833,167.32951 -0.33602,-0.39687 0.39688,0.33602 c 0.37295,0.31577 0.47716,0.45773 0.33602,0.45773 -0.0335,0 -0.21207,-0.1786 -0.39688,-0.39688 z m 13.50102,-14.55208 -0.60787,-0.66146 0.66146,0.60787 c 0.61567,0.56578 0.74256,0.71505 0.60787,0.71505 -0.0295,0 -0.32713,-0.29766 -0.66146,-0.66146 z m -13.05664,-0.88195 -0.42762,-0.48507 0.48507,0.42763 c 0.45337,0.39967 0.56596,0.54251 0.42762,0.54251 -0.0316,0 -0.24987,-0.21828 -0.48507,-0.48507 z m 37.3196,-22.62187 c 0.1756,-0.19403 0.35895,-0.35278 0.40746,-0.35278 0.0485,0 -0.0555,0.15875 -0.23107,0.35278 -0.17559,0.19403 -0.35895,0.35278 -0.40746,0.35278 -0.0485,0 0.0555,-0.15875 0.23107,-0.35278 z"
         id="path31" />
      <path
         style="fill:#7bbb98;stroke-width:0.176389"
         d="m -26.662238,163.49305 c 0,-7.0335 0.02186,-9.91085 0.04857,-6.39409 0.02671,3.51675 0.02671,9.27144 0,12.78819 -0.02671,3.51675 -0.04857,0.63941 -0.04857,-6.3941 z m 13.630583,10.63524 c 0.218281,-0.042 0.575468,-0.042 0.79375,0 0.218281,0.042 0.03969,0.0764 -0.396875,0.0764 -0.436563,0 -0.615157,-0.0344 -0.396875,-0.0764 z m 16.8588641,-0.008 c 6.3862129,-0.0257 16.7843379,-0.0257 23.1069449,0 6.322607,0.0257 1.097526,0.0467 -11.611294,0.0467 -12.7088203,0 -17.8818638,-0.021 -11.4956509,-0.0467 z M 209.92391,169.71545 c 0.31529,-0.0391 0.83123,-0.0391 1.14653,0 0.31529,0.0391 0.0573,0.0711 -0.57327,0.0711 -0.63059,0 -0.88856,-0.032 -0.57326,-0.0711 z M 90.81364,153.70347 c 1.1e-5,-8.82826 0.02149,-12.41399 0.04773,-7.96828 0.02624,4.44571 0.02623,11.66884 -1.9e-5,16.05139 -0.02625,4.38255 -0.04772,0.74515 -0.04771,-8.08311 z m 33.46837,13.28248 -0.039,-2.76891 -0.92604,-0.0648 -0.92604,-0.0648 0.93158,-0.0326 c 0.62452,-0.0219 0.96044,0.0426 1.01916,0.1956 0.0482,0.12553 0.0632,1.41538 0.0335,2.86632 l -0.0541,2.63809 z m 33.913,-18.13318 c 0,-11.49614 0.0211,-16.19911 0.0469,-10.45104 0.0258,5.74808 0.0258,15.15401 0,20.90209 -0.0258,5.74807 -0.0469,1.0451 -0.0469,-10.45105 z m 18.16657,2.55764 c 2e-5,-7.37305 0.0218,-10.36358 0.0484,-6.64562 0.0266,3.71797 0.0266,9.75047 -2e-5,13.40556 -0.0266,3.65509 -0.0484,0.61312 -0.0484,-6.75994 z m -70.50396,12.66036 c 0.31703,-0.0393 0.79328,-0.0384 1.05833,0.002 0.26505,0.0402 0.006,0.0724 -0.57642,0.0714 -0.58208,-0.001 -0.79894,-0.0339 -0.48191,-0.0732 z m 31.57045,-0.34176 c 0.12127,-0.0489 0.31971,-0.0489 0.44098,0 0.12126,0.0489 0.022,0.089 -0.22049,0.089 -0.24254,0 -0.34175,-0.04 -0.22049,-0.089 z m 95.43742,-0.004 c 0.12734,-0.051 0.27947,-0.0447 0.33808,0.0139 0.0586,0.0586 -0.0456,0.1003 -0.23151,0.0926 -0.20549,-0.008 -0.24728,-0.0503 -0.10657,-0.10656 z M 211.75975,162.258 c 0,-0.24253 0.04,-0.34175 0.089,-0.22049 0.0489,0.12127 0.0489,0.31971 0,0.44098 -0.0489,0.12126 -0.089,0.022 -0.089,-0.22049 z m -107.89198,-9.26042 0.002,-9.34861 1.4993,-0.0103 1.49931,-0.0103 -1.45367,0.0612 -1.45366,0.0612 -0.048,9.29767 -0.048,9.29767 0.002,-9.34861 z m 127.45721,8.80475 c 0.008,-0.20548 0.0503,-0.24728 0.10657,-0.10657 0.051,0.12733 0.0447,0.27947 -0.0139,0.33808 -0.0586,0.0586 -0.10031,-0.0456 -0.0927,-0.23151 z m -159.866354,-0.029 c 1.479462,-0.0295 3.900399,-0.0295 5.379861,0 1.479462,0.0295 0.268993,0.0536 -2.68993,0.0536 -2.958924,0 -4.169393,-0.0241 -2.689931,-0.0536 z M 222.22028,153.3504 c -4e-5,-4.55965 0.0228,-6.45027 0.0507,-4.20138 0.0279,2.24889 0.0279,5.97952 7e-5,8.29028 -0.0279,2.31076 -0.0507,0.47075 -0.0507,-4.0889 z m -22.44845,6.87917 c 0.004,-0.29104 0.0431,-0.38875 0.0879,-0.21713 0.0447,0.17162 0.0418,0.40974 -0.007,0.52917 -0.0483,0.11942 -0.0849,-0.021 -0.0813,-0.31204 z m -63.85277,-0.35278 c 0.004,-0.29104 0.0431,-0.38875 0.0879,-0.21713 0.0447,0.17162 0.0418,0.40975 -0.007,0.52917 -0.0483,0.11942 -0.0849,-0.021 -0.0813,-0.31204 z m 71.41703,0.16169 c 0.008,-0.20548 0.0503,-0.24728 0.10657,-0.10657 0.051,0.12733 0.0447,0.27947 -0.0139,0.33808 -0.0586,0.0586 -0.10031,-0.0456 -0.0927,-0.23151 z m -57.44489,-3.07211 c 0,-1.60073 0.0267,-2.25557 0.0594,-1.4552 0.0327,0.80036 0.0327,2.11005 0,2.91041 -0.0327,0.80037 -0.0594,0.14552 -0.0594,-1.45521 z m 81.27785,1.14653 c 0.004,-0.29104 0.0431,-0.38875 0.0879,-0.21713 0.0447,0.17162 0.0418,0.40975 -0.007,0.52917 -0.0483,0.11942 -0.0849,-0.021 -0.0813,-0.31204 z m -95.42638,-2.11667 c 0.004,-0.29104 0.0431,-0.38875 0.0879,-0.21712 0.0447,0.17162 0.0418,0.40974 -0.007,0.52916 -0.0483,0.11942 -0.0849,-0.021 -0.0813,-0.31204 z m 0.89697,-6.92084 c 0.46375,-0.0365 1.17812,-0.036 1.5875,0.001 0.40939,0.037 0.03,0.0668 -0.84316,0.0663 -0.87313,-5.3e-4 -1.20808,-0.0308 -0.74434,-0.0673 z m 94.39578,-0.0999 c -0.0485,-0.1264 -0.0633,-1.25749 -0.0328,-2.51354 l 0.0554,-2.28373 0.0383,2.41848 0.0383,2.41848 1.54341,0.0588 1.5434,0.0588 -1.54894,0.0363 c -1.13686,0.0266 -1.5724,-0.0249 -1.63712,-0.19354 z M 38.426194,132.625 c 0,-8.97379 0.02145,-12.64488 0.04766,-8.15799 0.02622,4.48689 0.02622,11.82908 0,16.31597 -0.02622,4.4869 -0.04766,0.8158 -0.04766,-8.15798 z m -65.088318,2.82222 c 0,-7.22754 0.02181,-10.18425 0.04846,-6.57049 0.02665,3.61377 0.02665,9.52721 0,13.14098 -0.02665,3.61376 -0.04846,0.65704 -0.04846,-6.57049 z m 19.4623265,11.69756 c 0.1273299,-0.051 0.2794653,-0.0447 0.3380793,0.0139 0.058612,0.0586 -0.045568,0.1003 -0.2315104,0.0926 -0.2054842,-0.008 -0.2472796,-0.0503 -0.1065689,-0.10657 z M 93.771821,143.609 c 0.363802,-0.038 0.959115,-0.038 1.322917,0 0.363802,0.0381 0.06615,0.0692 -0.661458,0.0692 -0.727605,0 -1.025261,-0.0311 -0.661459,-0.0692 z m 17.109719,0 c 0.36381,-0.038 0.95912,-0.038 1.32292,0 0.3638,0.0381 0.0662,0.0692 -0.66146,0.0692 -0.7276,0 -1.02526,-0.0311 -0.66146,-0.0692 z m 11.81362,0.001 1.53895,-0.0625 0.0555,-2.72741 0.0555,-2.72741 -0.007,2.77831 -0.007,2.77823 -1.5875,0.0116 -1.5875,0.0116 1.53896,-0.0625 z m 38.81,10e-4 c 0.26679,-0.0404 0.70335,-0.0404 0.97014,0 0.26678,0.0404 0.0485,0.0735 -0.48507,0.0735 -0.53358,0 -0.75186,-0.0331 -0.48507,-0.0735 z m 10.67153,-0.003 c 0.4123,-0.0371 1.08699,-0.0371 1.4993,0 0.41231,0.0371 0.075,0.0675 -0.74965,0.0675 -0.82462,0 -1.16196,-0.0304 -0.74965,-0.0675 z m -68.31833,-10.01333 c -1e-4,-2.42535 0.0247,-3.442 0.0552,-2.25923 0.0305,1.18277 0.0306,3.16715 1.8e-4,4.40972 -0.0303,1.24258 -0.0553,0.27485 -0.0554,-2.15049 z m 139.31486,3.49438 c 0.16977,-0.0444 0.44758,-0.0444 0.61736,0 0.16977,0.0444 0.0309,0.0807 -0.30868,0.0807 -0.33955,0 -0.47846,-0.0363 -0.30868,-0.0807 z m -106.53647,-0.35776 c 0.26812,-0.0405 0.665,-0.0395 0.88194,0.002 0.21695,0.0419 -0.002,0.075 -0.48749,0.0737 -0.48507,-0.001 -0.66257,-0.0356 -0.39445,-0.0761 z m 13.07806,-2.69565 c 0,-1.60073 0.0267,-2.25557 0.0594,-1.45521 0.0327,0.80036 0.0327,2.11005 0,2.91042 -0.0327,0.80036 -0.0594,0.14552 -0.0594,-1.45521 z m 82.52471,2.69565 c 0.26813,-0.0405 0.665,-0.0395 0.88195,0.002 0.21695,0.0419 -0.002,0.075 -0.48749,0.0737 -0.48507,-0.001 -0.66257,-0.0356 -0.39446,-0.0761 z M 90.805782,131.74305 c 0,-2.47385 0.02481,-3.48588 0.05513,-2.24896 0.03032,1.23693 0.03032,3.26099 0,4.49792 -0.03032,1.23693 -0.05513,0.2249 -0.05513,-2.24896 z m 150.636578,3.29796 c -0.0485,-0.12639 -0.0659,-1.25749 -0.0386,-2.51354 l 0.0496,-2.28372 1.14653,-0.0149 1.14653,-0.0149 -1.10243,0.0674 -1.10243,0.0674 v 2.36219 2.36219 l 0.66146,0.0692 0.66146,0.0692 -0.667,0.0297 c -0.40869,0.0182 -0.70115,-0.0594 -0.75518,-0.20017 z m 2.85853,0.0943 c -0.0461,-0.0745 0.22706,-0.10589 0.60695,-0.0697 0.37991,0.0362 0.69072,0.0972 0.69072,0.13554 0,0.13139 -1.21383,0.0698 -1.29767,-0.0659 z m -69.53926,-4.36238 c 0,-1.55222 0.0272,-2.16361 0.06,-1.35864 0.0328,0.80498 0.0326,2.07498 0,2.82223 -0.033,0.74725 -0.0598,0.0886 -0.0596,-1.46359 z m 73.17091,1.85209 c 0,-0.33955 0.0363,-0.47846 0.0807,-0.30868 0.0444,0.16977 0.0444,0.44758 0,0.61736 -0.0444,0.16977 -0.0807,0.0309 -0.0807,-0.30868 z m -4.93236,-1.70974 c 0.17163,-0.0447 0.40975,-0.0418 0.52917,0.007 0.11943,0.0483 -0.021,0.0849 -0.31204,0.0813 -0.29104,-0.004 -0.38874,-0.0431 -0.21713,-0.0879 z m 0.17639,-1.94028 c 0.17162,-0.0447 0.40975,-0.0418 0.52916,0.007 0.11944,0.0483 -0.021,0.0849 -0.31203,0.0813 -0.29104,-0.004 -0.38874,-0.0431 -0.21713,-0.0879 z"
         id="path29" />
      <path
         style="fill:#4fa576;stroke-width:0.176389"
         d="m 144.70411,166.75625 c 0.22786,-0.24254 0.45396,-0.44098 0.50247,-0.44098 0.0485,0 -0.0982,0.19844 -0.32608,0.44098 -0.22785,0.24253 -0.45396,0.44097 -0.50246,0.44097 -0.0485,0 0.0982,-0.19844 0.32607,-0.44097 z m 95.51459,0.0882 c 0.1756,-0.19403 0.35895,-0.35278 0.40746,-0.35278 0.0485,0 -0.0555,0.15875 -0.23107,0.35278 -0.17559,0.19403 -0.35895,0.35278 -0.40746,0.35278 -0.0485,0 0.0555,-0.15875 0.23107,-0.35278 z m -0.19314,-31.08854 -0.33602,-0.39688 0.39687,0.33602 c 0.37296,0.31578 0.47717,0.45773 0.33602,0.45773 -0.0335,0 -0.21207,-0.17859 -0.39687,-0.39687 z m 6.60883,-6.43819 c -0.21939,-0.27977 -0.21317,-0.28601 0.0666,-0.0666 0.29382,0.23043 0.38727,0.37528 0.24208,0.37528 -0.0366,0 -0.17552,-0.13891 -0.30868,-0.30868 z m -271.616393,-11.2232 c 0,-0.0366 0.138906,-0.17553 0.308681,-0.30868 0.279762,-0.2194 0.286001,-0.21317 0.0666,0.0666 -0.230429,0.29382 -0.375277,0.38726 -0.375277,0.24208 z"
         id="path27" />
      <path
         style="fill:#329660;stroke-width:0.176389"
         d="m 8.0869356,180.64713 30.2467194,-0.0454 0.05438,-3.21859 0.05438,-3.2186 -0.0063,3.2632 -0.0063,3.26319 -30.2947949,7.1e-4 -30.2947951,7e-4 30.2467203,-0.0454 z m -22.2651186,-6.51595 c 0.169774,-0.0444 0.447587,-0.0444 0.617361,0 0.169774,0.0444 0.03087,0.0807 -0.308681,0.0807 -0.339548,0 -0.478454,-0.0363 -0.30868,-0.0807 z m 3.270107,-0.009 c 0.610138,-0.0346 1.5626383,-0.0343 2.1166669,7e-4 0.5540269,0.0349 0.054823,0.0631 -1.1093433,0.0628 -1.1641666,-3.6e-4 -1.6174626,-0.0289 -1.0073236,-0.0634 z m 192.877696,-3.87202 c 0.17163,-0.0447 0.40975,-0.0418 0.52917,0.007 0.11943,0.0483 -0.021,0.0849 -0.31203,0.0813 -0.29105,-0.004 -0.38875,-0.0431 -0.21714,-0.0879 z M 59.595402,148.4118 l 0.0011,-21.34305 4.586112,-0.005 4.586111,-0.005 -4.541307,0.0517 -4.541305,0.0517 -0.04588,21.29599 -0.04588,21.29598 0.0011,-21.34306 z m 41.507578,21.13437 c 0.12733,-0.051 0.27947,-0.0447 0.33808,0.0139 0.0586,0.0586 -0.0456,0.1003 -0.23151,0.0926 -0.20548,-0.008 -0.24728,-0.0503 -0.10657,-0.10657 z m 6.27809,-2.61353 c 1.8e-4,-1.55223 0.0272,-2.16361 0.06,-1.35864 0.0328,0.80497 0.0326,2.07497 -3.5e-4,2.82222 -0.033,0.74725 -0.0598,0.0886 -0.0596,-1.46358 z m 11.00803,2.61353 c 0.12733,-0.051 0.27946,-0.0447 0.33808,0.0139 0.0586,0.0586 -0.0456,0.1003 -0.23151,0.0926 -0.20549,-0.008 -0.24728,-0.0503 -0.10657,-0.10657 z m 19.57916,0 c 0.12733,-0.051 0.27947,-0.0447 0.33808,0.0139 0.0586,0.0586 -0.0456,0.1003 -0.23151,0.0926 -0.20548,-0.008 -0.24728,-0.0503 -0.10657,-0.10657 z M -5.6017246,168.65243 c -0.2194049,-0.27977 -0.213166,-0.286 0.066597,-0.0666 0.1697744,0.13315 0.3086806,0.27205 0.3086806,0.30868 0,0.14518 -0.1448488,0.0517 -0.3752776,-0.24208 z M 97.233002,168.12326 c -0.219405,-0.27976 -0.213166,-0.286 0.0666,-0.0666 0.29382,0.23043 0.387258,0.37528 0.242083,0.37528 -0.03663,0 -0.175533,-0.1389 -0.30868,-0.30868 z m 31.935538,-1.41111 -0.42762,-0.48507 0.48507,0.42762 c 0.26679,0.2352 0.48507,0.45348 0.48507,0.48507 0,0.13834 -0.14284,0.0257 -0.54252,-0.42762 z M 11.822995,164.06743 c -0.04536,-0.0734 5.901814,-0.11257 13.215947,-0.0871 l 13.298423,0.0463 0.04949,-6.66088 0.04949,-6.66087 -0.0033,6.70278 -0.0033,6.70277 -13.262166,0.0452 c -7.294193,0.0249 -13.299282,-0.0148 -13.344644,-0.0882 z m 83.879394,-0.66257 c 0.0036,-0.29104 0.04313,-0.38875 0.08785,-0.21713 0.04472,0.17162 0.04178,0.40974 -0.0065,0.52917 -0.04832,0.11942 -0.08491,-0.021 -0.08131,-0.31204 z m 115.323951,0.19798 c 0,-0.0366 0.13891,-0.17553 0.30868,-0.30868 0.27977,-0.2194 0.286,-0.21316 0.0666,0.0666 -0.23043,0.29382 -0.37528,0.38726 -0.37528,0.24208 z m -24.82432,-1.47108 c 0.26813,-0.0406 0.665,-0.0395 0.88194,0.002 0.21696,0.0419 -0.002,0.075 -0.48748,0.0737 -0.48507,-0.001 -0.66257,-0.0356 -0.39446,-0.0761 z m -59.29926,-0.3291 c 0.008,-0.20548 0.0503,-0.24728 0.10657,-0.10657 0.051,0.12733 0.0447,0.27947 -0.0139,0.33808 -0.0586,0.0586 -0.1003,-0.0456 -0.0926,-0.23151 z m 12.05062,-2.36655 c 0,-1.4067 0.0274,-1.98217 0.0609,-1.27882 0.0335,0.70335 0.0335,1.85429 0,2.55764 -0.0335,0.70335 -0.0609,0.12788 -0.0609,-1.27882 z m 80.94285,1.67569 c 0.002,-0.48507 0.0356,-0.66257 0.0761,-0.39445 0.0405,0.26812 0.0395,0.665 -0.002,0.88195 -0.0419,0.21695 -0.075,-0.002 -0.0737,-0.4875 z m -72.82946,-1.76389 c 3.5e-4,-1.35819 0.028,-1.8905 0.0615,-1.1829 0.0336,0.70759 0.0333,1.81884 -5.3e-4,2.46944 -0.0338,0.6506 -0.0613,0.0717 -0.061,-1.28654 z m -11.14771,1.5875 c 0.004,-0.29104 0.0431,-0.38875 0.0879,-0.21713 0.0447,0.17163 0.0418,0.40975 -0.007,0.52917 -0.0483,0.11942 -0.0849,-0.021 -0.0813,-0.31204 z m 48.9085,-11.46527 c 2e-5,-6.30591 0.0221,-8.85999 0.0491,-5.67574 0.027,3.18424 0.0269,8.34362 -4e-5,11.46528 -0.027,3.12165 -0.049,0.51636 -0.049,-5.78954 z m 22.50853,11.0978 c 0.008,-0.20549 0.0503,-0.24728 0.10657,-0.10657 0.051,0.12733 0.0447,0.27946 -0.0139,0.33808 -0.0586,0.0586 -0.10031,-0.0456 -0.0927,-0.23151 z m -7.56426,-1.22003 c 0.004,-0.29104 0.0431,-0.38875 0.0879,-0.21713 0.0447,0.17163 0.0418,0.40975 -0.007,0.52917 -0.0483,0.11942 -0.0849,-0.021 -0.0813,-0.31204 z m 31.40377,-0.26458 c 0,-0.33955 0.0363,-0.47845 0.0807,-0.30868 0.0444,0.16977 0.0444,0.44759 0,0.61736 -0.0444,0.16978 -0.0807,0.0309 -0.0807,-0.30868 z m -28.93353,-0.83676 c 0.84396,-0.0323 2.27271,-0.0324 3.175,-3.5e-4 0.90228,0.0321 0.21177,0.0585 -1.53448,0.0587 -1.74625,1.8e-4 -2.48449,-0.0261 -1.64052,-0.0583 z m -66.4994,-1.19171 c 0.004,-0.29104 0.0431,-0.38875 0.0879,-0.21713 0.0447,0.17162 0.0418,0.40974 -0.007,0.52917 -0.0483,0.11942 -0.0849,-0.021 -0.0813,-0.31204 z m 95.25654,-1.85209 c 0,-0.33954 0.0363,-0.47845 0.0807,-0.30868 0.0444,0.16978 0.0444,0.44759 0,0.61737 -0.0444,0.16977 -0.0807,0.0309 -0.0807,-0.30869 z m -83.92466,-5.29166 c 0,-2.66788 0.0245,-3.75929 0.0545,-2.42535 0.03,1.33394 0.03,3.51675 0,4.8507 -0.03,1.33394 -0.0545,0.24253 -0.0545,-2.42535 z m 2.81665,1.23472 c 0,-1.60073 0.0267,-2.25557 0.0594,-1.45521 0.0327,0.80037 0.0327,2.11005 0,2.91042 -0.0327,0.80036 -0.0594,0.14552 -0.0594,-1.45521 z m 54.33307,2.24896 -0.51807,-0.57327 0.57326,0.51807 c 0.53437,0.48292 0.65435,0.62846 0.51808,0.62846 -0.0304,0 -0.28833,-0.25797 -0.57327,-0.57326 z m 10.13095,-1.85208 c -0.21939,-0.27977 -0.21316,-0.28601 0.0666,-0.0666 0.29381,0.23043 0.38726,0.37528 0.24207,0.37528 -0.0366,0 -0.17552,-0.13891 -0.30868,-0.30868 z m -75.40139,-4.8948 c 1.7e-4,-1.4552 0.0276,-2.02705 0.0607,-1.27075 0.0331,0.75629 0.0329,1.94691 -5.3e-4,2.64583 -0.0334,0.69892 -0.0605,0.0801 -0.0603,-1.37508 z m 74.23569,0.84357 c 0.26813,-0.0405 0.665,-0.0395 0.88194,0.002 0.21696,0.0419 -0.002,0.075 -0.48748,0.0737 -0.48507,-0.001 -0.66257,-0.0356 -0.39446,-0.0761 z m 3.97736,0.006 c 0.12733,-0.051 0.27947,-0.0447 0.33808,0.0139 0.0586,0.0586 -0.0456,0.1003 -0.23151,0.0926 -0.20549,-0.008 -0.24728,-0.0503 -0.10657,-0.10656 z m -17.22519,-1.6434 c 0,-0.24253 0.04,-0.34175 0.089,-0.22048 0.0489,0.12126 0.0489,0.3197 0,0.44097 -0.0489,0.12127 -0.089,0.0221 -0.089,-0.22049 z m 0,-0.88194 c 0,-0.24254 0.04,-0.34175 0.089,-0.22049 0.0489,0.12127 0.0489,0.31971 0,0.44098 -0.0489,0.12126 -0.089,0.022 -0.089,-0.22049 z m 19.21246,-0.63206 c 0.008,-0.20548 0.0503,-0.24728 0.10657,-0.10657 0.051,0.12733 0.0447,0.27947 -0.0139,0.33808 -0.0586,0.0586 -0.10032,-0.0456 -0.0927,-0.23151 z m -126.060581,-3.513 c 1.76e-4,-1.55222 0.02721,-2.16361 0.05996,-1.35864 0.03276,0.80497 0.03258,2.07497 -3.53e-4,2.82222 -0.03298,0.74726 -0.05978,0.0886 -0.05956,-1.46358 z m 13.934721,0 c 1.8e-4,-1.55222 0.0272,-2.16361 0.06,-1.35864 0.0328,0.80497 0.0326,2.07497 -3.6e-4,2.82222 -0.033,0.74726 -0.0598,0.0886 -0.0596,-1.46358 z m 67.38056,0 c 0,-1.55222 0.0272,-2.16361 0.06,-1.35864 0.0328,0.80497 0.0326,2.07497 0,2.82222 -0.033,0.74726 -0.0598,0.0886 -0.0596,-1.46358 z m 35.52608,2.08437 c 0.12734,-0.051 0.27947,-0.0447 0.33809,0.0139 0.0586,0.0586 -0.0456,0.1003 -0.23151,0.0926 -0.2055,-0.008 -0.24728,-0.0503 -0.10658,-0.10657 z m 14.93794,-3.2309 c 0.17559,-0.19403 0.35895,-0.35278 0.40746,-0.35278 0.0485,0 -0.0555,0.15875 -0.23107,0.35278 -0.1756,0.19403 -0.35895,0.35278 -0.40746,0.35278 -0.0485,0 0.0555,-0.15875 0.23107,-0.35278 z m -16.17266,-2.58994 c 0.12734,-0.051 0.27947,-0.0447 0.33809,0.0139 0.0586,0.0586 -0.0456,0.1003 -0.23151,0.0926 -0.2055,-0.008 -0.24728,-0.0503 -0.10658,-0.10657 z m 1.76389,0 c 0.12734,-0.051 0.27947,-0.0447 0.33808,0.0139 0.0586,0.0586 -0.0456,0.1003 -0.23151,0.0926 -0.20549,-0.008 -0.24728,-0.0503 -0.10657,-0.10657 z m 36.01641,-1.18082 c 0,-0.0366 0.1389,-0.17554 0.30868,-0.30868 0.27977,-0.21941 0.286,-0.21317 0.0666,0.0666 -0.23043,0.29381 -0.37528,0.38725 -0.37528,0.24208 z m -1.22081,-4.26963 c 0.008,-0.20548 0.0503,-0.24728 0.10658,-0.10657 0.051,0.12733 0.0447,0.27947 -0.0139,0.33808 -0.0586,0.0586 -0.10031,-0.0456 -0.0926,-0.23151 z m -95.55311,-2.01377 c 0,-0.92164 0.0297,-1.29867 0.0661,-0.83785 0.0363,0.46081 0.0363,1.21488 0,1.67569 -0.0363,0.46082 -0.0661,0.0838 -0.0661,-0.83784 z m 95.78702,0.30868 -0.33602,-0.39688 0.39688,0.33602 c 0.37295,0.31577 0.47716,0.45773 0.33602,0.45773 -0.0335,0 -0.21208,-0.17859 -0.39688,-0.39687 z m -77.36284,-1.84029 c 0.12733,-0.0509 0.27947,-0.0447 0.33808,0.0139 0.0586,0.0586 -0.0456,0.1003 -0.23151,0.0926 -0.20549,-0.008 -0.24728,-0.0503 -0.10657,-0.10657 z"
         id="path25" />
      <path
         style="fill:#007d39;stroke-width:0.176389"
         d="m -23.835475,180.18239 c -1.08048,-0.5108 -1.707187,-1.15825 -2.239502,-2.31364 l -0.406332,-0.88195 -0.04846,-13.09687 -0.04846,-13.09688 h 8.446057 8.4460576 L -9.03752,149.8162 c 0.3567271,-0.53727 0.6014049,-1.05321 0.5437293,-1.14653 C -8.5587134,148.56462 -12.021125,148.5 -17.584079,148.5 h -8.985424 l 0.0021,-13.27327 c 0.0017,-10.5093 0.05115,-13.45691 0.237682,-14.15521 0.528639,-1.979 1.683668,-3.51403 3.103828,-4.12497 0.869887,-0.37421 0.895844,-0.37471 17.0744047,-0.32976 l 16.2031933,0.045 -8.6974048,15.14007 c -4.7835734,8.32704 -8.6974066,15.21282 -8.6974066,15.30174 0,0.47825 0.9200215,-0.15261 4.7804213,-3.27792 2.33672598,-1.89177 4.3403451,-3.43929 4.4524879,-3.43892 0.1121427,3.5e-4 0.4688875,0.16221 0.792764,0.35967 0.5783262,0.35259 0.5867047,0.37547 0.4680532,1.27816 -0.2649255,2.01556 -1.0309314,5.39721 -2.1162452,9.34251 -0.62757404,2.28133 -1.19301157,4.29592 -1.25652745,4.47684 -0.10257543,0.2922 -0.0860549,0.29939 0.14782624,0.0644 0.14482058,-0.14552 4.41401041,-7.07233 9.48708911,-15.3929 7.2339683,-11.86475 9.3134643,-15.15084 9.6395123,-15.23267 0.719584,-0.1806 1.288313,0.0787 1.598272,0.72868 l 0.29047,0.60913 -2.935617,8.95534 c -3.608988,11.0095 -5.394805,16.88519 -5.193235,17.08676 0.15425,0.15425 1.354321,-0.68115 2.687091,-1.87057 1.830601,-1.63369 2.892807,-2.28647 4.09115,-2.51421 l 1.043823,-0.19837 8.790018,-15.66476 c 4.834509,-8.61562 8.818672,-15.66476 8.853694,-15.66476 0.03502,0 0.06368,7.22312 0.06368,16.05139 v 16.05138 l -8.775348,0.003 -8.775348,0.003 -0.573263,0.87673 c -0.315296,0.48219 -0.573264,0.91733 -0.573264,0.96696 0,0.0496 4.206875,0.0902 9.348611,0.0902 h 9.348612 v 6.61459 6.61458 H 25.112443 c -9.725625,0 -13.229167,-0.0529 -13.229167,-0.19955 0,-0.25202 1.221663,-2.39391 4.092803,-7.17575 1.241458,-2.06763 2.257197,-3.79683 2.257197,-3.84266 0,-0.18929 -0.993536,0.47725 -4.796673,3.21798 -2.201609,1.58659 -4.1590847,2.8847 -4.3499463,2.8847 -0.5150414,0 -1.3005964,-1.00724 -1.1505935,-1.47529 0.066414,-0.20724 0.3775392,-1.21023 0.6913897,-2.22888 0.3138506,-1.01864 1.3690813,-4.35239 2.3449581,-7.40833 0.975877,-3.05594 1.826736,-5.79437 1.890797,-6.08542 0.109494,-0.49745 0.10111,-0.50802 -0.139899,-0.17638 -0.141007,0.19402 -3.812041,6.22652 -8.1578542,13.40555 -4.34581318,7.17903 -8.1085429,13.26301 -8.3616204,13.51995 -0.7601973,0.77181 -1.1285397,0.7805 -1.777007,0.0419 -0.4578738,-0.52149 -0.5497953,-0.75329 -0.4740328,-1.19539 0.051693,-0.30164 0.8877865,-3.50689 1.8579872,-7.12276 1.6391149,-6.10888 2.8402439,-11.06069 3.1266978,-12.89021 l 0.12013843,-0.76729 -0.51043423,0.26519 c -0.5155441,0.26785 -0.994664,0.63461 -3.1854282,2.43841 -1.5485269,1.27501 -2.4829348,1.73783 -3.808335,1.88633 l -1.0680006,0.11966 -5.117428,9.078 c -5.613393,9.9578 -5.567258,9.84993 -4.975087,11.63279 0.342853,1.03223 0.852066,1.38154 2.777526,1.90531 1.018137,0.27696 3.29997,0.3059 28.139581,0.35688 l 27.031599,0.0555 v 3.17015 3.17016 l -30.6475711,-0.002 -30.6475709,-0.002 -0.881944,-0.41694 z M 180.2928,169.92882 c -1.06537,-0.39133 -2.17057,-1.24898 -2.76402,-2.14491 -1.10153,-1.66301 -1.07466,-1.25957 -1.07466,-16.14093 v -13.54993 h 4.14514 4.14513 v 11.29456 c 0,12.05033 0.012,12.22877 0.85542,12.68013 0.49847,0.26678 1.51359,0.23729 2.23705,-0.065 l 0.6117,-0.25559 V 149.9201 138.09304 h 4.23333 4.23334 v 15.78681 15.7868 h -4.23334 -4.23333 l -0.007,-1.5434 c -0.007,-1.51375 -0.0123,-1.53323 -0.28554,-1.01424 -0.97289,1.84869 -3.38021,3.09895 -5.91956,3.07438 -0.7064,-0.007 -1.58103,-0.1214 -1.94361,-0.25458 z M 59.684667,148.4118 v -21.25486 h 4.497917 4.497917 v 17.37431 17.3743 h 5.379861 5.379861 v 3.88056 3.88055 h -9.877778 -9.877778 z m 21.695834,5.29167 v -15.9632 h 4.674306 4.674306 v 15.9632 15.96319 h -4.674306 -4.674306 z m 19.667359,15.84724 c -2.146905,-0.25598 -3.779524,-1.1431 -4.444993,-2.41529 -0.774977,-1.48154 -0.810465,-2.00261 -0.887757,-13.03508 l -0.07384,-10.53923 h -1.221358 -1.221359 v -2.73403 -2.73403 h 1.234723 1.234722 v -4.40972 -4.40972 h 4.056944 4.056948 v 4.40972 4.40972 h 1.5875 1.5875 v 2.73403 2.73403 h -1.5875 -1.5875 v 9.44247 c 0,10.14107 0.0118,10.28347 0.90256,10.90739 0.27378,0.19177 0.77973,0.28764 1.51794,0.28764 h 1.10728 v 2.73403 2.73402 l -2.86632,-0.0264 c -1.57648,-0.0145 -3.10445,-0.0548 -3.39549,-0.0895 z m 17.28611,-0.005 c -2.96591,-0.38245 -4.18791,-1.26784 -4.95854,-3.59268 -0.2899,-0.87455 -0.32389,-1.91969 -0.37983,-11.67616 l -0.0614,-10.71562 h -1.31294 -1.31295 v -2.73403 -2.73403 h 1.32292 1.32291 v -4.40972 -4.40972 h 4.05695 4.05694 v 4.40972 4.40972 h 1.5875 1.5875 v 2.73403 2.73403 h -1.5875 -1.5875 v 9.49868 c 0,6.49693 0.0618,9.67592 0.19552,10.05952 0.24909,0.71456 0.95498,1.0793 2.08878,1.0793 h 0.8907 v 2.73403 2.73403 l -2.68993,-0.0264 c -1.47946,-0.0145 -2.92805,-0.0571 -3.2191,-0.0947 z m 16.76238,-0.065 c -4.36022,-0.67781 -7.41728,-3.4301 -8.02201,-7.22225 -0.23829,-1.49425 -0.24165,-16.29158 -0.004,-17.81528 0.37855,-2.42758 2.09656,-4.90649 4.25108,-6.13385 1.84278,-1.04978 3.1597,-1.36313 5.70983,-1.35862 2.0418,0.004 2.44435,0.0571 3.6738,0.48843 3.09923,1.08723 5.10562,3.02549 5.94572,5.7438 0.31106,1.0065 0.34645,1.65067 0.34645,6.30591 l 1e-5,5.18489 h -5.66581 -5.66582 l 0.11448,2.77812 c 0.20229,4.90932 0.26284,5.34471 0.82091,5.90277 0.51441,0.51441 1.01845,0.61376 1.58246,0.31191 0.58115,-0.31102 0.87628,-1.77628 0.87628,-4.35051 v -2.34924 h 3.96875 3.96875 v 2.71832 c 0,3.89721 -0.55171,5.47186 -2.56043,7.30771 -2.16625,1.97983 -6.01471,3.0049 -9.34039,2.4879 z m 3.96332,-22.72293 c 0,-3.24736 -0.45115,-4.43126 -1.68861,-4.43126 -1.48203,0 -1.66278,0.44004 -1.66278,4.04818 v 2.83098 h 1.6757 1.67569 z m 10.93601,17.30867 c -7e-5,-3.08019 -0.0528,-12.44644 -0.11727,-20.81389 l -0.11714,-15.21354 h 4.17421 4.17419 v 20.81388 20.81389 h -4.05694 -4.05695 z m 13.05288,-7.45243 v -13.05278 h -0.97014 -0.97014 v -2.73403 -2.73403 h 0.94792 0.94793 l 0.0852,-3.04271 c 0.0715,-2.55343 0.14606,-3.20057 0.4637,-4.02443 0.901,-2.33686 2.67477,-2.97671 8.2709,-2.98353 l 2.86632,-0.003 v 2.73402 2.73403 h -0.89354 c -0.49145,0 -1.05383,0.0858 -1.24973,0.19062 -0.62076,0.33223 -1.02358,1.51907 -1.02785,3.02848 l -0.004,1.36701 h 1.41111 1.41111 v 2.73403 2.73403 h -1.41111 -1.41111 v 13.05278 13.05277 h -4.23334 -4.23333 z m 44.33254,12.80233 c -4.55429,-0.86505 -6.37047,-2.61521 -7.2152,-6.95292 -0.13862,-0.71188 -0.25206,-1.84019 -0.25206,-2.50733 0,-1.01874 0.0546,-1.24225 0.34119,-1.3956 0.43175,-0.23107 6.6542,-0.24626 6.79614,-0.0166 0.0564,0.0913 0.21188,1.05386 0.34544,2.13901 0.27139,2.20516 0.51186,2.69643 1.57953,3.22691 0.63269,0.31437 0.69525,0.31539 1.45875,0.0238 1.10031,-0.42022 1.52691,-1.12357 1.38375,-2.28147 -0.25095,-2.02984 -1.46129,-3.55961 -4.76105,-6.01752 -2.15346,-1.60406 -4.63765,-4.06197 -5.60636,-5.54702 -1.29837,-1.99044 -1.75456,-4.83375 -1.1142,-6.94451 0.59681,-1.96722 2.19857,-3.63762 4.57883,-4.77504 3.35253,-1.60201 6.77758,-1.62916 9.95826,-0.0789 1.34894,0.65746 3.23279,2.37444 3.71503,3.38596 0.38834,0.81454 0.72747,2.92727 0.72747,4.53202 v 1.03288 l -1.01424,0.14498 c -0.93964,0.13433 -6.02073,0.13617 -6.15467,0.002 -0.0327,-0.0327 -0.13433,-0.78317 -0.22584,-1.66771 -0.0915,-0.88454 -0.25746,-1.77842 -0.36878,-1.9864 -0.27919,-0.52168 -1.25323,-0.89834 -1.97099,-0.76219 -1.62191,0.30767 -2.08708,1.15974 -1.45683,2.66854 0.35853,0.85827 0.82116,1.33571 3.25385,3.35803 4.88175,4.05823 6.39492,5.70001 7.63991,8.28921 0.63925,1.32944 0.71291,1.62815 0.78848,3.19738 0.15097,3.13511 -0.63527,5.33639 -2.56994,7.19531 -1.40414,1.34915 -2.97837,1.83496 -6.21123,1.91677 -1.52174,0.0385 -2.83748,-0.0264 -3.64524,-0.17982 z m 23.75357,0.13442 c -4.46219,-0.58827 -7.60098,-3.04124 -8.54905,-6.68111 -0.38556,-1.48023 -0.39751,-17.49217 -0.0141,-18.93254 0.68513,-2.57418 2.40729,-4.69536 4.74954,-5.85004 1.93987,-0.95631 3.59202,-1.2851 5.93032,-1.18018 4.59756,0.20631 8.00428,2.69167 8.90035,6.49323 0.20514,0.87028 0.26725,2.30109 0.26926,6.20243 l 0.003,5.07118 h -5.74996 -5.74996 l 0.0998,1.01423 c 0.0549,0.55783 0.15089,2.28424 0.21331,3.83646 0.0745,1.85241 0.19734,2.98523 0.35749,3.29659 0.55663,1.08224 1.7751,1.37067 2.31448,0.54787 0.26062,-0.39754 0.32308,-0.9709 0.37464,-3.43958 l 0.0619,-2.96252 h 4.03915 4.03916 v 2.53357 c 0,2.99567 -0.17056,4.05748 -0.88713,5.52241 -0.93907,1.91986 -3.14332,3.54145 -5.70127,4.19425 -1.10908,0.28305 -3.69327,0.46653 -4.70049,0.33375 z m 3.14608,-23.24305 c -0.0535,-2.61529 -0.0954,-2.94649 -0.42969,-3.39549 -0.56504,-0.75895 -1.57945,-0.78281 -2.27871,-0.0536 l -0.52587,0.5484 -0.056,2.89933 -0.056,2.89933 h 1.70274 1.70275 z m 7.26087,-9.63992 c -1.55097,-0.70207 -2.44315,-1.9654 -2.59682,-3.67713 -0.23246,-2.58928 1.45205,-4.62799 4.04506,-4.89561 3.26025,-0.33649 5.66879,2.7228 4.69704,5.96615 -0.69996,2.33631 -3.81938,3.65944 -6.14528,2.60659 z m 3.2957,-0.88341 c 0.91883,-0.4448 0.973,-0.68982 0.15251,-0.68982 -0.56584,0 -0.65389,-0.0808 -1.24989,-1.14653 -0.35266,-0.63059 -0.71373,-1.14652 -0.8024,-1.14652 -0.0887,0 -0.1612,0.51593 -0.1612,1.14652 v 1.14653 h -0.61736 -0.61736 v -2.38125 -2.38125 l 1.36701,0.003 c 0.75186,0.001 1.56545,0.10299 1.80799,0.2257 0.37931,0.19189 0.44097,0.34301 0.44097,1.0806 0,0.81255 -0.10693,0.99204 -0.75702,1.27081 -0.11215,0.0481 1.22484,2.18279 1.3671,2.18279 0.33457,0 0.88923,-1.54031 0.88923,-2.46944 0,-1.69386 -1.17532,-3.293 -2.65988,-3.61906 -1.98917,-0.4369 -3.85312,1.29096 -3.86263,3.58062 -0.0115,2.77111 2.31558,4.3534 4.70293,3.1977 z m -0.58044,-3.90892 c 0.29785,-0.4755 -0.0783,-0.91625 -0.83695,-0.98078 l -0.64359,-0.0548 v 0.72685 0.72685 l 0.64359,-0.0547 c 0.37511,-0.0319 0.72425,-0.18352 0.83695,-0.36343 z M 81.380501,131.74305 v -4.40972 h 4.674306 4.674306 v 4.40972 4.40972 h -4.674306 -4.674306 z"
         id="path23" />
    </g>
  </g>
</svg>
