<?xml version="1.0" encoding="UTF-8" standalone="no"?>
<!-- Created with Inkscape (http://www.inkscape.org/) -->

<svg
   version="1.1"
   id="svg59"
   width="4012.488"
   height="1382.2083"
   viewBox="0 0 4012.488 1382.2083"
   sodipodi:docname="muRata-logo.svg"
   inkscape:version="1.2 (dc2aedaf03, 2022-05-15)"
   xmlns:inkscape="http://www.inkscape.org/namespaces/inkscape"
   xmlns:sodipodi="http://sodipodi.sourceforge.net/DTD/sodipodi-0.dtd"
   xmlns="http://www.w3.org/2000/svg"
   xmlns:svg="http://www.w3.org/2000/svg">
  <defs
     id="defs63" />
  <sodipodi:namedview
     id="namedview61"
     pagecolor="#ffffff"
     bordercolor="#000000"
     borderopacity="0.25"
     inkscape:showpageshadow="2"
     inkscape:pageopacity="0.0"
     inkscape:pagecheckerboard="0"
     inkscape:deskcolor="#d1d1d1"
     showgrid="false"
     inkscape:zoom="0.17232779"
     inkscape:cx="1854.0248"
     inkscape:cy="1204.1006"
     inkscape:window-width="1920"
     inkscape:window-height="1051"
     inkscape:window-x="2391"
     inkscape:window-y="-9"
     inkscape:window-maximized="1"
     inkscape:current-layer="g65" />
  <g
     inkscape:groupmode="layer"
     inkscape:label="Image"
     id="g65"
     transform="translate(67.461132,-1609.3906)">
    <g
       id="g177"
       transform="translate(-145.07236,1601.5989)">
      <path
         style="fill:#f15765"
         d="m 829.5,1367 1.80998,-2 h 0.5 0.5 l -1.80998,2 -1.80998,2 h -0.5 -0.5 z m 2890.3724,0.25 -1.3724,-1.75 1.75,1.3724 1.75,1.3725 v 0.3775 0.3776 h -0.3776 -0.3775 z M 1493.5,1352 l 1.81,-2 h 0.5 0.5 l -1.81,2 -1.81,2 h -0.5 -0.5 z M 3893,1238.6224 v -0.3775 l 1.75,-1.3725 1.75,-1.3724 -1.3724,1.75 -1.3725,1.75 H 3893.3776 3893 Z M 155.75,928.25013 220,927.9853 l 64.25,0.26483 64.25,0.26483 H 220 91.5 Z m 319.0625,0.0668 1.3125,-0.52522 0.60417,0.60416 0.60416,0.60417 -1.91666,-0.0789 -1.91667,-0.0789 1.3125,-0.52522 z m 161,0 1.3125,-0.52522 0.60417,0.60416 0.60416,0.60417 -1.91666,-0.0789 -1.91667,-0.0789 1.3125,-0.52522 z m 128,0 1.3125,-0.52522 0.60417,0.60416 0.60416,0.60417 -1.91666,-0.0789 -1.91667,-0.0789 1.3125,-0.52522 z m 342.0193,-0.0669 245.3318,-0.25403 244.6682,0.25403 244.6682,0.25403 h -490 l -490,-10e-6 z M 2709.75,928.25 3157,927.99778 3604.25,928.25 4051.5,928.50222 H 3157 2262.5 Z m -864,-0.91228 1.25,-0.50439 1.25,0.50439 1.25,0.50439 h -2.5 -2.5 z m 409.0625,-0.0208 1.3125,-0.52522 0.6042,0.60416 0.6041,0.60417 -1.9166,-0.0789 -1.9167,-0.0789 1.3125,-0.52522 z m 1802.9375,0.0208 1.25,-0.50439 1.25,0.50439 1.25,0.50439 h -2.5 -2.5 z m -2205.9375,-1.02083 1.3125,-0.52522 0.6042,0.60416 0.6041,0.60417 -1.9166,-0.0789 -1.9167,-0.0789 1.3125,-0.52522 z m 397,0 1.3125,-0.52522 0.6042,0.60416 0.6041,0.60417 -1.9166,-0.0789 -1.9167,-0.0789 1.3125,-0.52522 z m 1816,0 1.3125,-0.52522 0.6042,0.60416 0.6041,0.60417 -1.9166,-0.0789 -1.9167,-0.0789 1.3125,-0.52522 z M 465.43709,922.75 462.5,919.5 l 3.25,2.93709 3.25,2.93709 V 925.68709 926 h -0.31291 -0.31291 z M 645,923.5 647.34863,921 h 0.5 0.5 L 646,923.5 643.65137,926 h -0.5 -0.5 z m 1211.8125,1.81689 1.3125,-0.52522 0.6042,0.60416 0.6041,0.60417 -1.9166,-0.0789 -1.9167,-0.0789 1.3125,-0.52522 z M 358,922.5 360.34863,920 h 0.5 0.5 L 359,922.5 356.65137,925 h -0.5 -0.5 z m 3716,1.10699 v -0.39301 l 1.5519,-0.59554 1.552,-0.59553 -0.611,0.98854 L 4075.882,924 h -0.941 -0.941 z m -3994.541119,-3.67352 -0.659152,-1.06653 0.476597,-0.4766 0.476597,-0.4766 0.592154,1.54313 L 80.93723,921 H 80.527632 80.118034 Z M 1892,910.63619 v -0.5 l 3,-2.13619 3,-2.13619 v 0.5 0.5 l -3,2.13619 -3,2.13619 z M 2191.9658,896.25 2186.5,890.5 l 5.75,5.46584 5.75,5.46584 V 901.71584 902 h -0.2842 -0.2841 z M 82.078947,893.41667 82.157895,891.5 l 0.525219,1.3125 0.525219,1.3125 -0.604166,0.60417 L 82,895.33333 82.07895,893.41667 Z M 1914,890.62244 v -0.37755 l 1.75,-1.37245 1.75,-1.37244 -1.3724,1.75 -1.3725,1.75 H 1914.3776 1914 Z m 268.8724,-4.37244 -1.3724,-1.75 1.75,1.37244 1.75,1.37245 V 887.62244 888 h -0.3776 -0.3775 z m -4.5943,-6.5 -0.9667,-1.25 -0.7147,-1.25 -0.7147,-1.25 h 0.444 0.444 l 1.638,2.5 1.6381,2.5 h -0.4006 -0.4006 z m 1905.6462,-6.5 -2.4243,-2.75 2.75,2.42431 2.75,2.42432 V 875.67431 876 h -0.3257 -0.3257 z m -3984.1118,-4.93311 1.3125,-0.52522 0.60417,0.60416 0.60416,0.60417 -1.91666,-0.0789 -1.91667,-0.0789 1.3125,-0.52522 z m 31.9375,-0.0541 5.25,-0.36728 5.25,0.36728 5.25,0.36728 H 137 126.5 Z m 900.5729,-0.0124 33.8229,-0.27715 33.1771,0.27734 33.1771,0.27733 -67,-1.9e-4 -67,-1.9e-4 z m 1373.8833,0.009 6.7063,-0.34884 7.2937,0.346 7.2938,0.346 -14,0.003 -14,0.003 6.7062,-0.34883 z m 648.97,-0.009 36.6762,-0.27495 37.3238,0.27479 37.3238,0.27479 -74,1.6e-4 -74,1.6e-4 z m 396.1442,1.1e-4 26.8203,-0.2835 26.1797,0.2838 26.1796,0.2838 -53,-3e-4 -53,-2.9e-4 z m 579.4073,0.0277 3.2277,-0.40166 3.7723,0.39359 3.7723,0.39359 -7,0.008 -7,0.008 3.2277,-0.40166 z m 43.0848,0.0386 1.3125,-0.52522 0.6042,0.60416 0.6041,0.60417 -1.9166,-0.0789 -1.9167,-0.0789 1.3125,-0.52522 z m -2449,-1 1.3125,-0.52522 0.6042,0.60416 0.6041,0.60417 -1.9166,-0.0789 -1.9167,-0.0789 1.3125,-0.52522 z m 57.4565,-0.01 1.7691,-0.46099 1.2309,0.49804 1.231,0.49805 -3,-0.0371 -3,-0.0371 1.769,-0.46099 z m 1736.5435,0.01 1.3125,-0.52522 0.6042,0.60416 0.6041,0.60417 -1.9166,-0.0789 -1.9167,-0.0789 1.3125,-0.52522 z m -5,-1 1.3125,-0.52522 0.6042,0.60416 0.6041,0.60417 -1.9166,-0.0789 -1.9167,-0.0789 1.3125,-0.52522 z M 1140,865.68709 v -0.31291 l 3.25,-2.93709 3.25,-2.93709 -2.9371,3.25 -2.9371,3.25 H 1140.3129 1140 Z m 1394,-1.06465 v -0.37755 l 1.75,-1.37245 1.75,-1.37244 -1.3724,1.75 -1.3725,1.75 H 2534.3776 2534 Z m -156,-4.7445 -3.5,-3.06826 3.2198,2.14172 3.2197,2.14172 0.5893,0.95344 0.5892,0.95344 -0.309,-0.0269 -0.309,-0.0269 z m -676,1.72905 v -0.39301 l 1.5519,-0.59554 1.552,-0.59553 -0.611,0.98854 L 1703.882,862 h -0.941 -0.941 z m 1296.5,-2.1946 -3,-2.57768 3.25,2.15074 3.25,2.15074 v 0.4319 V 862 l -0.25,-0.005 -0.25,-0.005 -3,-2.57768 z m 1007.3724,0.83761 -1.3724,-1.75 1.75,1.37244 1.75,1.37245 V 861.62244 862 h -0.3776 -0.3775 z M 973.43709,856.75 970.5,853.5 l 3.25,2.93709 3.25,2.93709 V 859.68709 860 h -0.31291 -0.31291 z m 632.00001,0 -2.9371,-3.25 3.25,2.93709 3.25,2.93709 V 859.68709 860 h -0.3129 -0.3129 z m 1939.1272,1.95687 0.6828,-1.79313 0.5598,0.5598 0.5598,0.55979 -1.2426,1.23334 -1.2426,1.23333 z M 177.5,856 l 1.80998,-2 h 0.5 0.5 l -1.80998,2 -1.80998,2 h -0.5 -0.5 z m 201.57895,0.41667 0.0789,-1.91667 0.52522,1.3125 0.52522,1.3125 -0.60416,0.60417 -0.60417,0.60416 0.079,-1.91666 z M 1709,857.62244 v -0.37755 l 1.75,-1.37245 1.75,-1.37244 -1.3724,1.75 -1.3725,1.75 H 1709.3776 1709 Z m 831.0789,-4.20577 0.079,-1.91667 0.5252,1.3125 0.5252,1.3125 -0.6041,0.60417 -0.6042,0.60416 0.079,-1.91666 z M 3179.286,850.5 l 0.014,-5 0.4179,2.76375 0.4179,2.76375 -0.4316,2.23625 -0.4315,2.23625 0.014,-5 z M 1148.2724,850 v -4.5 l 0.4333,2.25 0.4334,2.25 -0.4334,2.25 -0.4333,2.25 z m 1223.0057,2.75 -0.9667,-1.25 -0.7147,-1.25 -0.7147,-1.25 h 0.444 0.444 l 1.638,2.5 1.6381,2.5 h -0.4006 -0.4006 z M 1716.5,851 l 1.81,-2 h 0.5 0.5 l -1.81,2 -1.81,2 h -0.5 -0.5 z m 1666.3724,0.25 -1.3724,-1.75 1.75,1.37244 1.75,1.37245 V 852.62244 853 h -0.3776 -0.3775 z M 185,848.62244 v -0.37755 l 1.75,-1.37245 1.75,-1.37244 -1.37244,1.75 -1.37245,1.75 H 185.37756 185 Z M 1322.9462,845.25 1319.5,841.5 l 3.75,3.44617 3.75,3.44616 V 848.69617 849 h -0.3038 -0.3039 z m 2053.4909,0.5 -2.9371,-3.25 3.25,2.93709 3.25,2.93709 V 848.68709 849 h -0.3129 -0.3129 z m -679.0321,0 -1.905,-2.25 2.25,1.90499 2.25,1.90499 V 847.65499 848 h -0.345 -0.345 z M 1720,846.62244 v -0.37755 l 1.75,-1.37245 1.75,-1.37244 -1.3724,1.75 -1.3725,1.75 H 1720.3776 1720 Z M 3700.4371,843.75 3697.5,840.5 l 3.25,2.93709 3.25,2.93709 V 846.68709 847 h -0.3129 -0.3129 z M 1392,841.5 l 3.3923,-3.5 h 0.5 0.5 l -3.3923,3.5 -3.3923,3.5 h -0.5 -0.5 z m 1300.8724,-0.25 -1.3724,-1.75 1.75,1.37244 1.75,1.37245 V 842.62244 843 h -0.3776 -0.3775 z m -1096.7935,-0.83333 0.079,-1.91667 0.5252,1.3125 0.5252,1.3125 -0.6041,0.60417 -0.6042,0.60416 0.079,-1.91666 z M 3788,838.5 l 3.3923,-3.5 h 0.5 0.5 l -3.3923,3.5 -3.3923,3.5 h -0.5 -0.5 z m -1007,2.18709 v -0.31291 l 3.25,-2.93709 3.25,-2.93709 -2.9371,3.25 -2.9371,3.25 H 2781.3129 2781 Z m -415.9211,-2.27042 0.079,-1.91667 0.5252,1.3125 0.5252,1.3125 -0.6041,0.60417 -0.6042,0.60416 0.079,-1.91666 z M 3369.8724,838.25 3368.5,836.5 l 1.75,1.37244 1.75,1.37245 V 839.62244 840 h -0.3776 -0.3775 z m -1208.7935,-0.83333 0.079,-1.91667 0.5252,1.3125 0.5252,1.3125 -0.6041,0.60417 -0.6042,0.60416 0.079,-1.91666 z m 1830,0 0.079,-1.91667 0.5252,1.3125 0.5252,1.3125 -0.6041,0.60417 -0.6042,0.60416 0.079,-1.91666 z M 2985.286,832.5 l 0.014,-5 0.4179,2.76375 0.4179,2.76375 -0.4316,2.23625 -0.4315,2.23625 0.014,-5 z M 963.29966,831 v -5.5 l 0.41659,2.75 0.41659,2.75 -0.41659,2.75 -0.41659,2.75 z M 2688,834 l -1.0704,-2 h 0.5 0.5 l 1.0704,2 1.0704,2 h -0.5 -0.5 z m 1004.4589,-1.06653 -0.6592,-1.06653 0.4766,-0.4766 0.4766,-0.4766 0.5922,1.54313 0.5921,1.54313 h -0.4096 -0.4096 z M 2160.1579,831 v -2.5 l 0.5044,1.25 0.5044,1.25 -0.5044,1.25 -0.5044,1.25 z M 2788,832.62244 v -0.37755 l 1.75,-1.37245 1.75,-1.37244 -1.3724,1.75 -1.3725,1.75 H 2788.3776 2788 Z m 1005,0 v -0.37755 l 1.75,-1.37245 1.75,-1.37244 -1.3724,1.75 -1.3725,1.75 H 3793.3776 3793 Z m -1261.5411,-4.68897 -0.6592,-1.06653 0.4766,-0.4766 0.4766,-0.4766 0.5922,1.54313 0.5921,1.54313 h -0.4096 -0.4096 z m -1567.37995,-5.5168 0.0789,-1.91667 0.52522,1.3125 0.52522,1.3125 -0.60416,0.60417 -0.60417,0.60416 0.0789,-1.91666 z m 632.99995,0 0.079,-1.91667 0.5252,1.3125 0.5252,1.3125 -0.6041,0.60417 -0.6042,0.60416 0.079,-1.91666 z M 2684.2522,817.5 l 0.02,-4 0.4349,2.26166 0.4349,2.26166 -0.4551,1.73834 -0.4551,1.73834 0.02,-4 z m -1372,-1 0.02,-4 0.4349,2.26166 0.4349,2.26166 -0.4551,1.73834 -0.4551,1.73834 0.02,-4 z m 846.9427,1 0.037,-3 0.461,1.76903 0.461,1.76903 -0.4981,1.23097 -0.498,1.23097 0.037,-3 z m 207.8357,-1 v -1 L 2368,814 l 0.9694,-1.5 v 1 1 L 2368,816 l -0.9694,1.5 z m -1234.9517,-5.08333 0.079,-1.91667 0.5252,1.3125 0.5252,1.3125 -0.6041,0.60417 -0.6042,0.60416 0.079,-1.91666 z m 1858,0 0.079,-1.91667 0.5252,1.3125 0.5252,1.3125 -0.6041,0.60417 -0.6042,0.60416 0.079,-1.91666 z m 700,-3 0.079,-1.91667 0.5252,1.3125 0.5252,1.3125 -0.6041,0.60417 -0.6042,0.60416 0.079,-1.91666 z m -2377,-1 0.079,-1.91667 0.5252,1.3125 0.5252,1.3125 -0.6041,0.60417 -0.6042,0.60416 0.079,-1.91666 z m -182,-1 0.079,-1.91667 0.5252,1.3125 0.5252,1.3125 -0.6041,0.60417 -0.6042,0.60416 0.079,-1.91666 z m 2031,0 0.079,-1.91667 0.5252,1.3125 0.5252,1.3125 -0.6041,0.60417 -0.6042,0.60416 0.079,-1.91666 z M 2160.1579,805 v -2.5 l 0.5044,1.25 0.5044,1.25 -0.5044,1.25 -0.5044,1.25 z m -1029.8378,-9 v -6.5 l 0.4033,3.25 0.4033,3.25 -0.4033,3.25 -0.4033,3.25 z m 2223.8378,4 v -2.5 l 0.5044,1.25 0.5044,1.25 -0.5044,1.25 -0.5044,1.25 z m -192.8855,-3 v -4.5 l 0.4333,2.25 0.4334,2.25 -0.4334,2.25 -0.4333,2.25 z m -1000.1935,1.41667 0.079,-1.91667 0.5252,1.3125 0.5252,1.3125 -0.6041,0.60417 -0.6042,0.60416 0.079,-1.91666 z m 835,-8 0.079,-1.91667 0.5252,1.3125 0.5252,1.3125 -0.6041,0.60417 -0.6042,0.60416 0.079,-1.91666 z m 699,0 0.079,-1.91667 0.5252,1.3125 0.5252,1.3125 -0.6041,0.60417 -0.6042,0.60416 0.079,-1.91666 z M 3162.1579,787 v -2.5 l 0.5044,1.25 0.5044,1.25 -0.5044,1.25 -0.5044,1.25 z m -2475.07895,-0.58333 0.0789,-1.91667 0.52522,1.3125 0.52522,1.3125 -0.60416,0.60417 -0.60417,0.60416 0.0789,-1.91666 z m 2003.99995,0 0.079,-1.91667 0.5252,1.3125 0.5252,1.3125 -0.6041,0.60417 -0.6042,0.60416 0.079,-1.91666 z M 1131.232,783 v -3.5 l 0.4573,1.75 0.4573,1.75 -0.4573,1.75 -0.4573,1.75 z m 2031.8469,-2.58333 0.079,-1.91667 0.5252,1.3125 0.5252,1.3125 -0.6041,0.60417 -0.6042,0.60416 0.079,-1.91666 z M 3354.1579,780 v -2.5 l 0.5044,1.25 0.5044,1.25 -0.5044,1.25 -0.5044,1.25 z m -661.079,-0.58333 0.079,-1.91667 0.5252,1.3125 0.5252,1.3125 -0.6041,0.60417 -0.6042,0.60416 0.079,-1.91666 z m -1561,-4 0.079,-1.91667 0.5252,1.3125 0.5252,1.3125 -0.6041,0.60417 -0.6042,0.60416 0.079,-1.91666 z m 190,0 0.079,-1.91667 0.5252,1.3125 0.5252,1.3125 -0.6041,0.60417 -0.6042,0.60416 0.079,-1.91666 z m 96,0 0.079,-1.91667 0.5252,1.3125 0.5252,1.3125 -0.6041,0.60417 -0.6042,0.60416 0.079,-1.91666 z m 1746,-1 0.079,-1.91667 0.5252,1.3125 0.5252,1.3125 -0.6041,0.60417 -0.6042,0.60416 0.079,-1.91666 z m -2951.99995,-1 0.0789,-1.91667 0.52522,1.3125 0.52522,1.3125 -0.60416,0.60417 -0.60417,0.60416 0.0789,-1.91666 z m 1397.99995,0 0.079,-1.91667 0.5252,1.3125 0.5252,1.3125 -0.6041,0.60417 -0.6042,0.60416 0.079,-1.91666 z m -918.99995,-1 0.0789,-1.91667 0.52522,1.3125 0.52522,1.3125 -0.60416,0.60417 -0.60417,0.60416 0.0789,-1.91666 z m 1688.99995,0 0.079,-1.91667 0.5252,1.3125 0.5252,1.3125 -0.6041,0.60417 -0.6042,0.60416 0.079,-1.91666 z m 315,0 0.079,-1.91667 0.5252,1.3125 0.5252,1.3125 -0.6041,0.60417 -0.6042,0.60416 0.079,-1.91666 z m -1562,-2 0.079,-1.91667 0.5252,1.3125 0.5252,1.3125 -0.6041,0.60417 -0.6042,0.60416 0.079,-1.91666 z m 2384,0 0.079,-1.91667 0.5252,1.3125 0.5252,1.3125 -0.6041,0.60417 -0.6042,0.60416 0.079,-1.91666 z m -351,-6 0.079,-1.91667 0.5252,1.3125 0.5252,1.3125 -0.6041,0.60417 -0.6042,0.60416 0.079,-1.91666 z m -656,-1 0.079,-1.91667 0.5252,1.3125 0.5252,1.3125 -0.6041,0.60417 -0.6042,0.60416 0.079,-1.91666 z m -1718.99995,-2 0.0789,-1.91667 0.52522,1.3125 0.52522,1.3125 -0.60416,0.60417 -0.60417,0.60416 0.0789,-1.91666 z m 630.99995,0 0.079,-1.91667 0.5252,1.3125 0.5252,1.3125 -0.6041,0.60417 -0.6042,0.60416 0.079,-1.91666 z m 2093,-1 0.079,-1.91667 0.5252,1.3125 0.5252,1.3125 -0.6041,0.60417 -0.6042,0.60416 0.079,-1.91666 z m -3010.99995,-1 0.0789,-1.91667 0.52522,1.3125 0.52522,1.3125 -0.60416,0.60417 -0.60417,0.60416 0.079,-1.91666 z m 2004.99995,-2 0.079,-1.91667 0.5252,1.3125 0.5252,1.3125 -0.6041,0.60417 -0.6042,0.60416 0.079,-1.91666 z m -1715.99995,-3 0.0789,-1.91667 0.52522,1.3125 0.52522,1.3125 -0.60416,0.60417 -0.60417,0.60416 0.0789,-1.91666 z m 1379.99995,0 0.079,-1.91667 0.5252,1.3125 0.5252,1.3125 -0.6041,0.60417 -0.6042,0.60416 0.079,-1.91666 z m 1341,0 0.079,-1.91667 0.5252,1.3125 0.5252,1.3125 -0.6041,0.60417 -0.6042,0.60416 0.079,-1.91666 z m -3104.99995,-2 0.0789,-1.91667 0.52522,1.3125 0.52522,1.3125 -0.60416,0.60417 -0.60417,0.60416 0.079,-1.91666 z m 97,0 0.0789,-1.91667 0.52522,1.3125 0.52522,1.3125 -0.60416,0.60417 -0.60417,0.60416 0.079,-1.91666 z M 2508.1579,752 v -2.5 l 0.5044,1.25 0.5044,1.25 -0.5044,1.25 -0.5044,1.25 z m -756.079,-1.58333 0.079,-1.91667 0.5252,1.3125 0.5252,1.3125 -0.6041,0.60417 -0.6042,0.60416 0.079,-1.91666 z m 423,-3 0.079,-1.91667 0.5252,1.3125 0.5252,1.3125 -0.6041,0.60417 -0.6042,0.60416 0.079,-1.91666 z m 1338.116,-0.91667 0.037,-3 0.461,1.76903 0.461,1.76903 -0.4981,1.23097 -0.498,1.23097 0.037,-3 z m -150.116,-0.0833 0.079,-1.91667 0.5252,1.3125 0.5252,1.3125 -0.6041,0.60417 -0.6042,0.60416 0.079,-1.91666 z m -2951.99995,-1 0.0789,-1.91667 0.52522,1.3125 0.52522,1.3125 -0.60416,0.60417 -0.60417,0.60416 0.079,-1.91666 z m 97,0 0.0789,-1.91667 0.52522,1.3125 0.52522,1.3125 -0.60416,0.60417 -0.60417,0.60416 0.079,-1.91666 z M 2507.232,743 v -3.5 l 0.4573,1.75 0.4573,1.75 -0.4573,1.75 -0.4573,1.75 z m 195.8469,1.41667 0.079,-1.91667 0.5252,1.3125 0.5252,1.3125 -0.6041,0.60417 -0.6042,0.60416 0.079,-1.91666 z m -2481.99995,-2 0.0789,-1.91667 0.52522,1.3125 0.52522,1.3125 -0.60416,0.60417 -0.60417,0.60416 0.0789,-1.91666 z m 766,0 0.0789,-1.91667 0.52522,1.3125 0.52522,1.3125 -0.60416,0.60417 -0.60417,0.60416 0.0789,-1.91666 z m 344.99995,0 0.079,-1.91667 0.5252,1.3125 0.5252,1.3125 -0.6041,0.60417 -0.6042,0.60416 0.079,-1.91666 z m 1057,-1 0.079,-1.91667 0.5252,1.3125 0.5252,1.3125 -0.6041,0.60417 -0.6042,0.60416 0.079,-1.91666 z m 976,-2 0.079,-1.91667 0.5252,1.3125 0.5252,1.3125 -0.6041,0.60417 -0.6042,0.60416 0.079,-1.91666 z m -2951.99995,-1 0.0789,-1.91667 0.52522,1.3125 0.52522,1.3125 -0.60416,0.60417 -0.60417,0.60416 0.079,-1.91666 z M 3512.1949,736.5 l 0.037,-3 0.461,1.76903 0.461,1.76903 -0.4981,1.23097 -0.498,1.23097 0.037,-3 z m -2714.11595,-0.0833 0.0789,-1.91667 0.52522,1.3125 0.52522,1.3125 -0.60416,0.60417 -0.60417,0.60416 0.0789,-1.91666 z m 957.99995,0 0.079,-1.91667 0.5252,1.3125 0.5252,1.3125 -0.6041,0.60417 -0.6042,0.60416 0.079,-1.91666 z m 212,0 0.079,-1.91667 0.5252,1.3125 0.5252,1.3125 -0.6041,0.60417 -0.6042,0.60416 0.079,-1.91666 z m 2049,0 0.079,-1.91667 0.5252,1.3125 0.5252,1.3125 -0.6041,0.60417 -0.6042,0.60416 0.079,-1.91666 z m -3027.99995,-1 0.0789,-1.91667 0.52522,1.3125 0.52522,1.3125 -0.60416,0.60417 -0.60417,0.60416 0.0789,-1.91666 z M 2506.3201,729 v -6.5 l 0.4033,3.25 0.4033,3.25 -0.4033,3.25 -0.4033,3.25 z m 860.7588,3.41667 0.079,-1.91667 0.5252,1.3125 0.5252,1.3125 -0.6041,0.60417 -0.6042,0.60416 0.079,-1.91666 z m -2951.99995,-1 0.0789,-1.91667 0.52522,1.3125 0.52522,1.3125 -0.60416,0.60417 -0.60417,0.60416 0.079,-1.91666 z m 97,0 0.0789,-1.91667 0.52522,1.3125 0.52522,1.3125 -0.60416,0.60417 -0.60417,0.60416 0.0789,-1.91666 z m 288,-2 0.0789,-1.91667 0.52522,1.3125 0.52522,1.3125 -0.60416,0.60417 -0.60417,0.60416 0.0789,-1.91666 z m 2568.99995,-4 0.079,-1.91667 0.5252,1.3125 0.5252,1.3125 -0.6041,0.60417 -0.6042,0.60416 0.079,-1.91666 z m -2854.99995,-1 0.0789,-1.91667 0.52522,1.3125 0.52522,1.3125 -0.60416,0.60417 -0.60417,0.60416 0.0789,-1.91666 z m 918.99995,-1 0.079,-1.91667 0.5252,1.3125 0.5252,1.3125 -0.6041,0.60417 -0.6042,0.60416 0.079,-1.91666 z m 749,0 0.079,-1.91667 0.5252,1.3125 0.5252,1.3125 -0.6041,0.60417 -0.6042,0.60416 0.079,-1.91666 z m 1329.116,-6.91667 0.037,-3 0.461,1.76903 0.461,1.76903 -0.4981,1.23097 -0.498,1.23097 0.037,-3 z m -2803.11595,-3.08333 0.0789,-1.91667 0.52522,1.3125 0.52522,1.3125 -0.60416,0.60417 -0.60417,0.60416 0.0789,-1.91666 z m -478,-2 0.0789,-1.91667 0.52522,1.3125 0.52522,1.3125 -0.60416,0.60417 -0.60417,0.60416 0.0789,-1.91666 z m 3142.99995,0 0.079,-1.91667 0.5252,1.3125 0.5252,1.3125 -0.6041,0.60417 -0.6042,0.60416 0.079,-1.91666 z m -975,-1 0.079,-1.91667 0.5252,1.3125 0.5252,1.3125 -0.6041,0.60417 -0.6042,0.60416 0.079,-1.91666 z m -961,-1 0.079,-1.91667 0.5252,1.3125 0.5252,1.3125 -0.6041,0.60417 -0.6042,0.60416 0.079,-1.91666 z m -95,-1 0.079,-1.91667 0.5252,1.3125 0.5252,1.3125 -0.6041,0.60417 -0.6042,0.60416 0.079,-1.91666 z m 634,0 0.079,-1.91667 0.5252,1.3125 0.5252,1.3125 -0.6041,0.60417 -0.6042,0.60416 0.079,-1.91666 z m 1857,0 0.079,-1.91667 0.5252,1.3125 0.5252,1.3125 -0.6041,0.60417 -0.6042,0.60416 0.079,-1.91666 z m 192,0 0.079,-1.91667 0.5252,1.3125 0.5252,1.3125 -0.6041,0.60417 -0.6042,0.60416 0.079,-1.91666 z M 2506.2997,704 v -5.5 l 0.4166,2.75 0.4165,2.75 -0.4165,2.75 -0.4166,2.75 z m -2274.22075,0.41667 0.0789,-1.91667 0.52522,1.3125 0.52522,1.3125 -0.60416,0.60417 -0.60417,0.60416 0.0789,-1.91666 z M 3512.2522,697.5 l 0.02,-4 0.4349,2.26166 0.4349,2.26166 -0.4551,1.73834 -0.4551,1.73834 0.02,-4 z m -2703.17325,-0.0833 0.0789,-1.91667 0.52522,1.3125 0.52522,1.3125 -0.60416,0.60417 -0.60417,0.60416 0.0789,-1.91666 z m -287,-1 0.0789,-1.91667 0.52522,1.3125 0.52522,1.3125 -0.60416,0.60417 -0.60417,0.60416 0.0789,-1.91666 z m 823.99995,-2 0.079,-1.91667 0.5252,1.3125 0.5252,1.3125 -0.6041,0.60417 -0.6042,0.60416 0.079,-1.91666 z m 634,0 0.079,-1.91667 0.5252,1.3125 0.5252,1.3125 -0.6041,0.60417 -0.6042,0.60416 0.079,-1.91666 z m 1857,0 0.079,-1.91667 0.5252,1.3125 0.5252,1.3125 -0.6041,0.60417 -0.6042,0.60416 0.079,-1.91666 z m 192,0 0.079,-1.91667 0.5252,1.3125 0.5252,1.3125 -0.6041,0.60417 -0.6042,0.60416 0.079,-1.91666 z m -1521.884,-2.9167 0.037,-3 0.461,1.76903 0.461,1.76903 -0.4981,1.23097 -0.498,1.23097 0.037,-3 z m -1505.116,-1.08333 0.079,-1.91667 0.5252,1.3125 0.5252,1.3125 -0.6041,0.60417 -0.6042,0.60416 0.079,-1.91666 z m 2511.116,-2.91667 0.037,-3 0.461,1.76903 0.461,1.76903 -0.4981,1.23097 -0.498,1.23097 0.037,-3 z m -2165.116,-0.0833 0.079,-1.91667 0.5252,1.3125 0.5252,1.3125 -0.6041,0.60417 -0.6042,0.60416 0.079,-1.91666 z m -919.99995,-1 0.0789,-1.91667 0.52522,1.3125 0.52522,1.3125 -0.60416,0.60417 -0.60417,0.60416 0.079,-1.91666 z m 575.99995,-3 0.079,-1.91667 0.5252,1.3125 0.5252,1.3125 -0.6041,0.60417 -0.6042,0.60416 0.079,-1.91666 z M 2508.1579,683 v -2.5 l 0.5044,1.25 0.5044,1.25 -0.5044,1.25 -0.5044,1.25 z m 1006,-3 v -2.5 l 0.5044,1.25 0.5044,1.25 -0.5044,1.25 -0.5044,1.25 z m 326.921,0.41667 0.079,-1.91667 0.5252,1.3125 0.5252,1.3125 -0.6041,0.60417 -0.6042,0.60416 0.079,-1.91666 z m -1119,-3 0.079,-1.91667 0.5252,1.3125 0.5252,1.3125 -0.6041,0.60417 -0.6042,0.60416 0.079,-1.91666 z m -2193.99995,-2 0.0789,-1.91667 0.52522,1.3125 0.52522,1.3125 -0.60416,0.60417 -0.60417,0.60416 0.0789,-1.91666 z m 2986.99995,-2 0.079,-1.91667 0.5252,1.3125 0.5252,1.3125 -0.6041,0.60417 -0.6042,0.60416 0.079,-1.91666 z m -1005,-3 0.079,-1.91667 0.5252,1.3125 0.5252,1.3125 -0.6041,0.60417 -0.6042,0.60416 0.079,-1.91666 z m 214,0 0.079,-1.91667 0.5252,1.3125 0.5252,1.3125 -0.6041,0.60417 -0.6042,0.60416 0.079,-1.91666 z m -2481.99995,-1 0.0789,-1.91667 0.52522,1.3125 0.52522,1.3125 -0.60416,0.60417 -0.60417,0.60416 0.0789,-1.91666 z m 479,-1 0.0789,-1.91667 0.52522,1.3125 0.52522,1.3125 -0.60416,0.60417 -0.60417,0.60416 0.0789,-1.91666 z m 2794.99995,0 0.079,-1.91667 0.5252,1.3125 0.5252,1.3125 -0.6041,0.60417 -0.6042,0.60416 0.079,-1.91666 z m -1528,-2 0.079,-1.91667 0.5252,1.3125 0.5252,1.3125 -0.6041,0.60417 -0.6042,0.60416 0.079,-1.91666 z m 1857,0 0.079,-1.91667 0.5252,1.3125 0.5252,1.3125 -0.6041,0.60417 -0.6042,0.60416 0.079,-1.91666 z m 192,0 0.079,-1.91667 0.5252,1.3125 0.5252,1.3125 -0.6041,0.60417 -0.6042,0.60416 0.079,-1.91666 z m -2587,-2 0.079,-1.91667 0.5252,1.3125 0.5252,1.3125 -0.6041,0.60417 -0.6042,0.60416 0.079,-1.91666 z m 1276,-1 0.079,-1.91667 0.5252,1.3125 0.5252,1.3125 -0.6041,0.60417 -0.6042,0.60416 0.079,-1.91666 z m 1006,-3 0.079,-1.91667 0.5252,1.3125 0.5252,1.3125 -0.6041,0.60417 -0.6042,0.60416 0.079,-1.91666 z m -344,-2 0.079,-1.91667 0.5252,1.3125 0.5252,1.3125 -0.6041,0.60417 -0.6042,0.60416 0.079,-1.91666 z m -1936,-1 0.079,-1.91667 0.5252,1.3125 0.5252,1.3125 -0.6041,0.60417 -0.6042,0.60416 0.079,-1.91666 z m 1061,-1 0.079,-1.91667 0.5252,1.3125 0.5252,1.3125 -0.6041,0.60417 -0.6042,0.60416 0.079,-1.91666 z m 215,0 0.079,-1.91667 0.5252,1.3125 0.5252,1.3125 -0.6041,0.60417 -0.6042,0.60416 0.079,-1.91666 z m -2481.99995,-1 0.0789,-1.91667 0.52522,1.3125 0.52522,1.3125 -0.60416,0.60417 -0.60417,0.60416 0.0789,-1.91666 z m 575,-1 0.0789,-1.91667 0.52522,1.3125 0.52522,1.3125 -0.60416,0.60417 -0.60417,0.60416 0.0789,-1.91666 z m 1380.99995,0 0.079,-1.91667 0.5252,1.3125 0.5252,1.3125 -0.6041,0.60417 -0.6042,0.60416 0.079,-1.91666 z m 1532,-1 0.079,-1.91667 0.5252,1.3125 0.5252,1.3125 -0.6041,0.60417 -0.6042,0.60416 0.079,-1.91666 z m -344,-2 0.079,-1.91667 0.5252,1.3125 0.5252,1.3125 -0.6041,0.60417 -0.6042,0.60416 0.079,-1.91666 z m -1609,-2 0.079,-1.91667 0.5252,1.3125 0.5252,1.3125 -0.6041,0.60417 -0.6042,0.60416 0.079,-1.91666 z m 949,0 0.079,-1.91667 0.5252,1.3125 0.5252,1.3125 -0.6041,0.60417 -0.6042,0.60416 0.079,-1.91666 z m -526,-2 0.079,-1.91667 0.5252,1.3125 0.5252,1.3125 -0.6041,0.60417 -0.6042,0.60416 0.079,-1.91666 z m 1317,0 0.079,-1.91667 0.5252,1.3125 0.5252,1.3125 -0.6041,0.60417 -0.6042,0.60416 0.079,-1.91666 z m -2506,-2 0.079,-1.91667 0.5252,1.3125 0.5252,1.3125 -0.6041,0.60417 -0.6042,0.60416 0.079,-1.91666 z m 979,0 0.079,-1.91667 0.5252,1.3125 0.5252,1.3125 -0.6041,0.60417 -0.6042,0.60416 0.079,-1.91666 z m 1857,0 0.079,-1.91667 0.5252,1.3125 0.5252,1.3125 -0.6041,0.60417 -0.6042,0.60416 0.079,-1.91666 z m 192,0 0.079,-1.91667 0.5252,1.3125 0.5252,1.3125 -0.6041,0.60417 -0.6042,0.60416 0.079,-1.91666 z m -3505.99995,-2 0.0789,-1.91667 0.52522,1.3125 0.52522,1.3125 -0.60416,0.60417 -0.60417,0.60416 0.0789,-1.91666 z m 1880.99995,-2 0.079,-1.91667 0.5252,1.3125 0.5252,1.3125 -0.6041,0.60417 -0.6042,0.60416 0.079,-1.91666 z m 1320,-2 0.079,-1.91667 0.5252,1.3125 0.5252,1.3125 -0.6041,0.60417 -0.6042,0.60416 0.079,-1.91666 z m -2721,-1 0.079,-1.91667 0.5252,1.3125 0.5252,1.3125 -0.6041,0.60417 -0.6042,0.60416 0.079,-1.91666 z m 3028,0 0.079,-1.91667 0.5252,1.3125 0.5252,1.3125 -0.6041,0.60417 -0.6042,0.60416 0.079,-1.91666 z m -651,-1 0.079,-1.91667 0.5252,1.3125 0.5252,1.3125 -0.6041,0.60417 -0.6042,0.60416 0.079,-1.91666 z m -2567.99995,-1 0.0789,-1.91667 0.52522,1.3125 0.52522,1.3125 -0.60416,0.60417 -0.60417,0.60416 0.0789,-1.91666 z m 958.99995,-1 0.079,-1.91667 0.5252,1.3125 0.5252,1.3125 -0.6041,0.60417 -0.6042,0.60416 0.079,-1.91666 z m 1418,-1 0.079,-1.91667 0.5252,1.3125 0.5252,1.3125 -0.6041,0.60417 -0.6042,0.60416 0.079,-1.91666 z m 2,-7 0.079,-1.91667 0.5252,1.3125 0.5252,1.3125 -0.6041,0.60417 -0.6042,0.60416 0.079,-1.91666 z M 446,624.05902 v -0.94099 l 0.98855,-0.61095 0.98854,-0.61096 -0.59553,1.55194 L 446.78602,625 H 446.39301 446 Z m 1977.0789,-0.64235 0.079,-1.91667 0.5252,1.3125 0.5252,1.3125 -0.6041,0.60417 -0.6042,0.60416 0.079,-1.91666 z M 738.5,617 l 1.80998,-2 h 0.5 0.5 l -1.80998,2 -1.80998,2 h -0.5 -0.5 z m 4.23333,-3.12409 1.23334,-1.24258 0.55979,0.5598 0.5598,0.55979 -1.79313,0.68279 -1.79313,0.68278 z m 1682.34557,-0.45924 0.079,-1.91667 0.5252,1.3125 0.5252,1.3125 -0.6041,0.60417 -0.6042,0.60416 0.079,-1.91666 z m -2255.2664,-4.09978 1.3125,-0.52522 0.60417,0.60416 0.60416,0.60417 -1.91666,-0.0789 -1.91667,-0.0789 1.3125,-0.52522 z m 3.9375,0.0208 1.25,-0.50439 1.25,0.50439 1.25,0.50439 h -2.5 -2.5 z m 293.98333,-1.46181 1.23334,-1.24258 0.55979,0.5598 0.5598,0.55979 -1.79313,0.68279 -1.79313,0.68278 z M 159.92431,604.25 157.5,601.5 l 2.75,2.42431 2.75,2.42432 V 606.67431 607 h -0.32569 -0.32568 z M 761,605 l 1.5,-0.96937 h 1 1 L 763,605 l -1.5,0.96937 h -1 -1 z m 1665.2724,-4 v -4.5 l 0.4333,2.25 0.4334,2.25 -0.4334,2.25 -0.4333,2.25 z m -209.1935,0.41667 0.079,-1.91667 0.5252,1.3125 0.5252,1.3125 -0.6041,0.60417 -0.6042,0.60416 0.079,-1.91666 z M 261.27236,598 v -4.5 l 0.43337,2.25 0.43337,2.25 -0.43337,2.25 -0.43337,2.25 z m 919.92254,0.5 0.037,-3 0.461,1.76903 0.461,1.76903 -0.4981,1.23097 -0.498,1.23097 0.037,-3 z M 836.232,597 v -3.5 l 0.45733,1.75 0.45732,1.75 -0.45732,1.75 -0.45733,1.75 z m 2569.8469,-1.58333 0.079,-1.91667 0.5252,1.3125 0.5252,1.3125 -0.6041,0.60417 -0.6042,0.60416 0.079,-1.91666 z m -2623.34557,-0.54076 1.23334,-1.24258 0.55979,0.5598 0.5598,0.55979 -1.79313,0.68279 -1.79313,0.68278 z M 1103.8724,593.25 1102.5,591.5 l 1.75,1.37244 1.75,1.37245 V 594.62244 595 h -0.3776 -0.3775 z m 693.2065,0.16667 0.079,-1.91667 0.5252,1.3125 0.5252,1.3125 -0.6041,0.60417 -0.6042,0.60416 0.079,-1.91666 z m 420,-4 0.079,-1.91667 0.5252,1.3125 0.5252,1.3125 -0.6041,0.60417 -0.6042,0.60416 0.079,-1.91666 z M 2425.1579,588 v -2.5 l 0.5044,1.25 0.5044,1.25 -0.5044,1.25 -0.5044,1.25 z M 799,587 l 1.5,-0.96937 h 1 1 L 801,587 l -1.5,0.96937 h -1 -1 z m -648.92105,-2.58333 0.0789,-1.91667 0.52522,1.3125 0.52522,1.3125 -0.60416,0.60417 -0.60417,0.60416 0.0789,-1.91666 z M 230,584 l 1.5,-0.96937 h 1 1 L 232,584 l -1.5,0.96937 h -1 -1 z m 2194.0789,-2.58333 0.079,-1.91667 0.5252,1.3125 0.5252,1.3125 -0.6041,0.60417 -0.6042,0.60416 0.079,-1.91666 z m -2184.2664,-1.09978 1.3125,-0.52522 0.60417,0.60416 0.60416,0.60417 -1.91666,-0.0789 -1.91667,-0.0789 1.3125,-0.52522 z m 4.9375,0.0208 1.25,-0.50439 1.25,0.50439 1.25,0.50439 h -2.5 -2.5 z m 285.0625,-0.0208 1.3125,-0.52522 0.60417,0.60416 0.60416,0.60417 -1.91666,-0.0789 -1.91667,-0.0789 1.3125,-0.52522 z m 286.9375,0.0208 1.25,-0.50439 1.25,0.50439 1.25,0.50439 h -2.5 -2.5 z m -666.67105,-1.92105 0.0789,-1.91667 0.52522,1.3125 0.52522,1.3125 -0.60416,0.60417 -0.60417,0.60416 0.0789,-1.91666 z m 2272.99995,-1 0.079,-1.91667 0.5252,1.3125 0.5252,1.3125 -0.6041,0.60417 -0.6042,0.60416 0.079,-1.91666 z m -216.626,-7.66667 -3.9529,-4.25 4.25,3.95295 4.25,3.95295 v 0.29705 0.29705 h -0.2971 -0.297 z M 154,570.62244 v -0.37755 l 1.75,-1.37245 1.75,-1.37244 -1.37244,1.75 -1.37245,1.75 H 154.37756 154 Z m 3409,-6 v -0.37755 l 1.75,-1.37245 1.75,-1.37244 -1.3724,1.75 -1.3725,1.75 H 3563.3776 3563 Z m -2523.9211,-4.20577 0.079,-1.91667 0.5252,1.3125 0.5252,1.3125 -0.6041,0.60417 -0.6042,0.60416 0.079,-1.91666 z M 2560,561.62244 v -0.37755 l 1.75,-1.37245 1.75,-1.37244 -1.3724,1.75 -1.3725,1.75 H 2560.3776 2560 Z m 1206,-1 v -0.37755 l 1.75,-1.37245 1.75,-1.37244 -1.3724,1.75 -1.3725,1.75 H 3766.3776 3766 Z m -1737.1875,-1.30555 1.3125,-0.52522 0.6042,0.60416 0.6041,0.60417 -1.9166,-0.0789 -1.9167,-0.0789 1.3125,-0.52522 z m 155.9375,0.0208 1.25,-0.50439 1.25,0.50439 1.25,0.50439 h -2.5 -2.5 z M 3567,559.62241 v -0.37755 l 1.75,-1.37245 1.75,-1.37244 -1.3724,1.75 -1.3725,1.75 H 3567.3776 3567 Z M 1385.1949,555.5 l 0.037,-3 0.461,1.76903 0.461,1.76903 -0.4981,1.23097 -0.498,1.23097 0.037,-3 z M 181,556 l 1.5,-0.96937 h 1 1 L 183,556 l -1.5,0.96937 h -1 -1 z m 2586.9582,-3.25 4.4582,-4.75 h 0.2918 0.2918 v 0.29179 0.29179 l -4.75,4.45821 -4.75,4.45821 z M 1040.232,553 v -3.5 l 0.4573,1.75 0.4573,1.75 -0.4573,1.75 -0.4573,1.75 z m 1526.768,0.5 2.3486,-2.5 h 0.5 0.5 l -2.3486,2.5 -2.3486,2.5 h -0.5 -0.5 z m 1203,2.18709 v -0.31291 l 3.25,-2.93709 3.25,-2.93709 -2.9371,3.25 -2.9371,3.25 H 3770.3129 3770 Z m -198,-2 v -0.31291 l 3.25,-2.93709 3.25,-2.93709 -2.9371,3.25 -2.9371,3.25 H 3572.3129 3572 Z M 2407.9462,549.25 2404.5,545.5 l 3.75,3.44617 3.75,3.44616 V 552.69617 553 h -0.3038 -0.3039 z M 481.25,548.31067 l 1.75,-0.45732 1.75,0.45732 1.75,0.45733 h -3.5 -3.5 z m 288,0 1.75,-0.45732 1.75,0.45732 1.75,0.45733 H 771 767.5 Z M 3779,547.62244 v -0.37755 l 1.75,-1.37245 1.75,-1.37244 -1.3724,1.75 -1.3725,1.75 H 3779.3776 3779 Z m -3305.49292,-1.61099 -0.61096,-0.98854 1.55194,0.59553 L 476,546.21398 V 546.60699 547 h -0.94098 -0.94099 z M 2579,540.5 l 5.4317,-5.5 h 0.5 0.5 l -5.4317,5.5 -5.4317,5.5 h -0.5 -0.5 z m 1299.0789,3.91667 0.079,-1.91667 0.5252,1.3125 0.5252,1.3125 -0.6041,0.60417 -0.6042,0.60416 0.079,-1.91666 z M 469.87244,543.25 468.5,541.5 l 1.75,1.37244 1.75,1.37245 V 544.62244 545 h -0.37756 -0.37755 z M 1040.232,540 v -3.5 l 0.4573,1.75 0.4573,1.75 -0.4573,1.75 -0.4573,1.75 z m 2836.3323,0.29313 -0.6828,-1.79313 1.2426,1.23333 1.2426,1.23334 -0.5598,0.55979 -0.5598,0.5598 z M 3791,539.5095 v -0.45814 l 3.0929,-1.59942 3.093,-1.59941 0.3945,0.39451 0.3945,0.39451 -3.4875,1.66305 -3.4874,1.66304 z m -2405.9211,-2.09283 0.079,-1.91667 0.5252,1.3125 0.5252,1.3125 -0.6041,0.60417 -0.6042,0.60416 0.079,-1.91666 z M 802,535.60699 v -0.39301 l 1.55194,-0.59554 1.55194,-0.59553 -0.61096,0.98854 L 803.88197,536 H 802.94098 802 Z m 237.0789,-3.19032 0.079,-1.91667 0.5252,1.3125 0.5252,1.3125 -0.6041,0.60417 -0.6042,0.60416 0.079,-1.91666 z M 3592,533.68709 v -0.31291 l 3.25,-2.93709 3.25,-2.93709 -2.9371,3.25 -2.9371,3.25 H 3592.3129 3592 Z m -2207.9211,-2.27042 0.079,-1.91667 0.5252,1.3125 0.5252,1.3125 -0.6041,0.60417 -0.6042,0.60416 0.079,-1.91666 z m 2427.7336,-0.0998 1.3125,-0.52522 0.6042,0.60416 0.6041,0.60417 -1.9166,-0.0789 -1.9167,-0.0789 1.3125,-0.52522 z M 2591.5,529 l 1.81,-2 h 0.5 0.5 l -1.81,2 -1.81,2 h -0.5 -0.5 z m 218.25,1.33772 1.25,-0.50439 1.25,0.50439 1.25,0.50439 h -2.5 -2.5 z m 1007,0 1.25,-0.50439 1.25,0.50439 1.25,0.50439 h -2.5 -2.5 z m -989.5,-1.08393 10.75,-0.32145 10.75,0.32145 10.75,0.32145 h -21.5 -21.5 z m 1010,0.002 8.75,-0.3333 8.75,0.3333 8.75,0.3333 H 3846 3828.5 Z M 2370.8724,526.25 2369.5,524.5 l 1.75,1.37244 1.75,1.37245 V 527.62244 528 h -0.3776 -0.3775 z M 248,525 l 1.5,-0.96937 h 1 1 L 250,525 l -1.5,0.96937 h -1 -1 z m 288,0.60699 v -0.39301 l 1.55194,-0.59554 1.55194,-0.59553 -0.61096,0.98854 L 537.88197,526 H 536.94098 536 Z M 2597.5,524 l 1.81,-2 h 0.5 0.5 l -1.81,2 -1.81,2 h -0.5 -0.5 z m 1003.5,1.62244 v -0.37755 l 1.75,-1.37245 1.75,-1.37244 -1.3724,1.75 -1.3725,1.75 H 3601.3776 3601 Z M 541,523 l 1.5,-0.96937 h 1 1 L 543,523 l -1.5,0.96937 h -1 -1 z m 1824.8724,-1.75 -1.3724,-1.75 1.75,1.37244 1.75,1.37245 V 522.62244 523 h -0.3776 -0.3775 z M 3605,522.66806 v -0.5 l 4,-3.16806 4,-3.16806 v 0.5 0.5 l -4,3.16806 -4,3.16806 z M 1178,520 l 1.5,-0.96937 h 1 1 L 1180,520 l -1.5,0.96937 h -1 -1 z m -917,-1 1.5,-0.96937 h 1 1 L 263,519 l -1.5,0.96937 h -1 -1 z m 576,0 1.5,-0.96937 h 1 1 L 839,519 l -1.5,0.96937 h -1 -1 z m 1527.1579,-2 v -2.5 l 0.5044,1.25 0.5044,1.25 -0.5044,1.25 -0.5044,1.25 z M 457.56429,513.29313 456.88151,511.5 l 1.24258,1.23333 1.24258,1.23334 -0.5598,0.55979 -0.55979,0.5598 z M 2366.5,512 l 1.81,-2 h 0.5 0.5 l -1.81,2 -1.81,2 h -0.5 -0.5 z M 573,508 l 1.5,-0.96937 h 1 1 L 575,508 l -1.5,0.96937 h -1 -1 z m -274,-6.39301 v -0.39301 l 1.55194,-0.59554 1.55194,-0.59553 -0.61096,0.98854 L 300.88197,502 H 299.94098 299 Z M 589,500.5 l 2.5,-1.42913 h 1 1 L 591,500.5 l -2.5,1.42913 h -1 -1 z m 147.87244,-0.25 -1.37244,-1.75 1.75,1.37244 1.75,1.37245 V 501.62244 502 h -0.37756 -0.37755 z m 287.99996,0 -1.3724,-1.75 1.75,1.37244 1.75,1.37245 V 501.62244 502 h -0.3776 -0.3775 z m -575.99996,-1 -1.37244,-1.75 1.75,1.37244 1.75,1.37245 V 500.62244 501 h -0.37756 -0.37755 z M 2632,500.57037 v -0.5 l 2,-1.07037 2,-1.07037 v 0.5 0.5 l -2,1.07037 -2,1.07037 z M 1367.405,496.75 l -1.905,-2.25 2.25,1.90499 2.25,1.90499 V 498.65499 499 h -0.345 -0.345 z m -634.48069,-1.5 -2.42431,-2.75 2.75,2.42431 2.75,2.42432 V 497.67431 498 h -0.32569 -0.32568 z m 287.99999,0 -2.4243,-2.75 2.75,2.42431 2.75,2.42432 V 497.67431 498 h -0.3257 -0.3257 z M 442,491.5 437.58358,487 h 0.5 0.5 l 4.41642,4.5 4.41642,4.5 h -0.5 -0.5 z m 158,4.10699 v -0.39301 l 1.55194,-0.59554 1.55194,-0.59553 -0.61096,0.98854 L 601.88197,496 H 600.94098 600 Z m 899.0789,-1.19032 0.079,-1.91667 0.5252,1.3125 0.5252,1.3125 -0.6041,0.60417 -0.6042,0.60416 0.079,-1.91666 z M 723.5,486.34259 l -5,-4.58057 4.0962,3.08121 4.09619,3.0812 1.27625,1.53778 1.27625,1.53779 -0.37245,-0.0384 -0.37244,-0.0384 -5,-4.58057 z m 288.5,0.48627 -4.5,-4.08587 3,2.02058 3,2.02058 1.905,2.10792 1.905,2.10793 -0.405,-0.0426 -0.405,-0.0426 -4.5,-4.08587 z M 2652,490 l 1.5,-0.96937 h 1 1 L 2654,490 l -1.5,0.96937 h -1 -1 z m 1005,0 1.5,-0.96937 h 1 1 L 3659,490 l -1.5,0.96937 h -1 -1 z m -2756,-1 1.5,-0.96937 h 1 1 L 903,489 l -1.5,0.96937 h -1 -1 z m 2181.1949,-2.5 0.037,-3 0.461,1.76903 0.461,1.76903 -0.4981,1.23097 -0.498,1.23097 0.037,-3 z M 1355,484.87794 l -3.5,-3.06826 3.2198,2.14172 3.2197,2.14172 0.5893,0.95344 0.5892,0.95344 -0.309,-0.0269 -0.309,-0.0269 z m 337.1949,0.62206 0.037,-3 0.461,1.76903 0.461,1.76903 -0.4981,1.23097 -0.498,1.23097 0.037,-3 z m 1744.884,0.91667 0.079,-1.91667 0.5252,1.3125 0.5252,1.3125 -0.6041,0.60417 -0.6042,0.60416 0.079,-1.91666 z m 651,0 0.079,-1.91667 0.5252,1.3125 0.5252,1.3125 -0.6041,0.60417 -0.6042,0.60416 0.079,-1.91666 z M 332,486 l 1.5,-0.96937 h 1 1 L 334,486 l -1.5,0.96937 h -1 -1 z m 2089,0.57037 v -0.5 l 2,-1.07037 2,-1.07037 v 0.5 0.5 l -2,1.07037 -2,1.07037 z m 824.0789,-1.1537 0.079,-1.91667 0.5252,1.3125 0.5252,1.3125 -0.6041,0.60417 -0.6042,0.60416 0.079,-1.91666 z M 433.87244,484.25 432.5,482.5 l 1.75,1.37244 1.75,1.37245 V 485.62244 486 h -0.37756 -0.37755 z M 622,485 l 1.5,-0.96937 h 1 1 L 624,485 l -1.5,0.96937 h -1 -1 z m 3047,0 1.5,-0.96937 h 1 1 L 3671,485 l -1.5,0.96937 h -1 -1 z m -2323.5589,-6.55517 -1.9411,-1.55516 2.25,1.09035 2.25,1.09035 V 479.53518 480 h -0.3089 -0.3088 z M 637,478 l 1.5,-0.96937 h 1 1 L 639,478 l -1.5,0.96937 h -1 -1 z m 867,0.059 v -0.94099 l 0.9885,-0.61095 0.9886,-0.61096 -0.5955,1.55194 -0.5956,1.55194 H 1504.393 1504 Z M 1340,476 l -1.5,-0.96937 h 1 1 L 1342,476 l 1.5,0.96937 h -1 -1 z m 2743.8724,-0.75 -1.3724,-1.75 1.75,1.37244 1.75,1.37245 V 476.62244 477 h -0.3776 -0.3775 z m -1007.4674,-1.5 -1.905,-2.25 2.25,1.90499 2.25,1.90499 V 475.65499 476 h -0.345 -0.345 z M 3442,473.62244 v -0.37755 l 1.75,-1.37245 1.75,-1.37244 -1.3724,1.75 -1.3725,1.75 H 3442.3776 3442 Z m -728.1875,-2.30555 1.3125,-0.52522 0.6042,0.60416 0.6041,0.60417 -1.9166,-0.079 -1.9167,-0.0789 1.3125,-0.52522 z m 1004,0 1.3125,-0.52522 0.6042,0.60416 0.6041,0.60417 -1.9166,-0.079 -1.9167,-0.0789 1.3125,-0.52522 z m -3347,-1 1.3125,-0.52522 0.60417,0.60416 0.60416,0.60417 -1.91666,-0.079 -1.91667,-0.0789 1.3125,-0.52522 z m 287,0 1.3125,-0.52522 0.60417,0.60416 0.60416,0.60417 -1.91666,-0.079 -1.91667,-0.0789 1.3125,-0.52522 z m 33,0 1.3125,-0.52522 0.60417,0.60416 0.60416,0.60417 -1.91666,-0.079 -1.91667,-0.0789 1.3125,-0.52522 z M 1681,470 l -1.5,-0.96937 1.191,-0.0153 1.191,-0.0153 0.618,1 0.618,1 -0.309,-0.0153 -0.309,-0.0153 z m 1039.75,0.33772 1.25,-0.50439 1.25,0.50439 1.25,0.50439 h -2.5 -2.5 z m 1003,0 1.25,-0.50439 1.25,0.50439 1.25,0.50439 h -2.5 -2.5 z m -3346.9375,-1.02083 1.3125,-0.52522 0.60417,0.60416 0.60416,0.60417 -1.91666,-0.079 -1.91667,-0.0789 1.3125,-0.52522 z m 21,0 1.3125,-0.52522 0.60417,0.60416 0.60416,0.60417 -1.91666,-0.079 -1.91667,-0.0789 1.3125,-0.52522 z m 266,0 1.3125,-0.52522 0.60417,0.60416 0.60416,0.60417 -1.91666,-0.079 -1.91667,-0.0789 1.3125,-0.52522 z m 20.9375,0.0208 1.25,-0.50439 1.25,0.50439 1.25,0.50439 h -2.5 -2.5 z m 266.0625,-0.0208 1.3125,-0.52522 0.60417,0.60416 0.60416,0.60417 -1.91666,-0.079 -1.91667,-0.0789 1.3125,-0.52522 z m 22,0 1.3125,-0.52522 0.60417,0.60416 0.60416,0.60417 -1.91666,-0.079 -1.91667,-0.0789 1.3125,-0.52522 z m 323,0 1.3125,-0.52522 0.6042,0.60416 0.6041,0.60417 -1.9166,-0.079 -1.9167,-0.0789 1.3125,-0.52522 z m 23,0 1.3125,-0.52522 0.6042,0.60416 0.6041,0.60417 -1.9166,-0.079 -1.9167,-0.0789 1.3125,-0.52522 z m 1410.4565,-0.01 1.7691,-0.46099 1.2309,0.49804 1.231,0.49805 -3,-0.0371 -3,-0.0371 1.769,-0.46099 z m 1002.481,0.0307 1.25,-0.50439 1.25,0.50439 1.25,0.50439 h -2.5 -2.5 z m -3345,-1 1.25,-0.50439 1.25,0.50439 1.25,0.50439 h -2.5 -2.5 z m 287.51903,-0.0307 1.76903,-0.46099 1.23097,0.49804 1.23097,0.49805 -3,-0.0371 -3,-0.0371 1.76903,-0.46099 z m 287.48097,0.0307 1.25,-0.50439 1.25,0.50439 1.25,0.50439 h -2.5 -2.5 z m 344.5137,-0.0553 2.7638,-0.41792 2.2362,0.43157 2.2363,0.43157 -5,-0.0136 -5,-0.0137 z m 211.5488,0.0345 1.3125,-0.52522 0.6042,0.60416 0.6041,0.60417 -1.9166,-0.079 -1.9167,-0.0789 1.3125,-0.52522 z m 156.9375,0.0208 1.25,-0.50439 1.25,0.50439 1.25,0.50439 h -2.5 -2.5 z m 158.3289,-0.92105 0.079,-1.91667 0.5252,1.3125 0.5252,1.3125 -0.6041,0.60417 -0.6042,0.60416 0.079,-1.91666 z m 909.1711,0.85486 3.75,-0.39226 3.75,0.39226 3.75,0.39226 h -7.5 -7.5 z m 113.5782,-0.0214 70.3281,-0.26364 69.6719,0.26368 69.6718,0.26369 -140,-5e-5 -140,-5e-5 z m 373.9843,0.0668 1.3125,-0.52522 0.6042,0.60416 0.6041,0.60417 -1.9166,-0.079 -1.9167,-0.0789 1.3125,-0.52522 z m 244.5064,-0.0662 23.8188,-0.28724 23.1812,0.28761 23.1811,0.28761 -47,-3.7e-4 -47,-3.6e-4 z m 267.9311,0.06 1.75,-0.45732 1.75,0.45732 1.75,0.45733 h -3.5 -3.5 z m 328.5,0.027 1.25,-0.50439 1.25,0.50439 1.25,0.50439 h -2.5 -2.5 z M 3555.5,464 l 1.81,-2 h 0.5 0.5 l -1.81,2 -1.81,2 h -0.5 -0.5 z M 2455,464.62244 v -0.37755 l 1.75,-1.37245 1.75,-1.37244 -1.3724,1.75 -1.3725,1.75 H 2455.3776 2455 Z m 6,-5 v -0.37755 l 1.75,-1.37245 1.75,-1.37244 -1.3724,1.75 -1.3725,1.75 H 2461.3776 2461 Z m 7,-6.12244 2.3486,-2.5 h 0.5 0.5 l -2.3486,2.5 -2.3486,2.5 h -0.5 -0.5 z m -390.7135,0.75992 5.7865,-0.36191 5.2135,0.36601 5.2135,0.36602 -11,-0.004 -11,-0.004 5.7865,-0.36191 z m 68.4752,-0.96718 2.2616,-0.4349 1.7384,0.45508 1.7383,0.45508 -4,-0.0202 -4,-0.0202 2.2617,-0.4349 z m 10.9883,-0.95502 1.25,-0.50439 1.25,0.50439 1.25,0.50439 h -2.5 -2.5 z m -96.8257,-3.08772 -2.4243,-2.75 3,2.5 3,2.5 0.4167,0.25 0.4166,0.25 h -0.9923 -0.9924 z m 103.8257,2.08772 1.25,-0.50439 1.25,0.50439 1.25,0.50439 h -2.5 -2.5 z M 2482.5,440 l 7.9531,-8 h 0.5 0.5 l -7.9531,8 -7.9531,8 h -0.5 -0.5 z m -426.5458,3.91435 -1.1162,-2.08564 0.4185,-0.41858 0.4186,-0.41858 1.141,2.50422 1.141,2.50423 h -0.4434 -0.4433 z M 2054.1579,437 v -2.5 l 0.5044,1.25 0.5044,1.25 -0.5044,1.25 -0.5044,1.25 z m -211.079,-4.58333 0.079,-1.91667 0.5252,1.3125 0.5252,1.3125 -0.6041,0.60417 -0.6042,0.60416 0.079,-1.91666 z m 381.0044,1.19957 0.4167,-0.38375 8.25,-4.12741 8.25,-4.1274 v 0.5 0.5 l -7.9778,4.01116 -7.9778,4.01116 h -0.6889 -0.6888 z m 922.9956,-1.19957 0.079,-1.91667 0.5252,1.3125 0.5252,1.3125 -0.6041,0.60417 -0.6042,0.60416 0.079,-1.91666 z M 2497,424.5 l 2.3486,-2.5 h 0.5 0.5 l -2.3486,2.5 -2.3486,2.5 h -0.5 -0.5 z m -253,-0.92963 v -0.5 l 2,-1.07037 2,-1.07037 v 0.5 0.5 l -2,1.07037 -2,1.07037 z M 3150.0856,422 l -0.055,-1.5 0.9694,-1.5 0.9694,-1.5 -0.055,1 -0.055,1 -0.8594,2 -0.8594,2 z M 2249,420.57037 v -0.5 l 2,-1.07037 2,-1.07037 v 0.5 0.5 l -2,1.07037 -2,1.07037 z m 251,0.0521 v -0.37755 l 1.75,-1.37245 1.75,-1.37244 -1.3724,1.75 -1.3725,1.75 H 2500.3776 2500 Z m -652.9211,-2.20577 0.079,-1.91667 0.5252,1.3125 0.5252,1.3125 -0.6041,0.60417 -0.6042,0.60416 0.079,-1.91666 z M 2257,415.63619 v -0.5 l 3,-2.13619 3,-2.13619 v 0.5 0.5 l -3,2.13619 -3,2.13619 z M 3563.9243,412.25 3561.5,409.5 l 2.75,2.42431 2.75,2.42432 V 414.67431 415 h -0.3257 -0.3257 z M 2507,411.62244 v -0.37755 l 1.75,-1.37245 1.75,-1.37244 -1.3724,1.75 -1.3725,1.75 H 2507.3776 2507 Z m 680.3189,-4.37172 23.8188,-0.28724 23.1812,0.28761 23.1811,0.28761 -47,-3.7e-4 -47,-3.6e-4 z m 313.9965,4.2e-4 18.8154,-0.29575 18.1846,0.29631 18.1846,0.29631 -37,-5.6e-4 -37,-5.7e-4 z M 2274,402.5 l 2.3486,-2.5 h 0.5 0.5 l -2.3486,2.5 -2.3486,2.5 h -0.5 -0.5 z m 1197.4371,-0.75 -2.9371,-3.25 3.25,2.93709 3.25,2.93709 V 404.68709 405 h -0.3129 -0.3129 z m -1618.3582,-4.33333 0.079,-1.91667 0.5252,1.3125 0.5252,1.3125 -0.6041,0.60417 -0.6042,0.60416 0.079,-1.91666 z M 2285.5,392 l 6.9464,-7 h 0.5 0.5 l -6.9464,7 -6.9464,7 h -0.5 -0.5 z m 232.4702,4.05569 1.0406,-1.9443 1.0983,-0.67882 1.0984,-0.67882 -1.7188,2.62313 L 2517.77,398 h -0.4202 -0.4202 z m -662.8913,-5.63902 0.079,-1.91667 0.5252,1.3125 0.5252,1.3125 -0.6041,0.60417 -0.6042,0.60416 0.079,-1.91666 z m 1611.116,-0.91667 0.037,-3 0.461,1.76903 0.461,1.76903 -0.4981,1.23097 -0.498,1.23097 0.037,-3 z M 2523,388 l 1.0704,-2 h 0.5 0.5 l -1.0704,2 -1.0704,2 h -0.5 -0.5 z m 751.0789,-1.58333 0.079,-1.91667 0.5252,1.3125 0.5252,1.3125 -0.6041,0.60417 -0.6042,0.60416 0.079,-1.91666 z M 2526.5,382 l 1.5514,-3 h 0.5 0.5 l -1.5514,3 -1.5514,3 h -0.5 -0.5 z M 2296,380.68709 v -0.31291 l 3.25,-2.93709 3.25,-2.93709 -2.9371,3.25 -2.9371,3.25 H 2296.3129 2296 Z m -436.9211,-4.27042 0.079,-1.91667 0.5252,1.3125 0.5252,1.3125 -0.6041,0.60417 -0.6042,0.60416 0.079,-1.91666 z M 2303.5,372 l 1.81,-2 h 0.5 0.5 l -1.81,2 -1.81,2 h -0.5 -0.5 z m 974.5789,0.41667 0.079,-1.91667 0.5252,1.3125 0.5252,1.3125 -0.6041,0.60417 -0.6042,0.60416 0.079,-1.91666 z m -744.3835,-3.90411 1.663,-3.48745 0.3946,0.39452 0.3945,0.39451 -1.5994,3.09293 -1.5995,3.09293 h -0.4581 -0.4581 z m -672.6165,0.90411 0.079,-1.91667 0.5252,1.3125 0.5252,1.3125 -0.6041,0.60417 -0.6042,0.60416 0.079,-1.91666 z m 1610,0 0.079,-1.91667 0.5252,1.3125 0.5252,1.3125 -0.6041,0.60417 -0.6042,0.60416 0.079,-1.91666 z M 2306,368.62244 v -0.37755 l 1.75,-1.37245 1.75,-1.37244 -1.3724,1.75 -1.3725,1.75 H 2306.3776 2306 Z m 6.6348,-8.62244 3.7194,-5.5 0.965,-1 0.965,-1 -1.8921,3.32602 -1.8921,3.32602 -2.7923,3.17398 -2.7922,3.17398 z m -449.5559,2.41667 0.079,-1.91667 0.5252,1.3125 0.5252,1.3125 -0.6041,0.60417 -0.6042,0.60416 0.079,-1.91666 z m 1610,0 0.079,-1.91667 0.5252,1.3125 0.5252,1.3125 -0.6041,0.60417 -0.6042,0.60416 0.079,-1.91666 z M 2538.0306,359.5 v -1 L 2539,357 l 0.9694,-1.5 v 1 1 L 2539,359 l -0.9694,1.5 z m -672.9517,-4.08333 0.079,-1.91667 0.5252,1.3125 0.5252,1.3125 -0.6041,0.60417 -0.6042,0.60416 0.079,-1.91666 z m 1610,0 0.079,-1.91667 0.5252,1.3125 0.5252,1.3125 -0.6041,0.60417 -0.6042,0.60416 0.079,-1.91666 z M 2541.0306,352.5 v -1 L 2542,350 l 0.9694,-1.5 v 1 1 L 2542,352 l -0.9694,1.5 z m 2,-5 v -1 L 2544,345 l 0.9694,-1.5 v 1 1 L 2544,347 l -0.9694,1.5 z M 2323,344 l 1.0704,-2 h 0.5 0.5 l -1.0704,2 -1.0704,2 h -0.5 -0.5 z m -241.9211,-3.58333 0.079,-1.91667 0.5252,1.3125 0.5252,1.3125 -0.6041,0.60417 -0.6042,0.60416 0.079,-1.91666 z M 2328,335 l 3.0288,-6 h 0.5 0.5 l -3.0288,6 -3.0288,6 h -0.5 -0.5 z m 1152.0789,2.41667 0.079,-1.91667 0.5252,1.3125 0.5252,1.3125 -0.6041,0.60417 -0.6042,0.60416 0.079,-1.91666 z m -1397,-4 0.079,-1.91667 0.5252,1.3125 0.5252,1.3125 -0.6041,0.60417 -0.6042,0.60416 0.079,-1.91666 z m 1399,-3 0.079,-1.91667 0.5252,1.3125 0.5252,1.3125 -0.6041,0.60417 -0.6042,0.60416 0.079,-1.91666 z m -1397,-4 0.079,-1.91667 0.5252,1.3125 0.5252,1.3125 -0.6041,0.60417 -0.6042,0.60416 0.079,-1.91666 z M 2333.0306,325.5 v -1 L 2334,323 l 0.9694,-1.5 v 1 1 L 2334,325 l -0.9694,1.5 z m 1151.0483,-2.08333 0.079,-1.91667 0.5252,1.3125 0.5252,1.3125 -0.6041,0.60417 -0.6042,0.60416 0.079,-1.91666 z m -191,-3 0.079,-1.91667 0.5252,1.3125 0.5252,1.3125 -0.6041,0.60417 -0.6042,0.60416 0.079,-1.91666 z m -1206,-1 0.079,-1.91667 0.5252,1.3125 0.5252,1.3125 -0.6041,0.60417 -0.6042,0.60416 0.079,-1.91666 z m 2,-7 0.079,-1.91667 0.5252,1.3125 0.5252,1.3125 -0.6041,0.60417 -0.6042,0.60416 0.079,-1.91666 z m 466,-2 0.079,-1.91667 0.5252,1.3125 0.5252,1.3125 -0.6041,0.60417 -0.6042,0.60416 0.079,-1.91666 z m 933,-1 0.079,-1.91667 0.5252,1.3125 0.5252,1.3125 -0.6041,0.60417 -0.6042,0.60416 0.079,-1.91666 z m -1609,-3 0.079,-1.91667 0.5252,1.3125 0.5252,1.3125 -0.6041,0.60417 -0.6042,0.60416 0.079,-1.91666 z m 677,0 0.079,-1.91667 0.5252,1.3125 0.5252,1.3125 -0.6041,0.60417 -0.6042,0.60416 0.079,-1.91666 z m 741,0 0.079,-1.91667 0.5252,1.3125 0.5252,1.3125 -0.6041,0.60417 -0.6042,0.60416 0.079,-1.91666 z m -1206,-1 0.079,-1.91667 0.5252,1.3125 0.5252,1.3125 -0.6041,0.60417 -0.6042,0.60416 0.079,-1.91666 z m 466,-3 0.079,-1.91667 0.5252,1.3125 0.5252,1.3125 -0.6041,0.60417 -0.6042,0.60416 0.079,-1.91666 z m -464,-4 0.079,-1.91667 0.5252,1.3125 0.5252,1.3125 -0.6041,0.60417 -0.6042,0.60416 0.079,-1.91666 z m 465,-1 0.079,-1.91667 0.5252,1.3125 0.5252,1.3125 -0.6041,0.60417 -0.6042,0.60416 0.079,-1.91666 z m 934,-2 0.079,-1.91667 0.5252,1.3125 0.5252,1.3125 -0.6041,0.60417 -0.6042,0.60416 0.079,-1.91666 z m -1397,-4 0.079,-1.91667 0.5252,1.3125 0.5252,1.3125 -0.6041,0.60417 -0.6042,0.60416 0.079,-1.91666 z m 464,0 0.079,-1.91667 0.5252,1.3125 0.5252,1.3125 -0.6041,0.60417 -0.6042,0.60416 0.079,-1.91666 z M 2560.1579,285 v -2.5 l 0.5044,1.25 0.5044,1.25 -0.5044,1.25 -0.5044,1.25 z m -463.079,-0.58333 0.079,-1.91667 0.5252,1.3125 0.5252,1.3125 -0.6041,0.60417 -0.6042,0.60416 0.079,-1.91666 z m 1399,-3 0.079,-1.91667 0.5252,1.3125 0.5252,1.3125 -0.6041,0.60417 -0.6042,0.60416 0.079,-1.91666 z M 2561.1579,278 v -2.5 l 0.5044,1.25 0.5044,1.25 -0.5044,1.25 -0.5044,1.25 z m -211.079,-3.58333 0.079,-1.91667 0.5252,1.3125 0.5252,1.3125 -0.6041,0.60417 -0.6042,0.60416 0.079,-1.91666 z m 1,-5 0.079,-1.91667 0.5252,1.3125 0.5252,1.3125 -0.6041,0.60417 -0.6042,0.60416 0.079,-1.91666 z m 211.1733,-1.91667 0.02,-4 0.4349,2.26166 0.4349,2.26166 -0.4551,1.73834 -0.4551,1.73834 0.02,-4 z M 2352.1579,264 v -2.5 l 0.5044,1.25 0.5044,1.25 -0.5044,1.25 -0.5044,1.25 z m 957.921,-2.58333 0.079,-1.91667 0.5252,1.3125 0.5252,1.3125 -0.6041,0.60417 -0.6042,0.60416 0.079,-1.91666 z M 2353.1579,257 v -2.5 l 0.5044,1.25 0.5044,1.25 -0.5044,1.25 -0.5044,1.25 z m 1150.921,-3.58333 0.079,-1.91667 0.5252,1.3125 0.5252,1.3125 -0.6041,0.60417 -0.6042,0.60416 0.079,-1.91666 z M 2354.2522,247.5 l 0.02,-4 0.4349,2.26166 0.4349,2.26166 -0.4551,1.73834 -0.4551,1.73834 0.02,-4 z m 209.0202,-1.5 v -4.5 l 0.4333,2.25 0.4334,2.25 -0.4334,2.25 -0.4333,2.25 z m 944.8065,-6.58333 0.079,-1.91667 0.5252,1.3125 0.5252,1.3125 -0.6041,0.60417 -0.6042,0.60416 0.079,-1.91666 z M 2355.4324,211 v -24.5 l 0.3146,12.25 0.3146,12.25 -0.3146,12.25 -0.3146,12.25 z m 1154.6465,21.41667 0.079,-1.91667 0.5252,1.3125 0.5252,1.3125 -0.6041,0.60417 -0.6042,0.60416 0.079,-1.91666 z M 2562.2522,228.5 l 0.02,-4 0.4349,2.26166 0.4349,2.26166 -0.4551,1.73834 -0.4551,1.73834 0.02,-4 z m -1.0573,-10 0.037,-3 0.461,1.76903 0.461,1.76903 -0.4981,1.23097 -0.498,1.23097 0.037,-3 z m 950.963,0.5 v -2.5 l 0.5044,1.25 0.5044,1.25 -0.5044,1.25 -0.5044,1.25 z M 3324,214.36283 v -0.9705 l 3.75,-3.44616 3.75,-3.44617 -3.5,3.98897 -3.5,3.98897 -0.25,0.4277 -0.25,0.42769 z m -763.9211,-3.94616 0.079,-1.91667 0.5252,1.3125 0.5252,1.3125 -0.6041,0.60417 -0.6042,0.60416 0.079,-1.91666 z m 946.8454,-1.16667 -2.4243,-2.75 2.75,2.42431 2.75,2.42432 V 211.67431 212 h -0.3257 -0.3257 z m -947.8454,-4.83333 0.079,-1.91667 0.5252,1.3125 0.5252,1.3125 -0.6041,0.60417 -0.6042,0.60416 0.079,-1.91666 z m -439,-1 0.079,-1.91667 0.5252,1.3125 0.5252,1.3125 -0.6041,0.60417 -0.6042,0.60416 0.079,-1.91666 z m 1241.7402,0.83402 24.3192,-0.28656 23.6808,0.28692 23.6809,0.28692 -48,-3.6e-4 -48,-3.5e-4 z m 133.9309,0.087 1.25,-0.50439 1.25,0.50439 1.25,0.50439 h -2.5 -2.5 z m -937.6711,-4.92105 0.079,-1.91667 0.5252,1.3125 0.5252,1.3125 -0.6041,0.60417 -0.6042,0.60416 0.079,-1.91666 z m -436,-3 0.079,-1.91667 0.5252,1.3125 0.5252,1.3125 -0.6041,0.60417 -0.6042,0.60416 0.079,-1.91666 z m 435,-1 0.079,-1.91667 0.5252,1.3125 0.5252,1.3125 -0.6041,0.60417 -0.6042,0.60416 0.079,-1.91666 z m -1,-5 0.079,-1.91667 0.5252,1.3125 0.5252,1.3125 -0.6041,0.60417 -0.6042,0.60416 0.079,-1.91666 z m -430,-8 0.079,-1.91667 0.5252,1.3125 0.5252,1.3125 -0.6041,0.60417 -0.6042,0.60416 0.079,-1.91666 z M 2354.1579,179 v -2.5 l 0.5044,1.25 0.5044,1.25 -0.5044,1.25 -0.5044,1.25 z m 197.921,-2.58333 0.079,-1.91667 0.5252,1.3125 0.5252,1.3125 -0.6041,0.60417 -0.6042,0.60416 0.079,-1.91666 z m -424,-1 0.079,-1.91667 0.5252,1.3125 0.5252,1.3125 -0.6041,0.60417 -0.6042,0.60416 0.079,-1.91666 z m 225,-3 0.079,-1.91667 0.5252,1.3125 0.5252,1.3125 -0.6041,0.60417 -0.6042,0.60416 0.079,-1.91666 z m 195.5446,-5.95533 -0.6235,-1.62491 0.03,-0.66822 0.03,-0.66821 1.0613,1.825 1.0612,1.82501 -0.4681,0.46812 -0.4681,0.46813 -0.6236,-1.62492 z m -198.5446,-6.04467 0.079,-1.91667 0.5252,1.3125 0.5252,1.3125 -0.6041,0.60417 -0.6042,0.60416 0.079,-1.91666 z m -427,-8 0.079,-1.91667 0.5252,1.3125 0.5252,1.3125 -0.6041,0.60417 -0.6042,0.60416 0.079,-1.91666 z m 2,-7 0.079,-1.91667 0.5252,1.3125 0.5252,1.3125 -0.6041,0.60417 -0.6042,0.60416 0.079,-1.91666 z m 609.38,-10.4832 -0.6592,-1.06653 0.4766,-0.4766 0.4766,-0.4766 0.5922,1.54313 0.5921,1.54313 h -0.4096 -0.4096 z M 2332.8724,127.25 2331.5,125.5 l 1.75,1.37244 1.75,1.37245 V 128.62244 129 h -0.3776 -0.3775 z m -3.9481,-5 -2.4243,-2.75 2.75,2.42431 2.75,2.42432 V 124.67431 125 h -0.3257 -0.3257 z m 194.587,-5.87312 -1.7188,-2.62313 1.0984,0.67882 1.0983,0.67882 1.0406,1.9443 1.0406,1.94431 h -0.4202 -0.4202 z M 2321.7647,114.47294 2318.0294,111 h 0.7891 0.7892 l 3.3923,3.5 3.3923,3.5 -0.4461,-0.0271 -0.4462,-0.0271 -3.7353,-3.47294 z m -386.6858,-4.05627 0.079,-1.91667 0.5252,1.3125 0.5252,1.3125 -0.6041,0.60417 -0.6042,0.60416 0.079,-1.91666 z m 379.3261,-2.66667 -1.905,-2.25 2.25,1.90499 2.25,1.90499 V 109.65499 110 h -0.345 -0.345 z M 2517,107 l -2.1362,-3 h 0.5 0.5 l 2.1362,3 2.1362,3 h -0.5 -0.5 z m -208.5,-3.58761 -3,-2.57768 3.25,2.15074 3.25,2.15074 v 0.4319 V 106 l -0.25,-0.005 -0.25,-0.005 -3,-2.57768 z m 203.905,-2.66239 -1.905,-2.25 2.25,1.90499 2.25,1.90499 V 102.65499 103 h -0.345 -0.345 z m -209.9639,-1.305166 -1.9411,-1.555166 2.25,1.09035 2.25,1.090352 V 100.53518 101 h -0.3089 -0.3088 z M 2508.405,95.75 2506.5,93.5 l 2.25,1.904988 2.25,1.904987 V 97.654988 98 h -0.345 -0.345 z M 2294,95 l -1.5,-0.969374 h 1 1 L 2296,95 l 1.5,0.969374 h -1 -1 z m -4,-2 -1.5,-0.969374 1.191,-0.01531 1.191,-0.01531 0.618,1 0.618,1 -0.309,-0.01531 -0.309,-0.01531 z m 213.4371,-3.25 -2.9371,-3.25 3.25,2.937091 3.25,2.937091 V 92.687091 93 h -0.3129 -0.3129 z M 1928.5,84.932166 l -3,-1.921637 1.1392,-0.0053 1.1392,-0.0053 2.3608,1.966731 2.3608,1.96673 -0.5,-0.03983 -0.5,-0.03983 -3,-1.921636 z m 334.3125,-0.61528 1.3125,-0.525219 0.6042,0.604166 0.6041,0.604167 -1.9166,-0.07895 -1.9167,-0.07895 1.3125,-0.525219 z m -6,-1 1.3125,-0.525219 0.6042,0.604166 0.6041,0.604167 -1.9166,-0.07895 -1.9167,-0.07895 1.3125,-0.525219 z m -91,-1 1.3125,-0.525219 0.6042,0.604166 0.6041,0.604167 -1.9166,-0.07895 -1.9167,-0.07895 1.3125,-0.525219 z m 78,0 1.3125,-0.525219 0.6042,0.604166 0.6041,0.604167 -1.9166,-0.07895 -1.9167,-0.07895 1.3125,-0.525219 z M 1820.8724,76.25 1819.5,74.5 l 1.75,1.372445 1.75,1.372444 V 77.622445 78 h -0.3776 -0.3775 z m 663.59,-5.5 -4.9624,-5.25 5.25,4.962408 5.25,4.962408 V 75.712408 76 h -0.2876 -0.2876 z m -666.0035,2.183469 -0.6592,-1.066531 0.4766,-0.476597 0.4766,-0.476597 0.5922,1.543128 L 1819.9372,74 h -0.4096 -0.4096 z m -2.38,-8.516802 0.079,-1.916667 0.5252,1.3125 0.5252,1.3125 -0.6041,0.604167 -0.6042,0.604166 0.079,-1.916666 z M 2475.9243,63.25 2473.5,60.5 l 2.75,2.424314 2.75,2.424314 V 65.674314 66 h -0.3257 -0.3257 z m -658.8454,-2.833333 0.079,-1.916667 0.5252,1.3125 0.5252,1.3125 -0.6041,0.604167 -0.6042,0.604166 0.079,-1.916666 z M 2470.405,58.75 2468.5,56.5 l 2.25,1.904988 2.25,1.904987 V 60.654988 61 h -0.345 -0.345 z m -6.5442,-4.809351 -2.3608,-2.05935 2.75,1.67436 2.75,1.674361 V 55.61501 56 h -0.3892 -0.3892 z m -5.8608,-4.03 -2.5,-2.044879 2.1943,1.072493 2.1943,1.072492 0.6147,0.994622 0.6147,0.994623 -0.309,-0.02224 -0.309,-0.02224 -2.5,-2.044879 z m -636.9211,-4.493982 0.079,-1.916667 0.5252,1.3125 0.5252,1.3125 -0.6041,0.604167 -0.6042,0.604166 0.079,-1.916666 z m 625.3622,-2.971833 -1.9411,-1.555166 2.25,1.09035 2.25,1.09035 V 43.535184 44 h -0.3089 -0.3088 z m -11,-6 -1.9411,-1.555166 2.5,1.19062 2.5,1.190621 0.4167,0.364546 L 2439.3333,38 h -0.9755 -0.9755 z m -610.3622,-6.028167 0.079,-1.916667 0.5252,1.3125 0.5252,1.3125 -0.6041,0.604167 -0.6042,0.604166 0.079,-1.916666 z M 2423,30.5 l -2.5,-1.429129 h 1 1 L 2425,30.5 l 2.5,1.429129 h -1 -1 z m -8,-3.5 -1.5,-0.969374 h 1 1 L 2417,27 l 1.5,0.969374 h -1 -1 z m -20.1875,-7.683114 1.3125,-0.525219 0.6042,0.604166 0.6041,0.604167 -1.9166,-0.07895 -1.9167,-0.07895 1.3125,-0.525219 z m -564.9023,-3.14913 0.9806,-1.832245 1.7457,-1.417755 1.7458,-1.417756 -2.3792,3.25 -2.3792,3.25 h -0.3471 -0.3472 z m 541.9023,-2.85087 1.3125,-0.525219 0.6042,0.604166 0.6041,0.604167 -1.9166,-0.07895 -1.9167,-0.07895 1.3125,-0.525219 z m -5,-1 1.3125,-0.525219 0.6042,0.604166 0.6041,0.604167 -1.9166,-0.07895 -1.9167,-0.07895 1.3125,-0.525219 z m -7.0625,-0.979167 1.25,-0.504386 1.25,0.504386 1.25,0.504386 h -2.5 -2.5 z m -7,-1 1.25,-0.5043857 1.25,0.5043857 1.25,0.504386 h -2.5 -2.5 z m -9.481,-1.0307097 1.7691,-0.460988 1.2309,0.498042 1.231,0.498042 -3,-0.037054 -3,-0.037054 z M 1841.8125,8.316886 1843.125,7.7916667 1843.7292,8.3958333 1844.3333,9 1842.4167,8.921053 1840.5,8.842106 Z m 299.5107,-0.066541 34.8231,-0.2764281 34.1769,0.2766099 34.1768,0.2766099 -69,-1.818e-4 -69,-1.818e-4 z m 184.4268,0.02626 3.25,-0.4033214 3.25,0.4033214 3.25,0.4033215 h -6.5 -6.5 z"
         id="path183" />
      <path
         style="fill:#f4002e"
         d="m 473.5,927.49725 -4,-1.41497 -3.68419,-3.93186 -3.68418,-3.93186 -0.66852,-3.56353 -0.66852,-3.56352 10.546,-36.29576 10.546,-36.29575 13.48483,-46.5 13.48482,-46.5 12.62041,-44.5 12.62041,-44.5 2.42359,-8.5 2.42358,-8.5 5.02789,-18.49362 L 549,602.51277 v -3.69129 -3.69128 l -1.06362,-2.8151 -1.06362,-2.8151 -2.68638,-2.83928 -2.68638,-2.83927 -2.9766,-1.55358 -2.97659,-1.55358 h -5.0903 -5.0903 l -24.9331,11.75333 -24.93311,11.75333 -12,5.8331 -12,5.83309 -2.57932,3.80643 -2.57933,3.80643 -1.54901,5.5 -1.54902,5.5 -11.70373,40.5 -11.70372,40.5 -9.47953,33 -9.47953,33 -9.9309,34.5 -9.93089,34.5 -9.88349,34.31583 -9.88349,34.31583 -2.87402,3.05733 -2.87402,3.05733 -3.21788,1.37684 L 349.06424,928 219.78212,927.98355 90.5,927.9671 l -4,-2.23355 -4,-2.23355 -2.444386,-4.9332 -2.444386,-4.93319 2.805025,-11.06681 2.805025,-11.0668 2.366997,-7.54148 2.366996,-7.54148 2.772365,-2.58634 L 93.5,871.24437 96,869.87219 98.5,868.5 l 27,-0.097 27,-0.097 5,-1.49802 5,-1.49802 6,-2.87999 6,-2.87999 7.54006,-7.52498 7.54006,-7.52498 3.12055,-6.5 3.12056,-6.5 9.18924,-31.5 9.18923,-31.5 4.48878,-15.5 4.48877,-15.5 3.83395,-13 3.83396,-13 9.52126,-33.5 9.52127,-33.5 6.05616,-21.9409 L 262,600.61821 v -2.92376 -2.92377 l -2.52443,-4.63533 -2.52443,-4.63533 -3.6523,-2.5 -3.6523,-2.5 H 243.57327 237.5 l -29.83002,14.30788 -29.83002,14.30788 -4.78602,0.0371 -4.78602,0.0371 -2.88396,-1.50568 -2.88396,-1.50568 -2.63998,-2.83927 -2.63998,-2.83928 -1.99971,-4 -1.99971,-4 -1.60489,-5.41326 -1.6049,-5.41326 1.09848,-4.08674 1.09848,-4.08674 3.72223,-3.5 3.72222,-3.5 32.42388,-14.92808 L 224.5,536.64385 261,519.7381 l 36.5,-16.90576 7.5,-3.51915 7.5,-3.51915 19.5,-9.0123 19.5,-9.01229 7.32069,-2.94643 7.3207,-2.94644 7.51727,-1.43829 L 381.17594,469 H 388 h 6.82406 l 7.5483,1.44423 7.54831,1.44423 6.06845,2.45116 6.06846,2.45115 5.57558,3.35462 5.57558,3.35461 6.4323,5.87219 6.4323,5.87219 4.34542,6.12781 4.34543,6.12781 3.10878,6.20341 3.10879,6.20342 2.54594,8.79658 2.54593,8.79659 2.37395,3.59371 2.37394,3.59372 3.83924,1.89408 3.83924,1.89409 5,-0.0582 5,-0.0583 20.5,-9.572 20.5,-9.57199 10,-4.71735 10,-4.71734 23,-10.76319 23,-10.76319 9,-4.25339 9,-4.25338 17,-7.93958 17,-7.93958 7.5,-2.16607 7.5,-2.16607 12.5,0.004 12.5,0.004 6.5,1.74904 6.5,1.74904 8,3.82519 8,3.82519 6.80728,5.59649 6.80727,5.59649 5.21877,6.3668 5.21877,6.36681 3.62384,6.94047 3.62384,6.94047 3.21473,10.48226 3.21473,10.48227 3.67164,3.67163 3.67164,3.67164 4.39798,1.18425 4.39798,1.18426 2.97531,-0.59507 2.9753,-0.59506 9.59046,-4.39759 9.59046,-4.3976 11,-5.20795 11,-5.20795 13.5,-6.27309 13.5,-6.27309 33.5,-15.74236 33.5,-15.74236 12.5,-5.69942 12.5,-5.69942 6.5,-1.90429 6.5,-1.90429 13,-0.003 13,-0.003 7.95493,2.28815 7.95494,2.28815 6.98553,3.6708 6.9855,3.67079 6.3365,5.19393 6.3365,5.19393 4.4111,5.35812 4.4111,5.35811 3.5974,5.974 3.5974,5.974 2.4288,7.68833 2.4287,7.68834 1.036,8.33662 1.0359,8.33663 -1.0406,8.29942 -1.0407,8.29942 -8.9338,31.17562 -8.9339,31.17562 -3.9347,13.5 -3.9348,13.5 -9.6726,33.5 -9.67264,33.5 -14.99381,52 -14.99381,52 -0.5408,5.02161 -0.5408,5.02161 1.57428,6.14503 1.57429,6.14504 3.18118,5.17008 3.18119,5.17009 4.85878,3.84064 4.85877,3.84064 5.75208,2.32263 5.75209,2.32263 67.5,0.32408 67.5,0.32409 5.2616,-1.1484 5.2616,-1.14839 3.1307,-2.63432 3.1307,-2.63432 1.8357,-4.04137 1.8358,-4.04137 0.022,-3.63581 0.022,-3.63581 -2.9958,-5.36419 -2.9957,-5.36419 -4.4052,-9 -4.4052,-9 -1.5991,-7.19741 -1.599,-7.1974 v -6.82883 -6.82883 l 1.0488,-8.36422 1.0488,-8.36422 20.8653,-73.10954 20.8654,-73.10955 3.652,-13.8107 3.6519,-13.8107 -0.6748,-3.1893 -0.6748,-3.1893 -2.1306,-3.84806 -2.1305,-3.84805 -4.0986,-2.40195 -4.0986,-2.40194 h -3.9123 -3.9122 l -18.4999,7.58832 -18.4999,7.58832 -4.6055,1.55635 -4.6055,1.55635 -2.827,-0.70953 -2.827,-0.70953 -3.7098,-3.70981 -3.7098,-3.70982 -3.2274,-10.18071 -3.2273,-10.18071 0.6459,-3.44317 0.646,-3.44317 2.0723,-2.63459 2.0724,-2.63459 4.6514,-2.35054 4.6513,-2.35054 81.9353,-37.68161 81.9352,-37.68161 5.5668,-2.34303 5.5668,-2.34304 7.7058,-1.59167 7.7058,-1.59167 8.2921,0.0174 8.2922,0.0174 7,1.46214 7,1.46214 6.5,2.68103 6.5,2.68102 7,4.57824 7,4.57823 5.8469,5.87746 5.8469,5.87745 3.8223,5.91372 3.8222,5.91372 3.0036,7.22006 3.0036,7.22006 1.6934,9 1.6933,9 -0.6623,8.88554 -0.6622,8.88554 -10.995,38.11446 -10.995,38.11446 -13.3943,46.5 -13.3942,46.5 -6.6592,22 -6.6592,22 -4.4301,15 -4.43,15 -1.0239,6.56636 -1.0239,6.56636 1.0995,6.93364 1.0994,6.93364 2.3342,5.12001 2.3343,5.12001 3.7035,4.0993 3.7035,4.0993 5.4786,2.59182 5.4787,2.59182 18.1827,-0.31113 18.1827,-0.31113 6.8471,-3.24292 6.8472,-3.24292 5.6528,-5.78403 5.6529,-5.78403 3.1521,-5.97305 3.1521,-5.97305 9.0317,-31 9.0316,-31 11.4948,-40 11.4948,-40 10.6495,-37 10.6494,-37 15.0046,-52 15.0047,-52 3.3164,-11.60447 3.3164,-11.60448 1.5859,-3.06669 1.5858,-3.06668 2.8995,-2.0646 2.8994,-2.0646 4.8934,-1.04944 4.8935,-1.04945 77.9722,0.2852 77.9722,0.28521 4.4698,2.50284 4.4698,2.50283 2.322,3.99717 2.3221,3.99716 -0.3903,4.5 -0.3904,4.5 -26.5919,92 -26.5919,92 -10.6285,37.5 -10.6285,37.5 -6.3595,23 -6.3595,23 -4.159,16 -4.1589,16 v 6.72322 6.72322 l 2.5237,5.51257 2.5237,5.51257 5.0761,5.07604 5.076,5.07604 5.7358,2.68817 5.7358,2.68817 30.6985,0.29072 30.6985,0.29072 6.1189,-1.58555 6.1188,-1.58555 5.1957,-2.46004 5.1957,-2.46004 5.424,-4.44934 5.4241,-4.44934 3.3534,-4.23773 3.3534,-4.23772 2.8389,-6.05807 2.8388,-6.05806 4.0624,-14 4.0623,-14 18.6301,-65 18.6301,-65 81.5196,-285 81.5197,-285 -0.028,-3.676489 -0.028,-3.676489 -1.4744,-2.823511 L 1935.1786,89.5 1932.3393,86.813618 1929.5,84.127237 1926.6849,83.063618 1923.8698,82 h -46.1192 -46.1192 l -4.3118,-2.087322 -4.3118,-2.087322 -2.0043,-2.548077 -2.0044,-2.548077 -1.1641,-3.885459 -1.1641,-3.885458 5.8168,-22.229143 5.8167,-22.229142 1.971,-3.317318 1.9709,-3.317317 4.055,-2.682683 L 1840.3563,8.5 2077.9281,8.401157 2315.5,8.302314 l 16.7174,0.8429623 16.7175,0.8429624 10.2825,1.5362243 10.2826,1.536224 8.5,2.007129 8.5,2.007128 9.9496,3.067078 9.9497,3.067079 11.5503,5.018983 11.5504,5.018984 7.5,3.985321 7.5,3.985321 11.5,7.573132 11.5,7.573132 8.5,7.209689 8.5,7.209689 9.065,8.858324 9.065,8.858325 6.0374,7.5 6.0374,7.499999 7.534,11 7.534,11 6.0573,11.5 6.0573,11.5 4.4416,11.5 4.4415,11.5 3.0878,11 3.0877,11 1.9574,10 1.9574,10 1.215,13.5 1.2149,13.5 -0.6285,16.5 -0.6285,16.5 -1.998,12.76645 -1.998,12.76645 -2.9396,11.73637 -2.9395,11.73636 -3.4806,9.99719 -3.4806,9.99718 -4.1711,9.91884 -4.1712,9.91885 -3.5484,7.08115 -3.5483,7.08116 -4.0134,7 -4.0133,7 -4.4975,7 -4.4975,7 -4.089,5.5 -4.089,5.5 -4.9419,6 -4.9419,6 -13.0874,13.02607 -13.0875,13.02606 -8.5,6.77894 -8.5,6.77893 -11.0865,7.4046 -11.0865,7.4046 -15.4135,7.94784 -15.4135,7.94784 -12,4.70253 -12,4.70252 -3.6839,1.87665 -3.6839,1.87664 -1.5661,2.2359 -1.5661,2.23589 v 1.79984 1.79984 l 3.9749,4.31229 3.975,4.31229 11.275,5.83016 11.2751,5.83015 5.5981,3.7693 5.598,3.76929 4.7436,5.27603 4.7436,5.27602 2.9569,5.85756 2.9569,5.85756 1.996,7.68233 1.996,7.68233 0.5913,12.02659 0.5913,12.02659 -1.7137,8.47341 -1.7136,8.47341 -8.3888,29 -8.3888,29 -6.1085,21 -6.1085,21 -12.4133,42.83276 -12.4134,42.83275 -1.5429,4.54452 -1.5429,4.54452 -0.8106,5.92755 -0.8107,5.92754 0.7886,4.9887 0.7886,4.98871 2.3999,5.24189 2.3998,5.24189 4.7425,4.81064 4.7425,4.81064 5.3675,2.45733 5.3676,2.45732 5.0137,0.79257 5.0138,0.79257 63.961,-0.48568 63.9609,-0.48568 3.7438,-2.11027 3.7438,-2.11027 2.4116,-4.5 2.4116,-4.5 -0.4725,-5.53783 -0.4726,-5.53783 -6.2382,-12.44444 -6.2382,-12.44445 -4.3974,-11.24641 -4.3974,-11.24642 -3.4927,-12.7438 -3.4927,-12.7438 -1.9585,-11.52751 -1.9585,-11.52751 -1.0578,-15.92917 -1.0578,-15.92916 1.0464,-13.90733 1.0465,-13.90733 0.9916,-6.99225 0.9917,-6.99226 1.5772,-7.63584 1.5773,-7.63584 3.3961,-11.79898 3.3961,-11.79898 4.5962,-11.2221 4.5963,-11.22211 4.9293,-9.59644 4.9294,-9.59643 8.0726,-12.34334 8.0726,-12.34333 6.0778,-7.43795 6.0778,-7.43795 8.5931,-9.047 8.5931,-9.047 10,-8.43849 10,-8.43849 13.4181,-8.93044 13.418,-8.93045 13.082,-6.41579 13.0819,-6.41578 10.5,-3.95584 10.5,-3.95583 9.5,-2.57377 9.5,-2.57376 7.285,-1.5189 7.285,-1.51889 12.715,-1.6225 12.715,-1.62251 165.4977,0.18672 165.4976,0.18672 3.2463,1.54045 3.2462,1.54045 2.9568,3.36756 2.9568,3.36757 0.7028,3.74664 0.7029,3.74664 -1.2297,6.02474 -1.2297,6.02474 -33.3513,116.5 -33.3514,116.5 -14.1776,49.5 -14.1775,49.5 0.5739,4.88487 0.5739,4.88488 2.9274,6.11512 2.9274,6.11513 3.3538,3.66707 3.3537,3.66708 5.0688,3.05719 5.0687,3.05719 6.0301,1.54482 6.0301,1.54483 73.4871,-0.26909 73.4872,-0.26909 4.1288,-2.86163 4.1289,-2.86163 2.1561,-4.45391 2.1561,-4.4539 -0.4691,-4.88165 -0.4691,-4.88165 -4.2472,-6.5189 -4.2472,-6.5189 -2.988,-7.28391 -2.9879,-7.28392 -1.3993,-6.5 -1.3994,-6.5 -0.017,-6 -0.017,-6 2.0028,-12 2.0028,-12 0.8756,-3.5 0.8755,-3.5 25.5539,-89.5 25.5539,-89.5 8.6594,-30.5 8.6594,-30.5 4.9008,-17.42037 4.9008,-17.42036 -1.0347,-3.84277 -1.0348,-3.84276 -3.1923,-3.63583 -3.1923,-3.63582 -3.2335,-1.35105 L 3231.0645,468 h -36.8202 -36.8202 l -4.4538,-2.25 -4.4539,-2.25 -2.2337,-3.36175 -2.2337,-3.36176 -0.6251,-3.3319 -0.625,-3.3319 2.6932,-9.80635 2.6932,-9.80634 2.4366,-7.59079 2.4366,-7.59079 2.7209,-2.59559 2.7209,-2.59559 2.8151,-1.06362 2.8151,-1.06362 45.6849,-0.006 45.6849,-0.006 3.8208,-1.06097 3.8208,-1.06097 3.868,-3.49452 3.868,-3.49452 2.0149,-6.18893 2.0149,-6.18894 6.1068,-21.5 6.1067,-21.5 8.3711,-29 8.3711,-29 9.5992,-33.5 9.5993,-33.5 1.0861,-2.7392 1.086,-2.73921 3.8235,-3.45429 3.8235,-3.45429 3.3096,-0.50641 3.3097,-0.50641 77,-0.53325 77,-0.53325 4.3582,0.86866 4.3581,0.86866 2.5801,1.92628 2.58,1.92629 1.8798,2.51777 1.8798,2.51778 0.91,4.05016 0.91,4.05015 -20.4969,71.87028 -20.497,71.87028 -3.0649,11.58177 -3.0649,11.58177 1.1102,4.12276 1.1101,4.12276 2.5928,3.08139 2.5928,3.08138 3.1309,1.71409 3.1309,1.71408 39.5,0.5 39.5,0.5 2,1.16394 2,1.16395 2.6864,2.83605 2.6864,2.83606 1.0636,2.8151 1.0636,2.8151 v 2.29683 2.29682 l -4.0066,14.38808 -4.0066,14.38807 -1.6955,3 -1.6954,3 -2.0479,1.76659 -2.048,1.76659 -3.3721,1.48341 -3.3721,1.48341 -48.1279,0.022 -48.1279,0.022 -4.1913,1.90288 -4.1914,1.90288 -2.0327,3.98445 -2.0327,3.98445 -4.0919,14.84071 -4.0918,14.84071 -23.868,83.5 -23.8679,83.5 -12.4862,44 -12.4862,44 -2.1916,7.96168 -2.1916,7.96167 0.4394,12.53833 0.4394,12.53832 3.2282,9.5 3.2282,9.5 3.9755,6.35783 3.9754,6.35783 4.0638,4.81948 4.0639,4.81949 5.6547,4.43184 5.6548,4.43184 5.59,3.14599 5.5899,3.14599 7.1851,2.4438 7.1851,2.44381 7.725,1.11153 7.7249,1.11152 52,-0.31047 52,-0.31048 4.1612,-2.38422 4.1611,-2.38421 2.3059,-3.11579 2.3059,-3.11578 0.3851,-6.0245 0.3851,-6.02449 -7.5419,-14.79698 -7.5419,-14.79697 -3.128,-8.17853 -3.1279,-8.17853 -3.3294,-11 -3.3293,-11 -2.1109,-10.23053 -2.1108,-10.23053 -1.4825,-13.26947 -1.4824,-13.26947 -0.01,-12.64405 -0.01,-12.64404 1.0297,-10.35596 1.0298,-10.35595 1.534,-9.5 1.5341,-9.5 2.883,-11.00025 2.8829,-11.00025 3.6404,-10.49975 3.6405,-10.49975 5.944,-12.45878 5.9441,-12.45877 6.1312,-10.04123 6.1312,-10.04122 6.7545,-9 6.7545,-9 4.7386,-5.5 4.7387,-5.5 10.5243,-10.24249 10.5244,-10.2425 11.0701,-8.42851 11.07,-8.42852 9,-5.67238 9,-5.67238 12,-5.83059 12,-5.83059 9,-3.46237 9,-3.46236 8.5,-2.56244 8.5,-2.56243 9,-1.98984 9,-1.98984 12,-1.81138 12,-1.81138 h 167.5 167.5 l 4.0172,2.30329 4.0172,2.30328 2.3544,3.43612 2.3545,3.43612 0.4835,4.29013 0.4836,4.29012 -12.1923,42.47047 -12.1924,42.47047 -36.4753,127.5 -36.4754,127.5 0.3479,6.06148 0.3479,6.06147 2.9025,5.73676 2.9026,5.73677 4.3086,4.43318 4.3087,4.43318 4.7534,2.38206 4.7534,2.38206 4,1.34001 4,1.34 26.5,0.0465 26.5,0.0465 3.1309,1.71408 3.1309,1.71409 2.5928,3.08138 2.5928,3.08139 1.0761,3.9963 1.0761,3.9963 -4.126,15.20823 -4.1259,15.20823 -1.5086,2.34411 -1.5085,2.3441 -5.1653,2.33758 -5.1653,2.33757 -8,1.10882 -8,1.10882 -900,-0.2905 -900,-0.2905 -9.7773,-2.69934 -9.7774,-2.69933 -9.4562,-4.47945 -9.4562,-4.47945 -7.358,-5.08655 -7.3579,-5.08654 -7.4883,-7.73467 -7.4882,-7.73467 -5.0292,-7.5 -5.0292,-7.5 -2.6471,-5.2288 -2.6472,-5.2288 -1.9097,-5.2712 -1.9097,-5.2712 -1.5029,-5.5 -1.5029,-5.5 -1.0813,-7.19155 -1.0813,-7.19156 v -8.30844 -8.30845 l 1.4614,-9 1.4613,-9 5.4518,-18.5 5.4519,-18.5 9.674,-33.5 9.674,-33.5 3.9427,-13.5 3.9426,-13.5 8.5698,-29.86217 8.5698,-29.86216 -0.3624,-7.17668 -0.3624,-7.17667 -3.2412,-6.58374 -3.2412,-6.58374 -4.5749,-4.21701 -4.5749,-4.21702 -5.6752,-2.6604 -5.6751,-2.66041 -80.745,-0.2729 -80.7449,-0.27289 -3.7551,1.92558 -3.755,1.92557 -2.2162,2.37579 -2.2162,2.37579 -1.5077,4.27341 -1.5078,4.27341 -39.5565,138.50616 -39.5565,138.50615 -2.3356,6.20506 -2.3355,6.20506 -3.097,6.13501 -3.0969,6.135 -5.1602,6.8519 -5.1601,6.8519 -5.6269,5.60164 -5.6269,5.60164 -7,5.02738 -7,5.02738 -8,4.00492 -8,4.00491 -6.6997,2.068 -6.6997,2.06799 -7.8003,1.47594 -7.8003,1.47594 -540.0038,0.2359 -540.00371,0.2359 -3.83548,-1.82006 -3.83549,-1.82005 -2.66076,-4.02428 -2.66076,-4.02428 0.1328,-5.56943 0.13281,-5.56944 20.66881,-72.5 20.66882,-72.5 17.35806,-62 17.35805,-62 5.18285,-19.35002 5.18286,-19.35001 -0.64904,-3.45965 -0.64903,-3.45965 -3.56708,-3.94833 -3.56707,-3.94832 -5.31854,-1.54614 -5.31853,-1.54614 -4.08761,1.10068 -4.0876,1.10067 -9.72028,4.55712 -9.72028,4.55711 -7,3.29781 -7,3.2978 -17,7.99796 -17,7.99795 -3.66293,3.51351 -3.66292,3.5135 -2.52031,8.33708 -2.52031,8.33707 -8.49407,29.5 -8.49408,29.5 -5.49295,19 -5.49295,19 -14.66374,51 -14.66375,51 -11.92786,41.5 -11.92785,41.5 -3.86156,3.66804 -3.86155,3.66805 -3.87659,1.07638 -3.87658,1.07638 -78,-0.0383 -78,-0.0383 -4,-1.41496 z m 2285.4924,-74.98256 5.4925,-1.46157 6.4679,-3.27656 6.4679,-3.27656 6.5878,-6.58264 6.5878,-6.58263 3.6178,-7.41737 3.6178,-7.41736 32.0093,-112.5 32.0094,-112.5 6.0747,-21.5326 6.0747,-21.53259 v -3.9949 -3.9949 l -1.7192,-2.4725 -1.7193,-2.47251 -2.0307,-1.71613 -2.0308,-1.71613 -4.8529,-1.64841 -4.8529,-1.64841 -23.1471,0.50998 -23.1471,0.50999 -6,1.66671 -6,1.66671 -9,4.376 -9,4.37599 -6.2249,5.08695 -6.2249,5.08694 -5.087,6.2249 -5.0869,6.22491 -4.334,9 -4.3339,9 -18.7246,66 -18.7245,66 -13.2518,46.5 -13.2518,46.5 -0.6591,5.5 -0.659,5.5 1.0461,5.46505 1.0461,5.46506 1.9899,4.11051 1.9898,4.11052 3.6414,4.25415 3.6414,4.25416 4.1039,2.59568 4.1038,2.59567 4,1.2577 4,1.25771 20,0.055 20,0.055 5.4924,-1.46157 z m 1005,0 5.4925,-1.46157 6.5075,-3.27553 6.5076,-3.27552 6.5597,-6.607 6.5597,-6.60701 3.6315,-7.39403 3.6316,-7.39403 2.9501,-10.5 2.9501,-10.5 33.0437,-115.5 33.0436,-115.5 2.2313,-8.5 2.2312,-8.5 -0.7185,-3.78697 -0.7185,-3.78697 -4.1977,-4.35856 -4.1978,-4.35857 -4,-1.09889 -4,-1.09889 -14.5,0.0281 -14.5,0.0281 -10.0163,0.90396 -10.0163,0.90396 -8.6501,2.90678 -8.6502,2.90678 -7.4698,4.65575 -7.4699,4.65575 -5.932,5.74984 -5.9321,5.74983 -4.2698,6.32502 -4.2699,6.32502 -2.4437,5.52558 -2.4437,5.52557 -17.9047,62.64941 -17.9047,62.6494 -14.6198,51.43177 -14.6199,51.43177 -0.063,6.71209 -0.063,6.71208 1.2816,5.00048 1.2815,5.00048 3.6392,5.28677 3.6391,5.28677 3.542,2.86674 3.5419,2.86674 5.907,2.42842 5.9069,2.42842 20,0.0119 20,0.0119 5.4924,-1.46157 z M 2155.5,452.88417 l 10,-1.02685 11.7604,-2.46787 11.7605,-2.46787 11.7395,-3.89491 11.7396,-3.89491 10.4095,-4.53158 10.4096,-4.53158 10.7045,-6.12702 10.7045,-6.12701 10.8859,-8.0716 10.886,-8.07159 10.5727,-10.58569 10.5728,-10.58569 7.5856,-9.57926 7.5857,-9.57926 7.279,-11.42074 7.279,-11.42074 5.2025,-11 5.2024,-11 3.7355,-10 3.7354,-10 3.3259,-13.14739 3.3259,-13.14738 1.7338,-11.85262 1.7339,-11.85261 0.065,-33 0.065,-33 -1.8215,-8.45259 -1.8215,-8.45258 -2.0693,-6.04742 -2.0693,-6.04741 -3.7671,-7.5 -3.767,-7.5 -5.0632,-7.17171 -5.0632,-7.17172 -6.779,-6.85976 -6.7789,-6.85976 -6.5,-4.59154 -6.5,-4.591542 -6.5,-3.460215 -6.5,-3.460215 -7.1971,-2.733973 -7.1971,-2.733973 -9.3029,-2.051306 -9.3029,-2.051306 -45.3243,-0.488984 -45.3242,-0.488984 -4.3792,1.672405 -4.3791,1.672406 -2.9982,3.414761 -2.9982,3.414762 -2.0032,6.770327 -2.0031,6.770327 -20.6072,72.5 -20.6071,72.5 -12.8439,45 -12.8439,45 -13.6485,48.22377 -13.6484,48.22378 0.9953,3.60448 0.9952,3.60448 2.6573,3.48386 2.6572,3.48385 2.6518,1.06427 2.6517,1.06427 3,0.7434 3,0.74339 36.5,-0.41426 36.5,-0.41427 10,-1.02685 z"
         id="path181" />
      <path
         style="fill:#515a5b"
         d="m 757.5,1389.363 -3,-0.477 -8.30135,-1.9364 -8.30135,-1.9365 -7.19865,-3.3553 -7.19865,-3.3553 -6.23629,-4.7257 -6.23628,-4.7257 -4.3924,-5.1756 -4.39241,-5.1755 -3.17551,-5.1987 -3.1755,-5.1987 -2.48058,-6.3013 -2.48057,-6.3013 -1.70048,-7 -1.70047,-7 0.05,-14.5 0.05,-14.5 2.12157,-8.1315 2.12157,-8.1315 2.94983,-6.5057 2.94982,-6.5057 3.99933,-5.8628 3.99933,-5.8628 6.86453,-6.5756 6.86453,-6.5757 7,-4.1166 7,-4.1166 7.56276,-2.5196 7.56276,-2.5197 7.43724,-1.1629 7.43724,-1.1629 12.5,0.5398 12.5,0.5398 8.79659,2.5941 8.79658,2.5941 5.70342,2.883 5.70341,2.883 6.03687,4.449 6.03686,4.4489 4.67023,5.4665 4.67022,5.4666 3.40294,5.6511 3.40293,5.6511 3.07495,9.2913 3.07495,9.2913 1.1956,9 1.1956,9 -0.64012,9.5 -0.64012,9.5 -2.00885,8 -2.00885,8 -4.67477,9.5 -4.67476,9.5 -9.55684,9.5431 -9.55684,9.5431 -8.04934,4.1531 -8.04935,4.1532 -8.95065,2.6219 -8.95066,2.622 -13,0.3517 -13,0.3518 -3,-0.4769 z m 28.71679,-26.3482 6.42747,-1.9853 5.99755,-3.8764 5.99755,-3.8764 3.56382,-4.3883 3.56383,-4.3884 3.04506,-6.08 3.04505,-6.0799 1.75369,-6.4201 1.75368,-6.42 v -13 -13 l -1.76743,-6.5 -1.76743,-6.5 -3.60774,-6.8814 -3.60774,-6.8814 -4.56013,-4.6817 -4.56013,-4.6818 -4.87411,-2.8564 -4.8741,-2.8564 -6.6012,-1.8304 -6.6012,-1.8305 h -8.06154 -8.06154 l -5.87865,1.5312 -5.87864,1.5312 -5.87346,3.1305 -5.87346,3.1305 -5.22476,5.6434 -5.22475,5.6433 -3.12662,6.445 -3.12661,6.4449 -1.60663,6.5639 -1.60662,6.5639 v 11.8722 11.8722 l 1.61,6.5639 1.61,6.5639 2.93928,6.2462 2.93929,6.2463 5.49387,5.934 5.49387,5.934 4.69565,2.7519 4.69566,2.7518 5.51119,1.7641 5.51119,1.7641 10.14466,0.054 10.14467,0.054 6.42746,-1.9852 z m 657.28321,25.9432 -6,-0.9324 -7,-2.1047 -7,-2.1046 -6.6159,-3.4615 -6.6158,-3.4616 -5.8599,-4.7208 -5.8599,-4.7209 -4.7209,-5.8599 -4.7208,-5.8599 -3.4961,-6.6531 -3.4961,-6.6531 -2.7408,-8.9627 -2.7407,-8.9628 v -17 -17 l 2.6926,-8.7966 2.6925,-8.7966 3.0928,-6.2034 3.0927,-6.2034 5.5005,-7.2453 5.5005,-7.2454 6.1476,-4.8714 6.1477,-4.8715 5.5612,-3.1221 5.5612,-3.1221 5.9388,-2.0764 5.9388,-2.0764 7.338,-1.4347 7.3379,-1.4347 10.1621,0.01 10.162,0.01 6.2857,1.02 6.2857,1.0201 7.7143,2.4474 7.7143,2.4474 7.7487,4.5487 7.7488,4.5487 5.8776,5.7512 5.8776,5.7512 4.0428,6.2551 4.0428,6.255 2.9967,7.22 2.9968,7.2201 1.6912,8 1.6912,8 -0.025,12.5 -0.025,12.5 -1.5902,7.3534 -1.5903,7.3534 -2.9625,7.3986 -2.9626,7.3986 -3.6094,5.6424 -3.6094,5.6424 -5.17,5.4764 -5.1701,5.4765 -6.1065,4.3645 -6.1066,4.3646 -6.3934,2.9917 -6.3935,2.9917 -8,2.0993 -8,2.0993 -12.5,0.3688 -12.5,0.3688 -6,-0.9324 z m 31.7946,-25.9673 6.5053,-2.0092 5.9809,-3.9939 5.9809,-3.9939 4.0051,-5.2469 4.0051,-5.2468 2.1757,-4.3309 2.1756,-4.3309 2.0048,-7.6691 2.0048,-7.6691 v -12 -12 l -2.0635,-7.8988 -2.0636,-7.8988 -3.4253,-6.125 -3.4253,-6.125 -5.8275,-5.5327 -5.8276,-5.5327 -4.7559,-2.2856 -4.756,-2.2856 -5.244,-1.396 -5.2441,-1.3961 h -8.5 -8.5 l -5,1.3332 -5,1.3332 -5.7449,2.8147 -5.7449,2.8147 -6.0286,6.2782 -6.0286,6.2781 -2.9427,6.3121 -2.9428,6.3121 -1.7003,6.5 -1.7002,6.5 -0.024,12 -0.024,12 1.7333,6.5 1.7332,6.5 2.5023,5.4681 2.5022,5.4681 3.8314,5.0747 3.8314,5.0747 5.6457,3.8883 5.6458,3.8884 6.7283,2.293 6.7283,2.2931 10.1447,0.026 10.1446,0.026 6.5053,-2.0093 z m 1273.2054,25.9002 -6,-0.8653 -6.9748,-2.1099 -6.9748,-2.1098 -5.0252,-2.5224 -5.0252,-2.5225 -6.2978,-4.4652 -6.2979,-4.4651 -5.5179,-6.6654 -5.5179,-6.6653 -4.4284,-9 -4.4283,-9 -1.5277,-6 -1.5276,-6 -1.1146,-9.7072 -1.1145,-9.7071 1.1293,-8.8058 1.1292,-8.8057 1.517,-5.9871 1.517,-5.9871 4.011,-8.1946 4.0111,-8.1946 5.4827,-6.8816 5.4828,-6.8816 5.2462,-4.2732 5.2463,-4.2731 6.5,-3.8496 6.5,-3.8495 9,-2.9951 9,-2.9951 6.5,-1.0484 6.5,-1.0485 11,-0.01 11,-0.01 8,1.4387 8,1.4387 4.5,1.4251 4.5,1.4251 2.75,1.2954 2.75,1.2953 v 13.8817 13.8816 l -4.25,-2.4444 -4.25,-2.4443 -7.2974,-2.5934 -7.2974,-2.5934 -9.2026,-1.058 -9.2026,-1.058 -6,0.6202 -6,0.6202 -5.4477,1.5188 -5.4477,1.5188 -6.0358,3.0469 -6.0358,3.0468 -5.5165,5.6447 -5.5165,5.6447 -3.2746,6.1591 -3.2745,6.1591 -1.9755,7.7239 -1.9754,7.7239 v 8.8927 8.8926 l 1.6262,7.1974 1.6262,7.1974 3.4796,6.9352 3.4797,6.9352 5.4624,5.7268 5.4625,5.7269 6.9244,3.6386 6.9245,3.6387 6.7572,1.4319 6.7573,1.432 6.2922,0.017 6.2921,0.017 7.7079,-1.5674 7.7078,-1.5673 8,-3.4964 8,-3.4963 1.0329,-0.46 1.033,-0.46 3.9018,10.652 3.9017,10.6521 -1.9347,1.4514 -1.9347,1.4514 -4.5,2.2963 -4.5,2.2962 -7,2.5084 -7,2.5084 -9.4262,1.6156 -9.4262,1.6156 -8.0738,-0.1219 -8.0738,-0.122 -6,-0.8652 z m 503,0.095 -6,-0.9043 -9.8399,-3.1834 -9.84,-3.1833 -7.16,-4.693 -7.1601,-4.6929 -6.6555,-7.0832 -6.6556,-7.0832 -3.5269,-6.3314 -3.5269,-6.3314 -2.0025,-5.5 -2.0025,-5.5 -1.053,-4.0622 -1.0531,-4.0622 -1.0128,-9.7672 -1.0128,-9.7671 1.0243,-9.1706 1.0242,-9.1707 1.987,-7.2992 1.987,-7.2992 3.1264,-6.2008 3.1264,-6.2008 3.7923,-5.5907 3.7922,-5.5907 7.288,-6.7476 7.288,-6.7476 10.0329,-4.8546 10.0329,-4.8547 6,-1.613 6,-1.613 13,-0.5586 13,-0.5586 9.3684,1.6349 9.3684,1.6349 7.6316,3.1286 7.6316,3.1286 6.6368,4.3526 6.6367,4.3525 6.0424,6.4594 6.0424,6.4593 3.3717,5.7891 3.3716,5.7892 2.1836,5.5 2.1835,5.5 1.749,6.5 1.7489,6.5 v 16.5 16.5 l -2.281,8 -2.2811,8 -3.9407,8 -3.9406,8 -4.9475,6.1097 -4.9474,6.1096 -6.4728,5.1506 -6.4728,5.1506 -8.0089,4.0085 -8.0088,4.0086 -7.8365,2.0576 -7.8365,2.0576 -12.5,0.3688 -12.5,0.3688 -6,-0.9043 z m 37.8086,-28.7762 8.4864,-4.2052 5.2653,-5.7524 5.2652,-5.7523 3.3553,-7.0543 3.3554,-7.0543 1.6054,-8.4457 1.6054,-8.4457 -0.5469,-11.5 -0.5469,-11.5 -2.0403,-6.5 -2.0403,-6.5 -3.5471,-6 -3.5472,-6 -5.1037,-4.7912 -5.1037,-4.7912 -4.8687,-2.4671 -4.8686,-2.4672 -5.7269,-1.4916 -5.7269,-1.4917 h -8.0798 -8.0798 l -5.8852,1.5329 -5.8853,1.5329 -5.0489,2.7171 -5.0489,2.7171 -5.7036,5.6776 -5.7035,5.6776 -3.4632,7.3224 -3.4631,7.3224 -1.3582,5.5 -1.3582,5.5 v 13 13 l 1.3582,5.5 1.3582,5.5 3.5373,7.4765 3.5373,7.4766 5.6486,5.6486 5.6487,5.6487 4.4548,2.2928 4.4548,2.2929 5.5,1.8369 5.5,1.8369 12.1611,-0.2974 12.1611,-0.2974 z M 3768,1389.353 l -2.5,-0.3744 -6,-1.1411 -6,-1.1411 -7.4026,-2.8986 -7.4027,-2.8986 -6.5973,-4.3298 -6.5974,-4.3297 -5.6519,-5.87 -5.6519,-5.8699 -3.5019,-5.5516 -3.5019,-5.5516 -2.5047,-5.9508 -2.5046,-5.9507 -1.804,-6.4977 -1.804,-6.4976 -0.037,-16.5 -0.038,-16.5 2.2604,-7.7992 2.2605,-7.7992 3.1225,-6.2008 3.1225,-6.2008 3.0054,-4.5 3.0055,-4.5 5.6116,-5.8402 5.6116,-5.8402 5.8089,-3.9871 5.8089,-3.987 7.1911,-3.4069 7.1911,-3.4068 8,-2.189 8,-2.1889 18,-0.051 18,-0.051 7,1.7665 7,1.7666 5.3033,2.4266 5.3033,2.4267 -0.6676,12.7809 -0.6675,12.7809 -0.2273,0.2582 -0.2272,0.2581 -7.5894,-3.5065 -7.5895,-3.5066 -6.819,-1.6225 -6.8191,-1.6225 -11.5,-0.076 -11.5,-0.077 -6,1.7861 -6,1.7861 -5.6994,3.0236 -5.6993,3.0237 -6.0669,6.3179 -6.0668,6.318 -3.5474,7.4699 -3.5475,7.4699 -1.5137,8.3498 -1.5137,8.3498 0.5763,8.889 0.5763,8.889 2.811,8.1552 2.8109,8.1551 3.7883,5.7073 3.7883,5.7073 4.6181,4.065 4.618,4.065 7.0338,3.3578 7.0337,3.3579 5.9337,1.0757 5.9336,1.0757 h 5.6327 5.6327 l 5.9336,-1.051 5.9337,-1.051 6.5,-2.088 6.5,-2.0879 4.6714,-2.3381 4.6713,-2.338 2.7162,7.227 2.7162,7.227 1.3625,3.3721 1.3624,3.3721 v 0.3654 0.3653 l -7.25,3.6542 -7.25,3.6543 -7,2.3905 -7,2.3906 -8.381,1.4677 -8.381,1.4678 -8.619,-0.1362 -8.619,-0.1362 -2.5,-0.3744 z m 146.5,0.037 -3,-0.4375 -7,-1.6357 -7,-1.6357 -6,-2.5906 -6,-2.5905 -4.25,-2.4341 -4.25,-2.4342 v -0.8826 -0.8826 l 5.7301,-10.314 5.7301,-10.314 8.0199,4.3102 8.0199,4.3101 6.1443,1.5706 6.1444,1.5706 h 8.5681 8.5682 l 5.3532,-2.0029 5.3531,-2.0029 2.5622,-2.7471 2.5621,-2.7471 1.1222,-2.1843 1.1222,-2.1842 v -4.6646 -4.6646 l -1.622,-3.4182 -1.6221,-3.4182 -4.7089,-4.2329 -4.709,-4.233 -9.919,-5.4138 -9.919,-5.4138 -7.9439,-4.5862 -7.944,-4.5862 -6.8004,-6.3658 -6.8004,-6.3658 -2.9843,-6.1342 -2.9843,-6.1342 -1.1487,-7.1337 -1.1487,-7.1336 1.1177,-6.3664 1.1176,-6.3663 3.0274,-6.1587 3.0274,-6.1587 5.7793,-5.3413 5.7792,-5.3413 5.6393,-2.7496 5.6393,-2.7496 6.8137,-1.6064 6.8138,-1.6064 13.5,0.528 13.5,0.528 7.3523,2.1098 7.3522,2.1099 4.0393,2.0607 4.0392,2.0606 -0.5386,12.4713 -0.5386,12.4712 -0.4444,0.4444 -0.4444,0.4444 -7.4085,-3.4192 -7.4085,-3.4193 -6.5,-1.7743 -6.5,-1.7743 -9,-0.065 -9,-0.065 -4.9986,2.5 -4.9985,2.5 -2.2515,3.3979 -2.2514,3.3979 v 4.3919 4.392 l 1.9582,3.8384 1.9582,3.8383 4.4668,3.9319 4.4668,3.9318 8.1198,4.44 8.1198,4.4399 10.2052,5.9143 10.2052,5.9143 6.6096,6.5918 6.6095,6.5919 2.5035,4.9938 2.5036,4.9939 1.2693,5.3864 1.2694,5.3863 -0.5193,8.3232 -0.5192,8.3232 -3.1061,6.6376 -3.1061,6.6376 -5.7893,5.6528 -5.7894,5.6529 -6.5347,3.171 -6.5348,3.1711 -5.933,1.6437 -5.933,1.6438 -11.5,0.349 -11.5,0.3489 -3,-0.4375 z m -2963.40962,-2.606 -0.88594,-2.284 -31.73464,-78.5 -31.73465,-78.5 -0.49084,-1.7754 -0.49084,-1.7753 16.31639,0.2753 16.3164,0.2754 17.33822,45 17.33823,45 5.00559,14 5.00559,14 0.53031,1.5 0.5303,1.5 0.8698,-1.5487 0.8698,-1.5488 3.06915,-8.4512 3.06914,-8.4513 21.21555,-50.75 21.21556,-50.75 H 1029.7217 1045 v 0.2774 0.2774 l -35.7968,81.9726 -35.79677,81.9726 -10.71506,0.284 -10.71505,0.2839 z M 184.66667,1387.3333 184,1386.6667 V 1305.3333 1224 h 15 15 v 82 82 h -14.33333 -14.33334 z m 92,0 L 276,1386.6667 V 1305.3333 1224 h 15.27259 15.27258 l 39.40288,50.9835 39.40287,50.9834 4.07454,6.2005 4.07454,6.2005 0.25819,-57.1839 0.25819,-57.184 h 14.99766 14.99765 l -0.25584,81.75 -0.25585,81.75 -13.64432,0.2775 -13.64432,0.2776 -41.45016,-53.7776 -41.45016,-53.7775 -3.40552,-5.232 -3.40552,-5.2321 -0.5,-0.018 -0.5,-0.018 0.26567,59.0002 0.26568,59.0002 h -14.34901 -14.34901 l -0.66666,-0.6667 z m 209,0 L 485,1386.6667 V 1305.3333 1224 h 15.41107 15.41108 l 38.45585,49.75 38.45584,49.75 4.79893,7 4.79893,7 0.58415,0.7006 0.58415,0.7006 -0.28131,-57.4506 L 602.93738,1224 h 15.03715 15.03716 l -0.25584,81.75 -0.25585,81.75 -13.50996,0.2767 -13.50996,0.2766 -39.49004,-51.1633 -39.49004,-51.1634 -5.75,-8.0271 -5.75,-8.0271 V 1328.8362 1388 h -14.33333 -14.33334 z m 568.04053,-0.056 -0.4442,-0.777 31.34,-80.9215 31.34,-80.9215 0.8653,-0.8653 0.8653,-0.8653 10.363,0.2868 10.363,0.2868 32.6835,81.7001 32.6835,81.7 -0.55,0.55 -0.5499,0.5499 h -15.2597 -15.2596 l -8.001,-20.25 -8.001,-20.25 -29.3492,-0.2645 -29.3492,-0.2646 -7.4946,20.2646 -7.4946,20.2645 -14.1532,0.277 -14.1532,0.277 z m 91.9841,-67.027 -0.5419,-1.75 -8.8247,-26.1982 -8.8247,-26.1982 -0.5,-0.042 -0.5,-0.043 -2.3356,7.7407 -2.3356,7.7406 -7.0496,19 -7.0496,19 -0.4718,1.25 -0.4718,1.25 h 19.7236 19.7237 l -0.542,-1.75 z M 1268,1318.5267 V 1249 h -24 -24 v -12.5 -12.5 h 64.9294 64.9294 l -1.9626,6.75 -1.9626,6.75 -1.6307,5.75 -1.6308,5.75 h -22.3292 -22.3292 l -0.2569,69.25 -0.2568,69.25 -14.75,0.2767 -14.75,0.2768 z m 329,-12.5989 v -82.1256 l 29.75,0.4706 29.75,0.4706 6.4471,1.6627 6.4471,1.6627 6.2919,3.0974 6.2919,3.0975 5.0014,5.0015 5.0015,5.0014 2.4734,5.2285 2.4735,5.2285 1.0117,4.3882 1.0116,4.3882 0.013,6 0.013,6 -1.3961,5.2441 -1.396,5.244 -2.1988,4.5422 -2.1988,4.5421 -4.776,5.2256 -4.776,5.2257 -6.6674,3.8993 -6.6674,3.8992 3.9489,4.0889 3.9489,4.0889 7.0962,10.8378 7.0961,10.8377 12.4898,20.7907 12.4898,20.7907 0.6317,1.6462 0.6317,1.6463 -16.8664,-0.2747 -16.8665,-0.2747 -13.2494,-22 -13.2494,-22 -5.5955,-8.252 -5.5954,-8.2521 -2.54,-1.9979 -2.54,-1.998 h -6.8513 -6.8513 l -0.2638,32.25 -0.2639,32.25 -14.75,0.2767 -14.75,0.2768 v -82.1257 z m 54.2053,-7.4821 4.5615,-1.5543 3.875,-3.3168 3.8749,-3.3168 2.4427,-4.8789 2.4427,-4.8789 v -6.509 -6.509 l -2.3386,-4.8308 -2.3386,-4.8309 -4.0049,-2.9011 -4.0049,-2.9012 -3.6124,-1.0229 -3.6124,-1.023 -10.75,-0.6388 -10.75,-0.6389 V 1274.3472 1300 h 9.8219 9.8218 l 4.5616,-1.5543 z m 211.4614,88.8876 -0.6667,-0.6666 V 1305.3333 1224 h 15 15 v 82 82 h -14.3333 -14.3334 z M 1954,1306 v -82 l 15.25,0.01 15.25,0.011 37.5,48.5483 37.5,48.5483 6,8.4561 6,8.4561 0.2582,-57.0415 0.2582,-57.0416 14.7418,0.2767 14.7418,0.2767 v 81.5 81.5 h -13.9017 -13.9018 l -30.91,-40 -30.91,-40 -13.1181,-17.5 -13.118,-17.5 -1.0702,-1.2149 -1.0702,-1.2149 0.2806,58.9649 0.2806,58.9649 H 1969.0306 1954 v -82 z m 307,0.01 v -82.0102 h 45 45 v 1.2049 1.2049 l -3.7175,11.2951 -3.7175,11.2951 H 2317.2825 2291 v 20.9834 20.9834 l 26.25,0.2666 26.25,0.2666 v 12.5 12.5 l -26.25,0.2666 -26.25,0.2666 v 22.4687 22.4688 l 30.25,0.2646 30.25,0.2647 v 12.5 12.5 l -45.25,0.2602 -45.25,0.2602 z m 146,2e-4 v -82.0104 h 15 15 v 68.9849 68.9849 l 29.25,0.2651 29.25,0.2651 v 12.5 12.5 l -44.25,0.2604 -44.25,0.2604 z m 136,-2e-4 v -82.0102 h 45 45 v 1.2049 1.2049 l -3.7175,11.2951 -3.7175,11.2951 H 2599.2825 2573 v 21 21 h 26 26 v 13 13 h -26 -26 v 22.4853 22.4854 l 30.25,0.2646 30.25,0.2647 v 12.5 12.5 l -45.25,0.2602 -45.25,0.2602 z m 360,12.5165 v -69.5267 h -24 -24 v -12.5 -12.5 h 64.9294 64.9294 l -1.9626,6.75 -1.9626,6.75 -1.6307,5.75 -1.6308,5.75 h -22.3292 -22.3292 l -0.2569,69.25 -0.2568,69.25 -14.75,0.2767 -14.75,0.2768 z m 127.6667,68.8066 -0.6667,-0.6666 v -81.4311 -81.4311 l 30.25,0.4472 30.25,0.4472 6,1.6891 6,1.6891 6.2233,2.8964 6.2234,2.8965 5.0353,4.71 5.0354,4.71 2.958,6.105 2.9579,6.105 1.1224,6.6721 1.1225,6.6722 -1.1089,7.3278 -1.1089,7.3279 -3.0826,6.3306 -3.0825,6.3306 -5.4279,5.4279 -5.428,5.428 -5.4896,3.0982 -5.4897,3.0981 3.4406,3.8083 3.4405,3.8083 6.9145,10.335 6.9145,10.335 13.6649,22.6063 13.6649,22.6063 v 0.6437 0.6437 h -16.8458 -16.8459 l -10.787,-18.25 -10.7869,-18.25 -8.3514,-12.6822 -8.3514,-12.6823 -2.2383,-1.5677 -2.2383,-1.5678 H 3067.2775 3060 v 32.5 32.5 h -14.3333 -14.3334 z m 57.078,-90.3636 6.0641,-3.0303 2.6468,-3.4701 2.6468,-3.4701 1.4488,-3.4675 1.4488,-3.4675 v -6.3357 -6.3358 l -2.5634,-5.1441 -2.5634,-5.1441 -4.5387,-3.0063 -4.5386,-3.0063 -4.6479,-0.7438 -4.648,-0.7438 -9,-0.052 -9,-0.052 -0.2672,25.25 -0.2671,25.25 h 10.8574 10.8575 l 6.0641,-3.0303 z m 316.922,90.3636 -0.6667,-0.6666 v -81.3334 -81.3333 h 15.3288 15.3289 l 38.8974,50.25 38.8975,50.25 4.7737,6.9281 4.7737,6.928 v -57.178 -57.1781 h 15.0058 15.0059 l -0.2559,81.75 -0.2558,81.75 -13.5431,0.2769 -13.5432,0.2768 -37.9568,-49.1666 -37.9569,-49.1667 -7.25,-9.987 -7.25,-9.987 v 59.1268 59.1268 h -14.3333 -14.3334 z m 208.817,-0.5564 -0.4742,-1.2769 0.2452,-80.5 0.2453,-80.5 h 15 15 v 81.5 81.5 l -14.7711,0.2769 -14.7711,0.2768 z"
         id="path179" />
    </g>
  </g>
</svg>
