<svg width="683" height="246" xmlns="http://www.w3.org/2000/svg" xmlns:xlink="http://www.w3.org/1999/xlink" xml:space="preserve" overflow="hidden"><defs><clipPath id="clip0"><rect x="246" y="273" width="683" height="246"/></clipPath></defs><g clip-path="url(#clip0)" transform="translate(-246 -273)"><path d="M401.423 0 387.869 0 337.818 81.7466 287.767 0 274.16 0 274.16 245.88 287.767 245.88 337.818 164.133 387.869 245.88 401.583 245.88 401.423 245.667Z" fill="#6DACDE" transform="matrix(1 0 0 1.00049 252.83 273)"/><path d="M274.16 0 199.938 0 274.054 122.94 199.938 245.88 274.16 245.88Z" fill="#938647" transform="matrix(1 0 0 1.00049 252.83 273)"/><path d="M475.699 0 401.423 0 401.423 245.667 401.583 245.88 475.699 245.88 401.583 122.94Z" fill="#6D9A45" transform="matrix(1 0 0 1.00049 252.83 273)"/><path d="M581.51 0 475.699 0 401.583 122.94 475.699 245.88 475.699 191.56 600.933 191.56C653.492 191.56 669.233 149.513 669.233 112.962L669.233 84.041C669.233 35.9109 652.105 0 581.51 0ZM599.973 99.1951C599.973 113.762 593.303 130.57 575.908 130.57L475.806 130.57 475.806 60.9898 569.505 60.9898C591.969 60.9898 599.973 70.4877 599.973 87.0825Z" fill="#BFD730" transform="matrix(1 0 0 1.00049 252.83 273)"/><path d="M274.054 122.94 199.938 0 199.938 148.606 74.3296 0 0.106719 0 0.106719 245.88 74.383 245.88 74.383 97.3275 199.938 245.88Z" fill="#FCB316" transform="matrix(1 0 0 1.00049 252.83 273)"/></g></svg>