<svg width="1110" height="192" xmlns="http://www.w3.org/2000/svg" xmlns:xlink="http://www.w3.org/1999/xlink" xml:space="preserve" overflow="hidden"><defs><clipPath id="clip0"><rect x="85" y="312" width="1110" height="192"/></clipPath></defs><g clip-path="url(#clip0)" transform="translate(-85 -312)"><path d="M1014.33 5C1014.33 17.9167 1014.33 66.1667 1014.33 69.7083 1020.88 48.5 1045.25 3.5 1046.54 0.958334L1018.62 0.958334C1016.38 0.708333 1014.33 2.74999 1014.33 5Z" fill="#DA7F3A" transform="matrix(1.0006 0 0 1 95.6731 312)"/><path d="M699.375 29.5417C681.75 10.8333 660.625 1.70833 636 1.70833 610.875 1.70833 589.75 11.0833 572.167 29.5417 554.542 48.25 546 70.4583 546 96.75 546 123.042 554.792 145.042 572.167 163.25 589.5 181.917 610.625 191.042 636 191.042 654.875 191.042 671.958 185.458 687.042 174.333 702.125 163.25 712.917 148.833 719.458 131.125L721.458 125.583C722.25 123.542 720.708 121.542 718.708 121.542L691.292 121.542C690.042 121.542 689.042 122.292 688.542 123.292L687.542 125.583C682.5 136.167 675.208 144.542 666.167 150.333 657.125 156.417 647.083 159.458 636 159.458 619.667 159.458 606.083 153.375 594.792 141 585.458 130.875 579.708 119.25 577.917 105.875 577.667 104.083 579.208 102.583 580.958 102.583L722.75 102.583C724.25 102.583 725.75 101.292 725.75 99.5417L725.75 95.5C725.75 70.2083 716.958 47.9583 699.375 29.5417ZM685.542 71.75 586.25 71.75C583.958 71.75 582.708 69.4583 583.708 67.4583 587.75 59.3333 593.292 52.2917 600.042 46.2083 610.625 37.375 622.417 33.0833 635.75 33.0833 649.083 33.0833 661.167 37.375 671.708 46.2083 678.75 52.2917 684.042 59.3333 688.042 67.4583 689.042 69.4583 687.542 71.75 685.542 71.75ZM522.875 114.458C519.625 108.125 514.333 102.333 507.042 97 505.292 95.75 503.542 94.5 501.5 93.4583 499.5 92.2083 497.5 91.2083 495 90.1667 490.458 88.1667 486.667 86.6667 483.917 85.625L469.333 80.8333C454 76.5417 442.708 71.5 435.667 65.6667 427.875 59.3333 426.083 52.0417 430.625 43.4167 432.625 39.625 436.417 36.5833 441.417 34.3333 447.208 32.0417 453.25 30.7917 459.792 30.7917 468.333 30.7917 476.125 33.3333 482.667 38.125 488.458 42.6667 491.208 48.25 491.208 55.2917L491.208 60.125C491.208 61.625 492.458 62.625 493.708 62.625L521.125 62.625C522.625 62.625 523.625 61.375 523.625 60.125L523.625 55.2917C523.625 39.625 517.333 26.75 504.792 16.125 492.958 5.75 478.125 0.708333 459.792 0.708333 446.458 0.708333 434.375 3.74999 423.583 9.83333 412.292 16.125 404.5 24.4583 399.958 35.0833 394.917 47.2083 394.917 59.0833 399.958 70.2083 405.75 83.375 417.042 93.7083 434.125 101.833L444.458 105.875C448.208 107.125 452.5 108.375 457 109.917 465.833 112.417 471.833 114.458 474.875 115.708 488.708 121.792 495.75 129.125 495.75 137.458 495.75 143.75 492.458 149.083 485.667 153.625 478.125 158.667 469.333 161.208 459.542 161.208 450.25 161.208 441.667 158.667 434.125 153.375 427.125 148.333 423.833 142.5 423.833 135.917L423.833 131.625C423.833 130.125 422.583 129.125 421.333 129.125L394.667 129.125C393.167 129.125 392.167 130.375 392.167 131.625L392.167 135.917C392.167 144.292 394.167 151.875 397.958 158.667 401.458 165.5 406.75 171.333 414.042 176.375 427.625 185.958 443.208 191.042 460.292 191.042 477.625 191.042 493.208 186.25 506.792 176.375 514.083 171.083 519.375 165.25 522.875 158.667 526.667 151.625 528.667 144.042 528.667 135.917 528.417 128.333 526.667 121.042 522.875 114.458ZM373.792 82.625C374.083 67.7083 371.542 44.1667 348.917 22.4583 334.083 8.04166 314.25 0.708333 289.833 0.708333 265.458 0.708333 245.625 8.04166 230.792 22.2083 208.667 43.6667 205.625 67.7083 205.875 82.3333 205.875 83.375 205.875 171.833 205.625 188.5 205.625 190.042 206.875 191.292 208.417 191.292L238.083 191.292C239.583 191.292 240.833 190.042 240.833 188.5 240.833 171.583 240.583 108.125 240.833 87.1667 240.833 70.9583 246.125 56.0833 254.917 47.2083 254.917 47.2083 269 31.7917 289.833 32.2917 305.417 32.8333 315.75 38.375 325.042 47.4583 332.833 54.7917 338.875 72 339.125 87.9167 339.125 103.833 339.125 188 339.125 188 339.125 189.5 340.375 190.792 341.875 190.792L371.542 191.042C373.042 191.042 374.333 189.75 374.333 188.25ZM176.958 46.7083C168.667 32.5417 157.625 21.1667 143.292 13.0833 129.208 5 112.875 0.958334 94.5417 0.958334 75.9167 0.958334 59.5833 5 45.5 13.0833 31.4167 21.1667 20.375 32.5417 12.0833 46.7083 4.04166 61.125 0 77.5417 0 96.5 0 114.958 4.04166 131.375 12.0833 145.792 20.125 160.208 31.4167 171.333 45.5 179.417 59.5833 187.5 75.9167 191.542 94.5417 191.542 113.125 191.542 129.458 187.5 143.542 179.417 157.625 171.333 168.917 160.208 176.708 145.792 184.75 131.375 188.792 115.208 188.792 96.5 189.042 77.5417 185 61.125 176.958 46.7083ZM147.833 129.625C142.792 139.208 135.5 146.792 126.458 152.375 117.417 157.917 106.833 160.708 94.7917 160.708 82.9583 160.708 72.4167 157.917 63.0833 152.375 54.0417 146.792 46.75 139.208 41.4583 129.625 36.2083 120 33.6667 108.875 33.6667 96.25 33.6667 83.625 36.2083 72.5 41.4583 62.875 46.75 53.2917 54.0417 45.4583 63.0833 40.125 72.1667 34.5833 82.7083 31.7917 94.7917 31.7917 106.583 31.7917 117.167 34.5833 126.458 40.125 135.5 45.7083 142.792 53.2917 147.833 62.875 152.833 72.5 155.625 83.875 155.625 96.25 155.375 108.875 152.833 120 147.833 129.625ZM1044.75 190.042 1018.12 190.042C1016.08 190.042 1014.58 188.5 1014.83 186.5 1017.62 138.458 1026.17 67.7083 1048.79 19.1667 1049.04 18.9167 1049.54 18.9167 1049.54 19.4167L1049.54 185.208C1049.29 188 1047.29 190.042 1044.75 190.042ZM996.75 72.25 996.75 185.958C996.75 188.5 994.75 190.792 991.958 190.792L967.833 190.792C965.333 190.792 963.042 188.75 963.042 185.958L963.042 72.25C963.042 61.625 959.292 52.5417 951.75 44.9583 944.458 37.625 935.417 33.8333 924.833 33.8333 914.292 33.8333 905.25 37.625 897.958 45.2083 890.417 52.5417 886.625 61.625 886.625 72.25L886.625 185.958C886.625 188.5 884.625 190.792 881.875 190.792L858.25 190.792C855.708 190.792 853.458 188.75 853.458 185.958L853.458 72.25C853.458 62.125 849.667 52.7917 842.125 44.9583 834.333 37.625 825.292 33.8333 814.75 33.8333 804.167 33.8333 795.125 37.625 787.833 44.9583 780.292 53.0417 776.542 62.125 776.542 72.25L776.542 185.958C776.542 188.5 774.542 190.792 771.75 190.792L747.875 190.792C745.375 190.792 743.083 188.75 743.083 185.958L743.083 72.25C743.083 52.5417 750.125 35.5833 764.208 21.4583 778.292 7.29167 794.875 0.458334 814.75 0.458334 827.292 0.458334 839.375 4 850.458 11.0833 856.208 14.875 861.75 19.4167 866.542 24.4583 868.292 26.5 871.542 26.5 873.333 24.4583 875.083 22.4583 877.083 20.6667 878.833 18.9167 881.875 16.125 885.375 13.3333 889.167 10.8333 900.208 3.74999 912.292 0.208333 924.833 0.208333 944.958 0.208333 961.792 7.29167 975.875 21.1667 989.708 35.8333 996.75 52.7917 996.75 72.25ZM1063.38 190.792 1063.38 178.417 1059.08 178.417 1059.08 175.625 1070.92 175.625 1070.92 178.417 1066.62 178.417 1066.62 190.792ZM1072.92 190.792 1072.92 175.375 1077.71 175.375 1080.46 184.708 1083.21 175.375 1088 175.375 1088 190.792 1085 190.792 1085 178.667 1081.96 188.75 1078.96 188.75 1075.67 178.417 1075.67 190.792Z" fill="#3A4D54" transform="matrix(1.0006 0 0 1 95.6731 312)"/></g></svg>