<svg width="872" height="224" xmlns="http://www.w3.org/2000/svg" xmlns:xlink="http://www.w3.org/1999/xlink" xml:space="preserve" overflow="hidden"><defs><clipPath id="clip0"><rect x="204" y="324" width="872" height="224"/></clipPath></defs><g clip-path="url(#clip0)" transform="translate(-204 -324)"><path d="M417.229 0 112.438 0C90.125 0 69.8542 13.1736 60.8125 33.6389L0.680556 178.84C0.243055 179.812 0.340278 180.931 0.972222 181.806 1.55556 182.681 2.52778 183.215 3.59722 183.215L141.215 183.215C150.938 183.215 155.264 173.785 147.632 166.25L97.0764 118.806C70.5347 92.75 81.9097 32.2778 137.083 32.2778L406.535 32.2778C407.896 32.2778 409.062 31.4028 409.549 30.1389L420.194 4.32639C420.34 3.9375 420.438 3.54861 420.438 3.11111 420.389 1.36111 418.979 0 417.229 0Z" fill="#03234B" transform="matrix(1.00102 0 0 1 204 324)"/><path d="M386.847 73.8889 335.125 73.8889C331.722 73.8889 328.66 75.8819 327.347 79.0417L269.354 219.285C269.111 219.722 269.014 220.257 269.014 220.743 269.014 222.493 270.424 223.903 272.174 223.903L291.472 223.903C314.174 223.951 334.736 210.389 343.632 189.486L389.667 78.0695C389.812 77.6806 389.91 77.2917 389.91 76.9028 389.861 75.25 388.5 73.9375 386.847 73.8889Z" fill="#03234B" transform="matrix(1.00102 0 0 1 204 324)"/><path d="M285.153 77.0486C285.153 75.2986 283.743 73.8889 281.993 73.8889L135.285 73.8889C127.312 73.8889 120.361 83.6111 128.771 91.4375L177.236 136.646C177.236 136.646 196.875 154.729 192.646 180.688 189.049 203.486 173.493 217.486 162.167 222.493 161.778 222.639 161.583 223.028 161.681 223.417 161.778 223.757 162.118 224.049 162.507 224L218.993 224C222.396 224.049 225.458 222.007 226.771 218.896L284.91 78.1667C285.056 77.8264 285.153 77.4375 285.153 77.0486Z" fill="#03234B" transform="matrix(1.00102 0 0 1 204 324)"/><path d="M557.91 178.306C551.007 178.306 545.368 172.715 545.368 165.764 545.368 158.812 551.007 153.174 557.91 153.174 564.812 153.319 570.257 158.958 570.16 165.812 570.257 169.118 568.993 172.278 566.66 174.66 564.375 176.993 561.215 178.306 557.91 178.306M569.965 155.069C567.146 151.278 562.625 149.09 557.91 149.236 548.771 149.236 541.333 156.674 541.333 165.812 541.333 175 548.771 182.438 557.91 182.438 562.625 182.535 567.097 180.396 569.965 176.604L569.965 181.806 574.389 181.806 574.389 150.014 569.965 150.014Z" fill="#03234B" transform="matrix(1.00102 0 0 1 204 324)"/><path d="M606.375 166.736C606.375 172.278 604.917 174.271 603.215 175.924 601.465 177.625 599.132 178.5 596.75 178.354 594.076 178.549 591.451 177.479 589.604 175.486 588 173.104 587.222 170.285 587.465 167.417L587.465 150.014 582.993 150.014 582.993 167.514C582.75 171.16 583.722 174.757 585.764 177.722 588.486 180.931 592.521 182.681 596.701 182.486 600.688 182.729 604.528 180.736 606.618 177.285L606.618 181.66 610.847 181.66 610.847 150.014 606.375 150.014Z" fill="#03234B" transform="matrix(1.00102 0 0 1 204 324)"/><path d="M632.431 178.306C627.278 178.5 622.611 175.535 620.521 170.819 618.479 166.153 619.451 160.66 623 157.014 626.549 153.319 631.993 152.201 636.757 154.146 641.472 156.09 644.583 160.708 644.535 165.812 644.535 170.868 640.646 178.306 632.431 178.306M644.292 155.167C641.569 151.326 637.097 149.09 632.382 149.139 623.438 149.431 616.34 156.819 616.34 165.764 616.34 174.708 623.438 182.097 632.382 182.389 636.271 182.389 641.715 180.785 644.292 176.361L644.292 178.451C644.292 186.861 638.361 189.875 633.257 189.875 628.153 189.972 623.535 186.861 621.785 182.049L621.785 181.903 617.118 181.903 617.118 182.194C620.278 192.986 630.292 193.861 633.306 193.861 634.132 193.861 641.764 193.715 645.847 188.028 648.083 184.625 649.104 180.542 648.764 176.507L648.764 150.014 644.292 150.014Z" fill="#03234B" transform="matrix(1.00102 0 0 1 204 324)"/><path d="M689.16 149.188C684.882 149.139 680.944 151.278 678.66 154.924 676.424 151.278 672.438 149.139 668.16 149.188 664.951 149.139 661.938 150.549 659.896 153.076L659.896 150.014 655.472 150.014 655.472 181.708 659.896 181.708 659.896 163.382C659.75 161.146 660.236 158.91 661.306 156.965 662.812 154.632 665.389 153.271 668.16 153.271 670.931 153.271 673.507 154.632 675.014 156.965 676.083 158.91 676.569 161.146 676.424 163.382L676.424 181.708 680.896 181.708 680.896 163.382C680.75 161.146 681.236 158.91 682.306 156.965 683.812 154.632 686.389 153.271 689.16 153.271 691.931 153.271 694.507 154.632 696.014 156.965 697.083 158.91 697.569 161.146 697.424 163.382L697.424 181.708 701.847 181.708 701.847 162.896C701.847 152.056 693.875 149.236 689.16 149.236" fill="#03234B" transform="matrix(1.00102 0 0 1 204 324)"/><path d="M711.715 163.431C712.639 157.549 717.694 153.271 723.625 153.271 729.507 153.271 734.562 157.549 735.486 163.431ZM723.528 149.139C714.438 149.333 707.146 156.722 707.097 165.812 707.097 173.882 712.882 180.785 720.806 182.097 728.729 183.458 736.507 178.889 739.132 171.257L739.229 170.965 734.562 170.965 734.562 171.111C732.715 175.583 728.389 178.451 723.576 178.306 717.451 178.208 712.396 173.59 711.667 167.514L740.056 167.514 740.056 167.319C740.396 162.701 738.792 158.132 735.681 154.681 732.521 151.278 728.146 149.285 723.479 149.236" fill="#03234B" transform="matrix(1.00102 0 0 1 204 324)"/><path d="M759.938 149.188C756.243 149.042 752.743 150.694 750.507 153.66L750.507 150.014 746.035 150.014 746.035 181.708 750.507 181.708 750.507 164.16C750.264 161.097 751.285 158.132 753.326 155.847 755.125 154.146 757.507 153.222 759.938 153.222 762.417 153.222 764.799 154.194 766.597 155.847 768.639 158.132 769.66 161.146 769.465 164.257L769.465 181.66 773.938 181.66 773.938 164.257C774.229 160.174 772.819 156.139 770.049 153.076 767.424 150.403 763.778 148.993 760.035 149.188" fill="#03234B" transform="matrix(1.00102 0 0 1 204 324)"/><path d="M789.833 138.931 785.41 138.931 785.41 149.965 778.847 149.965 778.847 154.049 785.41 154.049 785.41 181.708 789.833 181.708 789.833 154.049 797.319 154.049 797.319 149.965 789.833 149.965Z" fill="#03234B" transform="matrix(1.00102 0 0 1 204 324)"/><path d="M804.465 163.431C805.389 157.549 810.444 153.222 816.375 153.222 822.306 153.222 827.312 157.549 828.236 163.431ZM816.278 149.139C807.236 149.333 799.944 156.722 799.896 165.812 799.896 173.882 805.681 180.736 813.604 182.097 821.528 183.458 829.257 178.84 831.931 171.257L832.028 170.917 827.312 170.917 827.312 171.111C825.514 175.535 821.139 178.403 816.375 178.306 810.25 178.208 805.194 173.59 804.465 167.514L832.854 167.514 832.854 167.319C833.194 162.701 831.59 158.132 828.431 154.681 825.319 151.278 820.896 149.285 816.278 149.236" fill="#03234B" transform="matrix(1.00102 0 0 1 204 324)"/><path d="M854.243 178.354C847.292 178.354 841.701 172.715 841.701 165.764 841.701 158.812 847.292 153.222 854.243 153.222 861.097 153.319 866.59 158.958 866.493 165.812 866.542 169.118 865.278 172.326 862.993 174.66 860.66 177.042 857.5 178.354 854.243 178.354M866.25 138.931 866.25 155.021C863.382 151.278 858.91 149.139 854.194 149.139 845.056 149.139 837.618 156.576 837.618 165.764 837.618 174.951 845.056 182.389 854.194 182.389 858.91 182.438 863.382 180.299 866.25 176.556L866.25 181.708 870.722 181.708 870.722 138.931Z" fill="#03234B" transform="matrix(1.00102 0 0 1 204 324)"/><path d="M444.5 137.861 448.729 137.861 448.729 144.229 444.5 144.229Z" fill="#03234B" transform="matrix(1.00102 0 0 1 204 324)"/><path d="M430.062 138.931 420.826 138.931 420.826 142.965 425.833 142.965 425.833 177.674 420.486 177.674 420.486 181.66 435.021 181.66 435.021 177.674 430.062 177.674Z" fill="#03234B" transform="matrix(1.00102 0 0 1 204 324)"/><path d="M449.75 149.965 440.514 149.965 440.514 154 445.521 154 445.521 177.674 440.368 177.674 440.368 181.66 454.757 181.66 454.757 177.674 449.75 177.674Z" fill="#03234B" transform="matrix(1.00102 0 0 1 204 324)"/><path d="M467.104 140.972C464.333 143.451 464.236 146.319 464.139 149.771L464.139 150.014 459.083 150.014 459.083 154.097 464.188 154.097 464.188 177.674 459.083 177.674 459.083 181.708 473.521 181.708 473.521 177.674 468.417 177.674 468.417 154.146 473.521 154.146 473.521 150.014 468.417 150.014 468.417 149.333C468.417 147.049 468.514 145.056 470.361 143.597 471.528 142.722 472.986 142.236 474.493 142.188L474.736 142.188 474.736 138.299 474.444 138.299C471.771 138.299 469.146 139.222 467.104 140.972" fill="#03234B" transform="matrix(1.00102 0 0 1 204 324)"/><path d="M483.778 164.062C484.701 158.326 489.562 154.097 495.347 153.951 501.326 153.806 506.528 158.132 507.549 164.062ZM495.493 149.965C487.472 150.111 480.764 156.09 479.694 164.062 478.674 171.986 483.583 179.521 491.264 181.708 498.993 183.944 507.16 180.153 510.465 172.861L510.611 172.521 505.993 172.521 505.993 172.618C503.368 177.042 498.215 179.278 493.16 178.16 488.153 177.042 484.41 172.812 483.924 167.66L511.826 167.66 511.826 166.299C511.826 161.924 510.125 157.743 507.014 154.681 503.951 151.618 499.722 149.917 495.396 150.014" fill="#03234B" transform="matrix(1.00102 0 0 1 204 324)"/><path d="M526.118 182.486C529.132 182.486 531.611 180.056 531.611 176.993 531.611 173.979 529.132 171.5 526.118 171.5 523.104 171.5 520.625 173.979 520.625 176.993 520.625 180.056 523.104 182.486 526.118 182.486" fill="#03234B" transform="matrix(1.00102 0 0 1 204 324)"/></g></svg>