<svg width="506" height="273" xmlns="http://www.w3.org/2000/svg" xmlns:xlink="http://www.w3.org/1999/xlink" xml:space="preserve" overflow="hidden"><defs><clipPath id="clip0"><rect x="272" y="261" width="506" height="273"/></clipPath></defs><g clip-path="url(#clip0)" transform="translate(-272 -261)"><path d="M7.88494 7.72337 496.751 7.72337 496.751 265.277 7.88494 265.277Z" fill="#E98300" transform="matrix(1.0027 0 0 1 272 261)"/><path d="M216.448 101.761 118.177 101.761C110.228 101.761 103.765 95.2656 103.765 87.2514 103.765 79.3018 110.228 72.8065 118.177 72.8065L216.448 72.8065C224.43 72.8065 230.861 79.3018 230.861 87.2514 230.861 95.2656 224.43 101.761 216.448 101.761ZM211.601 159.702C211.601 151.688 205.138 145.225 197.156 145.225L98.8849 145.225C90.9354 145.225 84.4723 151.688 84.4723 159.702 84.4723 167.684 90.9354 174.147 98.8849 174.147L197.156 174.147C205.105 174.147 211.569 167.684 211.601 159.702ZM55.5178 123.38C55.5178 127.225 57.0366 130.909 59.7511 133.624 62.4655 136.338 66.1172 137.89 69.9627 137.89L168.234 137.89C176.183 137.89 182.646 131.394 182.646 123.412 182.646 115.43 176.183 108.935 168.234 108.935L69.9627 108.935C66.1495 108.935 62.4655 110.454 59.7834 113.168 57.0689 115.85 55.5501 119.534 55.5178 123.38ZM259.04 73.6143 252.932 96.2997 283.309 96.2997 262.627 173.275 288.802 173.275 309.355 96.2997 339.763 96.2997 345.742 73.6143ZM353.336 73.6143 326.74 173.275 406.527 173.275 412.344 151.236 358.216 151.236 363.095 133.107 411.471 133.107 416.933 112.974 368.492 112.974 373.242 95.5888 427.209 95.5888 433.187 73.6467 353.368 73.6467ZM237.938 210.438C240.135 210.438 242.203 209.533 243.722 207.949L241.525 205.17C240.652 206.043 239.457 206.592 238.196 206.657 237.356 206.657 236.548 206.301 235.967 205.655 235.385 205.041 235.126 204.168 235.223 203.328 235.094 200.678 237.001 198.384 239.618 198.028 241.008 197.964 242.3 198.739 242.947 200.032L246.243 197.705C244.983 195.475 242.559 194.183 240.038 194.344 237.582 194.28 235.191 195.185 233.446 196.897 231.701 198.642 230.699 201.001 230.732 203.457 230.635 205.364 231.41 207.206 232.8 208.531 234.189 209.856 236.064 210.502 237.97 210.341ZM253.611 210.438C258.393 210.341 262.271 206.463 262.368 201.615 262.497 199.676 261.754 197.802 260.332 196.445 258.943 195.088 257.036 194.409 255.097 194.603 250.282 194.732 246.437 198.61 246.308 203.425 246.243 205.364 246.986 207.238 248.408 208.563 249.798 209.888 251.704 210.534 253.643 210.341ZM253.805 206.721C252.9 206.786 252.027 206.463 251.381 205.816 250.735 205.17 250.412 204.298 250.476 203.393 250.444 200.84 252.318 198.707 254.839 198.384 255.744 198.352 256.616 198.675 257.23 199.289 257.876 199.935 258.2 200.808 258.167 201.712 258.167 204.233 256.293 206.366 253.837 206.657ZM262.982 210.082 267.312 210.082 269.575 201.292C269.736 199.58 271.19 198.255 272.903 198.255 273.452 198.158 274.002 198.319 274.422 198.675 274.81 199.062 275.036 199.58 275.004 200.129 275.004 200.581 274.939 201.034 274.81 201.486L272.58 209.856 276.91 209.856 279.108 201.68C279.398 200.743 279.56 199.773 279.592 198.804 279.625 197.608 279.14 196.477 278.267 195.702 277.427 194.894 276.264 194.506 275.068 194.603 273.517 194.7 272.031 195.379 270.964 196.51L271.352 194.603 267.054 194.603ZM280.529 210.082 284.827 210.082 287.251 201.292C287.413 199.58 288.835 198.255 290.58 198.255 291.129 198.158 291.678 198.319 292.066 198.675 292.486 199.062 292.68 199.58 292.68 200.129 292.648 200.581 292.583 201.034 292.454 201.486L290.256 209.856 294.522 209.856 296.719 201.68C297.01 200.775 297.172 199.87 297.237 198.933 297.269 197.705 296.816 196.542 295.912 195.702 295.039 194.861 293.811 194.474 292.615 194.603 291.032 194.7 289.545 195.379 288.447 196.51L288.931 194.603 284.569 194.603ZM303.086 203.974 313.491 203.974C313.944 202.908 314.202 201.777 314.267 200.646 314.331 198.966 313.717 197.35 312.522 196.219 311.326 195.055 309.71 194.474 308.062 194.603 303.086 194.668 299.078 198.739 299.078 203.716 298.949 205.59 299.66 207.4 301.017 208.692 302.375 209.985 304.217 210.599 306.091 210.405 308.191 210.438 310.26 209.727 311.908 208.402L309.936 205.719C308.967 206.463 307.804 206.915 306.608 206.915 305.735 207.077 304.831 206.818 304.152 206.236 303.473 205.623 303.086 204.782 303.118 203.91ZM303.473 201.292C304.023 199.353 305.768 198.028 307.739 197.964 308.385 197.867 309.032 198.028 309.516 198.481 310.001 198.901 310.26 199.547 310.227 200.194 310.292 200.517 310.292 200.84 310.227 201.195L303.57 201.195ZM323.444 210.438C325.609 210.405 327.645 209.533 329.164 207.949L326.967 205.17C326.062 206.075 324.898 206.592 323.638 206.657 322.766 206.657 321.958 206.301 321.376 205.655 320.827 205.041 320.568 204.168 320.665 203.328 320.536 200.678 322.442 198.384 325.028 198.028 326.417 197.996 327.742 198.772 328.356 200.032L331.685 197.705C330.424 195.475 328.001 194.183 325.448 194.344 320.536 194.377 316.561 198.384 316.529 203.328 316.432 205.17 317.11 207.012 318.403 208.337 319.696 209.662 321.505 210.405 323.38 210.341ZM336.467 210.438C337.566 210.438 338.6 210.211 339.602 209.824L340.604 206.107C339.893 206.43 339.15 206.592 338.406 206.624 338.083 206.754 337.695 206.721 337.437 206.463 337.146 206.236 337.049 205.881 337.146 205.526 337.114 205.299 337.114 205.073 337.146 204.847L338.826 198.449 342.381 198.449 343.383 194.765 339.925 194.765 340.959 190.854 336.661 190.854 335.659 194.603 333.817 194.603 332.816 198.319 334.625 198.319 332.816 205.364C332.654 205.978 332.557 206.624 332.557 207.271 332.622 208.208 333.074 209.048 333.817 209.63 334.561 210.179 335.498 210.405 336.403 210.276ZM342.898 210.179 347.099 210.179 351.203 194.603 346.873 194.603ZM347.099 193.084 351.623 193.084 352.69 189.239 348.165 189.239ZM355.436 210.114 359.314 210.114 369.3 194.765 364.679 194.765 358.636 204.75 357.957 194.765 353.756 194.765ZM368.039 210.114 372.337 210.114 376.506 194.603 372.24 194.603ZM372.467 193.181 377.055 193.181 378.057 189.336 373.727 189.336ZM381.935 210.373C383.001 210.373 384.068 210.179 385.07 209.727L386.039 206.075C385.36 206.398 384.585 206.527 383.842 206.56 383.551 206.657 383.228 206.592 383.001 206.398 382.808 206.236 382.646 205.946 382.646 205.655 382.646 205.461 382.646 205.235 382.646 205.009L384.359 198.578 387.913 198.578 388.915 194.894 385.36 194.894 386.362 190.984 382.097 190.984 381.289 194.603 379.479 194.603 378.445 198.319 380.352 198.319 378.542 205.235C378.348 205.849 378.251 206.495 378.219 207.141 378.283 208.078 378.736 208.951 379.447 209.533 380.158 210.147 381.095 210.405 382.032 210.276ZM390.757 214.638C393.504 214.542 395.928 212.893 396.994 210.373L406.43 194.603 401.777 194.603 396.089 204.944 395.41 194.603 390.983 194.603 392.858 209.953C392.534 210.567 391.888 210.922 391.21 210.89 390.596 210.858 390.046 210.664 389.529 210.308L387.235 213.443C388.269 214.218 389.497 214.638 390.757 214.638Z" fill="#FFFFFF" transform="matrix(1.0027 0 0 1 272 261)"/></g></svg>