<?xml version="1.0" encoding="UTF-8" standalone="no"?>
<!-- Created with Inkscape (http://www.inkscape.org/) -->

<svg
   width="256mm"
   height="255.78165mm"
   viewBox="0 0 256 255.78165"
   version="1.1"
   id="svg5"
   inkscape:version="1.1.1 (3bf5ae0d25, 2021-09-20)"
   sodipodi:docname="Archive_256.svg"
   xmlns:inkscape="http://www.inkscape.org/namespaces/inkscape"
   xmlns:sodipodi="http://sodipodi.sourceforge.net/DTD/sodipodi-0.dtd"
   xmlns="http://www.w3.org/2000/svg"
   xmlns:svg="http://www.w3.org/2000/svg">
  <sodipodi:namedview
     id="namedview7"
     pagecolor="#505050"
     bordercolor="#ffffff"
     borderopacity="1"
     inkscape:pageshadow="0"
     inkscape:pageopacity="0"
     inkscape:pagecheckerboard="1"
     inkscape:document-units="mm"
     showgrid="false"
     inkscape:zoom="0.74118967"
     inkscape:cx="509.99091"
     inkscape:cy="423.64325"
     inkscape:window-width="1920"
     inkscape:window-height="1018"
     inkscape:window-x="3833"
     inkscape:window-y="602"
     inkscape:window-maximized="1"
     inkscape:current-layer="layer1" />
  <defs
     id="defs2" />
  <g
     inkscape:label="Layer 1"
     inkscape:groupmode="layer"
     id="layer1"
     transform="translate(30.132161,-36.266699)">
    <path
       d="m 47.549153,37.828499 c 15.57046,13.47264 25.37906,29.12072 29.2816,46.78166 3.33235,0.66773 6.23417,2.10964 8.50319,4.37895 0.48628,0.4887 0.93482,1.00159 1.34562,1.54352 L 218.55672,225.66062 c 13.13007,13.13006 8.17944,30.08021 -11.67422,49.93401 -18.05989,18.05965 -36.90484,21.33346 -50.34912,9.42127 L 155.06195,283.63206 23.810083,153.92428 c -0.65321,-0.48386 -1.26868,-0.99191 -1.84351,-1.56771 -4.6412,-4.64023 -5.81839,-11.93105 -3.99718,-20.16057 -11.0169499,-7.63533 -24.3742799,-9.83061 -40.46345,-6.66471 -3.4688,0.68225 -6.833911,-1.57739 -7.516398,-5.04522 -0.682729,-3.46929 1.575937,-6.83358 5.044885,-7.5163 18.2512031,-3.59026 34.2204231,-1.25804 47.576113,6.95018 1.10224,-2.12899 2.38399,-4.26766 3.82444,-6.38649 -10.65637,-8.18354 -23.0751599,-12.21363 -37.39354,-12.21363 -3.53509,0 -6.4011,-2.864461 -6.4011,-6.401001 0,-3.53703 2.86591,-6.401 6.4011,-6.401 17.3411101,0 32.56504,5.06651 45.50388,15.080511 l 1.00014,-1.03063 v 0 c 2.53011,-2.53059 5.16,-4.819261 7.83866,-6.859701 -9.02557,-14.18924 -19.29838,-23.02745 -30.73058,-26.71399 -3.3647699,-1.08385 -5.2125899,-4.69346 -4.1278199,-8.05678 1.08482,-3.36284 4.6919999,-5.21264 8.0567799,-4.12734 14.5635,4.6983 27.08816,15.47244 37.6644,32.12356 3.25155,-1.60642 6.47726,-2.82091 9.58481,-3.61928 -3.58105,-14.08617 -11.76272,-26.6448 -24.65941,-37.8041 -2.67334,-2.31285 -2.96511,-6.356 -0.65225,-9.02933 2.31334,-2.67576 6.35562,-2.96608 9.029,-0.65322 z m 24.20604,100.949951 c -8.7534,8.75354 -18.70614,14.64939 -27.71951,17.1045 L 164.03042,274.49627 c 7.93688,7.93726 19.59315,6.25342 33.79952,-7.95275 14.84409,-14.84438 18.06762,-24.31694 12.48923,-30.94294 L 209.50435,234.71511 88.849383,111.09867 c -2.4614,9.00321 -8.35299,18.93979 -17.094,27.68075 z m -9.52578,-39.523251 -1.67368,0.754821 c 1.66642,3.25155 3.27671,6.67148 4.83136,10.26077 1.40513,3.24187 -0.0871,7.01308 -3.32945,8.41822 -3.24381,1.4032 -7.0128,-0.0968 -8.41798,-3.32897 -1.26675,-2.92736 -2.56544,-5.71392 -3.89606,-8.36838 -1.73029,1.39352 -3.45235,2.93704 -5.14572,4.63055 l -0.60047,0.60483 c 2.76672,2.94671 5.40464,6.16633 7.91152,9.65594 2.0627,2.8693 1.40707,6.87083 -1.46416,8.93353 -2.87124,2.06125 -6.87074,1.40804 -8.93329,-1.4661 -1.79126,-2.49189 -3.6488,-4.81926 -5.57433,-6.97535 -1.22659,1.90158 -2.2427,3.74509 -3.08462,5.51409 2.09754,1.96932 4.09782,4.13702 6.01411,6.48181 2.23592,2.73865 1.82851,6.77067 -0.90966,9.00659 -0.70982,0.58064 -1.50674,0.98224 -2.33705,1.20966 6.32697,-0.24193 17.19044,-4.97168 27.0826,-14.86374 9.32062,-9.32062 14.07596,-19.50349 14.7645,-25.9461 -1.11821,1.54835 -2.90462,2.56446 -4.94492,2.6322 -3.53364,0.0968 -6.49042,-2.6564 -6.60471,-6.19052 l -0.13548,-2.308021 c -1.13321,0.3387 -2.32254,0.80805 -3.55493,1.34513 z"
       id="Fill"
       fill="#000000"
       style="fill-rule:evenodd;stroke:none;stroke-width:12.8022" />
  </g>
</svg>
