<svg xmlns="http://www.w3.org/2000/svg" width="24" height="24" viewBox="0 0 24 24">
  <path fill-rule="evenodd" d="M21,4 C21.5522847,4 22,4.44771525 22,5 L22,19 C22,19.5522847 21.5522847,20 21,20 L3,20 C2.44771525,20 2,19.5522847 2,19 L2,5 C2,4.44771525 2.44771525,4 3,4 L21,4 Z M21,5 L3,5 L3,19 L21,19 L21,5 Z M6,15 C6.55228475,15 7,15.4477153 7,16 L7,17 C7,17.5522847 6.55228475,18 6,18 L5,18 C4.44771525,18 4,17.5522847 4,17 L4,16 C4,15.4477153 4.44771525,15 5,15 L6,15 Z M19,15 C19.5522847,15 20,15.4477153 20,16 L20,17 C20,17.5522847 19.5522847,18 19,18 L18,18 C17.4477153,18 17,17.5522847 17,17 L17,16 C17,15.4477153 17.4477153,15 18,15 L19,15 Z M6,16 L5,16 L5,17 L6,17 L6,16 Z M19,16 L18,16 L18,17 L19,17 L19,16 Z M9.48956982,10 C9.73502971,10 9.93917819,10.1768752 9.98151415,10.4101244 L9.98956982,10.5 L9.989,13 L11.01,13 L11.0104302,10.5 C11.0104302,10.2238576 11.2342878,10 11.5104302,10 L13.5104302,10 C13.7558901,10 13.9600386,10.1768752 14.0023745,10.4101244 L14.0104302,10.5 L14.01,13 L14.987,13 L14.987752,10.5 C14.987752,10.2238576 15.2116096,10 15.487752,10 L17.487752,10 C17.7638944,10 17.987752,10.2238576 17.987752,10.5 C17.987752,10.7454599 17.8108768,10.9496084 17.5776276,10.9919443 L17.487752,11 L15.987,11 L15.987752,13.5 L15.987752,13.5 C15.987752,13.7454599 15.8108768,13.9496084 15.5776276,13.9919443 L15.487752,14 L15.487752,14 L13.5104302,14 C13.2342878,14 13.0104302,13.7761424 13.0104302,13.5 L13.01,11 L12.01,11 L12.0104302,13.5 L12.0104302,13.5 C12.0104302,13.7454599 11.833555,13.9496084 11.6003058,13.9919443 L11.5104302,14 L11.5104302,14 L9.48956982,14 C9.21342744,14 8.98956982,13.7761424 8.98956982,13.5 L8.989,11 L7.989,11 L7.98956982,13.5 L7.98956982,13.5 C7.98956982,13.7454599 7.81269466,13.9496084 7.57944545,13.9919443 L7.48956982,14 L7.48956982,14 L6.48956982,14 C6.21342744,14 5.98956982,13.7761424 5.98956982,13.5 C5.98956982,13.2545401 6.16644498,13.0503916 6.39969419,13.0080557 L6.48956982,13 L6.989,13 L6.98956982,10.5 C6.98956982,10.2238576 7.21342744,10 7.48956982,10 L9.48956982,10 L9.48956982,10 Z M6,6 C6.55228475,6 7,6.44771525 7,7 L7,8 C7,8.55228475 6.55228475,9 6,9 L5,9 C4.44771525,9 4,8.55228475 4,8 L4,7 C4,6.44771525 4.44771525,6 5,6 L6,6 Z M19,6 C19.5522847,6 20,6.44771525 20,7 L20,8 C20,8.55228475 19.5522847,9 19,9 L18,9 C17.4477153,9 17,8.55228475 17,8 L17,7 C17,6.44771525 17.4477153,6 18,6 L19,6 Z M6,7 L5,7 L5,8 L6,8 L6,7 Z M19,7 L18,7 L18,8 L19,8 L19,7 Z"/>
</svg>
