<svg xmlns="http://www.w3.org/2000/svg" width="24" height="24" viewBox="0 0 24 24">
  <path fill-rule="evenodd" d="M21,2 C21.5522847,2 22,2.44771525 22,3 L22,21 C22,21.5522847 21.5522847,22 21,22 L3,22 C2.44771525,22 2,21.5522847 2,21 L2,3 C2,2.44771525 2.44771525,2 3,2 L21,2 Z M21,3 L3,3 L3,21 L21,21 L21,3 Z M8.61085932,14 C8.87864425,14 9.13524145,14.1074015 9.32318583,14.2981518 L10.7123265,15.7080317 C10.8966669,15.8951242 11,16.14723 11,16.4098799 L11,19 C11,19.5522847 10.5522847,20 10,20 L5,20 C4.44771525,20 4,19.5522847 4,19 L4,16.4134084 C4,16.1486683 4.10497975,15.8947312 4.29192175,15.7072745 L5.70144917,14.293866 C5.88906397,14.1057346 6.1438345,14 6.40952742,14 L8.61085932,14 Z M18.5,17 C19.3284271,17 20,17.6715729 20,18.5 C20,19.3284271 19.3284271,20 18.5,20 C17.6715729,20 17,19.3284271 17,18.5 C17,17.6715729 17.6715729,17 18.5,17 Z M8.61085932,15 L6.40952742,15 L5,16.4134084 L5,19 L10,19 L10,16.4098799 L8.61085932,15 Z M18.5,18 C18.2238576,18 18,18.2238576 18,18.5 C18,18.7761424 18.2238576,19 18.5,19 C18.7761424,19 19,18.7761424 19,18.5 C19,18.2238576 18.7761424,18 18.5,18 Z M6.5,16 C6.74545989,16 6.94960837,16.1768752 6.99194433,16.4101244 L7,16.5 L7,17.5 C7,17.7761424 6.77614237,18 6.5,18 C6.25454011,18 6.05039163,17.8231248 6.00805567,17.5898756 L6,17.5 L6,16.5 C6,16.2238576 6.22385763,16 6.5,16 Z M8.5,16 C8.74545989,16 8.94960837,16.1768752 8.99194433,16.4101244 L9,16.5 L9,17.5 C9,17.7761424 8.77614237,18 8.5,18 C8.25454011,18 8.05039163,17.8231248 8.00805567,17.5898756 L8,17.5 L8,16.5 C8,16.2238576 8.22385763,16 8.5,16 Z M15,4 L15.0006121,4.0224767 C17.639025,4.2605325 19.7400315,6.36184385 19.9776139,9.00039328 L20,9 L20,10 L19.9775233,10.0006121 C19.7394977,12.6386899 17.6386899,14.7394977 15.0006121,14.9775233 L15,15 L14,15 L14.0003933,14.9776139 C11.3618439,14.7400315 9.2605325,12.639025 9.0224767,10.0006121 L9,10 L9,9 L9.02238608,9.00039328 C9.25999871,6.36150871 11.3615087,4.25999871 14.0003933,4.02238608 L14,4 L15,4 Z M11.0355804,10.0009499 L10.0275426,10.0007074 C10.2584243,12.0862818 11.9145848,13.7421445 14.000297,13.9725684 L14.0000497,12.9645627 C12.4674973,12.7453707 11.2552041,11.533363 11.0355804,10.0009499 Z M18.9724574,10.0007074 L17.9644196,10.0009499 C17.7448436,11.5330298 16.5330298,12.7448436 15.0009499,12.9644196 L15.0007074,13.9724574 C17.085947,13.7416128 18.7416128,12.085947 18.9724574,10.0007074 Z M14,10 L12.0500973,10.0004345 C12.2491173,10.9799847 13.0208811,11.7514805 14.000574,11.9501074 L14,10 Z M16.9499027,10.0004345 L15,10 L15.0004345,11.9499027 C15.9796485,11.750951 16.750951,10.9796485 16.9499027,10.0004345 Z M7,4 C7.55228475,4 8,4.44771525 8,5 L8,9 C8,9.55228475 7.55228475,10 7,10 L5,10 C4.44771525,10 4,9.55228475 4,9 L4,5 C4,4.44771525 4.44771525,4 5,4 L7,4 Z M10.0274316,9.00029704 L11.0354373,9.00004975 C11.2546769,7.46716407 12.4671641,6.25467695 14.0000497,6.03543731 L14.000297,5.02743156 C11.9142499,5.25789251 10.2578925,6.91424992 10.0274316,9.00029704 Z M12.0498926,9.00057405 L14,9 L14.000574,7.0498926 C13.0205449,7.24858767 12.2485877,8.02054491 12.0498926,9.00057405 Z M15.0004345,7.05009729 L15,9 L16.9501074,9.00057405 C16.7514805,8.02088111 15.9799847,7.24911734 15.0004345,7.05009729 Z M15.0007074,5.02754265 L15.0009499,6.03558044 C16.533363,6.25520413 17.7453707,7.46749731 17.9645627,9.00004975 L18.9725684,9.00029704 C18.7421445,6.91458476 17.0862818,5.25842425 15.0007074,5.02754265 Z M7,5 L5,5 L5,9 L7,9 L7,5 Z"/>
</svg>
