<svg xmlns="http://www.w3.org/2000/svg" width="24" height="24" viewBox="0 0 24 24">
  <path fill-rule="evenodd" d="M17.5,2 C17.7454599,2 17.9496084,2.17687516 17.9919443,2.41012437 L18,2.5 L18,4 L19,4 C19.5522847,4 20,4.44771525 20,5 L20,6 L21.5,6 C21.7761424,6 22,6.22385763 22,6.5 C22,6.74545989 21.8231248,6.94960837 21.5898756,6.99194433 L21.5,7 L20,7 L20,10 L21.5,10 C21.7761424,10 22,10.2238576 22,10.5 C22,10.7454599 21.8231248,10.9496084 21.5898756,10.9919443 L21.5,11 L20,11 L20,13 L21.5,13 C21.7761424,13 22,13.2238576 22,13.5 C22,13.7454599 21.8231248,13.9496084 21.5898756,13.9919443 L21.5,14 L20,14 L20,17 L21.5,17 C21.7761424,17 22,17.2238576 22,17.5 C22,17.7454599 21.8231248,17.9496084 21.5898756,17.9919443 L21.5,18 L20,18 L20,19 C20,19.5522847 19.5522847,20 19,20 L18,20 L18,21.5 C18,21.7761424 17.7761424,22 17.5,22 C17.2545401,22 17.0503916,21.8231248 17.0080557,21.5898756 L17,21.5 L17,20 L14,20 L14,21.5 C14,21.7761424 13.7761424,22 13.5,22 C13.2545401,22 13.0503916,21.8231248 13.0080557,21.5898756 L13,21.5 L13,20 L11,20 L11,21.5 C11,21.7761424 10.7761424,22 10.5,22 C10.2545401,22 10.0503916,21.8231248 10.0080557,21.5898756 L10,21.5 L10,20 L7,20 L7,21.5 C7,21.7761424 6.77614237,22 6.5,22 C6.25454011,22 6.05039163,21.8231248 6.00805567,21.5898756 L6,21.5 L6,20 L5,20 C4.44771525,20 4,19.5522847 4,19 L4,18 L2.5,18 C2.22385763,18 2,17.7761424 2,17.5 C2,17.2545401 2.17687516,17.0503916 2.41012437,17.0080557 L2.5,17 L4,17 L4,14 L2.5,14 C2.22385763,14 2,13.7761424 2,13.5 C2,13.2545401 2.17687516,13.0503916 2.41012437,13.0080557 L2.5,13 L4,13 L4,11 L2.5,11 C2.22385763,11 2,10.7761424 2,10.5 C2,10.2545401 2.17687516,10.0503916 2.41012437,10.0080557 L2.5,10 L4,10 L4,7 L2.5,7 C2.22385763,7 2,6.77614237 2,6.5 C2,6.25454011 2.17687516,6.05039163 2.41012437,6.00805567 L2.5,6 L4,6 L4,5 C4,4.44771525 4.44771525,4 5,4 L6,4 L6,2.5 C6,2.22385763 6.22385763,2 6.5,2 C6.74545989,2 6.94960837,2.17687516 6.99194433,2.41012437 L7,2.5 L7,4 L10,4 L10,2.5 C10,2.22385763 10.2238576,2 10.5,2 C10.7454599,2 10.9496084,2.17687516 10.9919443,2.41012437 L11,2.5 L11,4 L13,4 L13,2.5 C13,2.22385763 13.2238576,2 13.5,2 C13.7454599,2 13.9496084,2.17687516 13.9919443,2.41012437 L14,2.5 L14,4 L17,4 L17,2.5 C17,2.22385763 17.2238576,2 17.5,2 Z M7.218,12.5 L5,12.5 L5,19 L19,19 L19,12.5123476 L16.9335874,12.5130414 C16.7070633,13.3690301 15.9272171,14 15,14 C14.2055133,14 13.5192253,13.5367461 13.1965176,12.8656198 L7.98502607,16.1505582 C7.75142695,16.2978201 7.4426781,16.2278299 7.29541623,15.9942308 C7.24509099,15.9144007 7.21838486,15.8219584 7.21838486,15.7275896 L7.218,12.5 Z M8.21873242,9.63937005 L8.21873242,14.8213701 L12.3397324,12.2223701 L8.21873242,9.63937005 Z M15,11 C14.4477153,11 14,11.4477153 14,12 C14,12.5522847 14.4477153,13 15,13 C15.5522847,13 16,12.5522847 16,12 C16,11.4477153 15.5522847,11 15,11 Z M19,5 L5,5 L5,11.5 L7.218,11.5 L7.21838486,8.73644782 C7.21838486,8.46030545 7.44224249,8.23644782 7.71838486,8.23644782 C7.81232386,8.23644782 7.90436279,8.26291139 7.98395571,8.31280631 L13.0637905,11.4969726 C13.286863,10.6358955 14.0691708,10 15,10 C15.9362473,10 16.7222391,10.6433198 16.9400479,11.5120317 L19,11.5123476 L19,5 Z"/>
</svg>
