<svg xmlns="http://www.w3.org/2000/svg" width="24" height="24" viewBox="0 0 24 24">
  <path fill-rule="evenodd" d="M17,8 C18.1045695,8 19,8.8954305 19,10 L19,11.9994755 L21,12 C21.5522847,12 22,12.4477153 22,13 L22,21 C22,21.5522847 21.5522847,22 21,22 L3,22 C2.44771525,22 2,21.5522847 2,21 L2,13 C2,12.4477153 2.44771525,12 3,12 L14,11.9994755 L14,10 C14,8.8954305 14.8954305,8 16,8 L17,8 Z M21,19.9984755 L3,19.9984755 L3,21 L21,21 L21,19.9984755 Z M21,13 L3,13 L3,18.9984755 L21,18.9984755 L21,13 Z M5.5,15 C6.32842712,15 7,15.6715729 7,16.5 C7,17.3284271 6.32842712,18 5.5,18 C4.67157288,18 4,17.3284271 4,16.5 C4,15.6715729 4.67157288,15 5.5,15 Z M10.5,15 C11.3284271,15 12,15.6715729 12,16.5 C12,17.3284271 11.3284271,18 10.5,18 C9.67157288,18 9,17.3284271 9,16.5 C9,15.6715729 9.67157288,15 10.5,15 Z M5.5,16 C5.22385763,16 5,16.2238576 5,16.5 C5,16.7761424 5.22385763,17 5.5,17 C5.77614237,17 6,16.7761424 6,16.5 C6,16.2238576 5.77614237,16 5.5,16 Z M10.5,16 C10.2238576,16 10,16.2238576 10,16.5 C10,16.7761424 10.2238576,17 10.5,17 C10.7761424,17 11,16.7761424 11,16.5 C11,16.2238576 10.7761424,16 10.5,16 Z M17,9 L16,9 C15.4871642,9 15.0644928,9.38604019 15.0067277,9.88337887 L15,10 L15,12 L18,12 L18,10 C18,9.48716416 17.6139598,9.06449284 17.1166211,9.00672773 L17,9 Z M16.5081051,6.01960747 C17.6057813,6.01960747 18.2630179,6.39839979 18.8983378,7.20372698 C19.0693708,7.4205272 19.0322691,7.73492812 18.8154689,7.90596108 C18.5986687,8.07699405 18.2842677,8.03989236 18.1132348,7.82309214 C17.6540696,7.24105756 17.2698351,7.01960747 16.5081051,7.01960747 C15.7641483,7.01960747 15.3773627,7.24337358 14.8956726,7.83053502 C14.7205291,8.04402822 14.4054768,8.07511675 14.1919836,7.89997319 C13.9784904,7.72482964 13.9474018,7.4097773 14.1225454,7.1962841 C14.7790213,6.39606543 15.4297388,6.01960747 16.5081051,6.01960747 Z M16.5084425,4.01650512 C18.0251813,4.01650512 18.9203203,4.3601562 19.8300271,5.12827637 C20.0410169,5.30642775 20.0676377,5.62188901 19.8894864,5.83287881 C19.711335,6.04386862 19.3958737,6.07048942 19.1848839,5.89233804 C18.4514983,5.27309644 17.7831317,5.01650512 16.5084425,5.01650512 C15.2604158,5.01650512 14.5912314,5.27438513 13.8226269,5.89846568 C13.6082529,6.07253003 13.2933614,6.0398526 13.1192971,5.82547859 C12.9452327,5.61110459 12.9779101,5.29621309 13.1922841,5.12214874 C14.1323479,4.35884918 15.0207118,4.01650512 16.5084425,4.01650512 Z M16.5087448,2.01647547 C18.4640842,2.01647547 19.5992376,2.34332136 20.7749359,3.08785595 C21.0082329,3.23559597 21.0775905,3.54448752 20.9298505,3.77778454 C20.7821105,4.01108155 20.4732189,4.0804392 20.2399219,3.93269917 C19.2248303,3.28987199 18.2753095,3.01647547 16.5087448,3.01647547 C14.7780414,3.01647547 13.8293764,3.2906619 12.7674892,3.93732398 C12.531638,4.08095131 12.2240098,4.00618908 12.0803825,3.77033786 C11.9367551,3.53448664 12.0115174,3.22685848 12.2473686,3.08323115 C13.4637057,2.34251311 14.5917719,2.01647547 16.5087448,2.01647547 Z"/>
</svg>
