<?xml version="1.0" encoding="UTF-8"?>
<svg xmlns="http://www.w3.org/2000/svg" xmlns:xlink="http://www.w3.org/1999/xlink" width="105px" height="20px" viewBox="0 0 105 20" version="1.1">
<g id="surface1">
<path style=" stroke:none;fill-rule:nonzero;fill:rgb(0%,36.078431%,72.54902%);fill-opacity:1;" d="M 3.4375 15.546875 L 0 15.546875 L 5.546875 0.0195312 L 9.28125 0.0195312 L 14.789062 15.546875 L 11.238281 15.546875 L 10.242188 12.328125 L 4.511719 12.328125 Z M 5.359375 9.667969 L 9.316406 9.667969 L 7.429688 3.53125 L 7.394531 3.53125 Z M 5.359375 9.667969 "/>
<path style=" stroke:none;fill-rule:nonzero;fill:rgb(0%,36.078431%,72.54902%);fill-opacity:1;" d="M 33.273438 15.546875 L 30.207031 15.546875 L 30.207031 8.558594 C 30.207031 6.855469 29.429688 6.304688 28.542969 6.304688 C 27.027344 6.304688 26.472656 7.300781 26.472656 8.667969 L 26.472656 15.546875 L 23.402344 15.546875 L 23.402344 8.59375 C 23.402344 7.632812 23.402344 6.265625 21.554688 6.265625 C 20.113281 6.265625 19.667969 7.265625 19.667969 8.519531 L 19.667969 15.546875 L 16.636719 15.546875 L 16.636719 4.011719 L 19.558594 4.011719 L 19.558594 5.710938 L 19.59375 5.710938 C 20 4.972656 20.851562 3.714844 22.886719 3.714844 C 24.550781 3.714844 25.324219 4.304688 26.101562 5.5625 C 26.507812 5.007812 27.359375 3.714844 29.207031 3.714844 C 31.5 3.714844 33.273438 5.046875 33.273438 7.558594 Z M 33.273438 15.546875 "/>
<path style=" stroke:none;fill-rule:nonzero;fill:rgb(0%,36.078431%,72.54902%);fill-opacity:1;" d="M 39.117188 5.675781 L 39.152344 5.675781 C 39.707031 4.75 40.558594 3.714844 42.554688 3.714844 C 45.070312 3.714844 47.285156 5.675781 47.285156 9.628906 C 47.285156 12.773438 45.882812 15.804688 42.480469 15.804688 C 40.375 15.804688 39.632812 14.660156 39.265625 14.03125 L 39.226562 14.03125 L 39.226562 19.980469 L 36.230469 19.980469 L 36.230469 4.011719 L 39.117188 4.011719 Z M 41.742188 13.328125 C 43.664062 13.328125 44.21875 11.21875 44.21875 9.851562 C 44.21875 8.039062 43.589844 6.339844 41.667969 6.339844 C 39.597656 6.339844 39.117188 8.1875 39.117188 10.035156 C 39.117188 11.738281 39.855469 13.328125 41.742188 13.328125 Z M 41.742188 13.328125 "/>
<path style=" stroke:none;fill-rule:nonzero;fill:rgb(0%,36.078431%,72.54902%);fill-opacity:1;" d="M 59.894531 15.546875 L 56.863281 15.546875 L 56.863281 8.558594 C 56.863281 7.707031 56.824219 6.304688 54.902344 6.304688 C 53.570312 6.304688 52.535156 7.226562 52.535156 8.964844 L 52.535156 15.546875 L 49.542969 15.546875 L 49.542969 0.0195312 L 52.535156 0.0195312 L 52.535156 5.527344 L 52.574219 5.527344 C 52.945312 4.566406 54.238281 3.714844 55.902344 3.714844 C 58.15625 3.714844 59.894531 5.046875 59.894531 7.558594 Z M 59.894531 15.546875 "/>
<path style=" stroke:none;fill-rule:nonzero;fill:rgb(0%,36.078431%,72.54902%);fill-opacity:1;" d="M 72.6875 11.960938 C 71.875 14.660156 69.542969 15.546875 67.546875 15.546875 C 64.257812 15.546875 61.742188 14.03125 61.742188 9.410156 C 61.742188 8.039062 62.222656 3.714844 67.324219 3.714844 C 69.617188 3.714844 72.835938 4.785156 72.835938 9.890625 L 72.835938 10.40625 L 64.8125 10.40625 C 64.886719 11.257812 65.070312 13.144531 67.546875 13.144531 C 68.398438 13.144531 69.285156 12.734375 69.507812 11.921875 L 72.6875 11.921875 Z M 69.65625 8.519531 C 69.46875 6.710938 68.285156 6.15625 67.289062 6.15625 C 65.847656 6.15625 65.070312 7.042969 64.886719 8.519531 Z M 69.65625 8.519531 "/>
<path style=" stroke:none;fill-rule:nonzero;fill:rgb(0%,36.078431%,72.54902%);fill-opacity:1;" d="M 85.773438 15.546875 L 82.78125 15.546875 L 82.78125 8.558594 C 82.78125 7.707031 82.742188 6.304688 80.820312 6.304688 C 79.488281 6.304688 78.453125 7.226562 78.453125 8.964844 L 78.453125 15.546875 L 75.421875 15.546875 L 75.421875 4.011719 L 78.304688 4.011719 L 78.304688 5.710938 L 78.34375 5.710938 C 78.75 5.007812 79.601562 3.714844 81.78125 3.714844 C 84.035156 3.714844 85.773438 5.046875 85.773438 7.558594 Z M 85.773438 15.546875 "/>
<path style=" stroke:none;fill-rule:nonzero;fill:rgb(0%,36.078431%,72.54902%);fill-opacity:1;" d="M 93.910156 15.546875 C 90.804688 15.546875 87.992188 13.695312 87.992188 9.628906 C 87.992188 5.5625 90.804688 3.714844 93.910156 3.714844 C 97.015625 3.714844 99.824219 5.5625 99.824219 9.628906 C 99.824219 13.695312 97.015625 15.546875 93.910156 15.546875 Z M 93.910156 6.191406 C 91.578125 6.191406 91.136719 8.1875 91.136719 9.628906 C 91.136719 11.070312 91.578125 13.070312 93.910156 13.070312 C 96.273438 13.070312 96.679688 11.070312 96.679688 9.628906 C 96.679688 8.1875 96.273438 6.191406 93.910156 6.191406 Z M 93.910156 6.191406 "/>
<path style=" stroke:none;fill-rule:nonzero;fill:rgb(0%,36.078431%,72.54902%);fill-opacity:1;" d="M 105 15.546875 L 102.042969 15.546875 L 102.042969 0.0195312 L 105 0.0195312 Z M 105 15.546875 "/>
</g>
</svg>
