<?xml version="1.0" encoding="UTF-8"?>
<svg xmlns="http://www.w3.org/2000/svg" xmlns:xlink="http://www.w3.org/1999/xlink" width="94px" height="38px" viewBox="0 0 94 38" version="1.1">
<g id="surface1">
<path style=" stroke:none;fill-rule:nonzero;fill:rgb(13.72549%,12.156863%,12.54902%);fill-opacity:1;" d="M 2.136719 33.882812 L 1.441406 36.039062 L 2.773438 36.039062 Z M 3.328125 37.914062 L 2.960938 36.699219 L 1.21875 36.699219 L 0.832031 37.914062 L 0 37.914062 L 1.710938 32.847656 L 2.558594 32.847656 L 4.167969 37.914062 L 3.328125 37.914062 "/>
<path style=" stroke:none;fill-rule:nonzero;fill:rgb(13.72549%,12.156863%,12.54902%);fill-opacity:1;" d="M 7.53125 37.914062 L 7.53125 35.714844 L 5.476562 35.714844 L 5.476562 37.914062 L 4.699219 37.914062 L 4.699219 32.847656 L 5.476562 32.847656 L 5.476562 35.054688 L 7.53125 35.054688 L 7.53125 32.847656 L 8.3125 32.847656 L 8.3125 37.914062 L 7.53125 37.914062 "/>
<path style=" stroke:none;fill-rule:nonzero;fill:rgb(13.72549%,12.156863%,12.54902%);fill-opacity:1;" d="M 9.296875 37.914062 L 9.296875 32.847656 L 12.359375 32.847656 L 12.359375 33.507812 L 10.074219 33.507812 L 10.074219 35.054688 L 11.757812 35.054688 L 11.757812 35.714844 L 10.074219 35.714844 L 10.074219 37.253906 L 12.359375 37.253906 L 12.359375 37.914062 L 9.296875 37.914062 "/>
<path style=" stroke:none;fill-rule:nonzero;fill:rgb(13.72549%,12.156863%,12.54902%);fill-opacity:1;" d="M 14.777344 33.882812 L 14.082031 36.039062 L 15.414062 36.039062 Z M 15.96875 37.914062 L 15.605469 36.699219 L 13.859375 36.699219 L 13.472656 37.914062 L 12.640625 37.914062 L 14.351562 32.847656 L 15.199219 32.847656 L 16.808594 37.914062 L 15.96875 37.914062 "/>
<path style=" stroke:none;fill-rule:nonzero;fill:rgb(13.72549%,12.156863%,12.54902%);fill-opacity:1;" d="M 19.359375 37.253906 C 19.515625 37.253906 19.644531 37.234375 19.738281 37.191406 C 19.835938 37.148438 19.914062 37.082031 19.976562 36.996094 C 20.011719 36.953125 20.039062 36.894531 20.0625 36.832031 C 20.085938 36.765625 20.105469 36.675781 20.121094 36.554688 C 20.136719 36.4375 20.148438 36.285156 20.15625 36.097656 C 20.160156 35.910156 20.164062 35.671875 20.164062 35.382812 C 20.164062 35.09375 20.160156 34.851562 20.15625 34.664062 C 20.148438 34.476562 20.136719 34.324219 20.121094 34.207031 C 20.105469 34.089844 20.085938 33.996094 20.0625 33.933594 C 20.039062 33.867188 20.011719 33.8125 19.976562 33.765625 C 19.914062 33.679688 19.835938 33.617188 19.738281 33.574219 C 19.644531 33.53125 19.515625 33.507812 19.359375 33.507812 L 18.117188 33.507812 L 18.117188 37.253906 Z M 17.335938 37.914062 L 17.335938 32.847656 L 19.34375 32.847656 C 19.484375 32.847656 19.613281 32.859375 19.730469 32.878906 C 19.847656 32.898438 19.953125 32.925781 20.050781 32.960938 C 20.144531 33 20.234375 33.042969 20.3125 33.09375 C 20.390625 33.144531 20.460938 33.203125 20.527344 33.269531 C 20.613281 33.347656 20.683594 33.449219 20.738281 33.570312 C 20.792969 33.6875 20.839844 33.832031 20.875 34.003906 C 20.90625 34.171875 20.929688 34.371094 20.945312 34.597656 C 20.960938 34.828125 20.96875 35.085938 20.96875 35.382812 C 20.96875 35.675781 20.960938 35.9375 20.945312 36.164062 C 20.929688 36.390625 20.90625 36.589844 20.875 36.761719 C 20.839844 36.929688 20.792969 37.074219 20.738281 37.195312 C 20.683594 37.316406 20.613281 37.417969 20.527344 37.496094 C 20.460938 37.558594 20.390625 37.617188 20.3125 37.671875 C 20.234375 37.722656 20.144531 37.765625 20.050781 37.804688 C 19.953125 37.839844 19.847656 37.867188 19.730469 37.886719 C 19.613281 37.90625 19.484375 37.914062 19.34375 37.914062 L 17.335938 37.914062 "/>
<path style=" stroke:none;fill-rule:nonzero;fill:rgb(13.72549%,12.156863%,12.54902%);fill-opacity:1;" d="M 26.445312 36.96875 C 26.480469 36.921875 26.507812 36.867188 26.535156 36.800781 C 26.5625 36.734375 26.582031 36.644531 26.601562 36.527344 C 26.617188 36.410156 26.628906 36.261719 26.636719 36.078125 C 26.644531 35.894531 26.648438 35.664062 26.648438 35.382812 C 26.648438 35.101562 26.644531 34.867188 26.636719 34.683594 C 26.628906 34.5 26.617188 34.351562 26.601562 34.234375 C 26.582031 34.117188 26.5625 34.027344 26.535156 33.960938 C 26.507812 33.894531 26.480469 33.839844 26.445312 33.792969 C 26.363281 33.6875 26.25 33.605469 26.109375 33.550781 C 25.964844 33.496094 25.769531 33.464844 25.523438 33.464844 C 25.273438 33.464844 25.078125 33.496094 24.9375 33.550781 C 24.796875 33.605469 24.683594 33.6875 24.601562 33.792969 C 24.566406 33.839844 24.539062 33.894531 24.511719 33.960938 C 24.484375 34.027344 24.460938 34.117188 24.445312 34.234375 C 24.429688 34.351562 24.414062 34.5 24.40625 34.683594 C 24.398438 34.867188 24.394531 35.101562 24.394531 35.382812 C 24.394531 35.664062 24.398438 35.894531 24.40625 36.078125 C 24.414062 36.261719 24.429688 36.410156 24.445312 36.527344 C 24.460938 36.644531 24.484375 36.734375 24.511719 36.800781 C 24.539062 36.867188 24.566406 36.921875 24.601562 36.96875 C 24.683594 37.078125 24.796875 37.15625 24.9375 37.214844 C 25.078125 37.269531 25.273438 37.296875 25.523438 37.296875 C 25.769531 37.296875 25.964844 37.269531 26.109375 37.214844 C 26.25 37.15625 26.363281 37.078125 26.445312 36.96875 Z M 27.019531 37.496094 C 26.949219 37.566406 26.871094 37.632812 26.78125 37.6875 C 26.691406 37.746094 26.589844 37.792969 26.46875 37.835938 C 26.351562 37.875 26.214844 37.90625 26.058594 37.925781 C 25.902344 37.945312 25.722656 37.957031 25.523438 37.957031 C 25.320312 37.957031 25.140625 37.945312 24.988281 37.925781 C 24.832031 37.90625 24.695312 37.875 24.578125 37.835938 C 24.457031 37.792969 24.355469 37.746094 24.265625 37.6875 C 24.175781 37.632812 24.097656 37.566406 24.027344 37.496094 C 23.949219 37.414062 23.878906 37.3125 23.824219 37.191406 C 23.773438 37.070312 23.726562 36.925781 23.691406 36.757812 C 23.65625 36.585938 23.632812 36.386719 23.617188 36.160156 C 23.601562 35.9375 23.59375 35.675781 23.59375 35.382812 C 23.59375 35.085938 23.601562 34.828125 23.617188 34.601562 C 23.632812 34.375 23.65625 34.175781 23.691406 34.007812 C 23.726562 33.835938 23.773438 33.691406 23.824219 33.570312 C 23.878906 33.449219 23.949219 33.347656 24.027344 33.269531 C 24.097656 33.195312 24.175781 33.132812 24.265625 33.074219 C 24.355469 33.019531 24.457031 32.96875 24.578125 32.929688 C 24.695312 32.890625 24.832031 32.859375 24.988281 32.839844 C 25.140625 32.816406 25.320312 32.804688 25.523438 32.804688 C 25.722656 32.804688 25.902344 32.816406 26.058594 32.839844 C 26.214844 32.859375 26.351562 32.890625 26.46875 32.929688 C 26.589844 32.96875 26.691406 33.019531 26.78125 33.074219 C 26.871094 33.132812 26.949219 33.195312 27.019531 33.269531 C 27.097656 33.347656 27.164062 33.449219 27.21875 33.570312 C 27.273438 33.691406 27.320312 33.835938 27.355469 34.007812 C 27.390625 34.175781 27.414062 34.375 27.429688 34.601562 C 27.445312 34.828125 27.453125 35.085938 27.453125 35.382812 C 27.453125 35.675781 27.445312 35.9375 27.429688 36.160156 C 27.414062 36.386719 27.390625 36.585938 27.355469 36.757812 C 27.320312 36.925781 27.273438 37.070312 27.21875 37.191406 C 27.164062 37.3125 27.097656 37.414062 27.019531 37.496094 "/>
<path style=" stroke:none;fill-rule:nonzero;fill:rgb(13.72549%,12.156863%,12.54902%);fill-opacity:1;" d="M 28.371094 37.914062 L 28.371094 32.847656 L 31.4375 32.847656 L 31.4375 33.507812 L 29.152344 33.507812 L 29.152344 35.054688 L 30.832031 35.054688 L 30.832031 35.714844 L 29.152344 35.714844 L 29.152344 37.914062 L 28.371094 37.914062 "/>
<path style=" stroke:none;fill-rule:nonzero;fill:rgb(13.72549%,12.156863%,12.54902%);fill-opacity:1;" d="M 37.375 37.914062 L 36.515625 34.925781 L 35.617188 37.914062 L 34.773438 37.914062 L 33.46875 32.847656 L 34.289062 32.847656 L 35.203125 36.839844 L 36.15625 33.785156 L 36.914062 33.785156 L 37.792969 36.796875 L 38.757812 32.847656 L 39.578125 32.847656 L 38.203125 37.914062 L 37.375 37.914062 "/>
<path style=" stroke:none;fill-rule:nonzero;fill:rgb(13.72549%,12.156863%,12.54902%);fill-opacity:1;" d="M 42.984375 37.914062 L 42.984375 35.714844 L 40.929688 35.714844 L 40.929688 37.914062 L 40.152344 37.914062 L 40.152344 32.847656 L 40.929688 32.847656 L 40.929688 35.054688 L 42.984375 35.054688 L 42.984375 32.847656 L 43.765625 32.847656 L 43.765625 37.914062 L 42.984375 37.914062 "/>
<path style=" stroke:none;fill-rule:nonzero;fill:rgb(13.72549%,12.156863%,12.54902%);fill-opacity:1;" d="M 46.433594 33.882812 L 45.738281 36.039062 L 47.070312 36.039062 Z M 47.625 37.914062 L 47.261719 36.699219 L 45.515625 36.699219 L 45.128906 37.914062 L 44.296875 37.914062 L 46.007812 32.847656 L 46.855469 32.847656 L 48.464844 37.914062 L 47.625 37.914062 "/>
<path style=" stroke:none;fill-rule:nonzero;fill:rgb(13.72549%,12.156863%,12.54902%);fill-opacity:1;" d="M 49.453125 37.914062 L 49.453125 33.507812 L 48.171875 33.507812 L 48.171875 32.847656 L 51.519531 32.847656 L 51.519531 33.507812 L 50.234375 33.507812 L 50.234375 37.914062 L 49.453125 37.914062 "/>
<path style=" stroke:none;fill-rule:nonzero;fill:rgb(13.72549%,12.156863%,12.54902%);fill-opacity:1;" d="M 51.96875 34.179688 C 52.042969 34.175781 52.105469 34.164062 52.152344 34.148438 C 52.199219 34.132812 52.238281 34.105469 52.265625 34.074219 C 52.289062 34.039062 52.308594 33.996094 52.316406 33.9375 C 52.328125 33.882812 52.332031 33.8125 52.332031 33.730469 L 52.332031 33.582031 L 52.007812 33.582031 L 52.007812 32.847656 L 52.699219 32.847656 L 52.699219 33.652344 C 52.699219 33.792969 52.6875 33.914062 52.664062 34.011719 C 52.644531 34.105469 52.609375 34.1875 52.558594 34.25 C 52.507812 34.3125 52.445312 34.359375 52.363281 34.398438 C 52.285156 34.433594 52.1875 34.464844 52.066406 34.484375 L 51.96875 34.179688 "/>
<path style=" stroke:none;fill-rule:nonzero;fill:rgb(13.72549%,12.156863%,12.54902%);fill-opacity:1;" d="M 55.960938 34.09375 C 55.957031 34.023438 55.945312 33.953125 55.925781 33.878906 C 55.90625 33.804688 55.863281 33.738281 55.804688 33.675781 C 55.742188 33.617188 55.648438 33.566406 55.53125 33.527344 C 55.410156 33.484375 55.246094 33.464844 55.035156 33.464844 C 54.707031 33.464844 54.457031 33.523438 54.28125 33.636719 C 54.105469 33.75 54.019531 33.929688 54.019531 34.179688 C 54.019531 34.304688 54.050781 34.40625 54.113281 34.484375 C 54.171875 34.558594 54.257812 34.617188 54.359375 34.660156 C 54.464844 34.703125 54.582031 34.734375 54.71875 34.757812 C 54.855469 34.777344 55 34.796875 55.148438 34.8125 C 55.265625 34.824219 55.390625 34.84375 55.519531 34.863281 C 55.648438 34.882812 55.773438 34.914062 55.898438 34.953125 C 56.019531 34.992188 56.140625 35.046875 56.25 35.109375 C 56.363281 35.175781 56.460938 35.261719 56.546875 35.363281 C 56.628906 35.46875 56.695312 35.597656 56.746094 35.746094 C 56.796875 35.898438 56.820312 36.078125 56.820312 36.285156 C 56.820312 36.558594 56.777344 36.800781 56.695312 37.007812 C 56.609375 37.21875 56.488281 37.390625 56.332031 37.53125 C 56.175781 37.671875 55.984375 37.777344 55.761719 37.851562 C 55.535156 37.921875 55.28125 37.957031 55 37.957031 C 54.714844 37.957031 54.472656 37.921875 54.273438 37.851562 C 54.074219 37.78125 53.910156 37.691406 53.78125 37.582031 C 53.648438 37.476562 53.546875 37.359375 53.472656 37.230469 C 53.398438 37.101562 53.34375 36.976562 53.3125 36.855469 C 53.277344 36.738281 53.253906 36.632812 53.246094 36.539062 C 53.238281 36.449219 53.234375 36.386719 53.234375 36.355469 L 54.007812 36.355469 C 54.007812 36.464844 54.023438 36.578125 54.054688 36.6875 C 54.085938 36.800781 54.140625 36.902344 54.21875 36.992188 C 54.292969 37.082031 54.394531 37.15625 54.523438 37.210938 C 54.648438 37.269531 54.808594 37.296875 55 37.296875 C 55.15625 37.296875 55.296875 37.277344 55.425781 37.238281 C 55.550781 37.199219 55.65625 37.140625 55.746094 37.058594 C 55.835938 36.980469 55.902344 36.882812 55.949219 36.765625 C 55.996094 36.648438 56.019531 36.511719 56.019531 36.355469 C 56.019531 36.191406 55.992188 36.0625 55.9375 35.96875 C 55.882812 35.875 55.800781 35.800781 55.691406 35.746094 C 55.582031 35.695312 55.449219 35.652344 55.285156 35.625 C 55.121094 35.597656 54.933594 35.566406 54.714844 35.539062 C 54.527344 35.511719 54.347656 35.472656 54.171875 35.429688 C 53.996094 35.386719 53.835938 35.320312 53.699219 35.230469 C 53.5625 35.136719 53.453125 35.015625 53.367188 34.867188 C 53.285156 34.714844 53.242188 34.515625 53.242188 34.277344 C 53.242188 34.226562 53.246094 34.15625 53.257812 34.0625 C 53.269531 33.972656 53.292969 33.871094 53.328125 33.761719 C 53.367188 33.652344 53.425781 33.542969 53.496094 33.429688 C 53.570312 33.316406 53.671875 33.210938 53.800781 33.121094 C 53.929688 33.027344 54.09375 32.953125 54.285156 32.894531 C 54.476562 32.835938 54.710938 32.804688 54.984375 32.804688 C 55.222656 32.804688 55.421875 32.820312 55.582031 32.84375 C 55.742188 32.871094 55.875 32.902344 55.980469 32.945312 C 56.085938 32.988281 56.171875 33.039062 56.234375 33.089844 C 56.300781 33.144531 56.359375 33.199219 56.410156 33.253906 C 56.519531 33.371094 56.597656 33.503906 56.644531 33.648438 C 56.691406 33.792969 56.714844 33.941406 56.714844 34.09375 L 55.960938 34.09375 "/>
<path style=" stroke:none;fill-rule:nonzero;fill:rgb(13.72549%,12.156863%,12.54902%);fill-opacity:1;" d="M 61.089844 35.449219 C 61.191406 35.449219 61.296875 35.429688 61.40625 35.398438 C 61.515625 35.367188 61.617188 35.3125 61.710938 35.238281 C 61.804688 35.164062 61.878906 35.066406 61.941406 34.941406 C 62 34.816406 62.03125 34.664062 62.03125 34.480469 C 62.03125 34.347656 62.011719 34.222656 61.976562 34.105469 C 61.941406 33.988281 61.886719 33.886719 61.820312 33.796875 C 61.753906 33.707031 61.667969 33.636719 61.570312 33.585938 C 61.46875 33.535156 61.355469 33.507812 61.230469 33.507812 L 60.179688 33.507812 L 60.179688 35.449219 Z M 59.398438 37.914062 L 59.398438 32.847656 L 61.328125 32.847656 C 61.5625 32.847656 61.773438 32.886719 61.957031 32.960938 C 62.144531 33.039062 62.300781 33.148438 62.429688 33.289062 C 62.558594 33.433594 62.660156 33.605469 62.726562 33.804688 C 62.796875 34.003906 62.828125 34.230469 62.828125 34.476562 C 62.828125 34.726562 62.792969 34.949219 62.714844 35.152344 C 62.640625 35.351562 62.535156 35.523438 62.402344 35.664062 C 62.265625 35.804688 62.109375 35.914062 61.925781 35.992188 C 61.742188 36.070312 61.542969 36.109375 61.328125 36.109375 L 60.179688 36.109375 L 60.179688 37.914062 L 59.398438 37.914062 "/>
<path style=" stroke:none;fill-rule:nonzero;fill:rgb(13.72549%,12.156863%,12.54902%);fill-opacity:1;" d="M 66.332031 36.96875 C 66.367188 36.921875 66.398438 36.867188 66.425781 36.800781 C 66.449219 36.734375 66.472656 36.644531 66.488281 36.527344 C 66.503906 36.410156 66.515625 36.261719 66.523438 36.078125 C 66.53125 35.894531 66.535156 35.664062 66.535156 35.382812 C 66.535156 35.101562 66.53125 34.867188 66.523438 34.683594 C 66.515625 34.5 66.503906 34.351562 66.488281 34.234375 C 66.472656 34.117188 66.449219 34.027344 66.425781 33.960938 C 66.398438 33.894531 66.367188 33.839844 66.332031 33.792969 C 66.25 33.6875 66.140625 33.605469 65.996094 33.550781 C 65.851562 33.496094 65.660156 33.464844 65.410156 33.464844 C 65.164062 33.464844 64.964844 33.496094 64.824219 33.550781 C 64.683594 33.605469 64.570312 33.6875 64.492188 33.792969 C 64.457031 33.839844 64.425781 33.894531 64.398438 33.960938 C 64.371094 34.027344 64.351562 34.117188 64.332031 34.234375 C 64.316406 34.351562 64.304688 34.5 64.296875 34.683594 C 64.289062 34.867188 64.285156 35.101562 64.285156 35.382812 C 64.285156 35.664062 64.289062 35.894531 64.296875 36.078125 C 64.304688 36.261719 64.316406 36.410156 64.332031 36.527344 C 64.351562 36.644531 64.371094 36.734375 64.398438 36.800781 C 64.425781 36.867188 64.457031 36.921875 64.492188 36.96875 C 64.570312 37.078125 64.683594 37.15625 64.824219 37.214844 C 64.964844 37.269531 65.164062 37.296875 65.410156 37.296875 C 65.660156 37.296875 65.851562 37.269531 65.996094 37.214844 C 66.140625 37.15625 66.25 37.078125 66.332031 36.96875 Z M 66.90625 37.496094 C 66.835938 37.566406 66.757812 37.632812 66.667969 37.6875 C 66.582031 37.746094 66.476562 37.792969 66.359375 37.835938 C 66.238281 37.875 66.101562 37.90625 65.945312 37.925781 C 65.789062 37.945312 65.613281 37.957031 65.410156 37.957031 C 65.207031 37.957031 65.03125 37.945312 64.875 37.925781 C 64.71875 37.90625 64.582031 37.875 64.464844 37.835938 C 64.347656 37.792969 64.242188 37.746094 64.152344 37.6875 C 64.0625 37.632812 63.984375 37.566406 63.917969 37.496094 C 63.835938 37.414062 63.769531 37.3125 63.714844 37.191406 C 63.660156 37.070312 63.613281 36.925781 63.582031 36.757812 C 63.546875 36.585938 63.519531 36.386719 63.507812 36.160156 C 63.492188 35.9375 63.484375 35.675781 63.484375 35.382812 C 63.484375 35.085938 63.492188 34.828125 63.507812 34.601562 C 63.519531 34.375 63.546875 34.175781 63.582031 34.007812 C 63.613281 33.835938 63.660156 33.691406 63.714844 33.570312 C 63.769531 33.449219 63.835938 33.347656 63.917969 33.269531 C 63.984375 33.195312 64.0625 33.132812 64.152344 33.074219 C 64.242188 33.019531 64.347656 32.96875 64.464844 32.929688 C 64.582031 32.890625 64.71875 32.859375 64.875 32.839844 C 65.03125 32.816406 65.207031 32.804688 65.410156 32.804688 C 65.613281 32.804688 65.789062 32.816406 65.945312 32.839844 C 66.101562 32.859375 66.238281 32.890625 66.359375 32.929688 C 66.476562 32.96875 66.582031 33.019531 66.667969 33.074219 C 66.757812 33.132812 66.835938 33.195312 66.90625 33.269531 C 66.984375 33.347656 67.050781 33.449219 67.109375 33.570312 C 67.164062 33.691406 67.207031 33.835938 67.242188 34.007812 C 67.277344 34.175781 67.300781 34.375 67.316406 34.601562 C 67.332031 34.828125 67.339844 35.085938 67.339844 35.382812 C 67.339844 35.675781 67.332031 35.9375 67.316406 36.160156 C 67.300781 36.386719 67.277344 36.585938 67.242188 36.757812 C 67.207031 36.925781 67.164062 37.070312 67.109375 37.191406 C 67.050781 37.3125 66.984375 37.414062 66.90625 37.496094 "/>
<path style=" stroke:none;fill-rule:nonzero;fill:rgb(13.72549%,12.156863%,12.54902%);fill-opacity:1;" d="M 70.8125 34.09375 C 70.804688 34.023438 70.792969 33.953125 70.773438 33.878906 C 70.753906 33.804688 70.714844 33.738281 70.652344 33.675781 C 70.589844 33.617188 70.5 33.566406 70.378906 33.527344 C 70.257812 33.484375 70.09375 33.464844 69.882812 33.464844 C 69.554688 33.464844 69.304688 33.523438 69.128906 33.636719 C 68.957031 33.75 68.867188 33.929688 68.867188 34.179688 C 68.867188 34.304688 68.898438 34.40625 68.960938 34.484375 C 69.023438 34.558594 69.105469 34.617188 69.207031 34.660156 C 69.3125 34.703125 69.433594 34.734375 69.570312 34.757812 C 69.703125 34.777344 69.847656 34.796875 69.996094 34.8125 C 70.113281 34.824219 70.238281 34.84375 70.367188 34.863281 C 70.496094 34.882812 70.625 34.914062 70.746094 34.953125 C 70.871094 34.992188 70.988281 35.046875 71.101562 35.109375 C 71.210938 35.175781 71.308594 35.261719 71.394531 35.363281 C 71.476562 35.46875 71.546875 35.597656 71.59375 35.746094 C 71.644531 35.898438 71.667969 36.078125 71.667969 36.285156 C 71.667969 36.558594 71.628906 36.800781 71.542969 37.007812 C 71.460938 37.21875 71.339844 37.390625 71.179688 37.53125 C 71.023438 37.671875 70.832031 37.777344 70.609375 37.851562 C 70.382812 37.921875 70.128906 37.957031 69.847656 37.957031 C 69.5625 37.957031 69.320312 37.921875 69.121094 37.851562 C 68.921875 37.78125 68.757812 37.691406 68.628906 37.582031 C 68.5 37.476562 68.394531 37.359375 68.320312 37.230469 C 68.25 37.101562 68.195312 36.976562 68.160156 36.855469 C 68.125 36.738281 68.105469 36.632812 68.097656 36.539062 C 68.085938 36.449219 68.082031 36.386719 68.082031 36.355469 L 68.855469 36.355469 C 68.855469 36.464844 68.871094 36.578125 68.902344 36.6875 C 68.9375 36.800781 68.988281 36.902344 69.066406 36.992188 C 69.140625 37.082031 69.242188 37.15625 69.371094 37.210938 C 69.496094 37.269531 69.65625 37.296875 69.847656 37.296875 C 70.003906 37.296875 70.148438 37.277344 70.273438 37.238281 C 70.398438 37.199219 70.503906 37.140625 70.59375 37.058594 C 70.683594 36.980469 70.75 36.882812 70.800781 36.765625 C 70.847656 36.648438 70.871094 36.511719 70.871094 36.355469 C 70.871094 36.191406 70.84375 36.0625 70.785156 35.96875 C 70.730469 35.875 70.648438 35.800781 70.539062 35.746094 C 70.433594 35.695312 70.296875 35.652344 70.132812 35.625 C 69.972656 35.597656 69.78125 35.566406 69.566406 35.539062 C 69.378906 35.511719 69.195312 35.472656 69.019531 35.429688 C 68.84375 35.386719 68.6875 35.320312 68.550781 35.230469 C 68.410156 35.136719 68.300781 35.015625 68.21875 34.867188 C 68.132812 34.714844 68.089844 34.515625 68.089844 34.277344 C 68.089844 34.226562 68.097656 34.15625 68.105469 34.0625 C 68.117188 33.972656 68.140625 33.871094 68.179688 33.761719 C 68.21875 33.652344 68.273438 33.542969 68.347656 33.429688 C 68.421875 33.316406 68.523438 33.210938 68.652344 33.121094 C 68.78125 33.027344 68.941406 32.953125 69.132812 32.894531 C 69.328125 32.835938 69.558594 32.804688 69.835938 32.804688 C 70.074219 32.804688 70.269531 32.820312 70.429688 32.84375 C 70.589844 32.871094 70.722656 32.902344 70.828125 32.945312 C 70.933594 32.988281 71.019531 33.039062 71.085938 33.089844 C 71.148438 33.144531 71.207031 33.199219 71.257812 33.253906 C 71.367188 33.371094 71.449219 33.503906 71.496094 33.648438 C 71.542969 33.792969 71.566406 33.941406 71.566406 34.09375 L 70.8125 34.09375 "/>
<path style=" stroke:none;fill-rule:nonzero;fill:rgb(13.72549%,12.156863%,12.54902%);fill-opacity:1;" d="M 75.027344 34.09375 C 75.023438 34.023438 75.011719 33.953125 74.992188 33.878906 C 74.972656 33.804688 74.929688 33.738281 74.867188 33.675781 C 74.804688 33.617188 74.714844 33.566406 74.59375 33.527344 C 74.472656 33.484375 74.308594 33.464844 74.097656 33.464844 C 73.769531 33.464844 73.519531 33.523438 73.347656 33.636719 C 73.171875 33.75 73.085938 33.929688 73.085938 34.179688 C 73.085938 34.304688 73.117188 34.40625 73.175781 34.484375 C 73.238281 34.558594 73.320312 34.617188 73.425781 34.660156 C 73.527344 34.703125 73.648438 34.734375 73.785156 34.757812 C 73.921875 34.777344 74.0625 34.796875 74.214844 34.8125 C 74.332031 34.824219 74.453125 34.84375 74.582031 34.863281 C 74.714844 34.882812 74.839844 34.914062 74.960938 34.953125 C 75.085938 34.992188 75.203125 35.046875 75.316406 35.109375 C 75.429688 35.175781 75.527344 35.261719 75.609375 35.363281 C 75.695312 35.46875 75.761719 35.597656 75.8125 35.746094 C 75.859375 35.898438 75.886719 36.078125 75.886719 36.285156 C 75.886719 36.558594 75.84375 36.800781 75.757812 37.007812 C 75.675781 37.21875 75.554688 37.390625 75.398438 37.53125 C 75.242188 37.671875 75.050781 37.777344 74.824219 37.851562 C 74.597656 37.921875 74.347656 37.957031 74.066406 37.957031 C 73.777344 37.957031 73.535156 37.921875 73.339844 37.851562 C 73.140625 37.78125 72.976562 37.691406 72.84375 37.582031 C 72.714844 37.476562 72.613281 37.359375 72.539062 37.230469 C 72.464844 37.101562 72.410156 36.976562 72.375 36.855469 C 72.339844 36.738281 72.320312 36.632812 72.3125 36.539062 C 72.304688 36.449219 72.300781 36.386719 72.300781 36.355469 L 73.070312 36.355469 C 73.070312 36.464844 73.085938 36.578125 73.121094 36.6875 C 73.152344 36.800781 73.207031 36.902344 73.28125 36.992188 C 73.359375 37.082031 73.460938 37.15625 73.585938 37.210938 C 73.714844 37.269531 73.875 37.296875 74.066406 37.296875 C 74.222656 37.296875 74.363281 37.277344 74.488281 37.238281 C 74.613281 37.199219 74.722656 37.140625 74.8125 37.058594 C 74.898438 36.980469 74.96875 36.882812 75.015625 36.765625 C 75.0625 36.648438 75.085938 36.511719 75.085938 36.355469 C 75.085938 36.191406 75.058594 36.0625 75.003906 35.96875 C 74.945312 35.875 74.867188 35.800781 74.757812 35.746094 C 74.648438 35.695312 74.511719 35.652344 74.351562 35.625 C 74.1875 35.597656 73.996094 35.566406 73.78125 35.539062 C 73.59375 35.511719 73.414062 35.472656 73.234375 35.429688 C 73.058594 35.386719 72.902344 35.320312 72.765625 35.230469 C 72.628906 35.136719 72.515625 35.015625 72.433594 34.867188 C 72.347656 34.714844 72.304688 34.515625 72.304688 34.277344 C 72.304688 34.226562 72.3125 34.15625 72.320312 34.0625 C 72.332031 33.972656 72.355469 33.871094 72.394531 33.761719 C 72.433594 33.652344 72.488281 33.542969 72.5625 33.429688 C 72.636719 33.316406 72.738281 33.210938 72.867188 33.121094 C 72.996094 33.027344 73.15625 32.953125 73.351562 32.894531 C 73.542969 32.835938 73.777344 32.804688 74.050781 32.804688 C 74.289062 32.804688 74.488281 32.820312 74.644531 32.84375 C 74.804688 32.871094 74.9375 32.902344 75.042969 32.945312 C 75.148438 32.988281 75.234375 33.039062 75.300781 33.089844 C 75.363281 33.144531 75.421875 33.199219 75.472656 33.253906 C 75.582031 33.371094 75.664062 33.503906 75.710938 33.648438 C 75.757812 33.792969 75.78125 33.941406 75.78125 34.09375 L 75.027344 34.09375 "/>
<path style=" stroke:none;fill-rule:nonzero;fill:rgb(13.72549%,12.156863%,12.54902%);fill-opacity:1;" d="M 76.707031 37.914062 L 77.484375 37.914062 L 77.484375 32.847656 L 76.707031 32.847656 Z M 76.707031 37.914062 "/>
<path style=" stroke:none;fill-rule:nonzero;fill:rgb(13.72549%,12.156863%,12.54902%);fill-opacity:1;" d="M 80.519531 37.253906 C 80.640625 37.253906 80.746094 37.230469 80.839844 37.183594 C 80.929688 37.132812 81.007812 37.070312 81.070312 36.996094 C 81.132812 36.917969 81.179688 36.832031 81.210938 36.742188 C 81.242188 36.648438 81.257812 36.558594 81.257812 36.46875 C 81.257812 36.351562 81.242188 36.246094 81.207031 36.152344 C 81.171875 36.0625 81.125 35.980469 81.066406 35.917969 C 81.003906 35.851562 80.929688 35.800781 80.84375 35.765625 C 80.761719 35.734375 80.664062 35.714844 80.5625 35.714844 L 79.261719 35.714844 L 79.261719 37.253906 Z M 80.351562 35.054688 C 80.503906 35.054688 80.632812 35.03125 80.738281 34.976562 C 80.84375 34.925781 80.929688 34.863281 80.996094 34.789062 C 81.0625 34.710938 81.109375 34.628906 81.140625 34.539062 C 81.167969 34.449219 81.183594 34.367188 81.183594 34.292969 C 81.183594 34.019531 81.105469 33.816406 80.949219 33.695312 C 80.796875 33.570312 80.570312 33.507812 80.277344 33.507812 L 79.261719 33.507812 L 79.261719 35.054688 Z M 78.484375 37.914062 L 78.484375 32.847656 L 80.535156 32.847656 C 80.753906 32.847656 80.945312 32.875 81.101562 32.929688 C 81.257812 32.988281 81.390625 33.058594 81.5 33.144531 C 81.609375 33.230469 81.695312 33.324219 81.757812 33.429688 C 81.820312 33.535156 81.871094 33.636719 81.90625 33.738281 C 81.9375 33.835938 81.960938 33.925781 81.972656 34.007812 C 81.980469 34.089844 81.988281 34.148438 81.988281 34.1875 C 81.988281 34.273438 81.980469 34.367188 81.960938 34.472656 C 81.945312 34.574219 81.910156 34.675781 81.863281 34.777344 C 81.816406 34.878906 81.753906 34.976562 81.671875 35.070312 C 81.59375 35.164062 81.488281 35.246094 81.363281 35.316406 C 81.59375 35.425781 81.765625 35.574219 81.882812 35.769531 C 82 35.960938 82.058594 36.183594 82.058594 36.433594 C 82.058594 36.492188 82.050781 36.566406 82.042969 36.660156 C 82.035156 36.757812 82.011719 36.859375 81.976562 36.964844 C 81.941406 37.074219 81.894531 37.1875 81.828125 37.300781 C 81.761719 37.414062 81.671875 37.515625 81.558594 37.605469 C 81.445312 37.695312 81.304688 37.769531 81.136719 37.828125 C 80.96875 37.886719 80.769531 37.914062 80.535156 37.914062 L 78.484375 37.914062 "/>
<path style=" stroke:none;fill-rule:nonzero;fill:rgb(13.72549%,12.156863%,12.54902%);fill-opacity:1;" d="M 82.863281 37.914062 L 82.863281 32.847656 L 83.640625 32.847656 L 83.640625 37.253906 L 85.609375 37.253906 L 85.609375 37.914062 L 82.863281 37.914062 "/>
<path style=" stroke:none;fill-rule:nonzero;fill:rgb(13.72549%,12.156863%,12.54902%);fill-opacity:1;" d="M 86.222656 37.914062 L 86.222656 32.847656 L 89.285156 32.847656 L 89.285156 33.507812 L 87 33.507812 L 87 35.054688 L 88.683594 35.054688 L 88.683594 35.714844 L 87 35.714844 L 87 37.253906 L 89.285156 37.253906 L 89.285156 37.914062 L 86.222656 37.914062 "/>
<path style=" stroke:none;fill-rule:nonzero;fill:rgb(13.72549%,12.156863%,12.54902%);fill-opacity:1;" d="M 90.625 35.277344 L 90.625 33.160156 L 90.007812 33.160156 L 90.007812 32.84375 L 91.617188 32.84375 L 91.617188 33.160156 L 91 33.160156 L 91 35.277344 L 90.625 35.277344 "/>
<path style=" stroke:none;fill-rule:nonzero;fill:rgb(13.72549%,12.156863%,12.54902%);fill-opacity:1;" d="M 93.730469 35.277344 L 93.730469 33.496094 L 93.132812 34.730469 L 92.832031 34.730469 L 92.253906 33.511719 L 92.253906 35.277344 L 91.898438 35.277344 L 91.898438 32.84375 L 92.316406 32.84375 L 92.996094 34.273438 L 93.675781 32.84375 L 94.082031 32.84375 L 94.082031 35.277344 L 93.730469 35.277344 "/>
<path style=" stroke:none;fill-rule:nonzero;fill:rgb(13.72549%,12.156863%,12.54902%);fill-opacity:1;" d="M 0.273438 0.265625 L 25.09375 0.265625 L 25.09375 25.324219 L 0.273438 25.324219 Z M 5.382812 4.167969 L 5.382812 22.144531 L 20.945312 12.957031 Z M 33.449219 25.058594 L 29.164062 25.058594 L 29.164062 13.890625 L 33.472656 13.890625 C 36.667969 13.890625 38.582031 16.429688 38.582031 19.660156 C 38.582031 22.894531 36.878906 25.058594 33.449219 25.058594 M 37.25 11.355469 L 36.402344 8.867188 L 32.304688 8.867188 L 31.558594 11.355469 L 29.324219 11.355469 L 33.074219 0.160156 L 35.335938 0.160156 L 39.539062 11.355469 Z M 33.261719 15.789062 L 31.503906 15.789062 L 31.503906 23.320312 L 33.394531 23.320312 C 35.894531 23.320312 36.269531 21.183594 36.242188 19.554688 C 36.242188 18.273438 35.628906 15.789062 33.261719 15.789062 M 35.628906 6.625 L 34.21875 2.511719 L 32.96875 6.597656 L 32.886719 7.292969 L 35.65625 7.292969 C 35.65625 6.917969 35.683594 6.839844 35.628906 6.625 M 39.382812 25.058594 L 39.382812 13.890625 L 47.574219 13.890625 L 47.574219 15.761719 L 41.613281 15.761719 L 41.613281 18.140625 L 46.882812 18.140625 L 46.882812 20.167969 L 41.640625 20.167969 L 41.640625 23.160156 L 47.761719 23.160156 L 47.761719 25.058594 Z M 47.09375 11.355469 L 42.199219 3.792969 L 42.199219 11.355469 L 39.964844 11.355469 L 39.964844 0.160156 L 42.253906 0.160156 L 46.960938 7.613281 L 46.960938 0.160156 L 49.195312 0.160156 L 49.195312 11.355469 Z M 54.089844 25.03125 L 51.964844 25.03125 L 48.292969 14.480469 L 48.292969 13.890625 L 50.527344 13.890625 L 53.027344 22.066406 L 55.476562 13.917969 L 57.65625 13.917969 L 57.65625 14.503906 Z M 57.628906 11.355469 L 56.777344 8.867188 L 52.679688 8.867188 L 51.9375 11.355469 L 49.703125 11.355469 L 53.453125 0.160156 L 55.714844 0.160156 L 59.917969 11.355469 Z M 56.03125 6.675781 L 54.625 2.457031 L 53.210938 6.675781 L 53.210938 7.292969 L 56.085938 7.292969 C 56.085938 6.917969 56.085938 6.863281 56.03125 6.675781 M 58.347656 13.917969 L 60.714844 13.917969 L 60.714844 25.03125 L 58.347656 25.03125 Z M 60.394531 11.355469 L 60.394531 0.160156 L 62.605469 0.160156 L 62.605469 9.457031 L 67.578125 9.457031 L 67.578125 11.355469 Z M 66.59375 25.324219 C 60.503906 25.460938 59.4375 13.652344 66.621094 13.730469 C 70.613281 13.730469 71.304688 17.070312 71.460938 17.578125 L 69.253906 17.578125 C 68.910156 16.882812 68.003906 15.546875 66.886719 15.464844 C 62.949219 15.199219 62.949219 23.5625 66.886719 23.5625 C 68.777344 23.5625 69.230469 21.664062 69.335938 21.453125 L 71.488281 21.453125 C 71.488281 21.476562 71.222656 25.273438 66.59375 25.324219 M 72.714844 11.539062 C 65.558594 11.539062 65.824219 -0.0546875 72.792969 0 C 79.523438 0.0507812 79.710938 11.539062 72.714844 11.539062 M 72.632812 9.671875 C 76.757812 9.695312 76.757812 1.949219 72.714844 1.894531 C 68.695312 1.867188 68.5625 9.644531 72.632812 9.671875 M 71.890625 25.058594 L 71.890625 13.890625 L 79.789062 13.890625 L 79.789062 15.921875 L 74.015625 15.921875 L 74.015625 18.21875 L 79.125 18.21875 L 79.125 20.222656 L 74.042969 20.222656 L 74.042969 23.160156 L 80.054688 23.160156 L 80.054688 25.058594 Z M 86.894531 11.085938 L 86.894531 10.019531 C 86.652344 10.230469 85.589844 11.59375 83.59375 11.539062 C 76.785156 11.378906 76.757812 0.160156 83.914062 0.0234375 C 85.640625 0.0234375 87.078125 1.121094 87.636719 1.894531 C 88.304688 2.777344 88.355469 3.527344 88.382812 3.714844 L 86.492188 3.714844 C 86.066406 3.015625 85.402344 1.84375 83.835938 1.84375 C 79.683594 1.789062 79.417969 9.671875 83.808594 9.75 C 85.75 9.800781 86.734375 7.773438 86.734375 7.746094 L 86.734375 7.160156 L 84.074219 7.160156 L 84.074219 5.421875 L 88.648438 5.421875 L 88.648438 11.085938 Z M 84.816406 25.351562 C 80.109375 25.351562 80.160156 21.71875 80.160156 21.71875 L 82.289062 21.71875 C 82.289062 21.71875 82.128906 23.480469 84.5 23.640625 C 85.085938 23.667969 87 23.429688 87 22.09375 C 87 20.542969 85.058594 20.621094 83.835938 20.277344 C 82.609375 19.953125 80.296875 19.421875 80.296875 17.257812 C 80.296875 15.359375 81.835938 13.730469 84.816406 13.730469 C 88.808594 13.757812 88.78125 16.855469 88.808594 17.042969 L 86.761719 17.042969 C 86.625 16.589844 86.492188 15.492188 84.710938 15.441406 C 83.835938 15.441406 82.503906 15.734375 82.503906 16.777344 C 82.503906 18.085938 83.992188 18.273438 85.5625 18.511719 C 87.929688 18.96875 89.289062 19.6875 89.207031 21.878906 C 89.15625 23.800781 87.453125 25.351562 84.816406 25.351562 "/>
</g>
</svg>
