<?xml version="1.0" encoding="UTF-8"?>
<svg width="24px" height="24px" viewBox="0 0 24 24" version="1.1" xmlns="http://www.w3.org/2000/svg" xmlns:xlink="http://www.w3.org/1999/xlink">
    <title>Icons/Category/Optoelectronics</title>
    <g id="Icons/Category/Optoelectronics" stroke="none" stroke-width="1" fill="none" fill-rule="evenodd">
        <path d="M8.06546498,2.14269022 C9.28170389,3.19507931 10.0478703,4.41736427 10.3527032,5.79690368 C10.6129863,5.84920077 10.8396666,5.96176615 11.0169045,6.13900409 C11.0548967,6.17699628 11.0899173,6.21726028 11.1220081,6.2596425 L21.4231676,16.814698 C22.4487788,17.8403092 22.0620774,19.1643306 20.5112734,20.7151346 C19.1005816,22.1258264 17.6285711,22.3815352 16.5784128,21.4510792 L16.4634891,21.3428123 L6.2111727,11.2111052 C6.16016155,11.1744277 6.11207175,11.1336662 6.06715708,11.0887516 C5.70462067,10.7262152 5.61267314,10.156813 5.75491664,9.5140039 C4.89436267,8.91758728 3.85099708,8.74611388 2.59424453,8.99338443 C2.32329681,9.04669436 2.06043406,8.87026407 2.00712413,8.59931636 C1.9538142,8.32836865 2.13024449,8.06550589 2.4011922,8.01219597 C3.82682658,7.73169732 5.07420865,7.91405064 6.11744462,8.55510198 C6.2035345,8.38860367 6.30367912,8.22172429 6.41616873,8.05621121 C5.58378022,7.41700116 4.6137276,7.10219235 3.49529146,7.10219235 C3.21914908,7.10219235 2.99529146,6.87833473 2.99529146,6.60219235 C2.99529146,6.32604998 3.21914908,6.10219235 3.49529146,6.10219235 C4.84983569,6.10219235 6.03900582,6.49796803 7.04968256,7.28015854 L7.12781725,7.19966427 L7.12781725,7.19966427 C7.32543195,7.00204956 7.53087204,6.82307943 7.74010445,6.66385379 C7.03510337,5.5555052 6.23267535,4.86515218 5.33968558,4.57718096 C5.07687077,4.49242847 4.93252273,4.2106695 5.01727521,3.94785469 C5.1020277,3.68503987 5.38378667,3.54069183 5.64660148,3.62544432 C6.7841858,3.99229236 7.76250599,4.83403685 8.58863812,6.13467794 C8.84262806,6.0092169 9.09458589,5.9143684 9.33732234,5.85187023 C9.05758947,4.75155892 8.41851789,3.7705692 7.4111328,2.89889746 C7.20231193,2.71820862 7.17950642,2.40244862 7.36019527,2.19362775 C7.54088411,1.98480689 7.85664411,1.96200138 8.06546498,2.14269022 Z M9.95624438,10.0280914 C9.27250034,10.7118354 8.49507468,11.172376 7.79102209,11.3641528 L17.1640267,20.6292562 C17.783989,21.2492184 18.6944787,21.1177157 19.8041666,20.0080278 C20.9636651,18.8485293 21.2154579,18.1086148 20.7797204,17.5910256 L20.7160608,17.5218047 L11.2914866,7.86587081 C11.0992197,8.56913087 10.6390169,9.34531892 9.95624438,10.0280914 Z M9.21216943,6.94085438 L9.08141586,6.99976092 C9.21158149,7.25371354 9.33736655,7.52090703 9.45880611,7.80126211 C9.56856612,8.05465381 9.45212963,8.34904643 9.19873794,8.45880644 C8.94534624,8.56856645 8.65095362,8.45212996 8.54119361,8.19873827 C8.44223972,7.97029355 8.34078801,7.75243377 8.23686503,7.5450989 C8.10169539,7.65399392 7.96719802,7.77449706 7.83492403,7.90677105 L7.78802929,7.95398917 C8.00414161,8.18420299 8.21019294,8.43566459 8.40601254,8.70825213 C8.56712347,8.93252401 8.5159214,9.24493851 8.29164951,9.40604944 C8.06737763,9.56716037 7.75496313,9.5159583 7.5938522,9.29168642 C7.45393677,9.09691939 7.30883013,8.91532719 7.1584313,8.74683776 C7.06260459,8.89524079 6.98323404,9.0392845 6.91748644,9.17752543 C7.08132633,9.3311987 7.23758827,9.50054282 7.3872611,9.68384414 C7.56191442,9.89773857 7.53010322,10.2127188 7.31620879,10.3873721 C7.26075468,10.4326526 7.19850605,10.4640555 7.13366982,10.4820057 C7.62787979,10.4646974 8.47644447,10.0936777 9.2491376,9.32098461 C9.97718918,8.59293303 10.3486391,7.79752345 10.40242,7.29426834 C10.3150817,7.41538321 10.1755418,7.49458437 10.0161627,7.49973938 C9.74016461,7.50866633 9.50918726,7.29216243 9.50026031,7.01616439 L9.48984097,6.83586102 C9.40133908,6.86405592 9.30842416,6.89901497 9.21216943,6.94085438 Z" id="Fill" fill="#000000"></path>
    </g>
</svg>