<?xml version="1.0" encoding="UTF-8"?>
<svg xmlns="http://www.w3.org/2000/svg" xmlns:xlink="http://www.w3.org/1999/xlink" width="73px" height="32px" viewBox="0 0 72 32" version="1.1">
<g id="surface1">
<path style=" stroke:none;fill-rule:nonzero;fill:rgb(92.54902%,9.411765%,25.098039%);fill-opacity:1;" d="M 21.378906 1.304688 C 21.378906 1.304688 19.703125 1.578125 17.910156 2.046875 C 16.558594 2.394531 15.621094 2.691406 15.269531 2.800781 L 15.269531 2.792969 C 14.753906 2.953125 14.253906 3.125 13.761719 3.292969 C 14.261719 3.789062 14.578125 4.472656 14.601562 5.226562 C 15.003906 5.050781 15.40625 4.878906 15.820312 4.710938 L 15.820312 4.707031 C 16.285156 4.539062 17.535156 4.082031 18.609375 3.714844 C 19.953125 3.257812 21.777344 2.695312 21.777344 2.695312 C 27.085938 1.21875 32.96875 0.359375 38.445312 0.402344 C 32.128906 0.0195312 26.382812 0.390625 21.382812 1.304688 M 71.644531 21.4375 C 65.960938 26.640625 53.015625 29.675781 38.226562 29.675781 C 18.136719 29.675781 5.152344 23.734375 4.246094 15.875 C 3.910156 12.921875 6.21875 10.066406 10.054688 7.625 C 9.378906 7.109375 8.9375 6.300781 8.917969 5.386719 C 3.378906 8.316406 0.246094 12.167969 0.246094 16.078125 C 0.246094 24.738281 15.609375 32.078125 38.433594 31.757812 C 53.960938 31.542969 65.761719 27.078125 71.726562 21.617188 L 71.636719 21.441406 "/>
<path style=" stroke:none;fill-rule:nonzero;fill:rgb(0%,40%,70.196078%);fill-opacity:1;" d="M 9.671875 5.332031 C 9.671875 4.164062 10.605469 3.21875 11.765625 3.21875 C 12.921875 3.21875 13.863281 4.164062 13.863281 5.332031 C 13.863281 6.5 12.921875 7.441406 11.765625 7.441406 C 10.605469 7.441406 9.671875 6.5 9.671875 5.332031 "/>
<path style=" stroke:none;fill-rule:nonzero;fill:rgb(0%,40%,70.196078%);fill-opacity:1;" d="M 10.839844 21.226562 L 10.839844 9.109375 L 12.816406 8.84375 L 12.816406 21.222656 L 10.839844 21.222656 "/>
<path style=" stroke:none;fill-rule:nonzero;fill:rgb(0%,40%,70.196078%);fill-opacity:1;" d="M 19.457031 21.226562 L 19.457031 14.292969 C 19.457031 13.5 19.386719 13.175781 19.230469 12.953125 C 19.089844 12.75 18.847656 12.691406 18.585938 12.691406 C 18.203125 12.691406 17.628906 13.015625 17.15625 13.601562 L 17.15625 21.222656 L 15.191406 21.222656 L 15.191406 13.667969 C 15.191406 12.429688 15.03125 11.738281 14.929688 11.171875 L 16.777344 10.6875 C 16.828125 10.871094 17 11.371094 17.019531 11.902344 C 17.523438 11.273438 18.449219 10.746094 19.351562 10.746094 C 20.050781 10.746094 20.605469 11.03125 20.953125 11.476562 C 21.355469 11.984375 21.421875 12.671875 21.421875 13.359375 L 21.421875 21.222656 L 19.457031 21.222656 "/>
<path style=" stroke:none;fill-rule:nonzero;fill:rgb(0%,40%,70.196078%);fill-opacity:1;" d="M 27.847656 8.410156 C 27.621094 8.226562 27.257812 8.109375 26.910156 8.109375 C 26.421875 8.109375 26.125 8.574219 26.125 9.367188 L 26.125 10.941406 L 27.96875 10.941406 L 27.605469 12.6875 L 26.125 12.6875 L 26.125 21.222656 L 24.105469 21.222656 L 24.105469 12.6875 L 23.425781 12.6875 L 23.425781 10.941406 L 24.105469 10.941406 C 24.105469 10.941406 24.070312 10.234375 24.070312 9.585938 C 24.070312 8.046875 24.574219 7.238281 25.042969 6.832031 C 25.515625 6.445312 26.054688 6.324219 26.5625 6.324219 C 27.289062 6.324219 27.886719 6.488281 28.40625 6.871094 L 27.847656 8.410156 "/>
<path style=" stroke:none;fill-rule:nonzero;fill:rgb(0%,40%,70.196078%);fill-opacity:1;" d="M 29.484375 21.226562 L 29.484375 11.011719 L 31.488281 10.746094 L 31.488281 21.222656 L 29.484375 21.222656 Z M 30.441406 9.511719 C 29.730469 9.511719 29.15625 8.925781 29.15625 8.195312 C 29.15625 7.464844 29.746094 6.882812 30.476562 6.882812 C 31.191406 6.882812 31.769531 7.464844 31.769531 8.195312 C 31.769531 8.925781 31.175781 9.511719 30.441406 9.511719 "/>
<path style=" stroke:none;fill-rule:nonzero;fill:rgb(0%,40%,70.196078%);fill-opacity:1;" d="M 38.273438 21.226562 L 38.273438 14.292969 C 38.273438 13.5 38.207031 13.175781 38.046875 12.953125 C 37.910156 12.75 37.664062 12.691406 37.402344 12.691406 C 37.019531 12.691406 36.445312 13.015625 35.976562 13.601562 L 35.976562 21.222656 L 34.007812 21.222656 L 34.007812 13.667969 C 34.007812 12.429688 33.851562 11.738281 33.746094 11.171875 L 35.59375 10.6875 C 35.644531 10.871094 35.820312 11.371094 35.835938 11.902344 C 36.339844 11.273438 37.261719 10.746094 38.167969 10.746094 C 38.863281 10.746094 39.421875 11.03125 39.769531 11.476562 C 40.171875 11.984375 40.242188 12.671875 40.242188 13.359375 L 40.242188 21.222656 L 38.273438 21.222656 "/>
<path style=" stroke:none;fill-rule:nonzero;fill:rgb(0%,40%,70.196078%);fill-opacity:1;" d="M 46.519531 13.097656 C 46.328125 12.628906 46.015625 12.347656 45.511719 12.347656 C 44.625 12.347656 44.238281 13.179688 44.207031 15 L 46.746094 15 C 46.746094 14.191406 46.675781 13.503906 46.523438 13.097656 Z M 44.207031 16.640625 L 44.207031 16.847656 C 44.207031 17.515625 44.257812 18.125 44.5 18.652344 C 44.796875 19.277344 45.300781 19.625 45.910156 19.625 C 46.625 19.625 47.234375 19.261719 47.847656 18.613281 L 48.628906 20.089844 C 47.757812 21.042969 46.816406 21.46875 45.738281 21.46875 C 43.421875 21.46875 42.097656 19.460938 42.097656 16.058594 C 42.097656 14.292969 42.394531 12.996094 43.039062 12.023438 C 43.644531 11.113281 44.480469 10.664062 45.492188 10.664062 C 46.449219 10.664062 47.21875 11.054688 47.757812 11.761719 C 48.472656 12.695312 48.75 13.953125 48.75 16.199219 L 48.75 16.644531 L 44.203125 16.644531 "/>
<path style=" stroke:none;fill-rule:nonzero;fill:rgb(0%,40%,70.196078%);fill-opacity:1;" d="M 53.515625 12.488281 C 52.191406 12.488281 52.191406 14.921875 52.191406 15.976562 C 52.191406 17.089844 52.15625 19.664062 53.566406 19.664062 C 54.875 19.664062 54.875 17.089844 54.875 16.015625 C 54.875 14.902344 54.925781 12.488281 53.515625 12.488281 Z M 53.515625 21.488281 C 50.800781 21.488281 50.085938 18.574219 50.066406 16.058594 C 50.050781 13.523438 50.957031 10.667969 53.535156 10.667969 C 55.570312 10.667969 57.03125 12.511719 57.03125 16.015625 C 57.03125 18.632812 56.179688 21.488281 53.515625 21.488281 "/>
<path style=" stroke:none;fill-rule:nonzero;fill:rgb(0%,40%,70.196078%);fill-opacity:1;" d="M 62.957031 21.226562 L 62.957031 14.292969 C 62.957031 13.5 62.886719 13.175781 62.726562 12.953125 C 62.589844 12.75 62.34375 12.691406 62.082031 12.691406 C 61.699219 12.691406 61.125 13.015625 60.652344 13.601562 L 60.652344 21.222656 L 58.691406 21.222656 L 58.691406 13.667969 C 58.691406 12.429688 58.53125 11.738281 58.425781 11.171875 L 60.273438 10.6875 C 60.324219 10.871094 60.5 11.371094 60.515625 11.902344 C 61.019531 11.273438 61.941406 10.746094 62.847656 10.746094 C 63.542969 10.746094 64.101562 11.03125 64.449219 11.476562 C 64.851562 11.984375 64.921875 12.671875 64.921875 13.359375 L 64.921875 21.222656 L 62.957031 21.222656 "/>
</g>
</svg>
