<?xml version="1.0" encoding="UTF-8"?>
<svg xmlns="http://www.w3.org/2000/svg" xmlns:xlink="http://www.w3.org/1999/xlink" width="75px" height="75px" viewBox="0 0 75 75" version="1.1">
<g id="surface1">
<path style=" stroke:none;fill-rule:evenodd;fill:rgb(30.196078%,52.54902%,40.392157%);fill-opacity:1;" d="M 18.351562 37.585938 L 13.695312 37.585938 L 13.351562 38.105469 L 18.351562 38.105469 L 18.351562 41.640625 L 11.28125 41.640625 L 11.28125 41.554688 C 11.796875 40.605469 12.402344 39.65625 13.003906 38.621094 L 12.832031 38.707031 L 10.675781 40.261719 C 10.503906 40.347656 10.246094 40.085938 10.246094 39.914062 C 10.675781 38.449219 11.195312 36.984375 11.625 35.515625 L 7.226562 42.761719 C 7.054688 42.933594 6.882812 43.019531 6.796875 42.933594 C 6.535156 42.761719 6.449219 42.417969 6.625 42.242188 C 7.054688 40.519531 7.570312 38.792969 7.917969 36.984375 C 7.140625 37.328125 6.625 38.363281 5.675781 38.191406 L 3 42.933594 C 2.828125 43.277344 2.914062 43.625 3.085938 43.96875 C 4.035156 44.484375 5.15625 44.226562 6.277344 44.3125 L 18.351562 44.3125 L 18.351562 46.039062 L 2.398438 46.039062 C 1.792969 46.039062 1.363281 45.691406 1.1875 45.175781 L 1.101562 44.832031 L 1.101562 38.105469 L 5.585938 38.105469 L 5.933594 37.585938 L 5.847656 37.5 L 1.101562 37.5 L 1.101562 30.773438 C 1.101562 30.082031 1.449219 29.21875 2.222656 29.046875 L 10.847656 29.046875 L 6.191406 37.15625 L 6.363281 37.15625 L 8.605469 35.34375 C 8.777344 35.34375 8.953125 35.429688 9.039062 35.601562 C 8.867188 36.984375 8.433594 38.277344 8.089844 39.570312 L 13.089844 31.375 C 13.265625 31.289062 13.4375 31.289062 13.523438 31.375 C 13.78125 31.546875 13.695312 31.808594 13.609375 32.066406 C 12.917969 34.222656 12.140625 36.378906 11.539062 38.621094 C 12.230469 38.363281 12.746094 37.328125 13.609375 37.414062 L 18.351562 28.960938 Z M 23.957031 43.105469 L 23.957031 31.808594 L 26.375 31.808594 L 26.375 41.035156 L 29.21875 41.035156 L 29.21875 43.105469 Z M 29.738281 34.652344 L 32.238281 34.652344 L 32.238281 43.105469 L 29.738281 43.105469 Z M 29.738281 31.894531 L 32.238281 31.894531 L 32.238281 34.222656 L 29.738281 34.222656 Z M 35.6875 34.738281 L 36.550781 34.738281 L 36.550781 36.207031 L 35.6875 36.207031 L 35.6875 41.035156 C 35.6875 41.296875 35.773438 41.640625 36.121094 41.640625 L 36.636719 41.640625 L 36.636719 43.105469 L 35.34375 43.105469 C 33.792969 43.105469 33.53125 42.417969 33.53125 41.039062 L 33.53125 36.207031 L 32.84375 36.207031 L 32.84375 34.738281 L 33.53125 34.738281 L 33.53125 32.410156 L 35.6875 32.410156 Z M 40.261719 34.738281 L 41.121094 34.738281 L 41.121094 36.207031 L 40.261719 36.207031 L 40.261719 41.035156 C 40.261719 41.296875 40.347656 41.640625 40.691406 41.640625 L 41.121094 41.640625 L 41.121094 43.105469 L 39.914062 43.105469 C 38.363281 43.105469 38.101562 42.417969 38.101562 41.039062 L 38.101562 36.207031 L 37.414062 36.207031 L 37.414062 34.738281 L 38.101562 34.738281 L 38.101562 32.410156 L 40.257812 32.410156 L 40.257812 34.738281 Z M 47.851562 32.066406 L 50.09375 32.066406 L 50.09375 43.105469 L 47.9375 43.105469 Z M 51.386719 36.207031 L 50.867188 36.207031 L 50.867188 34.738281 L 51.386719 34.738281 L 51.386719 33.703125 C 51.386719 32.410156 51.902344 32.066406 53.371094 32.066406 L 54.492188 32.066406 L 54.492188 33.53125 L 54.144531 33.53125 C 53.628906 33.53125 53.628906 34.136719 53.628906 34.566406 L 53.628906 34.738281 L 54.40625 34.738281 L 54.40625 36.207031 L 53.628906 36.207031 L 53.628906 43.105469 L 51.386719 43.105469 Z M 58.113281 42.15625 C 58.113281 42.761719 57.25 43.277344 56.472656 43.277344 C 55.613281 43.277344 54.921875 42.589844 54.921875 41.640625 L 54.921875 34.738281 L 57.164062 34.738281 L 57.164062 40.691406 C 57.164062 40.863281 57.25 41.121094 57.511719 41.121094 C 57.855469 41.121094 58.113281 41.121094 58.113281 40.863281 L 58.113281 34.738281 L 60.355469 34.738281 L 60.355469 43.105469 L 58.113281 43.105469 Z M 72.515625 33.964844 L 72.171875 33.964844 L 72.171875 32.671875 L 72.691406 32.671875 C 73.035156 32.671875 73.207031 32.757812 73.207031 33.015625 C 73.207031 33.273438 73.121094 33.359375 72.949219 33.359375 L 73.292969 33.964844 L 72.949219 33.964844 L 72.601562 33.359375 L 72.515625 33.359375 Z M 72.777344 33.1875 C 72.867188 33.179688 72.941406 33.109375 72.949219 33.015625 C 72.949219 32.84375 72.777344 32.84375 72.691406 32.84375 L 72.515625 32.84375 L 72.515625 33.1875 Z M 72.691406 34.480469 C 72.085938 34.480469 71.480469 34.050781 71.480469 33.273438 C 71.480469 32.496094 72.085938 32.066406 72.691406 32.066406 C 73.292969 32.066406 73.898438 32.496094 73.898438 33.273438 C 73.898438 34.050781 73.292969 34.480469 72.691406 34.480469 Z M 72.691406 32.324219 C 72.171875 32.324219 71.828125 32.757812 71.828125 33.273438 C 71.828125 33.878906 72.171875 34.222656 72.691406 34.222656 C 73.121094 34.222656 73.550781 33.878906 73.550781 33.273438 C 73.550781 32.757812 73.121094 32.324219 72.691406 32.324219 Z M 66.132812 35.6875 C 66.308594 36.121094 66.308594 36.636719 66.308594 37.15625 C 65.703125 37.328125 65.097656 37.242188 64.410156 37.242188 C 64.238281 36.808594 64.496094 36.121094 63.890625 36.035156 C 63.632812 36.035156 63.375 36.121094 63.289062 36.292969 C 63.203125 36.636719 63.460938 36.984375 63.632812 37.15625 C 64.925781 38.277344 66.910156 39.484375 66.394531 41.46875 C 66.308594 41.984375 65.960938 42.503906 65.445312 42.847656 C 64.496094 43.277344 63.117188 43.191406 62.167969 42.761719 C 61.304688 42.246094 61.132812 41.210938 61.132812 40.261719 C 61.21875 40.175781 61.304688 40.085938 61.476562 40.085938 L 63.03125 40.085938 C 63.289062 40.605469 62.945312 41.46875 63.71875 41.640625 C 63.980469 41.640625 64.238281 41.46875 64.324219 41.210938 C 64.324219 39.828125 62.769531 39.484375 62.082031 38.535156 C 61.304688 37.847656 60.960938 36.898438 61.304688 35.949219 C 61.648438 35.085938 62.597656 34.652344 63.460938 34.480469 C 64.496094 34.394531 65.53125 34.738281 66.132812 35.6875 Z M 67.082031 36.636719 C 67.257812 35.257812 68.375 34.394531 69.84375 34.394531 C 71.222656 34.394531 72.429688 35.257812 72.429688 36.636719 L 72.429688 39.140625 L 69.410156 39.140625 L 69.5 41.035156 C 69.5 41.292969 69.671875 41.554688 69.929688 41.554688 C 70.273438 41.554688 70.1875 41.292969 70.273438 41.035156 L 70.273438 39.742188 L 72.429688 39.742188 L 72.429688 40.949219 C 72.429688 42.332031 71.222656 43.105469 69.84375 43.105469 C 68.375 43.105469 67.257812 42.332031 67.082031 40.949219 Z M 70.273438 37.671875 L 70.273438 36.378906 C 70.1875 36.121094 70.1875 35.859375 69.84375 35.859375 C 69.585938 35.859375 69.414062 36.121094 69.414062 36.378906 L 69.414062 37.671875 Z M 41.8125 36.636719 C 41.898438 35.257812 43.105469 34.394531 44.488281 34.394531 C 45.867188 34.394531 47.074219 35.257812 47.160156 36.636719 L 47.160156 39.140625 L 44.140625 39.140625 L 44.226562 41.035156 C 44.226562 41.292969 44.3125 41.554688 44.65625 41.554688 C 44.917969 41.554688 44.917969 41.292969 45.003906 41.035156 L 45.003906 39.742188 L 47.160156 39.742188 L 47.160156 40.949219 C 47.074219 42.332031 45.867188 43.105469 44.488281 43.105469 C 43.105469 43.105469 41.898438 42.332031 41.8125 40.949219 Z M 45.003906 37.671875 L 45.003906 36.378906 C 44.917969 36.121094 44.832031 35.859375 44.574219 35.859375 C 44.226562 35.859375 44.140625 36.121094 44.140625 36.378906 L 44.140625 37.671875 Z M 45.003906 37.671875 "/>
</g>
</svg>
