<?xml version="1.0" encoding="UTF-8"?>
<svg xmlns="http://www.w3.org/2000/svg" xmlns:xlink="http://www.w3.org/1999/xlink" width="51px" height="32px" viewBox="0 0 50 32" version="1.1">
<g id="surface1">
<path style=" stroke:none;fill-rule:evenodd;fill:rgb(13.72549%,12.156863%,12.54902%);fill-opacity:1;" d="M 2.675781 25.324219 C 2.292969 25.335938 1.949219 25.566406 1.859375 25.992188 L 1.191406 30.710938 L 2.640625 30.710938 L 3.03125 27.46875 L 4.488281 30.078125 C 4.933594 30.648438 5.886719 30.59375 6.21875 30.078125 L 7.671875 27.523438 L 8.070312 30.710938 L 9.574219 30.710938 L 8.84375 25.992188 C 8.285156 25.082031 7.445312 25.3125 7.003906 25.816406 L 5.382812 28.660156 L 3.640625 25.816406 C 3.382812 25.472656 3.015625 25.3125 2.675781 25.324219 Z M 2.675781 25.324219 "/>
<path style=" stroke:none;fill-rule:evenodd;fill:rgb(13.72549%,12.156863%,12.54902%);fill-opacity:1;" d="M 25.058594 26.613281 C 24.496094 26.613281 23.886719 27.074219 23.886719 27.585938 L 23.886719 29.742188 C 23.886719 30.253906 24.335938 30.710938 24.949219 30.710938 L 28.195312 30.710938 C 28.691406 30.710938 29.3125 30.308594 29.3125 29.742188 L 29.3125 27.695312 C 29.3125 27.183594 28.753906 26.613281 28.078125 26.613281 Z M 25.789062 27.695312 L 27.519531 27.695312 C 27.796875 27.695312 27.96875 27.925781 27.96875 28.15625 L 27.96875 29.292969 C 27.96875 29.566406 27.796875 29.632812 27.574219 29.632812 L 25.617188 29.632812 C 25.390625 29.632812 25.230469 29.566406 25.230469 29.292969 L 25.230469 28.15625 C 25.230469 27.871094 25.507812 27.695312 25.789062 27.695312 Z M 25.789062 27.695312 "/>
<path style=" stroke:none;fill-rule:evenodd;fill:rgb(13.72549%,12.156863%,12.54902%);fill-opacity:1;" d="M 13.539062 26.667969 C 12.925781 26.667969 12.3125 27.238281 12.3125 27.640625 L 12.3125 29.851562 C 12.3125 30.144531 12.761719 30.710938 13.375 30.710938 L 16.785156 30.710938 C 17.179688 30.765625 17.457031 30.484375 17.457031 30.078125 L 17.457031 29.632812 L 14.042969 29.632812 C 13.710938 29.6875 13.539062 29.402344 13.539062 29.0625 L 13.539062 28.375 C 13.539062 28.089844 13.765625 27.75 14.042969 27.75 L 17.394531 27.75 L 17.394531 27.183594 C 17.394531 26.84375 17.179688 26.667969 16.785156 26.667969 Z M 13.539062 26.667969 "/>
<path style=" stroke:none;fill-rule:evenodd;fill:rgb(13.72549%,12.156863%,12.54902%);fill-opacity:1;" d="M 18.125 26.667969 L 18.125 30.710938 L 19.296875 30.710938 L 19.359375 29.6875 L 21.53125 29.6875 C 21.757812 29.6875 21.929688 29.796875 21.984375 30.078125 L 21.984375 30.710938 L 23.15625 30.710938 L 23.15625 29.742188 C 23.15625 29.226562 22.648438 29.117188 22.648438 29.117188 C 22.648438 29.117188 23.15625 28.890625 23.210938 28.496094 L 23.210938 27.523438 C 23.15625 27.074219 22.765625 26.734375 22.433594 26.667969 Z M 19.359375 27.695312 L 21.757812 27.695312 C 21.875 27.695312 22.039062 27.871094 22.039062 28.035156 L 22.039062 28.375 C 22.039062 28.550781 21.929688 28.660156 21.703125 28.660156 L 19.296875 28.660156 Z M 19.359375 27.695312 "/>
<path style=" stroke:none;fill-rule:evenodd;fill:rgb(13.72549%,12.156863%,12.54902%);fill-opacity:1;" d="M 31.152344 26.667969 C 30.539062 26.667969 29.925781 27.183594 29.925781 27.640625 L 29.925781 29.851562 C 29.980469 30.199219 30.367188 30.710938 30.988281 30.710938 L 34.394531 30.769531 C 34.78125 30.769531 35.0625 30.484375 35.0625 30.078125 L 35.0625 29.6875 L 31.65625 29.6875 C 31.320312 29.6875 31.152344 29.457031 31.152344 29.117188 L 31.152344 28.375 C 31.152344 28.089844 31.375 27.75 31.65625 27.75 L 35.007812 27.75 L 35.007812 27.183594 C 35.007812 26.84375 34.78125 26.667969 34.394531 26.667969 Z M 31.152344 26.667969 "/>
<path style=" stroke:none;fill-rule:evenodd;fill:rgb(13.72549%,12.156863%,12.54902%);fill-opacity:1;" d="M 35.738281 26.667969 L 35.738281 30.710938 L 37.027344 30.710938 L 37.027344 29.226562 L 39.421875 29.226562 L 39.421875 30.710938 L 40.769531 30.710938 L 40.769531 26.667969 L 39.421875 26.667969 L 39.421875 28.089844 L 37.027344 28.089844 L 37.027344 26.667969 Z M 35.738281 26.667969 "/>
<path style=" stroke:none;fill-rule:evenodd;fill:rgb(13.72549%,12.156863%,12.54902%);fill-opacity:1;" d="M 10.25 26.734375 L 10.25 30.710938 L 11.53125 30.710938 L 11.53125 26.734375 Z M 10.25 26.734375 "/>
<path style=" stroke:none;fill-rule:evenodd;fill:rgb(13.72549%,12.156863%,12.54902%);fill-opacity:1;" d="M 41.496094 26.734375 L 41.496094 30.710938 L 42.777344 30.710938 L 42.777344 26.734375 Z M 41.496094 26.734375 "/>
<path style=" stroke:none;fill-rule:evenodd;fill:rgb(13.72549%,12.156863%,12.54902%);fill-opacity:1;" d="M 43.617188 26.734375 L 43.617188 30.710938 L 44.851562 30.710938 L 44.851562 29.6875 L 47.921875 29.6875 C 48.3125 29.6875 48.816406 29.171875 48.816406 28.722656 L 48.816406 27.75 C 48.816406 27.238281 48.375 26.734375 47.816406 26.734375 Z M 44.796875 27.695312 L 47.308594 27.695312 C 47.480469 27.695312 47.589844 27.871094 47.589844 28.035156 L 47.589844 28.375 C 47.589844 28.550781 47.484375 28.722656 47.257812 28.722656 L 44.851562 28.722656 Z M 44.796875 27.695312 "/>
<path style=" stroke:none;fill-rule:evenodd;fill:rgb(92.54902%,10.588235%,14.117647%);fill-opacity:1;" d="M 23.886719 18.261719 C 23.886719 18.261719 24.777344 19.855469 25.789062 18.261719 L 27.742188 15.363281 L 21.984375 5.988281 C 21.984375 5.988281 21.089844 4.734375 20.027344 5.988281 L 18.019531 8.824219 Z M 24.667969 22.808594 C 27.6875 22.808594 30.429688 21.671875 32.4375 19.855469 L 25.5625 8.886719 L 27.6875 5.925781 C 28.582031 4.734375 29.527344 5.925781 29.527344 5.925781 L 35.40625 15.363281 C 35.683594 14.5625 35.847656 13.65625 35.898438 12.804688 L 29.25 2.121094 C 27.851562 1.550781 26.292969 1.210938 24.667969 1.210938 C 18.820312 1.210938 13.375 5.78125 13.375 12.015625 C 13.375 12.976562 13.539062 13.941406 13.765625 14.792969 L 17.0625 10.191406 L 19.359375 13.777344 C 19.910156 14.628906 19.359375 15.363281 19.359375 15.363281 L 16.449219 19.453125 C 18.648438 21.691406 21.597656 22.808594 24.667969 22.808594 "/>
</g>
</svg>
