<?xml version="1.0" encoding="UTF-8"?>
<svg xmlns="http://www.w3.org/2000/svg" xmlns:xlink="http://www.w3.org/1999/xlink" width="50px" height="18px" viewBox="0 0 49 18" version="1.1">
<g id="surface1">
<path style=" stroke:none;fill-rule:nonzero;fill:rgb(42.745098%,67.45098%,87.058824%);fill-opacity:1;" d="M 29.386719 0 L 28.394531 0 L 24.730469 5.984375 L 21.066406 0 L 20.070312 0 L 20.070312 18 L 21.066406 18 L 24.730469 12.015625 L 28.394531 18 L 29.398438 18 L 29.386719 17.984375 Z M 29.386719 0 "/>
<path style=" stroke:none;fill-rule:nonzero;fill:rgb(57.647059%,52.54902%,27.843137%);fill-opacity:1;" d="M 20.070312 0 L 14.636719 0 L 20.0625 9 L 14.636719 18 L 20.070312 18 Z M 20.070312 0 "/>
<path style=" stroke:none;fill-rule:nonzero;fill:rgb(42.745098%,60.392157%,27.058824%);fill-opacity:1;" d="M 34.824219 0 L 29.386719 0 L 29.386719 17.984375 L 29.398438 18 L 34.824219 18 L 29.398438 9 Z M 34.824219 0 "/>
<path style=" stroke:none;fill-rule:nonzero;fill:rgb(74.901961%,84.313725%,18.823529%);fill-opacity:1;" d="M 42.570312 0 L 34.824219 0 L 29.398438 9 L 34.824219 18 L 34.824219 14.023438 L 43.992188 14.023438 C 47.839844 14.023438 48.992188 10.945312 48.992188 8.269531 L 48.992188 6.152344 C 48.992188 2.628906 47.738281 0 42.570312 0 Z M 43.921875 7.261719 C 43.921875 8.328125 43.433594 9.558594 42.160156 9.558594 L 34.832031 9.558594 L 34.832031 4.464844 L 41.691406 4.464844 C 43.335938 4.464844 43.921875 5.160156 43.921875 6.375 Z M 43.921875 7.261719 "/>
<path style=" stroke:none;fill-rule:nonzero;fill:rgb(98.823529%,70.196078%,8.627451%);fill-opacity:1;" d="M 20.0625 9 L 14.636719 0 L 14.636719 10.878906 L 5.441406 0 L 0.0078125 0 L 0.0078125 18 L 5.445312 18 L 5.445312 7.125 L 14.636719 18 Z M 20.0625 9 "/>
</g>
</svg>
