<?xml version="1.0" encoding="UTF-8"?>
<svg xmlns="http://www.w3.org/2000/svg" xmlns:xlink="http://www.w3.org/1999/xlink" width="104px" height="18px" viewBox="0 0 102 18" version="1.1">
<g id="surface1">
<path style=" stroke:none;fill-rule:nonzero;fill:rgb(85.490196%,49.803922%,22.745098%);fill-opacity:1;" d="M 95.09375 0.46875 C 95.09375 1.679688 95.09375 6.203125 95.09375 6.535156 C 95.707031 4.546875 97.992188 0.328125 98.113281 0.0898438 L 95.496094 0.0898438 C 95.285156 0.0664062 95.09375 0.257812 95.09375 0.46875 Z M 95.09375 0.46875 "/>
<path style=" stroke:none;fill-rule:nonzero;fill:rgb(22.745098%,30.196078%,32.941176%);fill-opacity:1;" d="M 65.566406 2.769531 C 63.914062 1.015625 61.933594 0.160156 59.625 0.160156 C 57.269531 0.160156 55.289062 1.039062 53.640625 2.769531 C 51.988281 4.523438 51.1875 6.605469 51.1875 9.070312 C 51.1875 11.535156 52.011719 13.597656 53.640625 15.304688 C 55.265625 17.054688 57.246094 17.910156 59.625 17.910156 C 61.394531 17.910156 62.996094 17.386719 64.410156 16.34375 C 65.824219 15.304688 66.835938 13.953125 67.449219 12.292969 L 67.636719 11.773438 C 67.710938 11.582031 67.566406 11.394531 67.378906 11.394531 L 64.808594 11.394531 C 64.691406 11.394531 64.597656 11.464844 64.550781 11.558594 L 64.457031 11.773438 C 63.984375 12.765625 63.300781 13.550781 62.453125 14.09375 C 61.605469 14.664062 60.664062 14.949219 59.625 14.949219 C 58.09375 14.949219 56.820312 14.378906 55.761719 13.21875 C 54.886719 12.269531 54.347656 11.179688 54.179688 9.925781 C 54.15625 9.757812 54.300781 9.617188 54.464844 9.617188 L 67.757812 9.617188 C 67.898438 9.617188 68.039062 9.496094 68.039062 9.332031 L 68.039062 8.953125 C 68.039062 6.582031 67.214844 4.496094 65.566406 2.769531 Z M 64.269531 6.726562 L 54.960938 6.726562 C 54.746094 6.726562 54.628906 6.511719 54.722656 6.324219 C 55.101562 5.5625 55.621094 4.902344 56.253906 4.332031 C 57.246094 3.503906 58.351562 3.101562 59.601562 3.101562 C 60.851562 3.101562 61.984375 3.503906 62.972656 4.332031 C 63.632812 4.902344 64.128906 5.5625 64.503906 6.324219 C 64.597656 6.511719 64.457031 6.726562 64.269531 6.726562 Z M 49.019531 10.730469 C 48.714844 10.136719 48.21875 9.59375 47.535156 9.09375 C 47.371094 8.976562 47.207031 8.859375 47.015625 8.761719 C 46.828125 8.644531 46.640625 8.550781 46.40625 8.453125 C 45.980469 8.265625 45.625 8.125 45.367188 8.027344 L 44 7.578125 C 42.5625 7.175781 41.503906 6.703125 40.84375 6.15625 C 40.113281 5.5625 39.945312 4.878906 40.371094 4.070312 C 40.558594 3.714844 40.914062 3.429688 41.382812 3.21875 C 41.925781 3.003906 42.492188 2.886719 43.105469 2.886719 C 43.90625 2.886719 44.636719 3.125 45.25 3.574219 C 45.792969 4 46.050781 4.523438 46.050781 5.183594 L 46.050781 5.636719 C 46.050781 5.777344 46.167969 5.871094 46.285156 5.871094 L 48.855469 5.871094 C 48.996094 5.871094 49.089844 5.753906 49.089844 5.636719 L 49.089844 5.183594 C 49.089844 3.714844 48.5 2.507812 47.324219 1.511719 C 46.214844 0.539062 44.824219 0.0664062 43.105469 0.0664062 C 41.855469 0.0664062 40.722656 0.351562 39.710938 0.921875 C 38.652344 1.511719 37.921875 2.292969 37.496094 3.289062 C 37.023438 4.425781 37.023438 5.539062 37.496094 6.582031 C 38.039062 7.816406 39.097656 8.785156 40.699219 9.546875 L 41.667969 9.925781 C 42.019531 10.042969 42.421875 10.160156 42.84375 10.304688 C 43.671875 10.539062 44.234375 10.730469 44.519531 10.847656 C 45.816406 11.417969 46.476562 12.105469 46.476562 12.886719 C 46.476562 13.476562 46.167969 13.976562 45.53125 14.402344 C 44.824219 14.875 44 15.113281 43.082031 15.113281 C 42.210938 15.113281 41.40625 14.875 40.699219 14.378906 C 40.042969 13.90625 39.734375 13.359375 39.734375 12.742188 L 39.734375 12.339844 C 39.734375 12.199219 39.617188 12.105469 39.5 12.105469 L 37 12.105469 C 36.859375 12.105469 36.765625 12.222656 36.765625 12.339844 L 36.765625 12.742188 C 36.765625 13.527344 36.953125 14.238281 37.308594 14.875 C 37.636719 15.515625 38.132812 16.0625 38.816406 16.535156 C 40.089844 17.433594 41.550781 17.910156 43.152344 17.910156 C 44.777344 17.910156 46.238281 17.460938 47.511719 16.535156 C 48.195312 16.039062 48.691406 15.492188 49.019531 14.875 C 49.375 14.214844 49.5625 13.503906 49.5625 12.742188 C 49.539062 12.03125 49.375 11.347656 49.019531 10.730469 Z M 35.042969 7.746094 C 35.070312 6.347656 34.832031 4.140625 32.710938 2.105469 C 31.320312 0.753906 29.460938 0.0664062 27.171875 0.0664062 C 24.886719 0.0664062 23.027344 0.753906 21.636719 2.082031 C 19.5625 4.09375 19.277344 6.347656 19.300781 7.71875 C 19.300781 7.816406 19.300781 16.109375 19.277344 17.671875 C 19.277344 17.816406 19.394531 17.933594 19.539062 17.933594 L 22.320312 17.933594 C 22.460938 17.933594 22.578125 17.816406 22.578125 17.671875 C 22.578125 16.085938 22.554688 10.136719 22.578125 8.171875 C 22.578125 6.652344 23.074219 5.257812 23.898438 4.425781 C 23.898438 4.425781 25.21875 2.980469 27.171875 3.027344 C 28.632812 3.078125 29.601562 3.597656 30.472656 4.449219 C 31.203125 5.136719 31.769531 6.75 31.792969 8.242188 C 31.792969 9.734375 31.792969 17.625 31.792969 17.625 C 31.792969 17.765625 31.910156 17.886719 32.050781 17.886719 L 34.832031 17.910156 C 34.972656 17.910156 35.09375 17.789062 35.09375 17.648438 Z M 16.589844 4.378906 C 15.8125 3.050781 14.777344 1.984375 13.433594 1.226562 C 12.113281 0.46875 10.582031 0.0898438 8.863281 0.0898438 C 7.117188 0.0898438 5.585938 0.46875 4.265625 1.226562 C 2.945312 1.984375 1.910156 3.050781 1.132812 4.378906 C 0.378906 5.730469 0 7.269531 0 9.046875 C 0 10.777344 0.378906 12.316406 1.132812 13.667969 C 1.886719 15.019531 2.945312 16.0625 4.265625 16.820312 C 5.585938 17.578125 7.117188 17.957031 8.863281 17.957031 C 10.605469 17.957031 12.136719 17.578125 13.457031 16.820312 C 14.777344 16.0625 15.835938 15.019531 16.566406 13.667969 C 17.320312 12.316406 17.699219 10.800781 17.699219 9.046875 C 17.722656 7.269531 17.34375 5.730469 16.589844 4.378906 Z M 13.859375 12.152344 C 13.386719 13.050781 12.703125 13.761719 11.855469 14.285156 C 11.007812 14.804688 10.015625 15.066406 8.886719 15.066406 C 7.777344 15.066406 6.789062 14.804688 5.914062 14.285156 C 5.066406 13.761719 4.382812 13.050781 3.886719 12.152344 C 3.394531 11.25 3.15625 10.207031 3.15625 9.023438 C 3.15625 7.839844 3.394531 6.796875 3.886719 5.894531 C 4.382812 4.996094 5.066406 4.261719 5.914062 3.761719 C 6.765625 3.242188 7.753906 2.980469 8.886719 2.980469 C 9.992188 2.980469 10.984375 3.242188 11.855469 3.761719 C 12.703125 4.285156 13.386719 4.996094 13.859375 5.894531 C 14.328125 6.796875 14.589844 7.863281 14.589844 9.023438 C 14.566406 10.207031 14.328125 11.25 13.859375 12.152344 Z M 97.945312 17.816406 L 95.449219 17.816406 C 95.257812 17.816406 95.117188 17.671875 95.140625 17.484375 C 95.402344 12.980469 96.203125 6.347656 98.324219 1.796875 C 98.347656 1.773438 98.394531 1.773438 98.394531 1.820312 L 98.394531 17.363281 C 98.371094 17.625 98.183594 17.816406 97.945312 17.816406 Z M 93.445312 6.773438 L 93.445312 17.433594 C 93.445312 17.671875 93.257812 17.886719 92.996094 17.886719 L 90.734375 17.886719 C 90.5 17.886719 90.285156 17.695312 90.285156 17.433594 L 90.285156 6.773438 C 90.285156 5.777344 89.933594 4.925781 89.226562 4.214844 C 88.542969 3.527344 87.695312 3.171875 86.703125 3.171875 C 85.714844 3.171875 84.867188 3.527344 84.183594 4.238281 C 83.476562 4.925781 83.121094 5.777344 83.121094 6.773438 L 83.121094 17.433594 C 83.121094 17.671875 82.933594 17.886719 82.675781 17.886719 L 80.460938 17.886719 C 80.222656 17.886719 80.011719 17.695312 80.011719 17.433594 L 80.011719 6.773438 C 80.011719 5.824219 79.65625 4.949219 78.949219 4.214844 C 78.21875 3.527344 77.371094 3.171875 76.382812 3.171875 C 75.390625 3.171875 74.542969 3.527344 73.859375 4.214844 C 73.152344 4.972656 72.800781 5.824219 72.800781 6.773438 L 72.800781 17.433594 C 72.800781 17.671875 72.613281 17.886719 72.351562 17.886719 L 70.113281 17.886719 C 69.878906 17.886719 69.664062 17.695312 69.664062 17.433594 L 69.664062 6.773438 C 69.664062 4.925781 70.324219 3.335938 71.644531 2.011719 C 72.964844 0.683594 74.519531 0.0429688 76.382812 0.0429688 C 77.558594 0.0429688 78.691406 0.375 79.730469 1.039062 C 80.269531 1.394531 80.789062 1.820312 81.238281 2.292969 C 81.402344 2.484375 81.707031 2.484375 81.875 2.292969 C 82.039062 2.105469 82.226562 1.9375 82.390625 1.773438 C 82.675781 1.511719 83.003906 1.25 83.359375 1.015625 C 84.394531 0.351562 85.527344 0.0195312 86.703125 0.0195312 C 88.589844 0.0195312 90.167969 0.683594 91.488281 1.984375 C 92.785156 3.359375 93.445312 4.949219 93.445312 6.773438 Z M 99.691406 17.886719 L 99.691406 16.726562 L 99.289062 16.726562 L 99.289062 16.464844 L 100.398438 16.464844 L 100.398438 16.726562 L 99.996094 16.726562 L 99.996094 17.886719 Z M 100.585938 17.886719 L 100.585938 16.441406 L 101.035156 16.441406 L 101.292969 17.316406 L 101.550781 16.441406 L 102 16.441406 L 102 17.886719 L 101.71875 17.886719 L 101.71875 16.75 L 101.433594 17.695312 L 101.152344 17.695312 L 100.84375 16.726562 L 100.84375 17.886719 Z M 100.585938 17.886719 "/>
</g>
</svg>
