<?xml version="1.0" encoding="UTF-8" standalone="no"?>
<!-- Created with Inkscape (http://www.inkscape.org/) -->

<svg
   width="256mm"
   height="45.019608mm"
   viewBox="0 0 256 45.019608"
   version="1.1"
   id="svg5"
   inkscape:version="1.1.1 (3bf5ae0d25, 2021-09-20)"
   sodipodi:docname="onsemi256-logo.svg"
   xmlns:inkscape="http://www.inkscape.org/namespaces/inkscape"
   xmlns:sodipodi="http://sodipodi.sourceforge.net/DTD/sodipodi-0.dtd"
   xmlns="http://www.w3.org/2000/svg"
   xmlns:svg="http://www.w3.org/2000/svg">
  <sodipodi:namedview
     id="namedview7"
     pagecolor="#505050"
     bordercolor="#ffffff"
     borderopacity="1"
     inkscape:pageshadow="0"
     inkscape:pageopacity="0"
     inkscape:pagecheckerboard="1"
     inkscape:document-units="mm"
     showgrid="false"
     inkscape:zoom="0.74118967"
     inkscape:cx="480.3089"
     inkscape:cy="176.74288"
     inkscape:window-width="1920"
     inkscape:window-height="1018"
     inkscape:window-x="-6"
     inkscape:window-y="-6"
     inkscape:window-maximized="1"
     inkscape:current-layer="layer1" />
  <defs
     id="defs2" />
  <g
     inkscape:label="Layer 1"
     inkscape:groupmode="layer"
     id="layer1"
     transform="translate(22.061055,-101.8626)">
    <g
       id="surface1"
       transform="matrix(2.5098039,0,0,2.5098039,-22.061055,101.81358)">
      <path
         style="fill:#d97d38;fill-opacity:1;fill-rule:nonzero;stroke:none"
         d="m 95.09375,0.46875 c 0,1.210938 0,5.734375 0,6.066406 0.613281,-1.988281 2.898438,-6.207031 3.019531,-6.4453122 H 95.496094 C 95.285156,0.0664062 95.09375,0.257812 95.09375,0.46875 Z m 0,0"
         id="path9" />
      <path
         style="fill:#384c51;fill-opacity:1;fill-rule:nonzero;stroke:none"
         d="M 65.566406,2.769531 C 63.914062,1.015625 61.933594,0.160156 59.625,0.160156 c -2.355469,0 -4.335938,0.878906 -5.984375,2.609375 -1.652344,1.753907 -2.453125,3.835938 -2.453125,6.300781 0,2.464844 0.824219,4.527344 2.453125,6.234376 1.625,1.75 3.605469,2.605468 5.984375,2.605468 1.769531,0 3.371094,-0.523437 4.785156,-1.566406 1.414063,-1.039062 2.425782,-2.390625 3.039063,-4.050781 l 0.1875,-0.519531 c 0.07422,-0.191407 -0.07031,-0.378907 -0.257813,-0.378907 h -2.570312 c -0.117188,0 -0.210938,0.07031 -0.257813,0.164063 l -0.09375,0.214844 c -0.472656,0.992187 -1.15625,1.777343 -2.003906,2.320312 -0.847656,0.570312 -1.789063,0.855469 -2.828125,0.855469 -1.53125,0 -2.804688,-0.570313 -3.863281,-1.730469 -0.875,-0.949219 -1.414063,-2.039062 -1.582031,-3.292969 -0.02344,-0.167969 0.121093,-0.308593 0.285156,-0.308593 h 13.292968 c 0.140626,0 0.28125,-0.121094 0.28125,-0.285157 V 8.953125 c 0,-2.371094 -0.824218,-4.457031 -2.472656,-6.183594 z m -1.296875,3.957031 h -9.308593 c -0.214844,0 -0.332032,-0.214843 -0.238282,-0.402343 0.378906,-0.761719 0.898438,-1.421875 1.53125,-1.992188 0.992188,-0.828125 2.097656,-1.230469 3.347656,-1.230469 1.25,0 2.382813,0.402344 3.371094,1.230469 0.660156,0.570313 1.15625,1.230469 1.53125,1.992188 0.09375,0.1875 -0.04687,0.402343 -0.234375,0.402343 z m -15.25,4.003907 C 48.714844,10.136719 48.21875,9.59375 47.535156,9.09375 47.371094,8.976562 47.207031,8.859375 47.015625,8.761719 46.828125,8.644531 46.640625,8.550781 46.40625,8.453125 45.980469,8.265625 45.625,8.125 45.367188,8.027344 L 44,7.578125 C 42.5625,7.175781 41.503906,6.703125 40.84375,6.15625 40.113281,5.5625 39.945312,4.878906 40.371094,4.070312 c 0.1875,-0.355468 0.542968,-0.640624 1.011718,-0.851562 0.542969,-0.214844 1.109376,-0.332031 1.722657,-0.332031 0.800781,0 1.53125,0.238281 2.144531,0.6875 C 45.792969,4 46.050781,4.523438 46.050781,5.183594 v 0.453125 c 0,0.140625 0.117188,0.234375 0.234375,0.234375 h 2.570313 c 0.140625,0 0.234375,-0.117188 0.234375,-0.234375 V 5.183594 c 0,-1.46875 -0.589844,-2.675782 -1.765625,-3.671875 -1.109375,-0.972657 -2.5,-1.4453128 -4.21875,-1.4453128 -1.25,0 -2.382813,0.2851558 -3.394531,0.8554688 -1.058594,0.589844 -1.789063,1.371094 -2.214844,2.367187 -0.472656,1.136719 -0.472656,2.25 0,3.292969 0.542968,1.234375 1.601562,2.203125 3.203125,2.964844 l 0.96875,0.378906 c 0.351562,0.117188 0.753906,0.234375 1.175781,0.378907 0.828125,0.234374 1.390625,0.425781 1.675781,0.542968 1.296875,0.570313 1.957031,1.257813 1.957031,2.039063 0,0.589843 -0.308593,1.089843 -0.945312,1.515625 C 44.824219,14.875 44,15.113281 43.082031,15.113281 c -0.871093,0 -1.675781,-0.238281 -2.382812,-0.734375 -0.65625,-0.472656 -0.964844,-1.019531 -0.964844,-1.636718 v -0.402344 c 0,-0.140625 -0.117187,-0.234375 -0.234375,-0.234375 H 37 c -0.140625,0 -0.234375,0.117187 -0.234375,0.234375 v 0.402344 c 0,0.785156 0.1875,1.496093 0.542969,2.132812 0.328125,0.640625 0.824218,1.1875 1.507812,1.660156 1.273438,0.898438 2.734375,1.375 4.335938,1.375 1.625,0 3.085937,-0.449218 4.359375,-1.375 C 48.195312,16.039062 48.691406,15.492188 49.019531,14.875 49.375,14.214844 49.5625,13.503906 49.5625,12.742188 49.539062,12.03125 49.375,11.347656 49.019531,10.730469 Z M 35.042969,7.746094 c 0.02734,-1.398438 -0.210938,-3.605469 -2.332031,-5.640625 -1.390626,-1.351563 -3.25,-2.0390628 -5.539063,-2.0390628 -2.285156,0 -4.144531,0.6874998 -5.535156,2.0156248 -2.074219,2.011719 -2.359375,4.265625 -2.335938,5.636719 0,0.097656 0,8.390625 -0.02344,9.953125 0,0.144531 0.117187,0.261719 0.261718,0.261719 h 2.78125 c 0.140626,0 0.257813,-0.117188 0.257813,-0.261719 0,-1.585937 -0.02344,-7.535156 0,-9.5 0,-1.519531 0.496094,-2.914063 1.320313,-3.746094 0,0 1.320312,-1.445312 3.273437,-1.398437 1.460937,0.050781 2.429687,0.570312 3.300781,1.421875 0.730469,0.6875 1.296875,2.300781 1.320313,3.792969 0,1.492187 0,9.382812 0,9.382812 0,0.140625 0.117187,0.261719 0.257812,0.261719 l 2.78125,0.02344 c 0.140625,0 0.261719,-0.121094 0.261719,-0.261718 z M 16.589844,4.378906 C 15.8125,3.050781 14.777344,1.984375 13.433594,1.226562 12.113281,0.46875 10.582031,0.0898438 8.863281,0.0898438 7.117188,0.0898438 5.585938,0.46875 4.265625,1.226562 2.945312,1.984375 1.910156,3.050781 1.132812,4.378906 0.378906,5.730469 0,7.269531 0,9.046875 c 0,1.730469 0.378906,3.269531 1.132812,4.621094 0.753907,1.351562 1.8125,2.394531 3.132813,3.152343 1.320313,0.757813 2.851563,1.136719 4.597656,1.136719 1.742188,0 3.273438,-0.378906 4.59375,-1.136719 1.320313,-0.757812 2.378907,-1.800781 3.109375,-3.152343 0.753906,-1.351563 1.132813,-2.867188 1.132813,-4.621094 0.02344,-1.777344 -0.355469,-3.316406 -1.109375,-4.667969 z m -2.730469,7.773438 c -0.472656,0.898437 -1.15625,1.609375 -2.003906,2.132812 -0.847657,0.519532 -1.839844,0.78125 -2.96875,0.78125 -1.109375,0 -2.097657,-0.261718 -2.972657,-0.78125 C 5.066406,13.761719 4.382812,13.050781 3.886719,12.152344 3.394531,11.25 3.15625,10.207031 3.15625,9.023438 3.15625,7.839844 3.394531,6.796875 3.886719,5.894531 4.382812,4.996094 5.066406,4.261719 5.914062,3.761719 6.765625,3.242188 7.753906,2.980469 8.886719,2.980469 c 1.105469,0 2.097656,0.261719 2.96875,0.78125 0.847656,0.523437 1.53125,1.234375 2.003906,2.132812 0.46875,0.902344 0.730469,1.96875 0.730469,3.128907 -0.02344,1.183593 -0.261719,2.226562 -0.730469,3.128906 z m 84.085937,5.664062 h -2.496093 c -0.191407,0 -0.332031,-0.144531 -0.308594,-0.332031 0.261719,-4.503906 1.0625,-11.136719 3.183594,-15.6875 0.02344,-0.023437 0.07031,-0.023437 0.07031,0.023437 v 15.542969 c -0.02344,0.261719 -0.210937,0.453125 -0.449219,0.453125 z m -4.5,-11.042968 v 10.660156 c 0,0.238281 -0.1875,0.453125 -0.449218,0.453125 h -2.261719 c -0.234375,0 -0.449219,-0.191407 -0.449219,-0.453125 V 6.773438 c 0,-0.996094 -0.351562,-1.847657 -1.058594,-2.558594 -0.683593,-0.6875 -1.53125,-1.042969 -2.523437,-1.042969 -0.988281,0 -1.835937,0.355469 -2.519531,1.066406 -0.707032,0.6875 -1.0625,1.539063 -1.0625,2.535157 v 10.660156 c 0,0.238281 -0.1875,0.453125 -0.445313,0.453125 h -2.214843 c -0.238282,0 -0.449219,-0.191407 -0.449219,-0.453125 V 6.773438 c 0,-0.949219 -0.355469,-1.824219 -1.0625,-2.558594 -0.730469,-0.6875 -1.578125,-1.042969 -2.566407,-1.042969 -0.992187,0 -1.839843,0.355469 -2.523437,1.042969 -0.707031,0.757812 -1.058594,1.609375 -1.058594,2.558594 v 10.660156 c 0,0.238281 -0.1875,0.453125 -0.449219,0.453125 h -2.238281 c -0.234375,0 -0.449219,-0.191407 -0.449219,-0.453125 V 6.773438 c 0,-1.847657 0.660157,-3.4375 1.980469,-4.761719 1.320313,-1.328125 2.875,-1.9687502 4.738281,-1.9687502 1.175782,0 2.308594,0.3320312 3.347657,0.9960932 0.539062,0.355469 1.058593,0.78125 1.507812,1.253907 0.164063,0.191406 0.46875,0.191406 0.636719,0 0.164062,-0.1875 0.351562,-0.355469 0.515625,-0.519531 0.285156,-0.261719 0.613281,-0.523438 0.96875,-0.757813 1.035156,-0.664063 2.167969,-0.9960938 3.34375,-0.9960938 1.886719,0 3.464844,0.6640628 4.785156,1.9648438 1.296875,1.375 1.957031,2.964844 1.957031,4.789063 z m 6.246094,11.113281 v -1.160157 h -0.402344 v -0.261718 h 1.109378 v 0.261718 h -0.402346 v 1.160157 z m 0.894534,0 v -1.445313 h 0.44922 l 0.25781,0.875 0.25781,-0.875 H 102 v 1.445313 h -0.28125 V 16.75 l -0.28516,0.945312 h -0.28125 l -0.30859,-0.96875 v 1.160157 z m 0,0"
         id="path11" />
    </g>
  </g>
</svg>
