<svg xmlns="http://www.w3.org/2000/svg" width="24" height="24" viewBox="0 0 24 24">
  <path fill-rule="evenodd" d="M6.70833333,2 C7.0535113,2 7.33333333,2.27982203 7.33333333,2.625 L7.3325,3.99875 L8.66625,3.99875 L8.66666667,2.625 C8.66666667,2.27982203 8.9464887,2 9.29166667,2 L9.375,2 C9.72017797,2 10,2.27982203 10,2.625 L10,3.99875 L11.3325,3.99875 L11.3333333,2.625 C11.3333333,2.27982203 11.6131554,2 11.9583333,2 L12.0416667,2 C12.3868446,2 12.6666667,2.27982203 12.6666667,2.625 L12.66625,3.99875 L14,3.99875 L14,2.625 C14,2.27982203 14.279822,2 14.625,2 L14.7083333,2 C15.0535113,2 15.3333333,2.27982203 15.3333333,2.625 L15.3325,3.99875 L16.66625,3.99875 L16.6666667,2.625 C16.6666667,2.27982203 16.9464887,2 17.2916667,2 L17.375,2 C17.720178,2 18,2.27982203 18,2.625 L17.99875,3.99875 L18.6666667,4 C19.3531475,4 19.9196789,4.52076606 19.9921654,5.18820259 L20,5.33333333 L19.99875,6 L21.375,6 C21.720178,6 22,6.27982203 22,6.625 L22,6.70833333 C22,7.0535113 21.720178,7.33333333 21.375,7.33333333 L19.99875,7.3325 L19.99875,8.66625 L21.375,8.66666667 C21.720178,8.66666667 22,8.9464887 22,9.29166667 L22,9.375 C22,9.72017797 21.720178,10 21.375,10 L19.99875,10 L19.99875,11.3325 L21.375,11.3333333 C21.720178,11.3333333 22,11.6131554 22,11.9583333 L22,12.0416667 C22,12.3868446 21.720178,12.6666667 21.375,12.6666667 L19.99875,12.66625 L19.99875,14 L21.375,14 C21.720178,14 22,14.279822 22,14.625 L22,14.7083333 C22,15.0535113 21.720178,15.3333333 21.375,15.3333333 L19.99875,15.3325 L19.99875,16.66625 L21.375,16.6666667 C21.720178,16.6666667 22,16.9464887 22,17.2916667 L22,17.375 C22,17.720178 21.720178,18 21.375,18 L19.99875,17.99875 L20,18.6666667 C20,19.3531475 19.4792339,19.9196789 18.8117974,19.9921654 L18.6666667,20 L17.99875,19.99875 L18,21.375 C18,21.720178 17.720178,22 17.375,22 L17.2916667,22 C16.9464887,22 16.6666667,21.720178 16.6666667,21.375 L16.66625,19.99875 L15.3325,19.99875 L15.3333333,21.375 C15.3333333,21.720178 15.0535113,22 14.7083333,22 L14.625,22 C14.279822,22 14,21.720178 14,21.375 L14,19.99875 L12.66625,19.99875 L12.6666667,21.375 C12.6666667,21.720178 12.3868446,22 12.0416667,22 L11.9583333,22 C11.6131554,22 11.3333333,21.720178 11.3333333,21.375 L11.3325,19.99875 L10,19.99875 L10,21.375 C10,21.720178 9.72017797,22 9.375,22 L9.29166667,22 C8.9464887,22 8.66666667,21.720178 8.66666667,21.375 L8.66625,19.99875 L7.3325,19.99875 L7.33333333,21.375 C7.33333333,21.720178 7.0535113,22 6.70833333,22 L6.625,22 C6.27982203,22 6,21.720178 6,21.375 L6,19.99875 L5.33333333,20 C4.64730505,20 4.08038141,19.4792339 4.00784061,18.8117974 L4,18.6666667 L3.99875,17.99875 L2.625,18 C2.27982203,18 2,17.720178 2,17.375 L2,17.2916667 C2,16.9464887 2.27982203,16.6666667 2.625,16.6666667 L3.99875,16.66625 L3.99875,15.3325 L2.625,15.3333333 C2.27982203,15.3333333 2,15.0535113 2,14.7083333 L2,14.625 C2,14.279822 2.27982203,14 2.625,14 L3.99875,14 L3.99875,12.66625 L2.625,12.6666667 C2.27982203,12.6666667 2,12.3868446 2,12.0416667 L2,11.9583333 C2,11.6131554 2.27982203,11.3333333 2.625,11.3333333 L3.99875,11.3325 L3.99875,10 L2.625,10 C2.27982203,10 2,9.72017797 2,9.375 L2,9.29166667 C2,8.9464887 2.27982203,8.66666667 2.625,8.66666667 L3.99875,8.66625 L3.99875,7.3325 L2.625,7.33333333 C2.27982203,7.33333333 2,7.0535113 2,6.70833333 L2,6.625 C2,6.27982203 2.27982203,6 2.625,6 L3.99875,6 L4,5.33333333 C4,4.64685253 4.52118842,4.08032108 5.18828707,4.00783458 L5.33333333,4 L6,3.99875 L6,2.625 C6,2.27982203 6.27982203,2 6.625,2 L6.70833333,2 Z M18.6666667,4.88872727 L5.33333333,4.88872727 C5.11909091,4.88872727 4.93974242,5.04129545 4.89825284,5.24379167 L4.88921212,5.33333333 L4.88921212,18.6666667 C4.88921212,18.8813333 5.0417803,19.0607348 5.2439517,19.1022311 L5.33333333,19.1112727 L18.6666667,19.1112727 C18.8813333,19.1112727 19.0607348,18.9587045 19.1022311,18.7562083 L19.1112727,18.6666667 L19.1112727,5.33333333 C19.1112727,5.088 18.912,4.88872727 18.6666667,4.88872727 Z M11.8433636,16.1403089 C12.1885415,16.1403089 12.4683636,16.4201309 12.4683636,16.7653089 L12.4683636,17.0345103 C12.4683636,17.3796883 12.1885415,17.6595103 11.8433636,17.6595103 L11.5741621,17.6595103 C11.2289842,17.6595103 10.9491621,17.3796883 10.9491621,17.0345103 L10.9491621,16.7653089 C10.9491621,16.4201309 11.2289842,16.1403089 11.5741621,16.1403089 L11.8433636,16.1403089 Z M11.8658186,6.6875 C12.376419,6.6875 12.8408411,6.75432237 13.2590989,6.88796913 C13.6773567,7.02161588 14.0385739,7.2146583 14.3427614,7.46710217 C14.6469488,7.71954604 14.8832338,8.02890889 15.0516233,8.39519999 C15.2200128,8.7614911 15.3042063,9.18222457 15.3042063,9.65741303 C15.3042063,9.96430558 15.2634675,10.2390198 15.1819887,10.4815639 C15.1005099,10.724108 14.9945891,10.9443744 14.864223,11.1423695 C14.7338569,11.3403647 14.5844814,11.5235075 14.4160919,11.6918035 C14.2477024,11.8600994 14.0765995,12.023443 13.9027781,12.1818391 C13.7289567,12.3303355 13.5578538,12.4813046 13.3894643,12.6347508 C13.2210748,12.7881971 13.0689834,12.9515407 12.9331854,13.1247865 C12.7973874,13.2980323 12.6887507,13.4861249 12.6072719,13.68907 C12.5257931,13.892015 12.4850543,14.122181 12.4850543,14.3795747 L12.4850543,14.6462078 C12.4850543,14.8187968 12.3451433,14.9587078 12.1725543,14.9587078 L11.4124219,14.9587078 C11.2398329,14.9587078 11.0999219,14.8187968 11.0999219,14.6462078 L11.0999219,14.2607782 C11.1216495,13.8449883 11.205843,13.4910772 11.3525048,13.1990343 C11.4991666,12.9069914 11.6784173,12.6471266 11.8902621,12.4194321 C12.031492,12.2676358 12.1775488,12.1235407 12.3284345,11.987145 L12.5583849,11.7883256 C12.7919574,11.5952803 13.0092309,11.3923383 13.2102119,11.1794935 C13.4111929,10.9666486 13.5714321,10.7315329 13.6909343,10.4741391 C13.8104366,10.2167454 13.8593231,9.90490761 13.8375954,9.53861651 C13.7941401,8.99412973 13.6013098,8.56844645 13.2590989,8.26155391 C12.916888,7.95466136 12.4524659,7.80121739 11.8658186,7.80121739 C11.4747204,7.80121739 11.1379465,7.86556486 10.8554867,7.99426173 C10.5730269,8.12295861 10.336742,8.2962018 10.1466248,8.51399651 C9.95650764,8.73179122 9.81799578,8.98918111 9.73108507,9.2861739 C9.68629186,9.43924206 9.65015607,9.66626894 9.62267772,9.96725456 C9.60803721,10.1281974 9.47307925,10.2513956 9.31147193,10.2513956 L8.5553174,10.2513956 C8.40733961,10.251476 8.28337734,10.1486648 8.2509795,10.0105702 L8.24310335,9.92349361 L8.24310335,9.92349361 L8.24424144,9.90812901 C8.29123202,9.43301561 8.36044304,9.07720159 8.45187451,8.84068695 C8.620264,8.40509752 8.86198078,8.0264374 9.17703209,7.70469521 C9.4920834,7.38295303 9.87774387,7.13298785 10.3340251,6.95479217 C10.7903063,6.7765965 11.300899,6.6875 11.8658186,6.6875 Z"/>
</svg>
