<svg xmlns="http://www.w3.org/2000/svg" width="24" height="24" viewBox="0 0 24 24">
  <path fill-rule="evenodd" d="M21,2 C21.5522847,2 22,2.44771525 22,3 L22,7 C22,7.55126452 21.5539373,7.99834552 21.0030596,7.99999542 L21.0039766,16.5010223 C21.0039766,18.9863037 18.9892579,21.0010223 16.5039766,21.0010223 L16.5039766,21.0010223 L8,21.001 L7.99327227,21.1166211 C7.93550716,21.6139598 7.51283584,22 7,22 L3,22 C2.44771525,22 2,21.5522847 2,21 L2,13 C2,12.4477153 2.44771525,12 3,12 L7,12 C7.55228475,12 8,12.4477153 8,13 L8,13.005 L11.503613,13.0059514 C12.2833091,13.0059514 12.9240617,12.4110633 12.9967464,11.6504114 L13.003613,11.5059514 L13.003,7.999 L13,8 C12.4477153,8 12,7.55228475 12,7 L12,3 C12,2.44771525 12.4477153,2 13,2 L21,2 Z M7,13 L3,13 L3,21 L6.997,21 L6.99772062,13.0059514 L7,13.005 L7,13 Z M16.034,7.999 L16.0344514,12.5315452 C16.0344514,14.4001086 14.5701738,15.9266716 12.7264866,16.0263663 L12.5344514,16.0315452 L8,16.031 L8,20.001 L16.5039766,20.0010223 C18.3081068,20.0010223 19.7934162,18.6359883 19.983439,16.8823859 L19.9987977,16.6930575 L20.0039766,16.5010223 L20.003,8 L16.034,7.999 Z M14.003,7.999 L14.003613,11.5059514 C14.003613,12.8314348 12.9720771,13.91599 11.6679887,14.0006337 L11.6679887,14.0006337 L11.503613,14.0059514 L8,14.005 L8,15.031 L12.5344514,15.0315452 C13.8599348,15.0315452 14.9444901,14.0000092 15.0291337,12.6959208 L15.0344514,12.5315452 L15.034,7.999 L14.003,7.999 Z M13,3 L13,7 L13.003,6.999 L13.003613,6.99668241 L21,6.996 L21,3 L13,3 Z"/>
</svg>
