<svg xmlns="http://www.w3.org/2000/svg" width="24" height="24" viewBox="0 0 24 24">
  <path fill-rule="evenodd" d="M17.4708292,2 C17.7469716,2 17.9708292,2.22385763 17.9708292,2.5 C17.9708292,2.56619212 17.9576863,2.63172546 17.9321627,2.69279875 L14.459,11 L17.5004867,11 C17.776629,11 18.0004867,11.2238576 18.0004867,11.5 C18.0004867,11.6326379 17.9477847,11.7598409 17.8539794,11.853614 L7.85712247,21.8470444 C7.66182685,22.0422731 7.34524437,22.0422188 7.1500157,21.8469232 C7.02736109,21.7242266 6.97707576,21.5467183 7.01715489,21.3779217 L9.243,12 L6.49989672,12 C6.22375434,12 5.99989672,11.7761424 5.99989672,11.5 C5.99989672,11.4407892 6.01041382,11.3820491 6.030958,11.3265166 L9.36049823,2.32651663 C9.43309551,2.13028069 9.62020285,2 9.82943695,2 L17.4708292,2 Z M16.72,2.999 L10.177,2.999 L7.217,10.999 L10.508131,11 L8.397,19.892 L16.293,11.999 L12.9570276,12 L16.72,2.999 Z"/>
</svg>
