<?xml version="1.0" encoding="UTF-8"?>
<svg width="24px" height="24px" viewBox="0 0 24 24" version="1.1" xmlns="http://www.w3.org/2000/svg" xmlns:xlink="http://www.w3.org/1999/xlink">
    <title>Icons/Product/Process Control</title>
    <g id="Icons/Product/Process-Control" stroke="none" stroke-width="1" fill="none" fill-rule="evenodd">
        <path d="M16.7867003,13.2799029 L17.7072052,13.6706341 C18.215586,13.8864289 18.4527738,14.4734893 18.2369789,14.98187 L18.1053957,15.2904644 C18.1627422,15.3558676 18.2180933,15.4238764 18.2712881,15.4944683 C18.3283296,15.570165 18.3818326,15.6474263 18.431825,15.7260539 L18.7671713,15.685459 C19.3153394,15.6181524 19.8142802,16.0079677 19.8815868,16.5561358 L20.0034561,17.5486819 C20.0707627,18.09685 19.6809474,18.5957909 19.1327793,18.6630974 L18.7977363,18.7047809 C18.7387409,18.8828175 18.6653042,19.0566213 18.577695,19.2242799 L18.7551719,19.4598841 C19.0875452,19.9009584 18.9994256,20.5279614 18.5583514,20.8603347 L17.7597159,21.4621497 C17.3186417,21.794523 16.6916386,21.7064034 16.3592654,21.2653292 L16.1801796,21.0300991 C16.0021274,21.0665296 15.8222334,21.0888218 15.6421936,21.0972141 L15.5182209,21.3868629 C15.31784,21.8589308 14.7973373,22.0971639 14.316964,21.9560113 L14.206985,21.9166367 L13.2864801,21.5259055 C12.8144122,21.3255246 12.5761792,20.8050219 12.7173318,20.3246486 L12.7567064,20.2146696 L12.872898,19.940685 C12.806184,19.8662947 12.7420827,19.788446 12.6808395,19.7071735 C12.623798,19.6314768 12.570295,19.5542156 12.5203026,19.4755879 L12.2265137,19.5110802 C11.7175005,19.5735792 11.2509333,19.2419272 11.1329884,18.7553354 L11.1120983,18.6404034 L10.9902289,17.6478573 C10.9277299,17.138844 11.259382,16.6722768 11.7459738,16.5543319 L11.8609057,16.5334418 L12.1542948,16.4971521 C12.2133066,16.3190139 12.2867756,16.1451119 12.3744326,15.9773619 L12.1969557,15.7417577 C11.8883234,15.3321888 11.9422588,14.7623037 12.3046872,14.4168645 L12.3937762,14.3413071 L13.1924117,13.7394921 C13.6019806,13.4308598 14.1718657,13.4847953 14.5173049,13.8472237 L14.5928622,13.9363126 L14.7715482,14.1716246 C14.9631008,14.1324084 15.1567868,14.1095565 15.3504941,14.1027722 L15.4754644,13.8096767 C15.6912592,13.3012959 16.2783195,13.0641081 16.7867003,13.2799029 Z M16.1940202,14.0532404 L16.1653692,14.1038387 L15.8533518,14.8356203 L15.3767456,14.8523127 C15.2748268,14.8558822 15.173242,14.865097 15.0724678,14.8799284 L14.9219741,14.9063844 L14.4596413,15.0010369 L14.020875,14.4214216 L13.9744029,14.3646765 C13.9025347,14.2892737 13.7913134,14.2682389 13.6975104,14.3075748 L13.6437729,14.3384688 L12.8788851,14.9132943 L12.8221401,14.9597665 C12.7467373,15.0316347 12.7257025,15.142856 12.7650833,15.2367187 L12.79601,15.2904996 L13.258646,15.9046583 L13.0391513,16.3247075 C12.993458,16.4121512 12.9525391,16.5019906 12.9165393,16.5938183 L12.8662469,16.7330001 L12.7170913,17.1832547 L11.9950288,17.2713517 L11.9226501,17.2832252 C11.8214153,17.3077635 11.7475879,17.3935666 11.7347523,17.4944703 L11.7346385,17.5564553 L11.8500081,18.5062803 L11.8618817,18.5786591 C11.88642,18.6798939 11.9722231,18.7537212 12.0739655,18.7664547 L12.1365611,18.7664941 L12.8996019,18.674312 L13.1532068,19.0731799 C13.1927752,19.1354127 13.2349881,19.1963234 13.2798161,19.2558122 L13.3537726,19.3497388 L13.4312535,19.4399464 L13.7494423,19.7947472 L13.4628166,20.4674705 L13.4369101,20.5360891 C13.4075435,20.6360302 13.4449374,20.742868 13.5259048,20.8044359 L13.5795285,20.8355269 L14.4597859,21.2105264 L14.5283862,21.2365015 C14.6283456,21.2657996 14.7351834,21.2284056 14.7972605,21.1462438 L14.8287221,21.0917505 L15.1376742,20.369917 L15.6072716,20.3480275 C15.7019695,20.3436134 15.796329,20.3343215 15.8899683,20.3201763 L16.0298397,20.2953216 L16.4914857,20.2008661 L16.958242,20.8139679 C17.0274864,20.9058584 17.1478819,20.936472 17.249903,20.8960376 L17.3083546,20.8631731 L18.1069901,20.261358 C18.1988806,20.1921136 18.2294942,20.0717182 18.1890149,19.9696373 L18.1561176,19.9111423 L17.6934815,19.2969835 L17.9129762,18.8769343 C17.9586447,18.7895382 17.999544,18.6997488 18.0355296,18.6079731 L18.0858049,18.4688706 L18.2348682,18.0190264 L19.0413773,17.9186878 C19.155579,17.9046656 19.2422889,17.8157069 19.2582823,17.7071368 L19.2590465,17.640084 L19.1371772,16.6475378 C19.123155,16.5333361 19.0341963,16.4466262 18.9248913,16.4307224 L18.8573035,16.4300234 L18.0525935,16.5274365 L17.7989208,16.1284619 C17.7593524,16.0662292 17.7171395,16.0053185 17.6723114,15.9458296 L17.6082273,15.8639743 L17.5414707,15.7849223 L17.2304679,15.4302262 L17.5466003,14.6888217 C17.592842,14.579883 17.5558829,14.4564929 17.4643428,14.3894883 L17.4141568,14.3610127 L16.493652,13.9702816 C16.3847133,13.9240398 16.2613232,13.960999 16.1940202,14.0532404 Z M16.0747597,16.2367832 C16.8373309,16.5604754 17.1931126,17.4410659 16.8694203,18.2036371 C16.5457281,18.9662083 15.6651376,19.32199 14.9025664,18.9982977 C14.1399952,18.6746055 13.7842135,17.7940149 14.1079058,17.0314438 C14.431598,16.2688726 15.3121886,15.9130909 16.0747597,16.2367832 Z M14.7982844,17.3244921 C14.6364383,17.7057777 14.8143291,18.146073 15.1956147,18.3079191 C15.5769003,18.4697652 16.0171956,18.2918744 16.1790417,17.9105888 C16.3408878,17.5293032 16.162997,17.0890079 15.7817114,16.9271618 C15.4004258,16.7653157 14.9601305,16.9432065 14.7982844,17.3244921 Z M2.5,10.6620984 C2.77614237,10.6620984 3,10.885956 3,11.1620984 C3,13.6425203 4.65599841,15.7924175 6.99886351,16.4548955 L7,15.8965771 C7,15.7861202 7.08954305,15.6965771 7.2,15.6965771 C7.24327404,15.6965771 7.28538077,15.7106127 7.32,15.7365771 L8.78666667,16.8365771 C8.87503223,16.9028513 8.89294084,17.0282116 8.82666667,17.1165771 C8.81529582,17.1317383 8.8018278,17.1452063 8.78666667,17.1565771 L7.32,18.2565771 C7.23163444,18.3228513 7.10627417,18.3049427 7.04,18.2165771 C7.01403557,18.1819579 7,18.1398512 7,18.0965771 L6.99959817,17.4773453 C6.96477245,17.4760593 6.92955152,17.471091 6.89440756,17.4621595 C4.03606441,16.7357415 2,14.1524141 2,11.1620984 C2,10.885956 2.22385763,10.6620984 2.5,10.6620984 Z M16.9002654,6.84666667 C16.9262298,6.8812859 16.9402654,6.92339262 16.9402654,6.96666667 L16.9400962,7.50055828 C17.0017748,7.49222201 17.0660527,7.4953403 17.1300752,7.51161093 C19.9884183,8.2380289 22.0244827,10.8213563 22.0244827,13.8116721 C22.0244827,14.0878144 21.8006251,14.3116721 21.5244827,14.3116721 C21.2483403,14.3116721 21.0244827,14.0878144 21.0244827,13.8116721 C21.0244827,11.30151 19.3285356,9.12984615 16.9410522,8.49568917 L16.9402654,9.16666667 C16.9402654,9.27712362 16.8507223,9.36666667 16.7402654,9.36666667 C16.6969913,9.36666667 16.6548846,9.35263109 16.6202654,9.32666667 L15.1535987,8.22666667 C15.0652331,8.1603925 15.0473245,8.03503223 15.1135987,7.94666667 L15.1321773,7.92524531 L16.6202654,6.80666667 C16.7086309,6.7403925 16.8339912,6.75830111 16.9002654,6.84666667 Z M10.1225545,2 C10.5677649,2 10.9337447,2.35232671 10.9673729,2.79804537 L10.9698929,2.86557124 L10.9698929,3.67895628 C11.4640225,3.8506309 11.9263431,4.11122003 12.3337316,4.44723032 L12.4674615,4.56200861 L13.1574658,4.1553161 C13.5409503,3.92906311 14.0274603,4.04474682 14.2762408,4.40903228 L14.3154446,4.47203239 L14.9120554,5.52706785 C15.1336083,5.9189312 15.0201019,6.41577512 14.6633602,6.66983402 L14.6016668,6.70986953 L13.9119142,7.11681913 C13.9675475,7.40577133 13.9954901,7.70166456 13.9954901,7.99987146 C13.9954901,8.23823132 13.9774457,8.47527496 13.9417437,8.70850155 L13.9116625,8.88266672 L14.6019185,9.28961632 C14.9851644,9.51611285 15.1302765,10.0042532 14.9458586,10.4062719 L14.9120554,10.472418 L14.3154446,11.5274535 C14.2024158,11.7274577 14.0196566,11.8709055 13.8008993,11.930804 C13.7278963,11.9505988 13.6536346,11.9606247 13.5801281,11.9606247 C13.4625177,11.9606247 13.3461962,11.9354519 13.2374791,11.8858961 L13.1574658,11.8441698 L12.4674615,11.4374772 C12.072339,11.7900812 11.6199192,12.0689715 11.1335085,12.2600925 L10.9701446,12.3205296 L10.9701446,13.1341717 C10.9701446,13.588827 10.625137,13.962804 10.1884601,13.9973899 L10.1223027,14 L8.92933283,14 C8.48412235,14 8.1181426,13.6476733 8.08386202,13.2015105 L8.08123923,13.1339146 L8.08123923,12.3205296 C7.5873361,12.1490863 7.12524215,11.8883121 6.71752965,11.5522625 L6.58367057,11.4374772 L5.89366625,11.8444268 C5.76301603,11.9215493 5.61801695,11.9608818 5.47125572,11.9608818 C5.39749751,11.9608818 5.32348756,11.9511129 5.25048455,11.9310611 C5.05603362,11.877818 4.89002558,11.7585606 4.77597499,11.5920664 L4.73568746,11.5274535 L4.13907664,10.472418 C3.91752377,10.0807982 4.0308043,9.58396709 4.38752221,9.32990886 L4.44921357,9.28987339 L5.13946963,8.8829238 C5.08358456,8.59371452 5.0553903,8.29807837 5.0553903,8.00012854 C5.0553903,7.76156302 5.07343463,7.52447825 5.10913662,7.29124343 L5.13921789,7.1170762 L4.44921357,6.71012661 C4.06572915,6.48387362 3.92060455,5.99597677 4.10502176,5.59376445 L4.13882491,5.527582 L4.73568746,4.47228947 C4.95700185,4.08066966 5.4352026,3.93292778 5.82889234,4.12086869 L5.89366625,4.1553161 L6.58367057,4.56226569 C6.97856651,4.20966173 7.43096365,3.93097967 7.91792269,3.73971285 L8.08149097,3.67921335 L8.08149097,2.86557124 C8.08149097,2.41116072 8.42649855,2.03719542 8.86317544,2.00261008 L8.92933283,2 L10.1225545,2 Z M10.091226,3 L8.95984706,3 C8.91965952,3 8.88560621,3.0281663 8.87509511,3.06629039 L8.87175278,3.0902141 L8.87175278,4.04790934 L8.86942508,4.11812025 L8.86268074,4.18900715 C8.85917925,4.21703006 8.85228237,4.24417896 8.84262675,4.27023535 L8.8209016,4.32027236 C8.80864639,4.34305122 8.79384464,4.36419131 8.77706225,4.38369263 L8.73877577,4.42302303 C8.72031337,4.43924682 8.70015328,4.45328559 8.67843697,4.465285 L8.63492478,4.48567513 L8.60030778,4.49897987 C8.01372876,4.6617094 7.47465858,4.98225216 7.04134929,5.42619405 C7.01890793,5.4489729 6.99392003,5.46847423 6.96695149,5.48433385 L6.92007044,5.507313 C6.89380927,5.5178011 6.86638094,5.52501168 6.8382806,5.52887188 L6.78876459,5.5336152 C6.75709203,5.5318945 6.73210413,5.52812533 6.70732844,5.52166131 L6.64623807,5.50165925 L6.58694154,5.47348271 L6.52854028,5.44143458 L5.72279987,4.96234114 C5.68956755,4.94267594 5.64839004,4.94833952 5.62078048,4.97329073 L5.60295344,4.99552617 L5.03714462,6.00435093 C5.01705084,6.04019895 5.02381508,6.08458221 5.05080573,6.11289077 L5.06937423,6.12775006 L5.87487591,6.60659767 C5.91092533,6.62773776 5.94578107,6.65256508 5.97920437,6.67788402 C6.06324011,6.73933777 6.11743362,6.83495981 6.12793809,6.94041444 C6.13223537,6.98441533 6.12960925,7.02890784 6.11862731,7.0724171 C6.04151497,7.3723114 6.00236195,7.68425063 6.00236195,7.99963128 C6.00236195,8.26203879 6.02955154,8.52205643 6.08323994,8.77484757 L6.11910478,8.92807453 L6.12459575,8.95674271 L6.13008673,9.00058996 L6.1302061,9.03340626 L6.12722187,9.07212212 C6.11805434,9.1393771 6.08994056,9.20348566 6.04556969,9.2570222 L6.00003425,9.30401785 L5.99042505,9.31277501 L5.93318764,9.35511664 L5.87487591,9.39266488 L5.06937423,9.8715125 C5.03455829,9.89240677 5.01864243,9.93429775 5.02839642,9.97271772 L5.03738335,9.99515744 L5.60319218,11.0039822 C5.62368385,11.0402399 5.66423613,11.0563545 5.70150025,11.0463511 L5.72327734,11.0371672 L6.52877902,10.5583196 L6.58855302,10.525534 L6.65817496,10.4939161 C6.77871108,10.4447531 6.91056513,10.4670646 7.00762699,10.5428956 L7.04230424,10.573806 C7.44360429,10.9838254 7.9337996,11.2882811 8.46688557,11.4602988 L8.60221769,11.5010201 L8.63480541,11.5120818 L8.66882556,11.5273223 C8.7291785,11.5587867 8.77944716,11.607871 8.814131,11.6684083 L8.83713578,11.7158624 C8.84023937,11.7234827 8.84429792,11.7306113 8.84692404,11.7384774 L8.85915935,11.7900064 L8.86363569,11.8141884 L8.86969366,11.8823714 L8.87199152,11.9518448 L8.87199152,12.9095401 C8.87199152,12.9511238 8.8993469,12.9862207 8.93651154,12.9967646 L8.95984706,13 L10.0909872,13 C10.1313737,13 10.1654602,12.9718337 10.1757005,12.9335674 L10.1788428,12.9095401 L10.1788428,11.9518448 L10.1811705,11.8816339 L10.1879148,11.8105012 L10.1930775,11.7810956 L10.2036715,11.7389691 C10.2325247,11.6513184 10.293476,11.5772127 10.3755503,11.5327511 L10.4322034,11.5072577 L10.4495716,11.5007743 C10.9897069,11.3510163 11.4903784,11.0665807 11.9059571,10.6745352 L12.0080526,10.5742976 C12.0961203,10.4847117 12.2245554,10.4467894 12.3475831,10.478831 L12.3971954,10.495391 L12.461386,10.5251653 L12.5225328,10.5588112 L13.327557,11.0371672 C13.3535794,11.0526536 13.3781694,11.0506871 13.3941648,11.0462624 C13.4048285,11.0433126 13.4182508,11.0375223 13.4304707,11.0260509 L13.4474034,11.004228 L14.0134509,9.99515744 C14.0335447,9.95930942 14.0269463,9.91492616 13.9998727,9.8866176 L13.9812213,9.87175831 L13.1757196,9.39315651 L13.1178854,9.35597699 L13.0601705,9.31326664 L13.0413102,9.29556796 L13.0050259,9.25753743 C12.9717477,9.21742632 12.9476142,9.17140385 12.9337597,9.1224434 L12.9233737,9.07261375 C12.9205088,9.04508247 12.9193151,9.02295912 12.9205088,9.00108159 L12.9259103,8.95714215 L12.9319683,8.92610801 C13.0090806,8.62670534 13.0482336,8.31525774 13.0482336,8.00012291 C13.0482336,7.74160747 13.0220388,7.4856526 12.9702017,7.23695269 L12.9360268,7.08864089 C12.921225,7.03947789 12.9162116,6.98662766 12.9226575,6.93353162 C12.9357881,6.82561884 12.9935626,6.73270077 13.0759272,6.67444261 L13.1252564,6.6393218 L13.1769133,6.60659767 L13.9814601,6.12824169 C14.016475,6.10734741 14.032424,6.06545644 14.0226755,6.02703646 L14.0136897,6.00459674 L13.4478809,4.99577198 C13.4273892,4.95992396 13.3866711,4.94336559 13.3494899,4.95349408 L13.3277957,4.96283277 L12.522294,5.44168039 C12.4838572,5.46454119 12.4437492,5.4844522 12.4043575,5.50190507 L12.380245,5.51026278 C12.3555754,5.51927599 12.3306936,5.52588569 12.3057411,5.52950918 L12.261831,5.53386102 L12.2546688,5.53238613 C12.2263386,5.53173062 12.1982206,5.52790683 12.1710221,5.52076909 L12.1247954,5.50510066 C12.096306,5.49297379 12.0693021,5.47713238 12.0445618,5.45786776 L12.0092463,5.42643986 L11.90735,5.32619389 C11.5270555,4.96675854 11.0744047,4.69743403 10.5845437,4.53951607 L10.4471842,4.49799661 L10.4239072,4.48976181 L10.3805763,4.47144859 L10.3218468,4.43285563 L10.3040907,4.41653966 L10.272428,4.38443008 L10.255985,4.36246036 L10.2327975,4.32690937 L10.204149,4.26103095 L10.1923315,4.21196013 L10.1874373,4.18581156 L10.1813794,4.11750572 L10.1790815,4.04790934 L10.1790815,3.0902141 C10.1790815,3.04883525 10.1517261,3.01377247 10.1145615,3.00323429 L10.091226,3 Z M9.52549611,5.5 C10.9038294,5.5 12.0254961,6.62166667 12.0254961,8 C12.0254961,9.37833333 10.9038294,10.5 9.52549611,10.5 C8.14716277,10.5 7.02549611,9.37833333 7.02549611,8 C7.02549611,6.62166667 8.14716277,5.5 9.52549611,5.5 Z M9.52549611,6.5 C8.69824611,6.5 8.02549611,7.17275 8.02549611,8 C8.02549611,8.82725 8.69824611,9.5 9.52549611,9.5 C10.3527461,9.5 11.0254961,8.82725 11.0254961,8 C11.0254961,7.17275 10.3527461,6.5 9.52549611,6.5 Z" id="Fill" fill="#000000"></path>
    </g>
</svg>