<svg xmlns="http://www.w3.org/2000/svg" width="24" height="24" viewBox="0 0 24 24">
  <path fill-rule="evenodd" d="M17.5,2 C17.7454599,2 17.9496084,2.17687516 17.9919443,2.41012437 L18,2.5 L18,4 L19,4 C19.5522847,4 20,4.44771525 20,5 L20,6 L21.5,6 C21.7761424,6 22,6.22385763 22,6.5 C22,6.74545989 21.8231248,6.94960837 21.5898756,6.99194433 L21.5,7 L20,7 L20,10 L21.5,10 C21.7761424,10 22,10.2238576 22,10.5 C22,10.7454599 21.8231248,10.9496084 21.5898756,10.9919443 L21.5,11 L20,11 L20,13 L21.5,13 C21.7761424,13 22,13.2238576 22,13.5 C22,13.7454599 21.8231248,13.9496084 21.5898756,13.9919443 L21.5,14 L20,14 L20,17 L21.5,17 C21.7761424,17 22,17.2238576 22,17.5 C22,17.7454599 21.8231248,17.9496084 21.5898756,17.9919443 L21.5,18 L20,18 L20,19 C20,19.5522847 19.5522847,20 19,20 L18,20 L18,21.5 C18,21.7761424 17.7761424,22 17.5,22 C17.2545401,22 17.0503916,21.8231248 17.0080557,21.5898756 L17,21.5 L17,20 L14,20 L14,21.5 C14,21.7761424 13.7761424,22 13.5,22 C13.2545401,22 13.0503916,21.8231248 13.0080557,21.5898756 L13,21.5 L13,20 L11,20 L11,21.5 C11,21.7761424 10.7761424,22 10.5,22 C10.2545401,22 10.0503916,21.8231248 10.0080557,21.5898756 L10,21.5 L10,20 L7,20 L7,21.5 C7,21.7761424 6.77614237,22 6.5,22 C6.25454011,22 6.05039163,21.8231248 6.00805567,21.5898756 L6,21.5 L6,20 L5,20 C4.44771525,20 4,19.5522847 4,19 L4,18 L2.5,18 C2.22385763,18 2,17.7761424 2,17.5 C2,17.2545401 2.17687516,17.0503916 2.41012437,17.0080557 L2.5,17 L4,17 L4,14 L2.5,14 C2.22385763,14 2,13.7761424 2,13.5 C2,13.2545401 2.17687516,13.0503916 2.41012437,13.0080557 L2.5,13 L4,13 L4,11 L2.5,11 C2.22385763,11 2,10.7761424 2,10.5 C2,10.2545401 2.17687516,10.0503916 2.41012437,10.0080557 L2.5,10 L4,10 L4,7 L2.5,7 C2.22385763,7 2,6.77614237 2,6.5 C2,6.25454011 2.17687516,6.05039163 2.41012437,6.00805567 L2.5,6 L4,6 L4,5 C4,4.44771525 4.44771525,4 5,4 L6,4 L6,2.5 C6,2.22385763 6.22385763,2 6.5,2 C6.74545989,2 6.94960837,2.17687516 6.99194433,2.41012437 L7,2.5 L7,4 L9.5,4 L9.51050629,4 L9.52,4 L10,4 L10,2.5 C10,2.22385763 10.2238576,2 10.5,2 C10.7454599,2 10.9496084,2.17687516 10.9919443,2.41012437 L11,2.5 L11,4 L11.501,4 L11.5110916,4 L11.521,4 L13,4 L13,2.5 C13,2.22385763 13.2238576,2 13.5,2 C13.7454599,2 13.9496084,2.17687516 13.9919443,2.41012437 L14,2.5 L14,4 L17,4 L17,2.5 C17,2.22385763 17.2238576,2 17.5,2 Z M19,5 L17,5 L17,7.48930581 C17,7.7347657 16.8231248,7.93891418 16.5898756,7.98125014 L16.5,7.98930581 L14.739,7.989 L13,10.146 L13,11.5846857 C13,11.7068008 12.9553747,11.8235646 12.8762881,11.9139456 L12.8106704,11.9764559 L10.3953674,13.8917702 C10.3290797,13.9443359 10.2509217,13.9789323 10.168398,13.9929452 L10.0846971,14 L5,14 L5,16.022 L7.792,16.022 L8.64644661,15.1685005 C8.72146116,15.0934859 8.81785732,15.0447689 8.92131063,15.0282826 L9,15.0220539 L11,15.0220539 L11.0753389,15.0292985 C11.2727573,14.4314487 11.8359935,14 12.5,14 C13.3284271,14 14,14.6715729 14,15.5 C14,16.3284271 13.3284271,17 12.5,17 C11.8519892,17 11.2999521,16.5890878 11.0902393,16.0136141 L11.0898756,16.0139982 L11,16.0220539 L9.206,16.022 L8.35355339,16.8756073 C8.27853884,16.9506218 8.18214268,16.9993389 8.07868937,17.0158252 L8,17.0220539 L5,17.022 L5,19 L17,19 L17,17.707 L16.1464466,16.8535534 C16.0714321,16.7785388 16.022715,16.6821427 16.0062287,16.5786894 L16,16.5 L16.0002925,14.9147505 C15.4175435,14.7089149 15,14.1532187 15,13.5 C15,12.6715729 15.6715729,12 16.5,12 C17.3284271,12 18,12.6715729 18,13.5 C18,14.1528467 17.5829319,14.7082819 17.000703,14.9143985 L17,16.293 L17.8535534,17.1464466 C17.9285679,17.2214612 17.977285,17.3178573 17.9937713,17.4213106 L18,17.5 L18,19 L19,19 L19,5 Z M12.5,15 C12.2238576,15 12,15.2238576 12,15.5 C12,15.7761424 12.2238576,16 12.5,16 C12.7761424,16 13,15.7761424 13,15.5 C13,15.2238576 12.7761424,15 12.5,15 Z M16.5,13 C16.2238576,13 16,13.2238576 16,13.5 C16,13.7761424 16.2238576,14 16.5,14 C16.7761424,14 17,13.7761424 17,13.5 C17,13.2238576 16.7761424,13 16.5,13 Z M11.011,5 L10.01,5 L10.0105063,6.5 C10.0105063,6.74545989 9.83363113,6.94960837 9.60038192,6.99194433 L9.51050629,7 L8.204,6.999 L7.84302032,7.35126813 L6.35589214,8.85788056 C6.28073072,8.93404635 6.18366209,8.98357947 6.0793567,9.00034609 L6,9.00668149 L5,9.006 L5,13 L9.91,13 L12,11.342 L12,9.97112305 C12,9.88551316 12.0219693,9.80183613 12.0631702,9.72785242 L12.1106803,9.65738723 L14.1106689,7.17556999 C14.1866019,7.08134359 14.2933954,7.01867036 14.4105245,6.99737012 L14.4999886,6.98930581 L16,6.989 L16,5 L12.011,5 L12.0110916,7.59716515 C12.0110916,7.70727852 11.9747775,7.81349589 11.9089959,7.8999436 L11.8542415,7.96082455 L9.85239583,9.8503361 C9.94699413,10.0469016 10,10.2672607 10,10.5 C10,11.3284271 9.32842712,12 8.5,12 C7.67157288,12 7,11.3284271 7,10.5 C7,9.67157288 7.67157288,9 8.5,9 C8.72962051,9 8.9471904,9.05159479 9.14174897,9.14382366 L11.011,7.38 L11.011,5 Z M8.5,10 C8.22385763,10 8,10.2238576 8,10.5 C8,10.7761424 8.22385763,11 8.5,11 C8.77614237,11 9,10.7761424 9,10.5 C9,10.2238576 8.77614237,10 8.5,10 Z M9.01,5 L5,5 L5,8.006 L5.791,8.006 L7.13814039,6.64200567 L7.65094405,6.14200567 C7.72097816,6.07372016 7.80894416,6.02798473 7.90357072,6.00938485 L8,6 L9.01,5.999 L9.01,5 Z"/>
</svg>
