<?xml version="1.0" encoding="UTF-8"?>
<svg width="24px" height="24px" viewBox="0 0 24 24" version="1.1" xmlns="http://www.w3.org/2000/svg" xmlns:xlink="http://www.w3.org/1999/xlink">
    <title>Icons/General/Relay</title>
    <g id="Icons/General/Relay" stroke="none" stroke-width="1" fill="none" fill-rule="evenodd">
        <path d="M17.5,13 C18.3284271,13 19,13.6715729 19,14.5 C19,15.1498708 18.5867256,15.7032161 18.0086547,15.911558 L18.0074191,18.5226693 C18.0074191,18.7681292 17.830544,18.9722777 17.5972948,19.0146137 L17.5074191,19.0226693 L2.52228662,19.0226693 C2.27682673,19.0226693 2.07267825,18.8457942 2.03034228,18.612545 L2.02228662,18.5226693 L2.02228662,16.5969154 C2.02228662,16.320773 2.24614424,16.0969154 2.52228662,16.0969154 C2.7677465,16.0969154 2.97189499,16.2737905 3.01423095,16.5070397 L3.02228662,16.5969154 L3.022,18.022 L17.007,18.022 L17.0072694,15.9171954 C16.4208791,15.7133437 16,15.1558226 16,14.5 C16,13.6715729 16.6715729,13 17.5,13 Z M2.54460206,9.41529761 C2.66294879,9.41531145 2.76207926,9.49755646 2.78797684,9.60800337 L2.79457282,9.66532685 L2.79297824,9.711979 L2.79297824,9.711979 L2.79297824,9.76751384 C2.79333259,9.77257304 2.79386412,9.77553393 2.79457282,9.77639652 C2.79882503,9.78157207 2.84073126,9.74275208 3,9.74275208 C3.02121309,9.74275208 3.0418091,9.74539414 3.0614769,9.75036716 L3,9.74870321 C3.5661855,9.74870321 3.96946172,10.0644073 3.96946172,10.4993516 C3.96946172,10.9008386 3.62584174,11.2007246 3.1276569,11.2444852 L3,11.25 C2.6868434,11.25 2.53053828,11.3723632 2.53053828,11.5006484 C2.53053828,11.6271842 2.6826096,11.7479585 2.98727655,11.7512288 L3,11.7487032 C3.5661855,11.7487032 3.96946172,12.0644073 3.96946172,12.4993516 C3.96946172,12.9008386 3.62584174,13.2007246 3.1276569,13.2444852 L3,13.25 C2.6868434,13.25 2.53053828,13.3723632 2.53053828,13.5006484 C2.53053828,13.6271842 2.6826096,13.7479585 2.98727655,13.7512288 L3,13.7487032 C3.5661855,13.7487032 3.96946172,14.0644073 3.96946172,14.4993516 C3.96946172,14.9115554 3.60725262,15.2166617 3.08743641,15.2474391 C3.06635913,15.2523811 3.04466629,15.2553217 3.02228662,15.2553217 L2.9011569,15.2572074 C2.80942038,15.2638326 2.79794375,15.2932375 2.79544996,15.4224739 L2.79459243,15.4990154 C2.79330255,15.6403469 2.68035676,15.7512494 2.54229132,15.7499891 C2.42394952,15.7489089 2.32556416,15.665774 2.30066283,15.5550982 L2.29458365,15.4977177 C2.29879149,15.0294354 2.44528146,14.7822752 2.93658647,14.7574079 C2.95746842,14.7527356 2.97841475,14.75 3,14.75 C3.3131566,14.75 3.46946172,14.6276368 3.46946172,14.4993516 C3.46946172,14.3729615 3.3177406,14.2523198 3.01377584,14.2487829 L3,14.2512968 C2.4338145,14.2512968 2.03053828,13.9355927 2.03053828,13.5006484 C2.03053828,13.0657041 2.4338145,12.75 3,12.75 C3.3131566,12.75 3.46946172,12.6276368 3.46946172,12.4993516 C3.46946172,12.3729615 3.3177406,12.2523198 3.01377584,12.2487829 L3,12.2512968 C2.4338145,12.2512968 2.03053828,11.9355927 2.03053828,11.5006484 C2.03053828,11.0657041 2.4338145,10.75 3,10.75 C3.3131566,10.75 3.46946172,10.6276368 3.46946172,10.4993516 C3.46946172,10.3710664 3.3131566,10.2487032 3,10.2487032 L2.95353828,10.2422976 L2.88107505,10.2442163 C2.65740379,10.2488028 2.51622345,10.2557145 2.41107992,10.12774 C2.32582599,10.0239739 2.3017296,9.93962683 2.29608593,9.77639652 L2.29457242,9.66820593 C2.29458897,9.52719719 2.40653087,9.41528147 2.54460206,9.41529761 Z M17.5,14 C17.2238576,14 17,14.2238576 17,14.5 C17,14.7665967 17.2086485,14.9844609 17.4715575,14.9992046 L17.5074191,14.9946778 L17.5352866,14.9959748 L17.5898756,14.9919443 C17.8231248,14.9496084 18,14.7454599 18,14.5 C18,14.2238576 17.7761424,14 17.5,14 Z M14.2843055,9.58859116 L14.3535534,9.64644661 L16.3535534,11.6464466 C16.5271197,11.820013 16.5464049,12.0894374 16.4114088,12.2843055 L16.3535534,12.3535534 L14.3535534,14.3535534 C14.1582912,14.5488155 13.8417088,14.5488155 13.6464466,14.3535534 C13.4728803,14.179987 13.4535951,13.9105626 13.5885912,13.7156945 L13.6464466,13.6464466 L14.7922866,12.4999748 L5.51317516,12.5 C5.23703278,12.5 5.01317516,12.2761424 5.01317516,12 C5.01317516,11.7545401 5.19005032,11.5503916 5.42329952,11.5080557 L5.51317516,11.5 L14.7922866,11.4999748 L13.6464466,10.3535534 C13.4728803,10.179987 13.4535951,9.91056264 13.5885912,9.7156945 L13.6464466,9.64644661 C13.820013,9.47288026 14.0894374,9.45359511 14.2843055,9.58859116 Z M17.5133991,5.00197484 C17.758859,5.00197484 17.9630075,5.17885 18.0053435,5.41209921 L18.0133991,5.50197484 L18.013,7.753 L19.8385118,9.15335891 C20.0380479,9.05515817 20.2625825,9 20.5,9 C21.3284271,9 22,9.67157288 22,10.5 C22,11.3284271 21.3284271,12 20.5,12 C19.6715729,12 19,11.3284271 19,10.5 C19,10.2768429 19.0487311,10.0650676 19.1361322,9.87473497 L17.2090972,8.39673712 C17.1104019,8.32103666 17.0443723,8.21205223 17.0219083,8.09188084 L17.0133991,8 L17.013,6.001 L3.022,6.001 L3.02228662,8.45555556 C3.02228662,8.70101544 2.84541145,8.90516393 2.61216225,8.94749989 L2.52228662,8.95555556 C2.27682673,8.95555556 2.07267825,8.77868039 2.03034228,8.54543119 L2.02228662,8.45555556 L2.02228662,5.50197484 C2.02228662,5.25651496 2.19916178,5.05236647 2.43241098,5.01003051 L2.52228662,5.00197484 L17.5133991,5.00197484 Z M20.5,10 C20.2238576,10 20,10.2238576 20,10.5 C20,10.7761424 20.2238576,11 20.5,11 C20.7761424,11 21,10.7761424 21,10.5 C21,10.2238576 20.7761424,10 20.5,10 Z" id="Combined-Shape" fill="#000000" fill-rule="nonzero"></path>
    </g>
</svg>