<svg xmlns="http://www.w3.org/2000/svg" width="24" height="24" viewBox="0 0 24 24">
  <path fill-rule="evenodd" d="M16,8.5 L16.0328262,8.50107134 C16.0361659,8.50128967 16.0395039,8.50154137 16.0428396,8.50182645 L16.1590987,8.50524608 C17.4580239,8.59174485 18.3458573,9.74186586 18.481808,11.5069906 L21.5,11.5071471 C21.7761424,11.5071471 22,11.7310047 22,12.0071471 C22,12.252607 21.8231248,12.4567555 21.5898756,12.4990914 L21.5,12.5071471 L18.4792367,12.5083938 C18.3286204,14.3448657 17.3706286,15.5537987 16,15.5537987 L16,15.5537987 C15.8967764,15.5538165 15.7935293,15.5219707 15.706399,15.4586262 L15.6384866,15.3992087 L14.786,14.507 L9.213,14.507 L8.3615134,15.3992087 L8.29360105,15.4586262 C8.20675264,15.5217657 8.10389173,15.5536101 8.0008497,15.5537987 L8,15.5537987 C6.62937139,15.5537987 5.67137963,14.3448657 5.52076331,12.5083938 L2.5,12.5071471 C2.22385763,12.5071471 2,12.2832895 2,12.0071471 C2,11.7616872 2.17687516,11.5575387 2.41012437,11.5152028 L2.5,11.5071471 L5.51819195,11.5069906 C5.65414274,9.74186586 6.54197609,8.59174485 7.84090134,8.50524608 L7.95716043,8.50182645 C7.96082969,8.50151287 7.96450173,8.50123966 7.96817582,8.50100684 L8,8.5 C8.1003022,8.50005695 8.20029588,8.52994283 8.28576865,8.58960612 L8.35481008,8.64770778 L9.208,9.50699998 L14.791,9.50699998 L15.6451899,8.64770778 L15.7142314,8.58960612 C15.79999,8.52974329 15.9003668,8.49985738 16.0007286,8.50000049 L16,8.5 Z M15,13.5071776 C15.1038917,13.5073663 15.2067526,13.5392106 15.293601,13.6023501 L15.3615134,13.6617676 L16.1964791,14.5366789 C16.9485453,14.4032221 17.5,13.4946122 17.5,11.9904827 C17.5,10.4964905 16.9601879,9.63669001 16.1930503,9.51499154 L15.3548101,10.3594393 L15.2857686,10.417541 C15.2002959,10.4772043 15.1003022,10.5070901 15.000275,10.507147 L15,10.5071471 L14,10.507 L14,13.5071471 L15,13.5071776 Z M6.5,11.9904827 C6.5,13.4946122 7.05145471,14.4032221 7.80352093,14.5366789 L8.6384866,13.6617676 L8.70639895,13.6023501 C8.79352934,13.5390056 8.89677637,13.5071598 9.00015397,13.5071768 L9,13.5071776 L10,13.507 L10,10.507 L9,10.5071471 C8.90036682,10.5072897 8.79998998,10.4774038 8.71423135,10.417541 L8.64518992,10.3594393 L7.80694974,9.51499154 C7.03981209,9.63669001 6.5,10.4964905 6.5,11.9904827 Z M13,10.507 L11,10.507 L11,13.507 L13,13.5071471 L13,10.507 Z"/>
</svg>
