<svg xmlns="http://www.w3.org/2000/svg" width="24" height="24" viewBox="0 0 24 24">
  <path fill-rule="evenodd" d="M13.1508923,4.30027902 L13.2688409,4.49642824 L14.73,7.028 L15.632,6.502 L15.1204486,5.61548366 C14.8412222,5.13184929 15.0027175,4.51585913 15.4811584,4.23963113 L18.0800402,2.739166 C18.5584812,2.462938 19.1726919,2.63107408 19.4519184,3.11470845 L19.952,3.981 L19.9602171,3.97683309 L20.4603722,4.85253058 L20.456,4.854 L20.9686709,5.74180092 C21.2478973,6.22543529 21.0864021,6.84142545 20.6079612,7.11765345 L18.0090793,8.61811858 C17.5306384,8.89434659 16.9164276,8.7262105 16.6372012,8.24257613 L16.136,7.375 L15.234,7.902 L17.0048163,10.9662661 C19.4514455,10.9142676 21.2731811,12.1483654 21.8359121,13.1230442 C22.6259723,14.4914685 20.6465541,16.8444634 17.6091671,18.7297921 L17.7935118,19.0165814 C18.4314234,18.8527075 19.1286633,19.1286433 19.4774512,19.7327616 C19.8962908,20.4582132 19.6540479,21.3821984 18.9363865,21.7965404 C18.2187251,22.2108824 17.297409,21.9586783 16.8785693,21.2332268 C16.5679593,20.6952343 16.6209218,20.0480552 16.9617335,19.5805212 L16.7425211,19.2381525 C13.4904781,21.0320651 10.1990866,21.5304245 9.38691995,20.1237106 C8.81947747,19.1408714 8.7144557,16.9738625 10.0503359,14.9016896 L8.334,11.929 L7.462,12.438 L7.97426173,13.3255637 C8.25348816,13.809198 8.0919929,14.4251882 7.61355197,14.7014162 L5.01467013,16.2018813 C4.5362292,16.4781093 3.92201844,16.3099732 3.642792,15.8263389 L3.142,14.959 L3.13449325,14.9642142 L2.63433821,14.0885167 L2.638,14.086 L2.12603946,13.1992464 C1.84681302,12.715612 2.00830829,12.0996219 2.48674922,11.8233939 L5.08563106,10.3229287 C5.56407199,10.0467007 6.17828275,10.2148368 6.45750919,10.6984712 L6.958,11.565 L7.83,11.056 L6.34317528,8.48065235 L6.24065957,8.2923907 C5.08723406,6.04962798 5.52252348,3.71458174 7.53968002,2.54997587 C9.56716092,1.37940922 11.8248689,2.18228797 13.1508923,4.30027902 Z M17.9252182,20.0451454 C17.6859977,20.1832595 17.6052501,20.4912545 17.7448633,20.7330717 C17.8844765,20.9748889 18.1915819,21.0589569 18.4308023,20.9208429 C18.6700228,20.7827289 18.7507704,20.4747339 18.6111572,20.2329167 C18.471544,19.9910995 18.1644386,19.9070314 17.9252182,20.0451454 Z M11.9719807,18.7990175 C11.684765,19.1447754 11.4526965,19.470583 11.2713791,19.7656878 L11.1772833,19.9278036 C11.4405137,19.93724 11.7562815,19.9194452 12.1221541,19.8657594 C13.3105743,19.6913783 14.7628473,19.1678586 16.1962338,18.3845283 L14.868317,16.3064201 C13.6674373,17.0588233 12.7107198,17.9097035 11.9719807,18.7990175 Z M13.5505865,13.0195276 C12.5877824,13.5754028 11.8229364,14.2557625 11.2494281,14.9778294 L11.2554471,14.9886372 L11.2280308,15.0049015 C9.94617913,16.634675 9.63590207,18.4710687 10.2214003,19.5663046 C10.3943823,19.2295653 10.7112765,18.7362496 11.1996601,18.1483202 C12.1007864,17.0635203 13.2921527,16.0380284 14.8096443,15.1619042 C16.3270188,14.2858476 17.8127822,13.7656367 19.2061981,13.5255321 C19.8855845,13.4084646 20.4291893,13.3732946 20.8069642,13.3806335 C19.692942,11.9252978 16.5467689,11.2896808 13.5505865,13.0195276 Z M20.6899481,14.3915149 L20.5765068,14.3939181 C20.2287677,14.4041304 19.8290623,14.4429641 19.3845998,14.5195511 C18.2316617,14.718218 17.0028844,15.1279101 15.7387554,15.8023802 L17.0645512,17.8776996 C18.4061613,17.0462268 19.5257572,16.1221173 20.2401608,15.2623465 C20.5150603,14.9315103 20.7087972,14.6388474 20.8332784,14.3920741 L20.6899481,14.3915149 Z M4.867,13.953 L4.006,14.455 L4.50908595,15.3261838 L5.368,14.83 L4.867,13.953 Z M6.598,12.943 L5.733,13.447 L6.236,14.328 L7.10796779,13.8257187 L6.598,12.943 Z M8.0452642,3.42567336 C6.58480285,4.26887111 6.23124792,5.91577781 7.03126754,7.633705 L7.1249082,7.82484084 L7.21553582,7.99130555 L8.693,10.552 L8.69839583,10.5494275 L9.18,11.394 L10.70436,14.0340992 C11.2949002,13.3570313 12.0628317,12.7108866 13.0450023,12.1438301 C14.0465879,11.5655643 15.0107432,11.2297971 15.9115031,11.0732437 L12.4025469,4.99658329 C11.3554545,3.18296596 9.61438077,2.51974349 8.0452642,3.42567336 Z M3.863,12.196 L2.9923334,12.6990913 L3.502,13.582 L4.366,13.077 L3.863,12.196 Z M5.59121524,11.1986262 L4.732,11.694 L5.233,12.571 L6.094,12.069 L5.59121524,11.1986262 Z M17.861,6.369 L17,6.871 L17.5034951,7.74242109 L18.362,7.246 L17.861,6.369 Z M19.592,5.358 L18.727,5.863 L19.231,6.744 L20.102377,6.24195596 L19.592,5.358 Z M16.858,4.612 L15.9867426,5.11532862 L16.496,5.998 L17.361,5.493 L16.858,4.612 Z M18.5856244,3.61486349 L17.726,4.11 L18.227,4.987 L19.088,4.485 L18.5856244,3.61486349 Z"/>
</svg>
