<?xml version="1.0" encoding="UTF-8"?>
<svg width="24px" height="24px" viewBox="0 0 24 24" version="1.1" xmlns="http://www.w3.org/2000/svg" xmlns:xlink="http://www.w3.org/1999/xlink">
    <title>Icons/Category/Sensors</title>
    <g id="Icons/Category/Sensors" stroke="none" stroke-width="1" fill="none" fill-rule="evenodd">
        <path d="M7.8456204,2.00585537 L8,2 L16,2 C17.6568542,2 19,4.01471863 19,6.5 C19,8.90761633 17.7394892,10.8736206 16.1543796,10.9941446 L16,11 L15,10.9994295 L15,21.5 C15,21.7761424 14.7761424,22 14.5,22 C14.2545401,22 14.0503916,21.8231248 14.0080557,21.5898756 L14,21.5 L14,10.9994295 L10,10.9994295 L10,21.5 C10,21.7761424 9.77614237,22 9.5,22 C9.25454011,22 9.05039163,21.8231248 9.00805567,21.5898756 L9,21.5 L9,10.9994295 L8,11 L7.8456204,10.9941446 C6.26051081,10.8736206 5,8.90761633 5,6.5 C5,4.09238367 6.26051081,2.12637945 7.8456204,2.00585537 Z M11,4.99563038 C10.6203911,4.99563038 10.5,5.08974388 10.5,5.5 C10.5,5.88004781 10.5914233,5.98348019 10.9079831,5.9980797 L11,6 L12.5,6 L12.6461726,6.00424194 C13.4588258,6.05242765 14,6.51300575 14,7.48164778 C14,8.45177753 13.4627238,8.92740294 12.6468223,8.97725598 L12.5,8.98164778 L11,8.98164778 C10.6203911,8.98164778 10.5,9.07576128 10.5,9.4860174 C10.5,9.86606521 10.5914233,9.96949759 10.9079831,9.9840971 L11,9.9860174 L11,9.9994295 L15.9620988,10.0007185 L16.0785633,9.99702283 C17.0543302,9.92283023 18,8.43501422 18,6.5 C18,4.57311878 17.0690665,3.10790134 16.1069809,3.00570071 L16,3 L13.9433346,2.99907198 C13.9804724,3.14729298 14,3.31266252 14,3.49563038 C14,4.46576013 13.4627238,4.94138554 12.6468223,4.99123858 L12.5,4.99563038 L11,4.99563038 Z M12.5,3.99563038 L12.5920169,3.99371008 C12.9085767,3.97911057 13,3.87567819 13,3.49563038 C13,3.12214607 12.9023274,3.01559614 12.5904545,3.00043146 L8.03790115,2.99928149 L7.92143672,3.00297717 C6.94566981,3.07716977 6,4.56498578 6,6.5 C6,8.3605906 6.8743249,9.8077213 7.77532744,9.98032369 L7.88352155,9.99486313 L8,10 L9.56019349,10.0008375 C9.52071732,9.84795187 9.5,9.67651866 9.5,9.4860174 C9.5,8.51894426 10.0481598,8.03670427 10.8549917,7.98610685 L11,7.98164778 L12.5,7.98164778 L12.5920169,7.97972748 C12.9085767,7.96512797 13,7.86169559 13,7.48164778 C13,7.11386367 12.9100858,7.0156325 12.5923941,7.0018147 L11,7 C10.1023442,7 9.5,6.5271962 9.5,5.5 C9.5,4.53292685 10.0481598,4.05068687 10.8549917,4.00008944 L11,3.99563038 L12.5,3.99563038 Z" id="Shape" fill="#000000"></path>
    </g>
</svg>