<svg xmlns="http://www.w3.org/2000/svg" width="24" height="24" viewBox="0 0 24 24">
  <path fill-rule="evenodd" d="M12,2.00960565 C12.2454599,2.00960565 12.4496084,2.18648082 12.4919443,2.41973002 L12.5,2.50960565 L12.5000462,4.04712891 C13.1983892,4.08797676 13.8744882,4.21375703 14.5106338,4.41398513 L14.9417836,2.80584931 L14.9728263,2.72112108 C15.0740891,2.506777 15.31706,2.38876623 15.5541561,2.45229592 C15.8208891,2.52376683 15.9791804,2.79793531 15.9077095,3.06466836 L15.9077095,3.06466836 L15.4493918,4.77656308 C15.9500382,5.0081912 16.4155208,5.2894372 16.8350655,5.61392244 L18.1477673,4.30069298 L18.2170152,4.24283753 C18.4118833,4.10784148 18.6813077,4.12712663 18.8548741,4.30069298 C19.0501362,4.49595513 19.0501362,4.81253762 18.8548741,5.00779976 L18.8548741,5.00779976 L17.5781038,6.28499382 C17.9517515,6.67994558 18.2674448,7.11789698 18.5127942,7.59151312 L20.382196,7.09110491 L20.4710941,7.07562456 C20.7073529,7.05614862 20.9310387,7.20756225 20.9945684,7.4446583 C21.0660393,7.71139135 20.9077481,7.98555983 20.641015,8.05703074 L20.641015,8.05703074 L18.8892512,8.52593217 C18.9350062,8.68120106 18.9736748,8.8392859 19.0049185,8.99998638 L21,9 C21.5522847,9 22,9.44771525 22,10 L22,21 C22,21.5522847 21.5522847,22 21,22 L3,22 C2.44771525,22 2,21.5522847 2,21 L2,10 C2,9.44771525 2.44771525,9 3,9 L5.02156812,8.99971728 C5.05236429,8.84016379 5.09042819,8.6831971 5.13543373,8.52901196 L3.37121286,8.05703074 C3.10447981,7.98555983 2.94618857,7.71139135 3.01765947,7.4446583 C3.08118917,7.20756225 3.30487497,7.05614862 3.54113375,7.07562456 L3.63003191,7.09110491 L5.50877591,7.59432286 C5.75383529,7.11748152 6.06981688,6.67682336 6.44427166,6.27978265 L5.17276605,5.00779976 C4.9775039,4.81253762 4.9775039,4.49595513 5.17276605,4.30069298 C5.3463324,4.12712663 5.6157568,4.10784148 5.81062494,4.24283753 L5.87987283,4.30069298 L7.18696299,5.60745185 C7.61489835,5.27597132 8.09083653,4.9898523 8.60338497,4.75589819 L8.14973153,3.06466836 C8.07826062,2.79793531 8.23655187,2.52376683 8.50328492,2.45229592 C8.74038097,2.38876623 8.98335192,2.506777 9.08461465,2.72112108 L9.11565736,2.80584931 L9.54170335,4.3991485 C10.1622638,4.20749817 10.8206937,4.08692422 11.500772,4.04711346 L11.5,2.50960565 C11.5,2.23346328 11.7238576,2.00960565 12,2.00960565 Z M21,10 L3,10 L3,21 L21,21 L21,10 Z M7,16 C7.55228475,16 8,16.4477153 8,17 L8,19 C8,19.5522847 7.55228475,20 7,20 L5,20 C4.44771525,20 4,19.5522847 4,19 L4,17 C4,16.4477153 4.44771525,16 5,16 L7,16 Z M13,16 C13.5522847,16 14,16.4477153 14,17 L14,19 C14,19.5522847 13.5522847,20 13,20 L11,20 C10.4477153,20 10,19.5522847 10,19 L10,17 C10,16.4477153 10.4477153,16 11,16 L13,16 Z M19,16 C19.5522847,16 20,16.4477153 20,17 L20,19 C20,19.5522847 19.5522847,20 19,20 L17,20 C16.4477153,20 16,19.5522847 16,19 L16,17 C16,16.4477153 16.4477153,16 17,16 L19,16 Z M7,17 L5,17 L5,19 L7,19 L7,17 Z M13,17 L11,17 L11,19 L13,19 L13,17 Z M19,17 L17,17 L17,19 L19,19 L19,17 Z M7,11 C7.55228475,11 8,11.4477153 8,12 L8,14 C8,14.5522847 7.55228475,15 7,15 L5,15 C4.44771525,15 4,14.5522847 4,14 L4,12 C4,11.4477153 4.44771525,11 5,11 L7,11 Z M13,11 C13.5522847,11 14,11.4477153 14,12 L14,14 C14,14.5522847 13.5522847,15 13,15 L11,15 C10.4477153,15 10,14.5522847 10,14 L10,12 C10,11.4477153 10.4477153,11 11,11 L13,11 Z M19,11 C19.5522847,11 20,11.4477153 20,12 L20,14 C20,14.5522847 19.5522847,15 19,15 L17,15 C16.4477153,15 16,14.5522847 16,14 L16,12 C16,11.4477153 16.4477153,11 17,11 L19,11 Z M7,12 L5,12 L5,14 L7,14 L7,12 Z M13,12 L11,12 L11,14 L13,14 L13,12 Z M19,12 L17,12 L17,14 L19,14 L19,12 Z M12,5.03253737 C9.10119968,5.03253737 6.61113088,6.68823025 6.04641169,9.00023954 L17.9795781,9.00015831 C17.4102345,6.69091044 14.9037968,5.03253737 12,5.03253737 Z"/>
</svg>
