<?xml version="1.0" encoding="UTF-8"?>
<svg xmlns="http://www.w3.org/2000/svg" xmlns:xlink="http://www.w3.org/1999/xlink" width="70px" height="18px" viewBox="0 0 70 18" version="1.1">
<g id="surface1">
<path style=" stroke:none;fill-rule:nonzero;fill:rgb(1.176471%,13.72549%,29.411765%);fill-opacity:1;" d="M 33.527344 0 L 9.035156 0 C 7.242188 0 5.613281 1.058594 4.886719 2.703125 L 0.0546875 14.371094 C 0.0195312 14.449219 0.0273438 14.539062 0.078125 14.609375 C 0.125 14.679688 0.203125 14.722656 0.289062 14.722656 L 11.347656 14.722656 C 12.128906 14.722656 12.476562 13.964844 11.863281 13.359375 L 7.800781 9.546875 C 5.667969 7.453125 6.582031 2.59375 11.015625 2.59375 L 32.667969 2.59375 C 32.777344 2.59375 32.871094 2.523438 32.910156 2.421875 L 33.765625 0.347656 C 33.777344 0.316406 33.785156 0.285156 33.785156 0.25 C 33.78125 0.109375 33.667969 0 33.527344 0 Z M 33.527344 0 "/>
<path style=" stroke:none;fill-rule:nonzero;fill:rgb(1.176471%,13.72549%,29.411765%);fill-opacity:1;" d="M 31.085938 5.9375 L 26.929688 5.9375 C 26.65625 5.9375 26.410156 6.097656 26.304688 6.351562 L 21.644531 17.621094 C 21.625 17.65625 21.617188 17.699219 21.617188 17.738281 C 21.617188 17.878906 21.730469 17.992188 21.871094 17.992188 L 23.421875 17.992188 C 25.246094 17.996094 26.898438 16.90625 27.613281 15.226562 L 31.3125 6.273438 C 31.324219 6.242188 31.332031 6.210938 31.332031 6.179688 C 31.328125 6.046875 31.21875 5.941406 31.085938 5.9375 Z M 31.085938 5.9375 "/>
<path style=" stroke:none;fill-rule:nonzero;fill:rgb(1.176471%,13.72549%,29.411765%);fill-opacity:1;" d="M 22.914062 6.191406 C 22.914062 6.050781 22.800781 5.9375 22.660156 5.9375 L 10.871094 5.9375 C 10.230469 5.9375 9.671875 6.71875 10.347656 7.347656 L 14.242188 10.980469 C 14.242188 10.980469 15.820312 12.433594 15.480469 14.519531 C 15.191406 16.351562 13.941406 17.476562 13.03125 17.878906 C 13 17.890625 12.984375 17.921875 12.992188 17.953125 C 13 17.980469 13.027344 18.003906 13.058594 18 L 17.597656 18 C 17.871094 18.003906 18.117188 17.839844 18.222656 17.589844 L 22.894531 6.28125 C 22.90625 6.253906 22.914062 6.222656 22.914062 6.191406 Z M 22.914062 6.191406 "/>
<path style=" stroke:none;fill-rule:nonzero;fill:rgb(1.176471%,13.72549%,29.411765%);fill-opacity:1;" d="M 44.832031 14.328125 C 44.277344 14.328125 43.824219 13.878906 43.824219 13.320312 C 43.824219 12.761719 44.277344 12.308594 44.832031 12.308594 C 45.386719 12.320312 45.824219 12.773438 45.816406 13.324219 C 45.824219 13.589844 45.722656 13.84375 45.535156 14.035156 C 45.351562 14.222656 45.097656 14.328125 44.832031 14.328125 M 45.800781 12.460938 C 45.574219 12.15625 45.210938 11.980469 44.832031 11.992188 C 44.097656 11.992188 43.5 12.589844 43.5 13.324219 C 43.5 14.0625 44.097656 14.660156 44.832031 14.660156 C 45.210938 14.667969 45.570312 14.496094 45.800781 14.191406 L 45.800781 14.609375 L 46.15625 14.609375 L 46.15625 12.054688 L 45.800781 12.054688 Z M 45.800781 12.460938 "/>
<path style=" stroke:none;fill-rule:nonzero;fill:rgb(1.176471%,13.72549%,29.411765%);fill-opacity:1;" d="M 48.726562 13.398438 C 48.726562 13.84375 48.609375 14.003906 48.472656 14.136719 C 48.332031 14.273438 48.144531 14.34375 47.953125 14.332031 C 47.738281 14.347656 47.527344 14.261719 47.378906 14.101562 C 47.25 13.910156 47.1875 13.683594 47.207031 13.453125 L 47.207031 12.054688 L 46.847656 12.054688 L 46.847656 13.460938 C 46.828125 13.753906 46.90625 14.042969 47.070312 14.28125 C 47.289062 14.539062 47.613281 14.679688 47.949219 14.664062 C 48.269531 14.683594 48.578125 14.523438 48.746094 14.246094 L 48.746094 14.597656 L 49.085938 14.597656 L 49.085938 12.054688 L 48.726562 12.054688 Z M 48.726562 13.398438 "/>
<path style=" stroke:none;fill-rule:nonzero;fill:rgb(1.176471%,13.72549%,29.411765%);fill-opacity:1;" d="M 50.820312 14.328125 C 50.40625 14.34375 50.03125 14.105469 49.863281 13.726562 C 49.699219 13.351562 49.777344 12.910156 50.0625 12.617188 C 50.347656 12.320312 50.785156 12.230469 51.167969 12.386719 C 51.546875 12.542969 51.796875 12.914062 51.792969 13.324219 C 51.792969 13.730469 51.480469 14.328125 50.820312 14.328125 M 51.773438 12.46875 C 51.554688 12.160156 51.195312 11.980469 50.816406 11.984375 C 50.097656 12.007812 49.527344 12.601562 49.527344 13.320312 C 49.527344 14.039062 50.097656 14.632812 50.816406 14.65625 C 51.128906 14.65625 51.566406 14.527344 51.773438 14.171875 L 51.773438 14.339844 C 51.773438 15.015625 51.296875 15.257812 50.886719 15.257812 C 50.476562 15.265625 50.105469 15.015625 49.964844 14.628906 L 49.964844 14.617188 L 49.589844 14.617188 L 49.589844 14.640625 C 49.84375 15.507812 50.648438 15.578125 50.890625 15.578125 C 50.957031 15.578125 51.570312 15.566406 51.898438 15.109375 C 52.078125 14.835938 52.160156 14.507812 52.132812 14.183594 L 52.132812 12.054688 L 51.773438 12.054688 Z M 51.773438 12.46875 "/>
<path style=" stroke:none;fill-rule:nonzero;fill:rgb(1.176471%,13.72549%,29.411765%);fill-opacity:1;" d="M 55.378906 11.988281 C 55.035156 11.984375 54.71875 12.15625 54.535156 12.449219 C 54.355469 12.15625 54.035156 11.984375 53.691406 11.988281 C 53.433594 11.984375 53.191406 12.097656 53.027344 12.300781 L 53.027344 12.054688 L 52.671875 12.054688 L 52.671875 14.601562 L 53.027344 14.601562 L 53.027344 13.128906 C 53.015625 12.949219 53.054688 12.769531 53.140625 12.613281 C 53.261719 12.425781 53.46875 12.316406 53.691406 12.316406 C 53.914062 12.316406 54.121094 12.425781 54.242188 12.613281 C 54.328125 12.769531 54.367188 12.949219 54.355469 13.128906 L 54.355469 14.601562 L 54.714844 14.601562 L 54.714844 13.128906 C 54.703125 12.949219 54.742188 12.769531 54.828125 12.613281 C 54.949219 12.425781 55.15625 12.316406 55.378906 12.316406 C 55.601562 12.316406 55.808594 12.425781 55.929688 12.613281 C 56.015625 12.769531 56.054688 12.949219 56.042969 13.128906 L 56.042969 14.601562 L 56.398438 14.601562 L 56.398438 13.089844 C 56.398438 12.21875 55.757812 11.992188 55.378906 11.992188 "/>
<path style=" stroke:none;fill-rule:nonzero;fill:rgb(1.176471%,13.72549%,29.411765%);fill-opacity:1;" d="M 57.191406 13.132812 C 57.265625 12.660156 57.671875 12.316406 58.148438 12.316406 C 58.621094 12.316406 59.027344 12.660156 59.101562 13.132812 Z M 58.140625 11.984375 C 57.410156 12 56.824219 12.59375 56.820312 13.324219 C 56.820312 13.972656 57.285156 14.527344 57.921875 14.632812 C 58.558594 14.742188 59.183594 14.375 59.394531 13.761719 L 59.402344 13.738281 L 59.027344 13.738281 L 59.027344 13.75 C 58.878906 14.109375 58.53125 14.339844 58.144531 14.328125 C 57.652344 14.320312 57.246094 13.949219 57.1875 13.460938 L 59.46875 13.460938 L 59.46875 13.445312 C 59.496094 13.074219 59.367188 12.707031 59.117188 12.429688 C 58.863281 12.15625 58.511719 11.996094 58.136719 11.992188 "/>
<path style=" stroke:none;fill-rule:nonzero;fill:rgb(1.176471%,13.72549%,29.411765%);fill-opacity:1;" d="M 61.066406 11.988281 C 60.769531 11.976562 60.488281 12.109375 60.308594 12.347656 L 60.308594 12.054688 L 59.949219 12.054688 L 59.949219 14.601562 L 60.308594 14.601562 L 60.308594 13.191406 C 60.289062 12.945312 60.371094 12.707031 60.535156 12.523438 C 60.679688 12.386719 60.871094 12.3125 61.066406 12.3125 C 61.265625 12.3125 61.457031 12.390625 61.601562 12.523438 C 61.765625 12.707031 61.847656 12.949219 61.832031 13.199219 L 61.832031 14.597656 L 62.191406 14.597656 L 62.191406 13.199219 C 62.214844 12.871094 62.101562 12.546875 61.878906 12.300781 C 61.667969 12.085938 61.375 11.972656 61.074219 11.988281 "/>
<path style=" stroke:none;fill-rule:nonzero;fill:rgb(1.176471%,13.72549%,29.411765%);fill-opacity:1;" d="M 63.46875 11.164062 L 63.113281 11.164062 L 63.113281 12.050781 L 62.585938 12.050781 L 62.585938 12.378906 L 63.113281 12.378906 L 63.113281 14.601562 L 63.46875 14.601562 L 63.46875 12.378906 L 64.070312 12.378906 L 64.070312 12.050781 L 63.46875 12.050781 Z M 63.46875 11.164062 "/>
<path style=" stroke:none;fill-rule:nonzero;fill:rgb(1.176471%,13.72549%,29.411765%);fill-opacity:1;" d="M 64.644531 13.132812 C 64.71875 12.660156 65.125 12.3125 65.601562 12.3125 C 66.078125 12.3125 66.480469 12.660156 66.554688 13.132812 Z M 65.59375 11.984375 C 64.867188 12 64.28125 12.59375 64.277344 13.324219 C 64.277344 13.972656 64.742188 14.523438 65.378906 14.632812 C 66.015625 14.742188 66.636719 14.371094 66.851562 13.761719 L 66.859375 13.734375 L 66.480469 13.734375 L 66.480469 13.75 C 66.335938 14.105469 65.984375 14.335938 65.601562 14.328125 C 65.109375 14.320312 64.703125 13.949219 64.644531 13.460938 L 66.925781 13.460938 L 66.925781 13.445312 C 66.953125 13.074219 66.824219 12.707031 66.570312 12.429688 C 66.320312 12.15625 65.964844 11.996094 65.59375 11.992188 "/>
<path style=" stroke:none;fill-rule:nonzero;fill:rgb(1.176471%,13.72549%,29.411765%);fill-opacity:1;" d="M 68.644531 14.332031 C 68.085938 14.332031 67.636719 13.878906 67.636719 13.320312 C 67.636719 12.761719 68.085938 12.3125 68.644531 12.3125 C 69.195312 12.320312 69.636719 12.773438 69.628906 13.324219 C 69.632812 13.589844 69.53125 13.847656 69.347656 14.035156 C 69.160156 14.226562 68.90625 14.332031 68.644531 14.332031 M 69.609375 11.164062 L 69.609375 12.457031 C 69.378906 12.15625 69.019531 11.984375 68.640625 11.984375 C 67.90625 11.984375 67.308594 12.582031 67.308594 13.320312 C 67.308594 14.058594 67.90625 14.65625 68.640625 14.65625 C 69.019531 14.660156 69.378906 14.488281 69.609375 14.1875 L 69.609375 14.601562 L 69.96875 14.601562 L 69.96875 11.164062 Z M 69.609375 11.164062 "/>
<path style=" stroke:none;fill-rule:nonzero;fill:rgb(1.176471%,13.72549%,29.411765%);fill-opacity:1;" d="M 35.71875 11.078125 L 36.058594 11.078125 L 36.058594 11.589844 L 35.71875 11.589844 Z M 35.71875 11.078125 "/>
<path style=" stroke:none;fill-rule:nonzero;fill:rgb(1.176471%,13.72549%,29.411765%);fill-opacity:1;" d="M 34.558594 11.164062 L 33.816406 11.164062 L 33.816406 11.488281 L 34.21875 11.488281 L 34.21875 14.277344 L 33.789062 14.277344 L 33.789062 14.597656 L 34.957031 14.597656 L 34.957031 14.277344 L 34.558594 14.277344 Z M 34.558594 11.164062 "/>
<path style=" stroke:none;fill-rule:nonzero;fill:rgb(1.176471%,13.72549%,29.411765%);fill-opacity:1;" d="M 36.140625 12.050781 L 35.398438 12.050781 L 35.398438 12.375 L 35.800781 12.375 L 35.800781 14.277344 L 35.386719 14.277344 L 35.386719 14.597656 L 36.542969 14.597656 L 36.542969 14.277344 L 36.140625 14.277344 Z M 36.140625 12.050781 "/>
<path style=" stroke:none;fill-rule:nonzero;fill:rgb(1.176471%,13.72549%,29.411765%);fill-opacity:1;" d="M 37.535156 11.328125 C 37.3125 11.527344 37.304688 11.757812 37.296875 12.035156 L 37.296875 12.054688 L 36.890625 12.054688 L 36.890625 12.382812 L 37.300781 12.382812 L 37.300781 14.277344 L 36.890625 14.277344 L 36.890625 14.601562 L 38.050781 14.601562 L 38.050781 14.277344 L 37.640625 14.277344 L 37.640625 12.386719 L 38.050781 12.386719 L 38.050781 12.054688 L 37.640625 12.054688 L 37.640625 12 C 37.640625 11.816406 37.648438 11.65625 37.796875 11.539062 C 37.890625 11.46875 38.007812 11.429688 38.128906 11.425781 L 38.148438 11.425781 L 38.148438 11.113281 L 38.125 11.113281 C 37.910156 11.113281 37.699219 11.1875 37.535156 11.328125 "/>
<path style=" stroke:none;fill-rule:nonzero;fill:rgb(1.176471%,13.72549%,29.411765%);fill-opacity:1;" d="M 38.875 13.183594 C 38.949219 12.722656 39.339844 12.382812 39.804688 12.371094 C 40.285156 12.359375 40.703125 12.707031 40.785156 13.183594 Z M 39.816406 12.050781 C 39.171875 12.0625 38.632812 12.542969 38.546875 13.183594 C 38.464844 13.820312 38.859375 14.425781 39.476562 14.601562 C 40.097656 14.78125 40.753906 14.476562 41.019531 13.890625 L 41.03125 13.863281 L 40.660156 13.863281 L 40.660156 13.871094 C 40.449219 14.226562 40.035156 14.40625 39.628906 14.316406 C 39.226562 14.226562 38.925781 13.886719 38.886719 13.472656 L 41.128906 13.472656 L 41.128906 13.363281 C 41.128906 13.011719 40.992188 12.675781 40.742188 12.429688 C 40.496094 12.183594 40.15625 12.046875 39.808594 12.054688 "/>
<path style=" stroke:none;fill-rule:nonzero;fill:rgb(1.176471%,13.72549%,29.411765%);fill-opacity:1;" d="M 42.277344 14.664062 C 42.519531 14.664062 42.71875 14.46875 42.71875 14.222656 C 42.71875 13.980469 42.519531 13.78125 42.277344 13.78125 C 42.035156 13.78125 41.835938 13.980469 41.835938 14.222656 C 41.835938 14.46875 42.035156 14.664062 42.277344 14.664062 "/>
</g>
</svg>
