<?xml version="1.0" encoding="UTF-8"?>
<svg xmlns="http://www.w3.org/2000/svg" xmlns:xlink="http://www.w3.org/1999/xlink" width="61px" height="33px" viewBox="0 0 61 33" version="1.1">
<g id="surface1">
<path style=" stroke:none;fill-rule:nonzero;fill:rgb(91.372549%,51.372549%,0%);fill-opacity:1;" d="M 0.953125 0.933594 L 60.046875 0.933594 L 60.046875 32.066406 L 0.953125 32.066406 Z M 0.953125 0.933594 "/>
<path style=" stroke:none;fill-rule:nonzero;fill:rgb(100%,100%,100%);fill-opacity:1;" d="M 26.164062 12.300781 L 14.285156 12.300781 C 13.324219 12.300781 12.542969 11.515625 12.542969 10.546875 C 12.542969 9.585938 13.324219 8.800781 14.285156 8.800781 L 26.164062 8.800781 C 27.128906 8.800781 27.90625 9.585938 27.90625 10.546875 C 27.90625 11.515625 27.128906 12.300781 26.164062 12.300781 Z M 25.578125 19.304688 C 25.578125 18.335938 24.796875 17.554688 23.832031 17.554688 L 11.953125 17.554688 C 10.992188 17.554688 10.210938 18.335938 10.210938 19.304688 C 10.210938 20.269531 10.992188 21.050781 11.953125 21.050781 L 23.832031 21.050781 C 24.792969 21.050781 25.574219 20.269531 25.578125 19.304688 Z M 6.710938 14.914062 C 6.710938 15.378906 6.894531 15.824219 7.222656 16.152344 C 7.550781 16.480469 7.992188 16.667969 8.457031 16.667969 L 20.335938 16.667969 C 21.296875 16.667969 22.078125 15.882812 22.078125 14.917969 C 22.078125 13.953125 21.296875 13.167969 20.335938 13.167969 L 8.457031 13.167969 C 7.996094 13.167969 7.550781 13.351562 7.226562 13.679688 C 6.898438 14.003906 6.714844 14.449219 6.710938 14.914062 Z M 31.3125 8.898438 L 30.574219 11.640625 L 34.246094 11.640625 L 31.746094 20.945312 L 34.910156 20.945312 L 37.394531 11.640625 L 41.070312 11.640625 L 41.792969 8.898438 Z M 42.710938 8.898438 L 39.496094 20.945312 L 49.140625 20.945312 L 49.84375 18.28125 L 43.300781 18.28125 L 43.890625 16.089844 L 49.738281 16.089844 L 50.398438 13.65625 L 44.542969 13.65625 L 45.117188 11.554688 L 51.640625 11.554688 L 52.363281 8.902344 L 42.714844 8.902344 Z M 28.761719 25.4375 C 29.027344 25.4375 29.277344 25.328125 29.460938 25.136719 L 29.195312 24.800781 C 29.089844 24.90625 28.945312 24.972656 28.792969 24.980469 C 28.691406 24.980469 28.59375 24.9375 28.523438 24.859375 C 28.453125 24.785156 28.421875 24.679688 28.433594 24.578125 C 28.417969 24.257812 28.648438 23.980469 28.964844 23.9375 C 29.132812 23.929688 29.289062 24.023438 29.367188 24.179688 L 29.765625 23.898438 C 29.613281 23.628906 29.320312 23.472656 29.015625 23.492188 C 28.71875 23.484375 28.429688 23.59375 28.21875 23.800781 C 28.007812 24.011719 27.886719 24.296875 27.890625 24.59375 C 27.878906 24.824219 27.972656 25.046875 28.140625 25.207031 C 28.308594 25.367188 28.535156 25.445312 28.765625 25.425781 Z M 30.65625 25.4375 C 31.234375 25.425781 31.703125 24.957031 31.714844 24.371094 C 31.730469 24.136719 31.640625 23.910156 31.46875 23.746094 C 31.300781 23.582031 31.070312 23.5 30.835938 23.523438 C 30.253906 23.539062 29.789062 24.007812 29.773438 24.589844 C 29.765625 24.824219 29.855469 25.050781 30.027344 25.210938 C 30.195312 25.371094 30.425781 25.449219 30.660156 25.425781 Z M 30.679688 24.988281 C 30.570312 24.996094 30.464844 24.957031 30.386719 24.878906 C 30.308594 24.800781 30.269531 24.695312 30.277344 24.585938 C 30.273438 24.277344 30.5 24.019531 30.804688 23.980469 C 30.914062 23.976562 31.019531 24.015625 31.09375 24.089844 C 31.171875 24.167969 31.210938 24.273438 31.207031 24.382812 C 31.207031 24.6875 30.980469 24.945312 30.683594 24.980469 Z M 31.789062 25.394531 L 32.3125 25.394531 L 32.585938 24.332031 C 32.605469 24.125 32.78125 23.964844 32.988281 23.964844 C 33.054688 23.953125 33.121094 23.972656 33.171875 24.015625 C 33.21875 24.0625 33.246094 24.125 33.242188 24.191406 C 33.242188 24.246094 33.234375 24.300781 33.21875 24.355469 L 32.949219 25.367188 L 33.472656 25.367188 L 33.738281 24.378906 C 33.773438 24.265625 33.792969 24.148438 33.796875 24.03125 C 33.800781 23.886719 33.742188 23.75 33.636719 23.65625 C 33.535156 23.558594 33.394531 23.511719 33.25 23.523438 C 33.0625 23.535156 32.882812 23.617188 32.753906 23.753906 L 32.800781 23.523438 L 32.28125 23.523438 Z M 33.910156 25.394531 L 34.429688 25.394531 L 34.722656 24.332031 C 34.742188 24.125 34.914062 23.964844 35.125 23.964844 C 35.191406 23.953125 35.257812 23.972656 35.304688 24.015625 C 35.355469 24.0625 35.378906 24.125 35.378906 24.191406 C 35.375 24.246094 35.367188 24.300781 35.351562 24.355469 L 35.085938 25.367188 L 35.601562 25.367188 L 35.867188 24.378906 C 35.902344 24.269531 35.921875 24.160156 35.929688 24.046875 C 35.933594 23.898438 35.878906 23.757812 35.769531 23.65625 C 35.664062 23.554688 35.515625 23.507812 35.371094 23.523438 C 35.179688 23.535156 35 23.617188 34.867188 23.753906 L 34.925781 23.523438 L 34.398438 23.523438 Z M 36.636719 24.65625 L 37.894531 24.65625 C 37.949219 24.527344 37.980469 24.390625 37.988281 24.253906 C 37.996094 24.050781 37.921875 23.855469 37.777344 23.71875 C 37.632812 23.578125 37.4375 23.507812 37.238281 23.523438 C 36.636719 23.53125 36.152344 24.023438 36.152344 24.625 C 36.136719 24.851562 36.222656 25.070312 36.386719 25.226562 C 36.550781 25.382812 36.773438 25.457031 37 25.433594 C 37.253906 25.4375 37.503906 25.351562 37.703125 25.191406 L 37.464844 24.867188 C 37.347656 24.957031 37.207031 25.011719 37.0625 25.011719 C 36.957031 25.03125 36.847656 25 36.765625 24.929688 C 36.683594 24.855469 36.636719 24.753906 36.640625 24.648438 Z M 36.683594 24.332031 C 36.75 24.097656 36.960938 23.9375 37.199219 23.929688 C 37.277344 23.917969 37.355469 23.9375 37.414062 23.992188 C 37.472656 24.042969 37.503906 24.121094 37.5 24.199219 C 37.507812 24.238281 37.507812 24.277344 37.5 24.320312 L 36.695312 24.320312 Z M 39.097656 25.4375 C 39.359375 25.433594 39.605469 25.328125 39.789062 25.136719 L 39.523438 24.800781 C 39.414062 24.910156 39.273438 24.972656 39.121094 24.980469 C 39.015625 24.980469 38.917969 24.9375 38.847656 24.859375 C 38.78125 24.785156 38.75 24.679688 38.761719 24.578125 C 38.746094 24.257812 38.976562 23.980469 39.289062 23.9375 C 39.457031 23.933594 39.617188 24.027344 39.691406 24.179688 L 40.09375 23.898438 C 39.941406 23.628906 39.648438 23.472656 39.339844 23.492188 C 38.746094 23.496094 38.265625 23.980469 38.261719 24.578125 C 38.25 24.800781 38.332031 25.023438 38.488281 25.183594 C 38.644531 25.34375 38.863281 25.433594 39.089844 25.425781 Z M 40.671875 25.4375 C 40.804688 25.4375 40.929688 25.410156 41.050781 25.363281 L 41.171875 24.914062 C 41.085938 24.953125 40.996094 24.972656 40.90625 24.976562 C 40.867188 24.992188 40.820312 24.988281 40.789062 24.957031 C 40.753906 24.929688 40.742188 24.886719 40.753906 24.84375 C 40.75 24.816406 40.75 24.789062 40.753906 24.761719 L 40.957031 23.988281 L 41.386719 23.988281 L 41.507812 23.542969 L 41.089844 23.542969 L 41.214844 23.070312 L 40.695312 23.070312 L 40.574219 23.523438 L 40.351562 23.523438 L 40.230469 23.972656 L 40.449219 23.972656 L 40.230469 24.824219 C 40.210938 24.898438 40.199219 24.976562 40.199219 25.054688 C 40.207031 25.167969 40.261719 25.269531 40.351562 25.339844 C 40.441406 25.40625 40.554688 25.433594 40.664062 25.417969 Z M 41.449219 25.40625 L 41.957031 25.40625 L 42.453125 23.523438 L 41.929688 23.523438 Z M 41.957031 23.339844 L 42.503906 23.339844 L 42.632812 22.875 L 42.085938 22.875 Z M 42.964844 25.398438 L 43.433594 25.398438 L 44.640625 23.542969 L 44.082031 23.542969 L 43.351562 24.75 L 43.269531 23.542969 L 42.761719 23.542969 Z M 44.488281 25.398438 L 45.007812 25.398438 L 45.511719 23.523438 L 44.996094 23.523438 Z M 45.023438 23.351562 L 45.578125 23.351562 L 45.699219 22.886719 L 45.175781 22.886719 Z M 46.167969 25.429688 C 46.296875 25.429688 46.425781 25.40625 46.546875 25.351562 L 46.664062 24.910156 C 46.582031 24.949219 46.488281 24.964844 46.398438 24.96875 C 46.363281 24.980469 46.324219 24.972656 46.296875 24.949219 C 46.273438 24.929688 46.253906 24.894531 46.253906 24.859375 C 46.253906 24.835938 46.253906 24.808594 46.253906 24.78125 L 46.460938 24.003906 L 46.890625 24.003906 L 47.011719 23.558594 L 46.582031 23.558594 L 46.703125 23.085938 L 46.1875 23.085938 L 46.089844 23.523438 L 45.871094 23.523438 L 45.746094 23.972656 L 45.976562 23.972656 L 45.757812 24.808594 C 45.734375 24.882812 45.722656 24.960938 45.71875 25.039062 C 45.726562 25.152344 45.78125 25.257812 45.867188 25.328125 C 45.953125 25.402344 46.066406 25.433594 46.179688 25.417969 Z M 47.234375 25.945312 C 47.566406 25.933594 47.859375 25.734375 47.988281 25.429688 L 49.128906 23.523438 L 48.566406 23.523438 L 47.878906 24.773438 L 47.796875 23.523438 L 47.261719 23.523438 L 47.488281 25.378906 C 47.449219 25.453125 47.371094 25.496094 47.289062 25.492188 C 47.214844 25.488281 47.148438 25.464844 47.085938 25.421875 L 46.808594 25.800781 C 46.933594 25.894531 47.082031 25.945312 47.234375 25.945312 Z M 47.234375 25.945312 "/>
</g>
</svg>
