<svg xmlns="http://www.w3.org/2000/svg" width="24" height="24" viewBox="0 0 24 24">
  <path fill-rule="evenodd" d="M20.3333333,2 C21.2186756,2 21.9444104,2.69294426 21.996954,3.56524932 L22,3.66666667 L22,20.3333333 C22,21.2186756 21.3070557,21.9444104 20.4347507,21.996954 L20.3333333,22 L3.66666667,22 C2.78190797,22 2.05563287,21.3070557 2.00304838,20.4347507 L2,20.3333333 L2,3.66666667 C2,2.78132435 2.69350626,2.05558964 3.56531177,2.00304598 L3.66666667,2 L20.3333333,2 Z M20.3333333,3.11090909 L3.66666667,3.11090909 C3.38246753,3.11090909 3.14739023,3.32568646 3.11525775,3.60190344 L3.11151515,3.66666667 L3.11151515,20.3333333 C3.11151515,20.6180952 3.32629252,20.8532127 3.60202425,20.8853481 L3.66666667,20.8890909 L20.3333333,20.8890909 C20.6180952,20.8890909 20.8532127,20.6743135 20.8853481,20.3980966 L20.8890909,20.3333333 L20.8890909,3.66666667 C20.8890909,3.38190476 20.6743135,3.14678726 20.3980966,3.11465191 L20.3333333,3.11090909 Z M12.000052,4 C16.411631,4 20.0003636,7.58873261 20.0003636,12.0003117 C20.0003636,16.4112674 16.411631,20 12.000052,20 C7.58909625,20 4.00036364,16.4112674 4.00036364,12.0003117 C4.00036364,7.58873261 7.58909625,4 12.000052,4 Z M11.1473333,14.6427273 C10.5927879,15.8039394 10.2606667,17.079697 10.183697,18.3627273 L10.1758182,18.4106061 L10.1758182,18.4106061 C10.7564242,18.5760606 11.3679394,18.6669697 12.0000606,18.6669697 C12.1649091,18.6669697 12.3279394,18.6584848 12.4891515,18.6469697 C11.9164242,17.4184848 11.5679394,16.0784848 11.4715758,14.7257576 C11.3606667,14.7045455 11.2527879,14.6766667 11.1473333,14.6427273 Z M12.904303,14.6239394 C12.7994545,14.660303 12.6927879,14.6918182 12.5830909,14.7148485 C12.683697,15.9984848 13.0333939,17.2687879 13.6085455,18.4184848 L13.6261212,18.4651515 L13.6261212,18.4651515 C14.394,18.2718182 15.1097576,17.9451515 15.7467273,17.5112121 C14.6364242,16.7336364 13.663697,15.7469697 12.904303,14.6239394 Z M9.94309091,13.860303 C8.88127273,14.5893939 7.95460606,15.5281818 7.24551515,16.6015152 L7.21642424,16.6360606 L7.21642424,16.6360606 C7.7570303,17.1942424 8.394,17.6590909 9.10066667,18.0021212 C9.21824242,16.6506061 9.58672727,15.3142424 10.1806667,14.0936364 C10.0964242,14.0209091 10.0176364,13.9427273 9.94309091,13.860303 Z M18.6473333,11.5106061 C17.4188485,12.0839394 16.0788485,12.4324242 14.7261212,12.5287879 C14.7049091,12.6390909 14.6770303,12.7475758 14.6430909,12.8524242 C15.804303,13.4075758 17.0794545,13.739697 18.3624848,13.8166667 C18.3794545,13.8178788 18.3946061,13.8221212 18.4109697,13.8245455 C18.5764242,13.2439394 18.6667273,12.6324242 18.6667273,12.000303 C18.6667273,11.8354545 18.6588485,11.6724242 18.6473333,11.5106061 Z M12.0000606,10.3336364 C11.0812727,10.3336364 10.3333939,11.0809091 10.3333939,12.000303 C10.3333939,12.9190909 11.0812727,13.6669697 12.0000606,13.6669697 C12.9194545,13.6669697 13.6667273,12.9190909 13.6667273,12.000303 C13.6667273,11.0809091 12.9194545,10.3336364 12.0000606,10.3336364 Z M5.58915152,10.1754545 C5.42369697,10.7560606 5.33339394,11.3675758 5.33339394,12.000303 C5.33339394,12.1645455 5.34127273,12.3275758 5.35339394,12.4893939 C6.58187879,11.9160606 7.92187879,11.5675758 9.274,11.4712121 C9.29581818,11.3609091 9.32369697,11.2524242 9.35763636,11.1475758 C8.19642424,10.5924242 6.92066667,10.260303 5.63763636,10.1833333 L5.58915152,10.1754545 L5.58915152,10.1754545 Z M17.5115758,8.25363636 C16.734,9.36393939 15.7473333,10.3366667 14.623697,11.0960606 C14.6600606,11.2009091 14.6915758,11.3075758 14.7152121,11.4172727 C15.9982424,11.3166667 17.2691515,10.9669697 18.4182424,10.3918182 L18.4655152,10.3742424 L18.4655152,10.3742424 C18.2721818,9.60575758 17.9455152,8.89060606 17.5115758,8.25363636 Z M7.36309091,7.21666667 C6.80551515,7.75787879 6.34066667,8.39363636 5.99824242,9.10030303 C7.34975758,9.21848485 8.68551515,9.5869697 9.90612121,10.180303 C9.97945455,10.0966667 10.0576364,10.0178788 10.1394545,9.94333333 C9.4109697,8.88090909 8.47218182,7.95484848 7.39824242,7.24575758 L7.36309091,7.21666667 L7.36309091,7.21666667 Z M14.9000606,5.99787879 C14.7824848,7.34939394 14.4133939,8.68575758 13.8200606,9.90636364 C13.903697,9.97909091 13.9824848,10.0572727 14.0570303,10.139697 C15.1194545,9.41060606 16.0455152,8.47181818 16.7546061,7.39848485 L16.7830909,7.36272727 L16.7830909,7.36272727 C16.2424848,6.80515152 15.6061212,6.34090909 14.9000606,5.99787879 Z M10.374,5.53484848 C9.60612121,5.72818182 8.89036364,6.05484848 8.254,6.48878788 C9.36430303,7.26636364 10.3364242,8.2530303 11.0964242,9.37606061 C11.2006667,9.34030303 11.3073333,9.30818182 11.4170303,9.28515152 C11.3170303,8.00151515 10.9667273,6.73121212 10.3921818,5.58151515 L10.374,5.53484848 L10.374,5.53484848 Z"/>
</svg>
