<?xml version="1.0" encoding="UTF-8"?>
<svg width="24px" height="24px" viewBox="0 0 24 24" version="1.1" xmlns="http://www.w3.org/2000/svg" xmlns:xlink="http://www.w3.org/1999/xlink">
    <title>Icons/Brand/Tools</title>
    <g id="Icons/Brand/Tools" stroke="none" stroke-width="1" fill="none" fill-rule="evenodd">
        <path d="M8.81411937,3.18175685 C9.87454295,4.24218044 10.2177144,5.74755198 9.84267916,7.09288402 L12.3305472,9.59030235 L15.915932,6.129328 C15.8662288,5.94347206 15.8702943,5.74346964 15.9338348,5.55364632 L16.3061208,4.44146464 C16.3962133,4.17231881 16.5962645,3.95374582 16.8564455,3.84018787 L20.8456411,2.09907353 C21.122306,1.97832109 21.4441451,2.03888307 21.6570158,2.25175371 C21.870717,2.46545496 21.9347577,2.78700119 21.8194298,3.06722979 L20.1504557,7.12257562 C20.0396098,7.39191359 19.8170629,7.59995755 19.5409146,7.69239405 L18.4408219,8.06063348 C18.3531769,8.08997134 18.2633618,8.10663005 18.1737711,8.11117129 L14.4445472,11.7113023 L16.8728442,14.1459483 C18.2300123,13.7495809 19.7582013,14.0882897 20.8309983,15.1610867 C22.1504158,16.4805042 22.359438,18.4887563 21.4562265,20.0204968 L19.068014,17.6319407 C18.8942604,17.458187 18.6249397,17.4384867 18.4303815,17.5731082 L18.3612593,17.6308257 L17.6556196,18.3364654 C17.4824134,18.5096716 17.4635627,18.7789315 17.5987988,18.9739154 L17.6567346,19.0432201 L20.0443986,21.4319585 C18.5127705,22.3345629 16.505042,22.1253657 15.1858806,20.8062043 C14.1149265,19.7352502 13.7755407,18.2104672 14.1687062,16.8550457 L11.6915472,14.3693023 L10.7565472,15.2733023 L10.8089672,15.3258716 C11.1983047,15.7152091 11.1977394,16.3473134 10.8077039,16.738413 L5.85936667,21.7002515 C5.4968399,22.0637659 4.92527307,22.0913378 4.53301596,21.7818232 L4.44537207,21.7039309 L2.33665063,19.5952095 C1.9473131,19.2058719 1.94787843,18.5737677 2.33791395,18.1826681 L7.28625118,13.2208296 C7.65653687,12.849535 8.24490643,12.8287169 8.63753807,13.1595937 L8.650958,13.146237 L8.650958,13.146237 L9.5785472,12.2493023 L7.16607485,9.8304305 C5.79928067,10.2447963 4.25206592,9.90993872 3.16900171,8.82687451 C1.8495842,7.507457 1.64056196,5.49920491 2.54377347,3.96746442 L4.93198598,6.35602054 C5.1057396,6.52977416 5.37506026,6.54947454 5.56961851,6.41485299 L5.63874068,6.35713554 L6.34438039,5.65149583 C6.51758664,5.47828958 6.53643734,5.20902974 6.40120123,5.01404576 L6.3432654,4.94474113 L3.95560143,2.5560027 C5.48722949,1.6533983 7.49495801,1.86259549 8.81411937,3.18175685 Z M7.99285822,13.925502 L3.04452032,18.8873398 L5.11065936,20.9559131 L5.15275962,20.9955791 L10.1010975,16.0337413 L9.47510603,15.4104191 C9.41908153,15.3724097 9.36612209,15.3280835 9.31723742,15.2774563 L8.62405922,14.55957 L8.6075472,14.5403023 L7.99285822,13.925502 Z M15.8848304,15.8600364 C14.7156882,17.0291786 14.7186834,18.9277277 15.8915203,20.1005646 C16.4846325,20.6936768 17.2735211,20.9934725 18.0631094,20.9822815 L18.1819873,20.97761 L16.8907185,19.6828483 L16.7780863,19.5417947 C16.3940795,18.9881321 16.4270881,18.2489573 16.8509496,17.7351077 L16.9477499,17.6285957 L17.7192109,16.8627875 L17.8599098,16.7505998 C18.4123635,16.3683381 19.1516462,16.4036791 19.6668773,16.8292056 L19.7737048,16.926352 L21.0031326,18.155049 L21.0070683,18.0387829 C21.0175756,17.3054549 20.7598331,16.5726906 20.2479824,15.9967746 L20.1253586,15.8667264 C18.9525217,14.6938895 17.0539725,14.6908943 15.8848304,15.8600364 Z M13.7255472,12.4053023 L12.4105472,13.6753023 L14.6025376,15.8773981 C14.7618523,15.6194571 14.9533237,15.3758038 15.1769607,15.1521667 C15.3923138,14.9368136 15.6262278,14.7512874 15.8735873,14.5955799 L13.7255472,12.4053023 Z M16.5255472,6.92730235 L9.3455472,13.8623023 L10.0505472,14.5673023 L17.2315472,7.63330235 L16.5255472,6.92730235 Z M8.82303931,8.83579445 C8.61259372,9.04624004 8.38442355,9.22820269 8.1433023,9.38168993 L10.2975472,11.5543023 L11.6125472,10.2843023 L9.42146237,8.07119397 C9.25749331,8.34372931 9.05802245,8.60081132 8.82303931,8.83579445 Z M5.93689061,3.00567973 L5.8172163,3.01023517 L7.10928154,4.30511287 L7.22191372,4.44616649 C7.60592051,4.99982906 7.57291191,5.73900394 7.14905045,6.25285348 L7.05225008,6.35936552 L6.2807891,7.12517368 L6.14009016,7.23736136 C5.58763648,7.61962312 4.84835377,7.58428207 4.33312275,7.15875564 L4.2262952,7.06160917 L2.99748449,5.83279846 L2.9929317,5.94917826 C2.9824244,6.68250632 3.24016689,7.41527061 3.75201765,7.99118655 L3.87464142,8.1212348 C5.04747833,9.29407171 6.94602747,9.29706691 8.11516962,8.12792476 C9.28431176,6.95878261 9.28131657,5.06023347 8.10847966,3.88739656 C7.51536748,3.29428438 6.72647892,2.9944887 5.93689061,3.00567973 Z M20.6559287,3.27064452 L17.2538331,4.75603903 L16.8905472,5.83630235 L18.0745472,7.06130235 L18.1262475,7.11292119 L19.2263402,6.74468176 L20.6559287,3.27064452 Z" id="Fill" fill="#000000"></path>
    </g>
</svg>