<svg xmlns="http://www.w3.org/2000/svg" width="24" height="24" viewBox="0 0 24 24">
  <path fill-rule="evenodd" d="M14.7571781,3.65672452 C17.3079763,6.35810987 14.7735192,9.86449404 10.5725022,10.9475443 L10.3458729,11.0032282 L10.139,11.049 L10.1952099,11.1627818 C10.7783425,12.2975123 11.6077434,13.3970801 12.6803954,14.3786911 L12.7755925,14.4635943 L13.7116579,12.8422706 C14.2639426,11.8856853 15.4871234,11.557935 16.4437087,12.1102198 L19.9078103,14.1102198 C20.3861029,14.3863621 20.5499781,14.9979525 20.2738357,15.4762452 L19.7738357,16.3422706 L19.7738357,16.3422706 L21.5058865,17.3422706 C21.9841791,17.6184129 22.1480543,18.2300033 21.8719119,18.708296 C21.5957695,19.1865886 20.9841791,19.3504637 20.5058865,19.0743214 L18.7738357,18.0743214 L18.2738357,18.9403468 L18.2738357,18.9403468 L20.0058865,19.9403468 C20.4841791,20.2164892 20.6480543,20.8280796 20.3719119,21.3063722 C20.0957695,21.7846648 19.4841791,21.94854 19.0058865,21.6723976 L17.2738357,20.6723976 L16.7738357,21.538423 C16.4976933,22.0167156 15.8861029,22.1805908 15.4078103,21.9044484 L11.9437087,19.9044484 C10.9871234,19.3521636 10.6593731,18.1289828 11.2116579,17.1723976 L12.2655925,15.3465943 L11.9840982,15.096961 C10.7451353,13.9582024 9.80233601,12.6669467 9.16347046,11.3306228 L9.107,11.21 L8.91583586,11.2278402 C4.97502993,11.5306509 2.04921969,9.00565765 1.9690145,3.84945266 L1.96759248,3.54311312 C1.96927739,3.26697589 2.19449675,3.04448833 2.47063398,3.04617325 C2.74677122,3.04785816 2.96925878,3.27307752 2.96757386,3.54921475 C2.93934091,8.17624588 5.2665187,10.3966114 8.59991877,10.2463478 L8.713,10.239 L8.68607032,10.1637818 C8.11808691,8.50211022 8.01164859,6.81928452 8.38113636,5.314134 L8.45128342,5.05040405 C9.37592046,1.82675851 12.2131104,0.962467097 14.7571781,3.65672452 Z M18.0238357,19.3733595 L17.5238357,20.2393849 L19.2558865,21.2393849 C19.4950328,21.3774561 19.800828,21.2955185 19.9388992,21.0563722 C20.0616291,20.8437977 20.010525,20.5785623 19.8296932,20.4252737 L19.7558865,20.3733595 L18.0238357,19.3733595 Z M14.6418202,13.2446376 L14.5776833,13.3422706 L12.0776833,17.6723976 C11.8212654,18.1165265 11.9442503,18.6755906 12.3460757,18.974286 L12.4437087,19.038423 L15.9078103,21.038423 L19.4078103,14.9762452 L15.9437087,12.9762452 C15.4995798,12.7198272 14.9405156,12.8428122 14.6418202,13.2446376 Z M19.5238357,16.7752833 L19.0238357,17.6413087 L20.7558865,18.6413087 C20.9950328,18.7793799 21.300828,18.6974423 21.4388992,18.458296 C21.5616291,18.2457215 21.510525,17.9804861 21.3296932,17.8271975 L21.2558865,17.7752833 L19.5238357,16.7752833 Z M9.41252366,5.32611623 C9.00445794,6.74879257 9.10123565,8.39168557 9.69427853,10.019397 L9.729,10.111 L9.89447532,10.0789461 L10.1182959,10.0294681 C13.8304454,9.16190355 15.9261826,6.35129768 14.0300964,4.34327548 C12.0407844,2.23652393 10.1319199,2.81802014 9.41252366,5.32611623 Z"/>
</svg>
